G04*
G04 #@! TF.GenerationSoftware,Altium Limited,Altium Designer,22.0.2 (36)*
G04*
G04 Layer_Physical_Order=1*
G04 Layer_Color=255*
%FSLAX44Y44*%
%MOMM*%
G71*
G04*
G04 #@! TF.SameCoordinates,5839D2CD-8417-4FFE-AC2F-3A0E45452BBB*
G04*
G04*
G04 #@! TF.FilePolarity,Positive*
G04*
G01*
G75*
%ADD10C,0.4000*%
%ADD13C,0.3000*%
%ADD24C,1.9000*%
%ADD26R,1.9000X1.9000*%
%ADD35C,1.2000*%
%ADD44C,1.0000*%
%ADD45R,1.6000X1.6000*%
%ADD46C,1.6000*%
%ADD47R,1.6000X1.6000*%
%ADD48O,1.6000X2.0000*%
%ADD49R,1.6000X2.0000*%
%ADD50C,1.7000*%
%ADD51R,1.7000X1.7000*%
%ADD52R,1.7000X1.7000*%
%ADD53C,7.4000*%
%ADD54R,2.1000X2.1000*%
%ADD55C,2.1000*%
%ADD56C,3.5000*%
%ADD57R,3.5000X3.5000*%
%ADD58C,1.0000*%
%ADD59R,3.5000X3.5000*%
%ADD60R,2.2000X1.6000*%
%ADD61O,2.2000X1.6000*%
%ADD62O,1.3000X1.0000*%
%ADD63C,3.0000*%
%ADD64O,2.0000X1.6000*%
%ADD65R,2.0000X1.6000*%
%ADD66C,0.6000*%
G36*
X1590000Y260000D02*
X260000D01*
Y1290000D01*
X1590000D01*
Y260000D01*
D02*
G37*
%LPC*%
G36*
X659066Y1214250D02*
X656433D01*
X653890Y1213568D01*
X651610Y1212252D01*
X649748Y1210390D01*
X648431Y1208110D01*
X647750Y1205566D01*
Y1202934D01*
X648431Y1200390D01*
X649748Y1198110D01*
X651610Y1196248D01*
X653890Y1194931D01*
X656433Y1194250D01*
X659066D01*
X661610Y1194931D01*
X663890Y1196248D01*
X665752Y1198110D01*
X667068Y1200390D01*
X667750Y1202934D01*
Y1205566D01*
X667068Y1208110D01*
X665752Y1210390D01*
X663890Y1212252D01*
X661610Y1213568D01*
X659066Y1214250D01*
D02*
G37*
G36*
X780316Y1214000D02*
X777683D01*
X775140Y1213318D01*
X772860Y1212002D01*
X770998Y1210140D01*
X769681Y1207860D01*
X769000Y1205316D01*
Y1202683D01*
X769681Y1200140D01*
X770998Y1197860D01*
X772860Y1195998D01*
X775140Y1194681D01*
X777683Y1194000D01*
X780316D01*
X782860Y1194681D01*
X785140Y1195998D01*
X787002Y1197860D01*
X788318Y1200140D01*
X789000Y1202683D01*
Y1205316D01*
X788318Y1207860D01*
X787002Y1210140D01*
X785140Y1212002D01*
X782860Y1213318D01*
X780316Y1214000D01*
D02*
G37*
G36*
X690316D02*
X687683D01*
X685140Y1213318D01*
X682860Y1212002D01*
X680998Y1210140D01*
X679681Y1207860D01*
X679000Y1205316D01*
Y1202683D01*
X679681Y1200140D01*
X680998Y1197860D01*
X682860Y1195998D01*
X685140Y1194681D01*
X687683Y1194000D01*
X690316D01*
X692860Y1194681D01*
X695140Y1195998D01*
X697002Y1197860D01*
X698318Y1200140D01*
X699000Y1202683D01*
Y1205316D01*
X698318Y1207860D01*
X697002Y1210140D01*
X695140Y1212002D01*
X692860Y1213318D01*
X690316Y1214000D01*
D02*
G37*
G36*
X983817Y1213750D02*
X981183D01*
X978640Y1213068D01*
X976360Y1211752D01*
X974498Y1209890D01*
X973182Y1207610D01*
X972500Y1205067D01*
Y1202433D01*
X973182Y1199890D01*
X974498Y1197610D01*
X976360Y1195748D01*
X978640Y1194432D01*
X981183Y1193750D01*
X983817D01*
X986360Y1194432D01*
X988640Y1195748D01*
X990502Y1197610D01*
X991818Y1199890D01*
X992500Y1202433D01*
Y1205067D01*
X991818Y1207610D01*
X990502Y1209890D01*
X988640Y1211752D01*
X986360Y1213068D01*
X983817Y1213750D01*
D02*
G37*
G36*
X893817Y1213500D02*
X891183D01*
X888640Y1212819D01*
X886360Y1211502D01*
X884498Y1209640D01*
X883182Y1207360D01*
X882500Y1204817D01*
Y1202184D01*
X883182Y1199640D01*
X884498Y1197360D01*
X886360Y1195498D01*
X888640Y1194182D01*
X891183Y1193500D01*
X893817D01*
X896360Y1194182D01*
X898640Y1195498D01*
X900502Y1197360D01*
X901818Y1199640D01*
X902500Y1202184D01*
Y1204817D01*
X901818Y1207360D01*
X900502Y1209640D01*
X898640Y1211502D01*
X896360Y1212819D01*
X893817Y1213500D01*
D02*
G37*
G36*
X1158307Y1193260D02*
X1155674D01*
X1153130Y1192579D01*
X1150850Y1191262D01*
X1148988Y1189400D01*
X1147672Y1187120D01*
X1146990Y1184576D01*
Y1181944D01*
X1147672Y1179400D01*
X1148988Y1177120D01*
X1150850Y1175258D01*
X1153130Y1173941D01*
X1155674Y1173260D01*
X1158307D01*
X1160850Y1173941D01*
X1163130Y1175258D01*
X1164992Y1177120D01*
X1166309Y1179400D01*
X1166990Y1181944D01*
Y1184576D01*
X1166309Y1187120D01*
X1164992Y1189400D01*
X1163130Y1191262D01*
X1160850Y1192579D01*
X1158307Y1193260D01*
D02*
G37*
G36*
X1110000Y1181000D02*
X1090000D01*
Y1161000D01*
X1110000D01*
Y1181000D01*
D02*
G37*
G36*
X329500Y1194500D02*
X290500D01*
Y1155500D01*
X329500D01*
Y1194500D01*
D02*
G37*
G36*
X488913Y1166840D02*
X486807D01*
X484772Y1166295D01*
X482948Y1165242D01*
X481458Y1163752D01*
X480405Y1161928D01*
X479860Y1159893D01*
Y1157787D01*
X480405Y1155752D01*
X481458Y1153928D01*
X482948Y1152438D01*
X484772Y1151385D01*
X486807Y1150840D01*
X488913D01*
X490948Y1151385D01*
X492772Y1152438D01*
X494262Y1153928D01*
X495315Y1155752D01*
X495860Y1157787D01*
Y1159893D01*
X495315Y1161928D01*
X494262Y1163752D01*
X492772Y1165242D01*
X490948Y1166295D01*
X488913Y1166840D01*
D02*
G37*
G36*
X458913D02*
X456807D01*
X454772Y1166295D01*
X452948Y1165242D01*
X451458Y1163752D01*
X450405Y1161928D01*
X449860Y1159893D01*
Y1157787D01*
X450405Y1155752D01*
X451458Y1153928D01*
X452948Y1152438D01*
X454772Y1151385D01*
X456807Y1150840D01*
X458913D01*
X460948Y1151385D01*
X462772Y1152438D01*
X464262Y1153928D01*
X465315Y1155752D01*
X465860Y1157787D01*
Y1159893D01*
X465315Y1161928D01*
X464262Y1163752D01*
X462772Y1165242D01*
X460948Y1166295D01*
X458913Y1166840D01*
D02*
G37*
G36*
X1399566Y1169000D02*
X1396933D01*
X1394390Y1168318D01*
X1392110Y1167002D01*
X1390248Y1165140D01*
X1388931Y1162860D01*
X1388250Y1160316D01*
Y1157683D01*
X1388931Y1155140D01*
X1390248Y1152860D01*
X1392110Y1150998D01*
X1394390Y1149681D01*
X1396933Y1149000D01*
X1399566D01*
X1402110Y1149681D01*
X1404390Y1150998D01*
X1406252Y1152860D01*
X1407569Y1155140D01*
X1408250Y1157683D01*
Y1160316D01*
X1407569Y1162860D01*
X1406252Y1165140D01*
X1404390Y1167002D01*
X1402110Y1168318D01*
X1399566Y1169000D01*
D02*
G37*
G36*
X1277066D02*
X1274433D01*
X1271890Y1168318D01*
X1269610Y1167002D01*
X1267748Y1165140D01*
X1266432Y1162860D01*
X1265750Y1160316D01*
Y1157683D01*
X1266432Y1155140D01*
X1267748Y1152860D01*
X1269610Y1150998D01*
X1271890Y1149681D01*
X1274433Y1149000D01*
X1277066D01*
X1279610Y1149681D01*
X1281890Y1150998D01*
X1283752Y1152860D01*
X1285069Y1155140D01*
X1285750Y1157683D01*
Y1160316D01*
X1285069Y1162860D01*
X1283752Y1165140D01*
X1281890Y1167002D01*
X1279610Y1168318D01*
X1277066Y1169000D01*
D02*
G37*
G36*
X488913Y1138900D02*
X486807D01*
X484772Y1138355D01*
X482948Y1137302D01*
X481458Y1135812D01*
X480405Y1133988D01*
X479860Y1131953D01*
Y1129847D01*
X480405Y1127812D01*
X481458Y1125988D01*
X482948Y1124498D01*
X484772Y1123445D01*
X486807Y1122900D01*
X488913D01*
X490948Y1123445D01*
X492772Y1124498D01*
X494262Y1125988D01*
X495315Y1127812D01*
X495860Y1129847D01*
Y1131953D01*
X495315Y1133988D01*
X494262Y1135812D01*
X492772Y1137302D01*
X490948Y1138355D01*
X488913Y1138900D01*
D02*
G37*
G36*
X458913D02*
X456807D01*
X454772Y1138355D01*
X452948Y1137302D01*
X451458Y1135812D01*
X450405Y1133988D01*
X449860Y1131953D01*
Y1129847D01*
X450405Y1127812D01*
X451458Y1125988D01*
X452948Y1124498D01*
X454772Y1123445D01*
X456807Y1122900D01*
X458913D01*
X460948Y1123445D01*
X462772Y1124498D01*
X464262Y1125988D01*
X465315Y1127812D01*
X465860Y1129847D01*
Y1131953D01*
X465315Y1133988D01*
X464262Y1135812D01*
X462772Y1137302D01*
X460948Y1138355D01*
X458913Y1138900D01*
D02*
G37*
G36*
X736317Y1137500D02*
X733683D01*
X731140Y1136818D01*
X728860Y1135502D01*
X726998Y1133640D01*
X725682Y1131360D01*
X725000Y1128817D01*
Y1126183D01*
X725682Y1123640D01*
X726998Y1121360D01*
X728860Y1119498D01*
X731140Y1118182D01*
X733683Y1117500D01*
X736317D01*
X738860Y1118182D01*
X741140Y1119498D01*
X743002Y1121360D01*
X744318Y1123640D01*
X745000Y1126183D01*
Y1128817D01*
X744318Y1131360D01*
X743002Y1133640D01*
X741140Y1135502D01*
X738860Y1136818D01*
X736317Y1137500D01*
D02*
G37*
G36*
X611316D02*
X608684D01*
X606140Y1136818D01*
X603860Y1135502D01*
X601998Y1133640D01*
X600681Y1131360D01*
X600000Y1128817D01*
Y1126183D01*
X600681Y1123640D01*
X601998Y1121360D01*
X603860Y1119498D01*
X606140Y1118182D01*
X608684Y1117500D01*
X611316D01*
X613860Y1118182D01*
X616140Y1119498D01*
X618002Y1121360D01*
X619319Y1123640D01*
X620000Y1126183D01*
Y1128817D01*
X619319Y1131360D01*
X618002Y1133640D01*
X616140Y1135502D01*
X613860Y1136818D01*
X611316Y1137500D01*
D02*
G37*
G36*
X1126317Y1131000D02*
X1123683D01*
X1121140Y1130319D01*
X1118860Y1129002D01*
X1116998Y1127140D01*
X1115682Y1124860D01*
X1115000Y1122317D01*
Y1119684D01*
X1115682Y1117140D01*
X1116998Y1114860D01*
X1118860Y1112998D01*
X1121140Y1111682D01*
X1123683Y1111000D01*
X1126317D01*
X1128860Y1111682D01*
X1131140Y1112998D01*
X1133002Y1114860D01*
X1134318Y1117140D01*
X1135000Y1119684D01*
Y1122317D01*
X1134318Y1124860D01*
X1133002Y1127140D01*
X1131140Y1129002D01*
X1128860Y1130319D01*
X1126317Y1131000D01*
D02*
G37*
G36*
X311921Y1144500D02*
X308079D01*
X304312Y1143751D01*
X300763Y1142281D01*
X297570Y1140147D01*
X294853Y1137430D01*
X292719Y1134237D01*
X291249Y1130688D01*
X290500Y1126921D01*
Y1123079D01*
X291249Y1119312D01*
X292719Y1115763D01*
X294853Y1112570D01*
X297570Y1109853D01*
X300763Y1107719D01*
X304312Y1106249D01*
X308079Y1105500D01*
X311921D01*
X315688Y1106249D01*
X319237Y1107719D01*
X322430Y1109853D01*
X325147Y1112570D01*
X327281Y1115763D01*
X328751Y1119312D01*
X329500Y1123079D01*
Y1126921D01*
X328751Y1130688D01*
X327281Y1134237D01*
X325147Y1137430D01*
X322430Y1140147D01*
X319237Y1142281D01*
X315688Y1143751D01*
X311921Y1144500D01*
D02*
G37*
G36*
X1528921Y1142500D02*
X1525079D01*
X1521312Y1141751D01*
X1517763Y1140281D01*
X1514570Y1138147D01*
X1511853Y1135431D01*
X1509719Y1132237D01*
X1508249Y1128688D01*
X1507500Y1124921D01*
Y1121079D01*
X1508249Y1117312D01*
X1509719Y1113763D01*
X1511853Y1110570D01*
X1514570Y1107853D01*
X1517763Y1105719D01*
X1521312Y1104249D01*
X1525079Y1103500D01*
X1528921D01*
X1532688Y1104249D01*
X1536237Y1105719D01*
X1539431Y1107853D01*
X1542147Y1110570D01*
X1544281Y1113763D01*
X1545751Y1117312D01*
X1546500Y1121079D01*
Y1124921D01*
X1545751Y1128688D01*
X1544281Y1132237D01*
X1542147Y1135431D01*
X1539431Y1138147D01*
X1536237Y1140281D01*
X1532688Y1141751D01*
X1528921Y1142500D01*
D02*
G37*
G36*
X488913Y1110960D02*
X486807D01*
X484772Y1110415D01*
X482948Y1109362D01*
X481458Y1107872D01*
X480405Y1106048D01*
X479860Y1104013D01*
Y1101907D01*
X480405Y1099872D01*
X481458Y1098048D01*
X482948Y1096558D01*
X484772Y1095505D01*
X486807Y1094960D01*
X488913D01*
X490948Y1095505D01*
X492772Y1096558D01*
X494262Y1098048D01*
X495315Y1099872D01*
X495860Y1101907D01*
Y1104013D01*
X495315Y1106048D01*
X494262Y1107872D01*
X492772Y1109362D01*
X490948Y1110415D01*
X488913Y1110960D01*
D02*
G37*
G36*
X458913D02*
X456807D01*
X454772Y1110415D01*
X452948Y1109362D01*
X451458Y1107872D01*
X450405Y1106048D01*
X449860Y1104013D01*
Y1101907D01*
X450405Y1099872D01*
X451458Y1098048D01*
X452948Y1096558D01*
X454772Y1095505D01*
X456807Y1094960D01*
X458913D01*
X460948Y1095505D01*
X462772Y1096558D01*
X464262Y1098048D01*
X465315Y1099872D01*
X465860Y1101907D01*
Y1104013D01*
X465315Y1106048D01*
X464262Y1107872D01*
X462772Y1109362D01*
X460948Y1110415D01*
X458913Y1110960D01*
D02*
G37*
G36*
X1158307Y1103260D02*
X1155674D01*
X1153130Y1102579D01*
X1150850Y1101262D01*
X1148988Y1099400D01*
X1147672Y1097120D01*
X1146990Y1094576D01*
Y1091944D01*
X1147672Y1089400D01*
X1148988Y1087120D01*
X1150850Y1085258D01*
X1153130Y1083941D01*
X1155674Y1083260D01*
X1158307D01*
X1160850Y1083941D01*
X1163130Y1085258D01*
X1164992Y1087120D01*
X1166309Y1089400D01*
X1166990Y1091944D01*
Y1094576D01*
X1166309Y1097120D01*
X1164992Y1099400D01*
X1163130Y1101262D01*
X1160850Y1102579D01*
X1158307Y1103260D01*
D02*
G37*
G36*
X1414924Y1112250D02*
X1411576D01*
X1408291Y1111597D01*
X1405197Y1110315D01*
X1402413Y1108455D01*
X1400045Y1106087D01*
X1398185Y1103303D01*
X1396903Y1100209D01*
X1396250Y1096924D01*
Y1093576D01*
X1396903Y1090291D01*
X1398185Y1087197D01*
X1400045Y1084413D01*
X1402413Y1082045D01*
X1405197Y1080185D01*
X1408291Y1078903D01*
X1411576Y1078250D01*
X1414924D01*
X1418209Y1078903D01*
X1421302Y1080185D01*
X1424087Y1082045D01*
X1426455Y1084413D01*
X1428315Y1087197D01*
X1429597Y1090291D01*
X1430250Y1093576D01*
Y1096924D01*
X1429597Y1100209D01*
X1428315Y1103303D01*
X1426455Y1106087D01*
X1424087Y1108455D01*
X1421302Y1110315D01*
X1418209Y1111597D01*
X1414924Y1112250D01*
D02*
G37*
G36*
X1330200Y1092236D02*
X1326200D01*
X1323589Y1091893D01*
X1321157Y1090885D01*
X1319068Y1089282D01*
X1317465Y1087193D01*
X1316457Y1084761D01*
X1316114Y1082150D01*
X1316457Y1079539D01*
X1317465Y1077107D01*
X1319068Y1075018D01*
X1321157Y1073415D01*
X1323589Y1072407D01*
X1326200Y1072064D01*
X1330200D01*
X1332811Y1072407D01*
X1335243Y1073415D01*
X1337332Y1075018D01*
X1338935Y1077107D01*
X1339943Y1079539D01*
X1340286Y1082150D01*
X1339943Y1084761D01*
X1338935Y1087193D01*
X1337332Y1089282D01*
X1335243Y1090885D01*
X1332811Y1091893D01*
X1330200Y1092236D01*
D02*
G37*
G36*
X1191327Y1193260D02*
X1188693D01*
X1186150Y1192579D01*
X1183870Y1191262D01*
X1182008Y1189400D01*
X1180692Y1187120D01*
X1180010Y1184576D01*
Y1181944D01*
X1180692Y1179400D01*
X1182008Y1177120D01*
X1183870Y1175258D01*
X1186150Y1173941D01*
X1188693Y1173260D01*
X1191327D01*
X1193626Y1173876D01*
X1269922Y1097581D01*
Y1078439D01*
X1257575Y1066093D01*
X1256610Y1066493D01*
X1254000Y1066836D01*
X1250000D01*
X1247390Y1066493D01*
X1244957Y1065485D01*
X1243348Y1064251D01*
X1242078Y1064861D01*
Y1068461D01*
X1246425Y1072807D01*
X1247390Y1072407D01*
X1250000Y1072064D01*
X1254000D01*
X1256610Y1072407D01*
X1259043Y1073415D01*
X1261132Y1075018D01*
X1262735Y1077107D01*
X1263743Y1079539D01*
X1264086Y1082150D01*
X1263743Y1084761D01*
X1262735Y1087193D01*
X1261132Y1089282D01*
X1259043Y1090885D01*
X1256610Y1091893D01*
X1254000Y1092236D01*
X1250000D01*
X1247390Y1091893D01*
X1244957Y1090885D01*
X1242868Y1089282D01*
X1241265Y1087193D01*
X1240257Y1084761D01*
X1239914Y1082150D01*
X1240257Y1079539D01*
X1240657Y1078575D01*
X1235116Y1073034D01*
X1234232Y1071711D01*
X1233922Y1070150D01*
X1233922Y1070150D01*
Y1051780D01*
X1233922Y1051779D01*
X1234232Y1050219D01*
X1235116Y1048896D01*
X1243468Y1040544D01*
X1243666Y1040191D01*
X1243701Y1039121D01*
X1242868Y1038482D01*
X1241265Y1036393D01*
X1240257Y1033960D01*
X1239914Y1031350D01*
X1240257Y1028739D01*
X1241265Y1026307D01*
X1242868Y1024218D01*
X1244957Y1022615D01*
X1247390Y1021607D01*
X1250000Y1021264D01*
X1254000D01*
X1256610Y1021607D01*
X1257575Y1022007D01*
X1261922Y1017661D01*
Y988661D01*
X1260652Y988051D01*
X1259043Y989285D01*
X1256610Y990293D01*
X1254000Y990636D01*
X1250000D01*
X1247390Y990293D01*
X1244957Y989285D01*
X1242868Y987682D01*
X1241265Y985593D01*
X1240257Y983160D01*
X1239914Y980550D01*
X1240257Y977940D01*
X1241265Y975507D01*
X1242868Y973418D01*
X1244957Y971815D01*
X1247390Y970807D01*
X1250000Y970464D01*
X1254000D01*
X1256610Y970807D01*
X1259043Y971815D01*
X1260652Y973049D01*
X1261922Y972439D01*
Y963261D01*
X1260652Y962651D01*
X1259043Y963885D01*
X1256610Y964893D01*
X1254000Y965236D01*
X1250000D01*
X1247390Y964893D01*
X1244957Y963885D01*
X1242868Y962282D01*
X1241265Y960193D01*
X1240257Y957760D01*
X1239914Y955150D01*
X1240257Y952540D01*
X1241265Y950107D01*
X1242868Y948018D01*
X1244957Y946415D01*
X1247390Y945407D01*
X1250000Y945064D01*
X1254000D01*
X1256610Y945407D01*
X1259043Y946415D01*
X1260652Y947649D01*
X1261922Y947039D01*
Y943439D01*
X1257575Y939093D01*
X1256610Y939493D01*
X1254000Y939836D01*
X1250000D01*
X1247390Y939493D01*
X1244957Y938485D01*
X1242868Y936882D01*
X1241265Y934793D01*
X1240257Y932361D01*
X1239914Y929750D01*
X1240257Y927140D01*
X1241265Y924707D01*
X1242868Y922618D01*
X1244957Y921015D01*
X1247390Y920007D01*
X1250000Y919664D01*
X1254000D01*
X1256610Y920007D01*
X1259043Y921015D01*
X1261132Y922618D01*
X1262735Y924707D01*
X1263743Y927140D01*
X1264086Y929750D01*
X1263743Y932361D01*
X1263343Y933325D01*
X1268884Y938866D01*
X1268884Y938866D01*
X1269768Y940189D01*
X1270078Y941750D01*
Y1019350D01*
X1269768Y1020911D01*
X1268884Y1022234D01*
X1268884Y1022234D01*
X1263343Y1027775D01*
X1263743Y1028739D01*
X1264007Y1030750D01*
X1265337Y1031216D01*
X1282922Y1013631D01*
Y929689D01*
X1193116Y839884D01*
X1192232Y838561D01*
X1191922Y837000D01*
X1191922Y837000D01*
Y769175D01*
X1176246Y753499D01*
X1175362Y752176D01*
X1175052Y750615D01*
X1175052Y750615D01*
Y703819D01*
X1147116Y675884D01*
X1146232Y674561D01*
X1145922Y673000D01*
X1145922Y673000D01*
Y665993D01*
X1145761Y665832D01*
X1145000Y663995D01*
Y662005D01*
X1145761Y660168D01*
X1147168Y658761D01*
X1149005Y658000D01*
X1150995D01*
X1152832Y658761D01*
X1154239Y660168D01*
X1155000Y662005D01*
Y663995D01*
X1154239Y665832D01*
X1154078Y665993D01*
Y671311D01*
X1161878Y679111D01*
X1163052Y678625D01*
Y637842D01*
X1160990Y636652D01*
X1159128Y634790D01*
X1157938Y632728D01*
X1142032D01*
X1140842Y634790D01*
X1138980Y636652D01*
X1136700Y637968D01*
X1134156Y638650D01*
X1131524D01*
X1128980Y637968D01*
X1126700Y636652D01*
X1124838Y634790D01*
X1123521Y632510D01*
X1122840Y629967D01*
Y627333D01*
X1123521Y624790D01*
X1124838Y622510D01*
X1126700Y620648D01*
X1128980Y619332D01*
X1131524Y618650D01*
X1134156D01*
X1136700Y619332D01*
X1138980Y620648D01*
X1140842Y622510D01*
X1142032Y624572D01*
X1157938D01*
X1159128Y622510D01*
X1160990Y620648D01*
X1163270Y619332D01*
X1165814Y618650D01*
X1168447D01*
X1170990Y619332D01*
X1173270Y620648D01*
X1175132Y622510D01*
X1176449Y624790D01*
X1177130Y627333D01*
Y629967D01*
X1176449Y632510D01*
X1175132Y634790D01*
X1173270Y636652D01*
X1171208Y637842D01*
Y679324D01*
X1188014Y696130D01*
X1188898Y697453D01*
X1189208Y699014D01*
X1189208Y699014D01*
Y746441D01*
X1231550Y788782D01*
X1233132Y788568D01*
X1233777Y787728D01*
X1234737Y786991D01*
X1234811Y786821D01*
Y785619D01*
X1234737Y785449D01*
X1233777Y784712D01*
X1232655Y783250D01*
X1231950Y781547D01*
X1231710Y779720D01*
X1231950Y777893D01*
X1232655Y776190D01*
X1233777Y774727D01*
X1235240Y773605D01*
X1236943Y772900D01*
X1238770Y772660D01*
X1241770D01*
X1243597Y772900D01*
X1245300Y773605D01*
X1246762Y774727D01*
X1247884Y776190D01*
X1248590Y777893D01*
X1248830Y779720D01*
X1248590Y781547D01*
X1247884Y783250D01*
X1246762Y784712D01*
X1245803Y785449D01*
X1245729Y785619D01*
Y786821D01*
X1245803Y786991D01*
X1246762Y787728D01*
X1247884Y789190D01*
X1248590Y790893D01*
X1248830Y792720D01*
X1248590Y794547D01*
X1247884Y796250D01*
X1246762Y797712D01*
X1245300Y798834D01*
X1244348Y799229D01*
Y851610D01*
X1307884Y915146D01*
X1307884Y915146D01*
X1308768Y916469D01*
X1309078Y918029D01*
Y928518D01*
X1315027Y934466D01*
X1316200Y933980D01*
Y919750D01*
X1340200D01*
Y939750D01*
X1339334D01*
X1338808Y941020D01*
X1351084Y953296D01*
X1351968Y954619D01*
X1352278Y956179D01*
Y1027350D01*
X1351968Y1028911D01*
X1351084Y1030234D01*
X1351084Y1030234D01*
X1347084Y1034234D01*
X1345761Y1035118D01*
X1344200Y1035428D01*
X1344200Y1035428D01*
X1339335D01*
X1338935Y1036393D01*
X1337332Y1038482D01*
X1335243Y1040085D01*
X1332811Y1041093D01*
X1330200Y1041436D01*
X1326200D01*
X1323589Y1041093D01*
X1321157Y1040085D01*
X1319548Y1038851D01*
X1318278Y1039461D01*
Y1043061D01*
X1322625Y1047407D01*
X1323589Y1047007D01*
X1326200Y1046664D01*
X1330200D01*
X1332811Y1047007D01*
X1335243Y1048015D01*
X1337332Y1049618D01*
X1338935Y1051707D01*
X1339943Y1054139D01*
X1340286Y1056750D01*
X1339943Y1059361D01*
X1338935Y1061793D01*
X1337332Y1063882D01*
X1335243Y1065485D01*
X1332811Y1066493D01*
X1330200Y1066836D01*
X1326200D01*
X1323589Y1066493D01*
X1321157Y1065485D01*
X1319068Y1063882D01*
X1317465Y1061793D01*
X1316457Y1059361D01*
X1316114Y1056750D01*
X1316457Y1054139D01*
X1316857Y1053175D01*
X1311316Y1047634D01*
X1310432Y1046311D01*
X1310122Y1044750D01*
X1310122Y1044750D01*
Y1026380D01*
X1310122Y1026379D01*
X1310432Y1024819D01*
X1311316Y1023496D01*
X1319046Y1015766D01*
X1319046Y1015766D01*
X1319812Y1015254D01*
X1319958Y1013791D01*
X1319944Y1013755D01*
X1319068Y1013082D01*
X1317465Y1010993D01*
X1316457Y1008560D01*
X1316114Y1005950D01*
X1316457Y1003339D01*
X1317465Y1000907D01*
X1319068Y998818D01*
X1321157Y997215D01*
X1323589Y996207D01*
X1326200Y995864D01*
X1330200D01*
X1332811Y996207D01*
X1335243Y997215D01*
X1336852Y998449D01*
X1338122Y997839D01*
Y988661D01*
X1336852Y988051D01*
X1335243Y989285D01*
X1332811Y990293D01*
X1330200Y990636D01*
X1326200D01*
X1323589Y990293D01*
X1321157Y989285D01*
X1319068Y987682D01*
X1317465Y985593D01*
X1317065Y984628D01*
X1308550D01*
X1308550Y984628D01*
X1306989Y984318D01*
X1305666Y983434D01*
X1305666Y983434D01*
X1292252Y970019D01*
X1291078Y970505D01*
Y1015320D01*
X1291078Y1015321D01*
X1290768Y1016881D01*
X1289884Y1018204D01*
X1289884Y1018204D01*
X1261854Y1046234D01*
X1260531Y1047118D01*
X1260078Y1047208D01*
X1259761Y1048566D01*
X1261132Y1049618D01*
X1262735Y1051707D01*
X1263743Y1054139D01*
X1264086Y1056750D01*
X1263743Y1059361D01*
X1263343Y1060325D01*
X1276884Y1073866D01*
X1276884Y1073866D01*
X1277768Y1075189D01*
X1278078Y1076750D01*
Y1099270D01*
X1278078Y1099270D01*
X1277768Y1100831D01*
X1276884Y1102154D01*
X1276884Y1102154D01*
X1199394Y1179644D01*
X1200010Y1181944D01*
Y1184576D01*
X1199329Y1187120D01*
X1198012Y1189400D01*
X1196150Y1191262D01*
X1193870Y1192579D01*
X1191327Y1193260D01*
D02*
G37*
G36*
X488913Y1083020D02*
X486807D01*
X484772Y1082475D01*
X482948Y1081422D01*
X481458Y1079932D01*
X480405Y1078108D01*
X479860Y1076073D01*
Y1073967D01*
X480405Y1071932D01*
X481458Y1070108D01*
X482948Y1068618D01*
X484772Y1067565D01*
X486807Y1067020D01*
X488913D01*
X490948Y1067565D01*
X492772Y1068618D01*
X494262Y1070108D01*
X495315Y1071932D01*
X495860Y1073967D01*
Y1076073D01*
X495315Y1078108D01*
X494262Y1079932D01*
X492772Y1081422D01*
X490948Y1082475D01*
X488913Y1083020D01*
D02*
G37*
G36*
X458913D02*
X456807D01*
X454772Y1082475D01*
X452948Y1081422D01*
X451458Y1079932D01*
X450405Y1078108D01*
X449860Y1076073D01*
Y1073967D01*
X450405Y1071932D01*
X451458Y1070108D01*
X452948Y1068618D01*
X454772Y1067565D01*
X456807Y1067020D01*
X458913D01*
X460948Y1067565D01*
X462772Y1068618D01*
X464262Y1070108D01*
X465315Y1071932D01*
X465860Y1073967D01*
Y1076073D01*
X465315Y1078108D01*
X464262Y1079932D01*
X462772Y1081422D01*
X460948Y1082475D01*
X458913Y1083020D01*
D02*
G37*
G36*
X937776Y1029240D02*
X935144D01*
X932600Y1028559D01*
X930320Y1027242D01*
X928458Y1025380D01*
X927141Y1023100D01*
X926460Y1020556D01*
Y1017924D01*
X927141Y1015380D01*
X928458Y1013100D01*
X930320Y1011238D01*
X932600Y1009921D01*
X935144Y1009240D01*
X937776D01*
X940320Y1009921D01*
X942600Y1011238D01*
X944462Y1013100D01*
X945779Y1015380D01*
X946460Y1017924D01*
Y1020556D01*
X945779Y1023100D01*
X944462Y1025380D01*
X942600Y1027242D01*
X940320Y1028559D01*
X937776Y1029240D01*
D02*
G37*
G36*
X903486D02*
X900854D01*
X898310Y1028559D01*
X896030Y1027242D01*
X894168Y1025380D01*
X892851Y1023100D01*
X892170Y1020556D01*
Y1017924D01*
X892851Y1015380D01*
X894168Y1013100D01*
X896030Y1011238D01*
X898310Y1009921D01*
X900854Y1009240D01*
X903486D01*
X906030Y1009921D01*
X908310Y1011238D01*
X910172Y1013100D01*
X911488Y1015380D01*
X912170Y1017924D01*
Y1020556D01*
X911488Y1023100D01*
X910172Y1025380D01*
X908310Y1027242D01*
X906030Y1028559D01*
X903486Y1029240D01*
D02*
G37*
G36*
X869196D02*
X866563D01*
X864020Y1028559D01*
X861740Y1027242D01*
X859878Y1025380D01*
X858561Y1023100D01*
X857880Y1020556D01*
Y1017924D01*
X858561Y1015380D01*
X859878Y1013100D01*
X861740Y1011238D01*
X864020Y1009921D01*
X866563Y1009240D01*
X869196D01*
X871740Y1009921D01*
X874020Y1011238D01*
X875882Y1013100D01*
X877198Y1015380D01*
X877880Y1017924D01*
Y1020556D01*
X877198Y1023100D01*
X875882Y1025380D01*
X874020Y1027242D01*
X871740Y1028559D01*
X869196Y1029240D01*
D02*
G37*
G36*
X1191327Y1026890D02*
X1188693D01*
X1186150Y1026208D01*
X1183870Y1024892D01*
X1182008Y1023030D01*
X1180692Y1020750D01*
X1180010Y1018206D01*
Y1015574D01*
X1180692Y1013030D01*
X1182008Y1010750D01*
X1183870Y1008888D01*
X1186150Y1007571D01*
X1188693Y1006890D01*
X1191327D01*
X1193870Y1007571D01*
X1196150Y1008888D01*
X1198012Y1010750D01*
X1199329Y1013030D01*
X1200010Y1015574D01*
Y1018206D01*
X1199329Y1020750D01*
X1198012Y1023030D01*
X1196150Y1024892D01*
X1193870Y1026208D01*
X1191327Y1026890D01*
D02*
G37*
G36*
X1158307D02*
X1155674D01*
X1153130Y1026208D01*
X1150850Y1024892D01*
X1148988Y1023030D01*
X1147672Y1020750D01*
X1146990Y1018206D01*
Y1015574D01*
X1147672Y1013030D01*
X1148988Y1010750D01*
X1150850Y1008888D01*
X1153130Y1007571D01*
X1155674Y1006890D01*
X1158307D01*
X1160850Y1007571D01*
X1163130Y1008888D01*
X1164992Y1010750D01*
X1166309Y1013030D01*
X1166990Y1015574D01*
Y1018206D01*
X1166309Y1020750D01*
X1164992Y1023030D01*
X1163130Y1024892D01*
X1160850Y1026208D01*
X1158307Y1026890D01*
D02*
G37*
G36*
X1092266Y1026890D02*
X1089633D01*
X1087090Y1026208D01*
X1084810Y1024892D01*
X1082948Y1023030D01*
X1081631Y1020750D01*
X1080950Y1018206D01*
Y1015574D01*
X1081631Y1013030D01*
X1082948Y1010750D01*
X1084810Y1008888D01*
X1087090Y1007571D01*
X1089633Y1006890D01*
X1092266D01*
X1094810Y1007571D01*
X1097090Y1008888D01*
X1098952Y1010750D01*
X1100268Y1013030D01*
X1100950Y1015574D01*
Y1018206D01*
X1100268Y1020750D01*
X1098952Y1023030D01*
X1097090Y1024892D01*
X1094810Y1026208D01*
X1092266Y1026890D01*
D02*
G37*
G36*
X386050Y1042640D02*
X347050D01*
Y1003640D01*
X386050D01*
Y1042640D01*
D02*
G37*
G36*
X308471D02*
X304629D01*
X300862Y1041891D01*
X297313Y1040421D01*
X294119Y1038287D01*
X291403Y1035571D01*
X289269Y1032377D01*
X287799Y1028828D01*
X287050Y1025061D01*
Y1021219D01*
X287799Y1017452D01*
X289269Y1013903D01*
X291403Y1010710D01*
X294119Y1007993D01*
X297313Y1005859D01*
X300862Y1004389D01*
X304629Y1003640D01*
X308471D01*
X312238Y1004389D01*
X315787Y1005859D01*
X318981Y1007993D01*
X321697Y1010710D01*
X323831Y1013903D01*
X325301Y1017452D01*
X326050Y1021219D01*
Y1025061D01*
X325301Y1028828D01*
X323831Y1032377D01*
X321697Y1035571D01*
X318981Y1038287D01*
X315787Y1040421D01*
X312238Y1041891D01*
X308471Y1042640D01*
D02*
G37*
G36*
X736317Y1010000D02*
X733683D01*
X731140Y1009318D01*
X728860Y1008002D01*
X726998Y1006140D01*
X725682Y1003860D01*
X725000Y1001317D01*
Y998683D01*
X725682Y996140D01*
X726998Y993860D01*
X728860Y991998D01*
X731140Y990682D01*
X733683Y990000D01*
X736317D01*
X738860Y990682D01*
X741140Y991998D01*
X743002Y993860D01*
X744318Y996140D01*
X745000Y998683D01*
Y1001317D01*
X744318Y1003860D01*
X743002Y1006140D01*
X741140Y1008002D01*
X738860Y1009318D01*
X736317Y1010000D01*
D02*
G37*
G36*
X611316D02*
X608684D01*
X606140Y1009318D01*
X603860Y1008002D01*
X601998Y1006140D01*
X600681Y1003860D01*
X600000Y1001317D01*
Y998683D01*
X600681Y996140D01*
X601998Y993860D01*
X603860Y991998D01*
X606140Y990682D01*
X608684Y990000D01*
X611316D01*
X613860Y990682D01*
X616140Y991998D01*
X618002Y993860D01*
X619319Y996140D01*
X620000Y998683D01*
Y1001317D01*
X619319Y1003860D01*
X618002Y1006140D01*
X616140Y1008002D01*
X613860Y1009318D01*
X611316Y1010000D01*
D02*
G37*
G36*
X488816D02*
X486184D01*
X483640Y1009318D01*
X481360Y1008002D01*
X479498Y1006140D01*
X478181Y1003860D01*
X477500Y1001317D01*
Y998683D01*
X478181Y996140D01*
X479498Y993860D01*
X481360Y991998D01*
X483640Y990682D01*
X486184Y990000D01*
X488816D01*
X491360Y990682D01*
X493640Y991998D01*
X495502Y993860D01*
X496819Y996140D01*
X497500Y998683D01*
Y1001317D01*
X496819Y1003860D01*
X495502Y1006140D01*
X493640Y1008002D01*
X491360Y1009318D01*
X488816Y1010000D01*
D02*
G37*
G36*
X1490817Y979750D02*
X1488183D01*
X1485640Y979069D01*
X1483360Y977752D01*
X1481498Y975890D01*
X1480181Y973610D01*
X1479500Y971067D01*
Y968433D01*
X1480181Y965890D01*
X1481498Y963610D01*
X1483360Y961748D01*
X1485640Y960432D01*
X1488183Y959750D01*
X1490817D01*
X1493360Y960432D01*
X1495640Y961748D01*
X1497502Y963610D01*
X1498819Y965890D01*
X1499500Y968433D01*
Y971067D01*
X1498819Y973610D01*
X1497502Y975890D01*
X1495640Y977752D01*
X1493360Y979069D01*
X1490817Y979750D01*
D02*
G37*
G36*
X1458316D02*
X1455683D01*
X1453140Y979069D01*
X1450860Y977752D01*
X1448998Y975890D01*
X1447681Y973610D01*
X1447000Y971067D01*
Y968433D01*
X1447681Y965890D01*
X1448998Y963610D01*
X1450860Y961748D01*
X1453140Y960432D01*
X1455683Y959750D01*
X1458316D01*
X1460860Y960432D01*
X1463140Y961748D01*
X1465002Y963610D01*
X1466319Y965890D01*
X1467000Y968433D01*
Y971067D01*
X1466319Y973610D01*
X1465002Y975890D01*
X1463140Y977752D01*
X1460860Y979069D01*
X1458316Y979750D01*
D02*
G37*
G36*
X1560750Y963800D02*
X1534750D01*
Y943800D01*
X1560750D01*
Y963800D01*
D02*
G37*
G36*
X368471Y982640D02*
X364629D01*
X360862Y981891D01*
X357313Y980421D01*
X354119Y978287D01*
X351403Y975571D01*
X349269Y972377D01*
X347799Y968828D01*
X347050Y965061D01*
Y961219D01*
X347799Y957452D01*
X349269Y953903D01*
X351403Y950710D01*
X354119Y947993D01*
X357313Y945859D01*
X360862Y944389D01*
X364629Y943640D01*
X368471D01*
X372238Y944389D01*
X375787Y945859D01*
X378980Y947993D01*
X381697Y950710D01*
X383831Y953903D01*
X385301Y957452D01*
X386050Y961219D01*
Y965061D01*
X385301Y968828D01*
X383831Y972377D01*
X381697Y975571D01*
X378980Y978287D01*
X375787Y980421D01*
X372238Y981891D01*
X368471Y982640D01*
D02*
G37*
G36*
X903486Y939240D02*
X900854D01*
X898310Y938559D01*
X896030Y937242D01*
X894168Y935380D01*
X892851Y933100D01*
X892170Y930556D01*
Y927924D01*
X892851Y925380D01*
X894168Y923100D01*
X896030Y921238D01*
X898310Y919921D01*
X900854Y919240D01*
X903486D01*
X906030Y919921D01*
X908310Y921238D01*
X910172Y923100D01*
X911488Y925380D01*
X912170Y927924D01*
Y930556D01*
X911488Y933100D01*
X910172Y935380D01*
X908310Y937242D01*
X906030Y938559D01*
X903486Y939240D01*
D02*
G37*
G36*
X869196D02*
X866563D01*
X864020Y938559D01*
X861740Y937242D01*
X859878Y935380D01*
X858561Y933100D01*
X857880Y930556D01*
Y927924D01*
X858561Y925380D01*
X859878Y923100D01*
X861740Y921238D01*
X864020Y919921D01*
X866563Y919240D01*
X869196D01*
X871740Y919921D01*
X874020Y921238D01*
X875882Y923100D01*
X877198Y925380D01*
X877880Y927924D01*
Y930556D01*
X877198Y933100D01*
X875882Y935380D01*
X874020Y937242D01*
X871740Y938559D01*
X869196Y939240D01*
D02*
G37*
G36*
X964630Y1102670D02*
X961630D01*
X959803Y1102430D01*
X958100Y1101724D01*
X956638Y1100602D01*
X955516Y1099140D01*
X954810Y1097437D01*
X954570Y1095610D01*
X954810Y1093783D01*
X955516Y1092080D01*
X956638Y1090618D01*
X957597Y1089881D01*
X957671Y1089711D01*
Y1088509D01*
X957597Y1088339D01*
X956638Y1087602D01*
X955516Y1086140D01*
X954810Y1084437D01*
X954570Y1082610D01*
X954810Y1080783D01*
X955516Y1079080D01*
X956638Y1077618D01*
X957597Y1076881D01*
X957671Y1076711D01*
Y1075509D01*
X957597Y1075339D01*
X956638Y1074602D01*
X955516Y1073140D01*
X954810Y1071437D01*
X954570Y1069610D01*
X954810Y1067783D01*
X955516Y1066080D01*
X956638Y1064618D01*
X958100Y1063495D01*
X959803Y1062790D01*
X961630Y1062550D01*
X964630D01*
X966457Y1062790D01*
X968160Y1063495D01*
X969622Y1064618D01*
X970744Y1066080D01*
X971450Y1067783D01*
X971501Y1068175D01*
X972842Y1068630D01*
X983000Y1058472D01*
Y951921D01*
X983000Y951921D01*
X983311Y950360D01*
X984195Y949037D01*
X1000616Y932616D01*
X1000000Y930317D01*
Y927683D01*
X1000682Y925140D01*
X1001998Y922860D01*
X1003860Y920998D01*
X1006140Y919681D01*
X1008683Y919000D01*
X1011317D01*
X1013860Y919681D01*
X1016140Y920998D01*
X1018002Y922860D01*
X1019318Y925140D01*
X1020000Y927683D01*
Y930317D01*
X1019318Y932860D01*
X1018002Y935140D01*
X1016140Y937002D01*
X1013860Y938318D01*
X1011317Y939000D01*
X1008683D01*
X1006384Y938384D01*
X991157Y953611D01*
Y1060161D01*
X991157Y1060161D01*
X990847Y1061722D01*
X989963Y1063045D01*
X989963Y1063045D01*
X971540Y1081468D01*
X971690Y1082610D01*
X971450Y1084437D01*
X970744Y1086140D01*
X969622Y1087602D01*
X968663Y1088339D01*
X968589Y1088509D01*
Y1089711D01*
X968663Y1089881D01*
X969622Y1090618D01*
X970744Y1092080D01*
X971450Y1093783D01*
X971690Y1095610D01*
X971450Y1097437D01*
X970744Y1099140D01*
X969622Y1100602D01*
X968160Y1101724D01*
X966457Y1102430D01*
X964630Y1102670D01*
D02*
G37*
G36*
X973316Y939000D02*
X970684D01*
X968140Y938318D01*
X965860Y937002D01*
X963998Y935140D01*
X962682Y932860D01*
X962000Y930317D01*
Y927683D01*
X962682Y925140D01*
X963998Y922860D01*
X965860Y920998D01*
X968140Y919681D01*
X970684Y919000D01*
X973316D01*
X975860Y919681D01*
X978140Y920998D01*
X980002Y922860D01*
X981319Y925140D01*
X982000Y927683D01*
Y930317D01*
X981319Y932860D01*
X980002Y935140D01*
X978140Y937002D01*
X975860Y938318D01*
X973316Y939000D01*
D02*
G37*
G36*
X1550750Y938486D02*
X1544750D01*
X1542139Y938143D01*
X1539707Y937135D01*
X1537618Y935532D01*
X1536015Y933443D01*
X1535007Y931011D01*
X1534664Y928400D01*
X1535007Y925789D01*
X1536015Y923357D01*
X1537618Y921268D01*
X1539707Y919665D01*
X1542139Y918657D01*
X1544750Y918314D01*
X1550750D01*
X1553360Y918657D01*
X1555793Y919665D01*
X1557882Y921268D01*
X1559485Y923357D01*
X1560493Y925789D01*
X1560836Y928400D01*
X1560493Y931011D01*
X1559485Y933443D01*
X1557882Y935532D01*
X1555793Y937135D01*
X1553360Y938143D01*
X1550750Y938486D01*
D02*
G37*
G36*
X1191327Y936890D02*
X1188693D01*
X1186150Y936208D01*
X1183870Y934892D01*
X1182008Y933030D01*
X1180692Y930750D01*
X1180010Y928207D01*
Y925574D01*
X1180626Y923274D01*
X1078602Y821250D01*
X1078005D01*
X1076168Y820489D01*
X1074761Y819082D01*
X1074000Y817245D01*
Y815255D01*
X1074761Y813418D01*
X1076168Y812011D01*
X1078005Y811250D01*
X1079995D01*
X1081832Y812011D01*
X1083239Y813418D01*
X1083899Y815011D01*
X1186394Y917506D01*
X1188693Y916890D01*
X1191327D01*
X1193870Y917571D01*
X1196150Y918888D01*
X1198012Y920750D01*
X1199329Y923030D01*
X1200010Y925574D01*
Y928207D01*
X1199329Y930750D01*
X1198012Y933030D01*
X1196150Y934892D01*
X1193870Y936208D01*
X1191327Y936890D01*
D02*
G37*
G36*
X1216995Y1142000D02*
X1215005D01*
X1213168Y1141239D01*
X1211761Y1139832D01*
X1211000Y1137995D01*
Y1137710D01*
X1210232Y1136561D01*
X1209922Y1135000D01*
X1209922Y1135000D01*
Y1010763D01*
X1154106Y954948D01*
X1153222Y953624D01*
X1152912Y952064D01*
X1152912Y952064D01*
Y936082D01*
X1150850Y934892D01*
X1148988Y933030D01*
X1147672Y930750D01*
X1146990Y928207D01*
Y925574D01*
X1147672Y923030D01*
X1148988Y920750D01*
X1150850Y918888D01*
X1153130Y917571D01*
X1155674Y916890D01*
X1158307D01*
X1160850Y917571D01*
X1163130Y918888D01*
X1164992Y920750D01*
X1166309Y923030D01*
X1166990Y925574D01*
Y928207D01*
X1166309Y930750D01*
X1164992Y933030D01*
X1163130Y934892D01*
X1161068Y936082D01*
Y950374D01*
X1216884Y1006190D01*
X1216884Y1006190D01*
X1217768Y1007513D01*
X1218078Y1009074D01*
Y1132449D01*
X1218832Y1132761D01*
X1220239Y1134168D01*
X1221000Y1136005D01*
Y1137995D01*
X1220239Y1139832D01*
X1218832Y1141239D01*
X1216995Y1142000D01*
D02*
G37*
G36*
X1125286Y936890D02*
X1122654D01*
X1120110Y936208D01*
X1117830Y934892D01*
X1115968Y933030D01*
X1114651Y930750D01*
X1113970Y928207D01*
Y925574D01*
X1114651Y923030D01*
X1115968Y920750D01*
X1117830Y918888D01*
X1120110Y917571D01*
X1122654Y916890D01*
X1125286D01*
X1127830Y917571D01*
X1130110Y918888D01*
X1131972Y920750D01*
X1133288Y923030D01*
X1133970Y925574D01*
Y928207D01*
X1133288Y930750D01*
X1131972Y933030D01*
X1130110Y934892D01*
X1127830Y936208D01*
X1125286Y936890D01*
D02*
G37*
G36*
X1092266Y936890D02*
X1089633D01*
X1087090Y936208D01*
X1084810Y934892D01*
X1082948Y933030D01*
X1081631Y930750D01*
X1080950Y928206D01*
Y925574D01*
X1081631Y923030D01*
X1082948Y920750D01*
X1084810Y918888D01*
X1087090Y917571D01*
X1089633Y916890D01*
X1092266D01*
X1094810Y917571D01*
X1097090Y918888D01*
X1098952Y920750D01*
X1100268Y923030D01*
X1100950Y925574D01*
Y928206D01*
X1100268Y930750D01*
X1098952Y933030D01*
X1097090Y934892D01*
X1094810Y936208D01*
X1092266Y936890D01*
D02*
G37*
G36*
X1385995Y959000D02*
X1384005D01*
X1382168Y958239D01*
X1380761Y956832D01*
X1380000Y954995D01*
Y953005D01*
X1380761Y951168D01*
X1382168Y949761D01*
X1383469Y949222D01*
X1420788Y911903D01*
X1420069Y910826D01*
X1418209Y911597D01*
X1414924Y912250D01*
X1411576D01*
X1408291Y911597D01*
X1405197Y910315D01*
X1402413Y908455D01*
X1400045Y906087D01*
X1398185Y903303D01*
X1396903Y900209D01*
X1396250Y896924D01*
Y893576D01*
X1396903Y890291D01*
X1398185Y887197D01*
X1400045Y884413D01*
X1402413Y882045D01*
X1405197Y880185D01*
X1408291Y878903D01*
X1411576Y878250D01*
X1414924D01*
X1418209Y878903D01*
X1421302Y880185D01*
X1424087Y882045D01*
X1426455Y884413D01*
X1428315Y887197D01*
X1429597Y890291D01*
X1430250Y893576D01*
Y896924D01*
X1429597Y900209D01*
X1428826Y902069D01*
X1429903Y902788D01*
X1448194Y884497D01*
X1447681Y883610D01*
X1447000Y881067D01*
Y878433D01*
X1447681Y875890D01*
X1448998Y873610D01*
X1450860Y871748D01*
X1453140Y870432D01*
X1455683Y869750D01*
X1458316D01*
X1460860Y870432D01*
X1463140Y871748D01*
X1465002Y873610D01*
X1466319Y875890D01*
X1467000Y878433D01*
Y881067D01*
X1466319Y883610D01*
X1465002Y885890D01*
X1463140Y887752D01*
X1460860Y889069D01*
X1458316Y889750D01*
X1455683D01*
X1454732Y889495D01*
X1390000Y954227D01*
Y954995D01*
X1389239Y956832D01*
X1387832Y958239D01*
X1385995Y959000D01*
D02*
G37*
G36*
X1550750Y913086D02*
X1544750D01*
X1542139Y912743D01*
X1539707Y911735D01*
X1537618Y910132D01*
X1536015Y908043D01*
X1535007Y905611D01*
X1534664Y903000D01*
X1535007Y900389D01*
X1536015Y897957D01*
X1537618Y895868D01*
X1539707Y894265D01*
X1542139Y893257D01*
X1544750Y892914D01*
X1550750D01*
X1553360Y893257D01*
X1555793Y894265D01*
X1557882Y895868D01*
X1559485Y897957D01*
X1560493Y900389D01*
X1560836Y903000D01*
X1560493Y905611D01*
X1559485Y908043D01*
X1557882Y910132D01*
X1555793Y911735D01*
X1553360Y912743D01*
X1550750Y913086D01*
D02*
G37*
G36*
X901803Y1091250D02*
X899697D01*
X897662Y1090705D01*
X895838Y1089652D01*
X894348Y1088162D01*
X893295Y1086338D01*
X892750Y1084303D01*
Y1082197D01*
X893295Y1080162D01*
X894348Y1078338D01*
X895838Y1076848D01*
X897662Y1075795D01*
X899697Y1075250D01*
X901803D01*
X902733Y1075499D01*
X914144Y1064088D01*
Y947478D01*
X914144Y947478D01*
X914454Y945917D01*
X915339Y944594D01*
X927076Y932856D01*
X926460Y930556D01*
Y927924D01*
X927141Y925380D01*
X928458Y923100D01*
X930320Y921238D01*
X932382Y920048D01*
Y896149D01*
X904311Y868078D01*
X758993D01*
X758832Y868239D01*
X756995Y869000D01*
X755005D01*
X753168Y868239D01*
X751761Y866832D01*
X751000Y864995D01*
Y863005D01*
X751761Y861168D01*
X753168Y859761D01*
X755005Y859000D01*
X756995D01*
X758832Y859761D01*
X758993Y859922D01*
X906000D01*
X906000Y859922D01*
X907561Y860232D01*
X908884Y861116D01*
X939344Y891576D01*
X940228Y892899D01*
X940538Y894460D01*
X940538Y894460D01*
Y920048D01*
X942600Y921238D01*
X944462Y923100D01*
X945779Y925380D01*
X946460Y927924D01*
Y930556D01*
X945779Y933100D01*
X944462Y935380D01*
X942600Y937242D01*
X940320Y938559D01*
X937776Y939240D01*
X935144D01*
X932844Y938624D01*
X922301Y949167D01*
Y1065778D01*
X922301Y1065778D01*
X921990Y1067338D01*
X921106Y1068661D01*
X921106Y1068661D01*
X908501Y1081267D01*
X908750Y1082197D01*
Y1084303D01*
X908205Y1086338D01*
X907152Y1088162D01*
X905662Y1089652D01*
X903838Y1090705D01*
X901803Y1091250D01*
D02*
G37*
G36*
X1562157Y1283578D02*
X1562157Y1283578D01*
X316500D01*
X314939Y1283268D01*
X313616Y1282384D01*
X313616Y1282384D01*
X267116Y1235884D01*
X266232Y1234561D01*
X265922Y1233000D01*
X265922Y1233000D01*
Y642250D01*
X265922Y642250D01*
X266232Y640689D01*
X267116Y639366D01*
X289366Y617116D01*
X289366Y617116D01*
X290689Y616232D01*
X292250Y615922D01*
X402651D01*
X416066Y602506D01*
X415450Y600206D01*
Y597574D01*
X416132Y595030D01*
X417448Y592750D01*
X418056Y592142D01*
X417570Y590968D01*
X404849D01*
X400544Y595274D01*
X401160Y597574D01*
Y600206D01*
X400479Y602750D01*
X399162Y605030D01*
X397300Y606892D01*
X395020Y608209D01*
X392477Y608890D01*
X389843D01*
X387300Y608209D01*
X385020Y606892D01*
X383158Y605030D01*
X381842Y602750D01*
X381160Y600206D01*
Y597574D01*
X381842Y595030D01*
X383158Y592750D01*
X385020Y590888D01*
X387300Y589571D01*
X389843Y588890D01*
X392477D01*
X394776Y589506D01*
X400276Y584006D01*
X400276Y584006D01*
X401599Y583122D01*
X403160Y582812D01*
X447740D01*
X447740Y582812D01*
X449301Y583122D01*
X450624Y584006D01*
X456124Y589506D01*
X458424Y588890D01*
X461057D01*
X463600Y589571D01*
X465880Y590888D01*
X467742Y592750D01*
X469058Y595030D01*
X469740Y597574D01*
Y600206D01*
X469058Y602750D01*
X467742Y605030D01*
X465880Y606892D01*
X463600Y608209D01*
X461057Y608890D01*
X458424D01*
X455880Y608209D01*
X453600Y606892D01*
X451738Y605030D01*
X450421Y602750D01*
X449740Y600206D01*
Y597574D01*
X450356Y595274D01*
X446051Y590968D01*
X433330D01*
X432844Y592142D01*
X433452Y592750D01*
X434768Y595030D01*
X435450Y597574D01*
Y600206D01*
X434768Y602750D01*
X433452Y605030D01*
X431590Y606892D01*
X429310Y608209D01*
X426767Y608890D01*
X424133D01*
X421834Y608274D01*
X407224Y622884D01*
X405901Y623768D01*
X404340Y624078D01*
X404340Y624078D01*
X293939D01*
X274078Y643939D01*
Y1231311D01*
X318189Y1275422D01*
X1560468D01*
X1577922Y1257968D01*
Y873939D01*
X1560811Y856828D01*
X1551633D01*
X1551152Y857662D01*
X1549662Y859152D01*
X1547838Y860205D01*
X1545803Y860750D01*
X1543697D01*
X1541662Y860205D01*
X1539838Y859152D01*
X1538348Y857662D01*
X1537295Y855838D01*
X1536750Y853803D01*
Y851697D01*
X1537295Y849662D01*
X1538348Y847838D01*
X1539838Y846348D01*
X1541662Y845295D01*
X1543697Y844750D01*
X1545803D01*
X1547838Y845295D01*
X1549662Y846348D01*
X1551152Y847838D01*
X1551633Y848672D01*
X1562500D01*
X1562500Y848672D01*
X1564061Y848982D01*
X1565384Y849866D01*
X1584884Y869366D01*
X1584884Y869366D01*
X1585768Y870689D01*
X1586078Y872250D01*
Y1259657D01*
X1586078Y1259657D01*
X1585768Y1261218D01*
X1584884Y1262541D01*
X1584884Y1262541D01*
X1565041Y1282384D01*
X1563718Y1283268D01*
X1563459Y1283319D01*
X1562157Y1283578D01*
D02*
G37*
G36*
X993995Y821250D02*
X992005D01*
X990168Y820489D01*
X990007Y820328D01*
X808750D01*
X807189Y820018D01*
X805866Y819134D01*
X805866Y819134D01*
X641616Y654884D01*
X640732Y653561D01*
X640422Y652000D01*
X640422Y652000D01*
Y580993D01*
X639761Y580332D01*
X639000Y578495D01*
Y576505D01*
X639761Y574668D01*
X641168Y573261D01*
X643005Y572500D01*
X644995D01*
X646832Y573261D01*
X648239Y574668D01*
X649000Y576505D01*
Y578495D01*
X648578Y579512D01*
Y650311D01*
X810439Y812172D01*
X990007D01*
X990168Y812011D01*
X992005Y811250D01*
X993995D01*
X995832Y812011D01*
X997239Y813418D01*
X998000Y815255D01*
Y817245D01*
X997239Y819082D01*
X995832Y820489D01*
X993995Y821250D01*
D02*
G37*
G36*
X1516317Y830000D02*
X1513683D01*
X1511140Y829318D01*
X1508860Y828002D01*
X1506998Y826140D01*
X1505681Y823860D01*
X1505000Y821317D01*
Y818683D01*
X1505681Y816140D01*
X1506998Y813860D01*
X1508860Y811998D01*
X1511140Y810682D01*
X1513683Y810000D01*
X1516317D01*
X1518860Y810682D01*
X1521140Y811998D01*
X1523002Y813860D01*
X1524319Y816140D01*
X1525000Y818683D01*
Y821317D01*
X1524319Y823860D01*
X1523002Y826140D01*
X1521140Y828002D01*
X1518860Y829318D01*
X1516317Y830000D01*
D02*
G37*
G36*
X1426317D02*
X1423683D01*
X1421140Y829318D01*
X1418860Y828002D01*
X1416998Y826140D01*
X1415681Y823860D01*
X1415000Y821317D01*
Y818683D01*
X1415681Y816140D01*
X1416998Y813860D01*
X1418860Y811998D01*
X1421140Y810682D01*
X1423683Y810000D01*
X1426317D01*
X1428860Y810682D01*
X1431140Y811998D01*
X1433002Y813860D01*
X1434319Y816140D01*
X1435000Y818683D01*
Y821317D01*
X1434319Y823860D01*
X1433002Y826140D01*
X1431140Y828002D01*
X1428860Y829318D01*
X1426317Y830000D01*
D02*
G37*
G36*
X426767Y815730D02*
X424133D01*
X421590Y815049D01*
X419310Y813732D01*
X417448Y811870D01*
X416258Y809808D01*
X400352D01*
X399162Y811870D01*
X397300Y813732D01*
X395020Y815049D01*
X392477Y815730D01*
X389843D01*
X387300Y815049D01*
X385020Y813732D01*
X383158Y811870D01*
X381842Y809590D01*
X381160Y807047D01*
Y804414D01*
X381842Y801870D01*
X383158Y799590D01*
X385020Y797728D01*
X387300Y796412D01*
X389843Y795730D01*
X392477D01*
X395020Y796412D01*
X397300Y797728D01*
X399162Y799590D01*
X400352Y801652D01*
X416258D01*
X417448Y799590D01*
X419310Y797728D01*
X421590Y796412D01*
X424133Y795730D01*
X426767D01*
X429310Y796412D01*
X431590Y797728D01*
X433452Y799590D01*
X434642Y801652D01*
X450548D01*
X451738Y799590D01*
X453600Y797728D01*
X455880Y796412D01*
X458424Y795730D01*
X461057D01*
X463600Y796412D01*
X465880Y797728D01*
X467742Y799590D01*
X469058Y801870D01*
X469740Y804414D01*
Y807047D01*
X469058Y809590D01*
X467742Y811870D01*
X465880Y813732D01*
X463600Y815049D01*
X461057Y815730D01*
X458424D01*
X455880Y815049D01*
X453600Y813732D01*
X451738Y811870D01*
X450548Y809808D01*
X434642D01*
X433452Y811870D01*
X431590Y813732D01*
X429310Y815049D01*
X426767Y815730D01*
D02*
G37*
G36*
X1225995Y1005000D02*
X1224005D01*
X1222168Y1004239D01*
X1220761Y1002832D01*
X1220000Y1000995D01*
Y999005D01*
X1220761Y997168D01*
X1220922Y997007D01*
Y931689D01*
X1095232Y806000D01*
X1095005D01*
X1093168Y805239D01*
X1091761Y803832D01*
X1091000Y801995D01*
Y800005D01*
X1091761Y798168D01*
X1093168Y796761D01*
X1095005Y796000D01*
X1096995D01*
X1098832Y796761D01*
X1100239Y798168D01*
X1101000Y800005D01*
Y800232D01*
X1227884Y927116D01*
X1228768Y928439D01*
X1229078Y930000D01*
X1229078Y930000D01*
Y997007D01*
X1229239Y997168D01*
X1230000Y999005D01*
Y1000995D01*
X1229239Y1002832D01*
X1227832Y1004239D01*
X1225995Y1005000D01*
D02*
G37*
G36*
X1163817Y815000D02*
X1161183D01*
X1158640Y814318D01*
X1156360Y813002D01*
X1154498Y811140D01*
X1153182Y808860D01*
X1152500Y806317D01*
Y803683D01*
X1153182Y801140D01*
X1154498Y798860D01*
X1156360Y796998D01*
X1158640Y795682D01*
X1161183Y795000D01*
X1163817D01*
X1166360Y795682D01*
X1168640Y796998D01*
X1170502Y798860D01*
X1171818Y801140D01*
X1172500Y803683D01*
Y806317D01*
X1171818Y808860D01*
X1170502Y811140D01*
X1168640Y813002D01*
X1166360Y814318D01*
X1163817Y815000D01*
D02*
G37*
G36*
X754000Y810000D02*
X734000D01*
Y790000D01*
X754000D01*
Y810000D01*
D02*
G37*
G36*
X954316Y808000D02*
X951684D01*
X949140Y807318D01*
X946860Y806002D01*
X944998Y804140D01*
X943681Y801860D01*
X943000Y799316D01*
Y796684D01*
X943681Y794140D01*
X944998Y791860D01*
X946860Y789998D01*
X949140Y788681D01*
X951684Y788000D01*
X954316D01*
X956860Y788681D01*
X959140Y789998D01*
X961002Y791860D01*
X962318Y794140D01*
X963000Y796684D01*
Y799316D01*
X962318Y801860D01*
X961002Y804140D01*
X959140Y806002D01*
X956860Y807318D01*
X954316Y808000D01*
D02*
G37*
G36*
X864316D02*
X861684D01*
X859140Y807318D01*
X856860Y806002D01*
X854998Y804140D01*
X853681Y801860D01*
X853000Y799316D01*
Y796684D01*
X853681Y794140D01*
X854998Y791860D01*
X856860Y789998D01*
X859140Y788681D01*
X861684Y788000D01*
X864316D01*
X866860Y788681D01*
X869140Y789998D01*
X871002Y791860D01*
X872318Y794140D01*
X873000Y796684D01*
Y799316D01*
X872318Y801860D01*
X871002Y804140D01*
X869140Y806002D01*
X866860Y807318D01*
X864316Y808000D01*
D02*
G37*
G36*
X349590Y796630D02*
X328590D01*
Y775630D01*
X349590D01*
Y796630D01*
D02*
G37*
G36*
X1284950Y800080D02*
X1281950D01*
X1280123Y799840D01*
X1278420Y799134D01*
X1276957Y798012D01*
X1275835Y796550D01*
X1275130Y794847D01*
X1274890Y793020D01*
X1275130Y791193D01*
X1275835Y789490D01*
X1276957Y788027D01*
X1277917Y787291D01*
X1277991Y787121D01*
Y785919D01*
X1277917Y785749D01*
X1276957Y785012D01*
X1275835Y783550D01*
X1275130Y781847D01*
X1274890Y780020D01*
X1275130Y778193D01*
X1275835Y776490D01*
X1276957Y775027D01*
X1278420Y773905D01*
X1280123Y773200D01*
X1281950Y772960D01*
X1284950D01*
X1286777Y773200D01*
X1288480Y773905D01*
X1289942Y775027D01*
X1291064Y776490D01*
X1291770Y778193D01*
X1292010Y780020D01*
X1291770Y781847D01*
X1291064Y783550D01*
X1289942Y785012D01*
X1288983Y785749D01*
X1288909Y785919D01*
Y787121D01*
X1288983Y787291D01*
X1289942Y788027D01*
X1291064Y789490D01*
X1291770Y791193D01*
X1292010Y793020D01*
X1291770Y794847D01*
X1291064Y796550D01*
X1289942Y798012D01*
X1288480Y799134D01*
X1286777Y799840D01*
X1284950Y800080D01*
D02*
G37*
G36*
X1018750Y911560D02*
X1016923Y911320D01*
X1015220Y910614D01*
X1013758Y909492D01*
X961326Y857060D01*
X531250D01*
X529423Y856820D01*
X527720Y856115D01*
X526258Y854992D01*
X500008Y828743D01*
X498885Y827280D01*
X498180Y825577D01*
X497940Y823750D01*
Y786424D01*
X479305Y767790D01*
X346879D01*
X345537Y769132D01*
X343143Y770514D01*
X340472Y771230D01*
X337708D01*
X335037Y770514D01*
X332643Y769132D01*
X330688Y767177D01*
X329306Y764783D01*
X328590Y762112D01*
Y759348D01*
X329306Y756677D01*
X330688Y754283D01*
X332643Y752328D01*
X335037Y750946D01*
X337708Y750230D01*
X340472D01*
X343143Y750946D01*
X345537Y752328D01*
X346879Y753670D01*
X482230D01*
X484057Y753910D01*
X485760Y754615D01*
X487222Y755738D01*
X509992Y778508D01*
X511115Y779970D01*
X511820Y781673D01*
X512060Y783500D01*
Y820826D01*
X534174Y842940D01*
X964250D01*
X966077Y843180D01*
X967780Y843885D01*
X969242Y845008D01*
X1023743Y899508D01*
X1024865Y900970D01*
X1025570Y902673D01*
X1025810Y904500D01*
X1025570Y906327D01*
X1024865Y908030D01*
X1023743Y909492D01*
X1022280Y910614D01*
X1020577Y911320D01*
X1018750Y911560D01*
D02*
G37*
G36*
X558900Y786200D02*
X534900D01*
Y766200D01*
X558900D01*
Y786200D01*
D02*
G37*
G36*
X625100Y786286D02*
X621100D01*
X618489Y785943D01*
X616057Y784935D01*
X613968Y783332D01*
X612365Y781243D01*
X611357Y778811D01*
X611014Y776200D01*
X611357Y773589D01*
X612365Y771157D01*
X613968Y769068D01*
X616057Y767465D01*
X618489Y766457D01*
X621100Y766114D01*
X625100D01*
X627710Y766457D01*
X630143Y767465D01*
X632232Y769068D01*
X633835Y771157D01*
X634843Y773589D01*
X635186Y776200D01*
X634843Y778811D01*
X633835Y781243D01*
X632232Y783332D01*
X630143Y784935D01*
X627710Y785943D01*
X625100Y786286D01*
D02*
G37*
G36*
X695316Y785000D02*
X692683D01*
X690140Y784318D01*
X687860Y783002D01*
X685998Y781140D01*
X684681Y778860D01*
X684000Y776317D01*
Y773683D01*
X684681Y771140D01*
X685998Y768860D01*
X687860Y766998D01*
X690140Y765682D01*
X692683Y765000D01*
X695316D01*
X697860Y765682D01*
X700140Y766998D01*
X702002Y768860D01*
X703318Y771140D01*
X704000Y773683D01*
Y776317D01*
X703318Y778860D01*
X702002Y781140D01*
X700140Y783002D01*
X697860Y784318D01*
X695316Y785000D01*
D02*
G37*
G36*
X1471146Y775000D02*
X1467854D01*
X1464675Y774148D01*
X1461825Y772503D01*
X1459498Y770175D01*
X1457852Y767325D01*
X1457000Y764146D01*
Y760854D01*
X1457852Y757675D01*
X1459498Y754825D01*
X1461825Y752497D01*
X1464675Y750852D01*
X1467854Y750000D01*
X1471146D01*
X1474325Y750852D01*
X1477175Y752497D01*
X1479503Y754825D01*
X1481148Y757675D01*
X1482000Y760854D01*
Y764146D01*
X1481148Y767325D01*
X1479503Y770175D01*
X1477175Y772503D01*
X1474325Y774148D01*
X1471146Y775000D01*
D02*
G37*
G36*
X625100Y760886D02*
X621100D01*
X618489Y760543D01*
X616057Y759535D01*
X613968Y757932D01*
X612365Y755843D01*
X611357Y753410D01*
X611014Y750800D01*
X611357Y748189D01*
X612365Y745757D01*
X613968Y743668D01*
X616057Y742065D01*
X618489Y741057D01*
X621100Y740714D01*
X625100D01*
X627710Y741057D01*
X630143Y742065D01*
X632232Y743668D01*
X633835Y745757D01*
X634843Y748189D01*
X635186Y750800D01*
X634843Y753410D01*
X633835Y755843D01*
X632232Y757932D01*
X630143Y759535D01*
X627710Y760543D01*
X625100Y760886D01*
D02*
G37*
G36*
X548900D02*
X544900D01*
X542290Y760543D01*
X539857Y759535D01*
X537768Y757932D01*
X536165Y755843D01*
X535157Y753410D01*
X534814Y750800D01*
X535157Y748189D01*
X536165Y745757D01*
X537768Y743668D01*
X539857Y742065D01*
X542290Y741057D01*
X544900Y740714D01*
X548900D01*
X551511Y741057D01*
X553943Y742065D01*
X556032Y743668D01*
X557635Y745757D01*
X558643Y748189D01*
X558986Y750800D01*
X558643Y753410D01*
X557635Y755843D01*
X556032Y757932D01*
X553943Y759535D01*
X551511Y760543D01*
X548900Y760886D01*
D02*
G37*
G36*
X1531146Y755000D02*
X1527854D01*
X1524675Y754148D01*
X1521825Y752503D01*
X1519498Y750175D01*
X1517852Y747325D01*
X1517000Y744146D01*
Y740854D01*
X1517852Y737675D01*
X1519498Y734825D01*
X1521825Y732497D01*
X1524675Y730852D01*
X1527854Y730000D01*
X1531146D01*
X1534325Y730852D01*
X1537175Y732497D01*
X1539503Y734825D01*
X1541148Y737675D01*
X1542000Y740854D01*
Y744146D01*
X1541148Y747325D01*
X1539503Y750175D01*
X1537175Y752503D01*
X1534325Y754148D01*
X1531146Y755000D01*
D02*
G37*
G36*
X1422000D02*
X1397000D01*
Y730000D01*
X1422000D01*
Y755000D01*
D02*
G37*
G36*
X757682Y742770D02*
X755838D01*
X754058Y742293D01*
X752462Y741371D01*
X751159Y740068D01*
X750237Y738472D01*
X749760Y736692D01*
Y734848D01*
X750237Y733068D01*
X751159Y731472D01*
X752462Y730169D01*
X754058Y729247D01*
X755838Y728770D01*
X757682D01*
X759462Y729247D01*
X761058Y730169D01*
X762361Y731472D01*
X763283Y733068D01*
X763760Y734848D01*
Y736692D01*
X763283Y738472D01*
X762361Y740068D01*
X761058Y741371D01*
X759462Y742293D01*
X757682Y742770D01*
D02*
G37*
G36*
X625100Y735486D02*
X621100D01*
X618489Y735143D01*
X616057Y734135D01*
X613968Y732532D01*
X612365Y730443D01*
X611357Y728010D01*
X611014Y725400D01*
X611357Y722790D01*
X612365Y720357D01*
X613968Y718268D01*
X616057Y716665D01*
X618489Y715657D01*
X621100Y715314D01*
X625100D01*
X627710Y715657D01*
X630143Y716665D01*
X632232Y718268D01*
X633835Y720357D01*
X634843Y722790D01*
X635186Y725400D01*
X634843Y728010D01*
X633835Y730443D01*
X632232Y732532D01*
X630143Y734135D01*
X627710Y735143D01*
X625100Y735486D01*
D02*
G37*
G36*
X934790Y741130D02*
X931790D01*
X929963Y740890D01*
X928260Y740184D01*
X926798Y739062D01*
X925676Y737600D01*
X924970Y735897D01*
X924730Y734070D01*
X924970Y732243D01*
X925676Y730540D01*
X926798Y729078D01*
X927757Y728341D01*
X927831Y728171D01*
Y726969D01*
X927757Y726799D01*
X926798Y726062D01*
X925676Y724600D01*
X924970Y722897D01*
X924730Y721070D01*
X924970Y719243D01*
X925676Y717540D01*
X926798Y716078D01*
X928260Y714956D01*
X929963Y714250D01*
X931790Y714010D01*
X934790D01*
X936617Y714250D01*
X938320Y714956D01*
X939782Y716078D01*
X940904Y717540D01*
X941610Y719243D01*
X941850Y721070D01*
X941610Y722897D01*
X940904Y724600D01*
X939782Y726062D01*
X938823Y726799D01*
X938749Y726969D01*
Y728171D01*
X938823Y728341D01*
X939782Y729078D01*
X940904Y730540D01*
X941610Y732243D01*
X941850Y734070D01*
X941610Y735897D01*
X940904Y737600D01*
X939782Y739062D01*
X938320Y740184D01*
X936617Y740890D01*
X934790Y741130D01*
D02*
G37*
G36*
X805250D02*
X802250D01*
X800423Y740890D01*
X798720Y740184D01*
X797258Y739062D01*
X796135Y737600D01*
X795430Y735897D01*
X795190Y734070D01*
X795430Y732243D01*
X796135Y730540D01*
X797258Y729078D01*
X798217Y728341D01*
X798291Y728171D01*
Y726969D01*
X798217Y726799D01*
X797258Y726062D01*
X796135Y724600D01*
X795430Y722897D01*
X795190Y721070D01*
X795430Y719243D01*
X796135Y717540D01*
X797258Y716078D01*
X798720Y714956D01*
X800423Y714250D01*
X802250Y714010D01*
X805250D01*
X807077Y714250D01*
X808780Y714956D01*
X810242Y716078D01*
X811365Y717540D01*
X812070Y719243D01*
X812310Y721070D01*
X812070Y722897D01*
X811365Y724600D01*
X810242Y726062D01*
X809283Y726799D01*
X809209Y726969D01*
Y728171D01*
X809283Y728341D01*
X810242Y729078D01*
X811365Y730540D01*
X812070Y732243D01*
X812310Y734070D01*
X812070Y735897D01*
X811365Y737600D01*
X810242Y739062D01*
X808780Y740184D01*
X807077Y740890D01*
X805250Y741130D01*
D02*
G37*
G36*
X1305607Y728820D02*
X1302973D01*
X1300430Y728139D01*
X1298150Y726822D01*
X1296288Y724960D01*
X1294971Y722680D01*
X1294290Y720136D01*
Y717504D01*
X1294971Y714960D01*
X1296288Y712680D01*
X1298150Y710818D01*
X1300430Y709501D01*
X1302973Y708820D01*
X1305607D01*
X1308150Y709501D01*
X1310430Y710818D01*
X1312292Y712680D01*
X1313609Y714960D01*
X1314290Y717504D01*
Y720136D01*
X1313609Y722680D01*
X1312292Y724960D01*
X1310430Y726822D01*
X1308150Y728139D01*
X1305607Y728820D01*
D02*
G37*
G36*
X1271317D02*
X1268683D01*
X1266140Y728139D01*
X1263860Y726822D01*
X1261998Y724960D01*
X1260682Y722680D01*
X1260000Y720136D01*
Y717504D01*
X1260682Y714960D01*
X1261998Y712680D01*
X1263860Y710818D01*
X1266140Y709501D01*
X1268683Y708820D01*
X1271317D01*
X1273860Y709501D01*
X1276140Y710818D01*
X1278002Y712680D01*
X1279318Y714960D01*
X1280000Y717504D01*
Y720136D01*
X1279318Y722680D01*
X1278002Y724960D01*
X1276140Y726822D01*
X1273860Y728139D01*
X1271317Y728820D01*
D02*
G37*
G36*
X1202737D02*
X1200104D01*
X1197560Y728139D01*
X1195280Y726822D01*
X1193418Y724960D01*
X1192102Y722680D01*
X1191420Y720136D01*
Y717504D01*
X1192102Y714960D01*
X1193418Y712680D01*
X1195280Y710818D01*
X1197560Y709501D01*
X1200104Y708820D01*
X1202737D01*
X1205280Y709501D01*
X1207560Y710818D01*
X1209422Y712680D01*
X1210739Y714960D01*
X1211420Y717504D01*
Y720136D01*
X1210739Y722680D01*
X1209422Y724960D01*
X1207560Y726822D01*
X1205280Y728139D01*
X1202737Y728820D01*
D02*
G37*
G36*
X1007810Y1102670D02*
X1004810D01*
X1002983Y1102430D01*
X1001280Y1101724D01*
X999818Y1100602D01*
X998696Y1099140D01*
X997990Y1097437D01*
X997750Y1095610D01*
X997990Y1093783D01*
X998696Y1092080D01*
X999818Y1090618D01*
X1000777Y1089881D01*
X1000851Y1089711D01*
Y1088509D01*
X1000777Y1088339D01*
X999818Y1087602D01*
X998696Y1086140D01*
X997990Y1084437D01*
X997750Y1082610D01*
X997990Y1080783D01*
X998696Y1079080D01*
X999818Y1077618D01*
X1000777Y1076881D01*
X1000851Y1076711D01*
Y1075509D01*
X1000777Y1075339D01*
X999818Y1074602D01*
X998696Y1073140D01*
X997990Y1071437D01*
X997750Y1069610D01*
X997990Y1067783D01*
X998696Y1066080D01*
X999818Y1064618D01*
X1001280Y1063495D01*
X1002983Y1062790D01*
X1003169Y1062766D01*
X1034690Y1031245D01*
Y704675D01*
X996405Y666390D01*
X960202D01*
X959716Y667564D01*
X960342Y668190D01*
X961658Y670470D01*
X962340Y673014D01*
Y675647D01*
X961658Y678190D01*
X960342Y680470D01*
X958480Y682332D01*
X956200Y683649D01*
X953656Y684330D01*
X951023D01*
X948480Y683649D01*
X946200Y682332D01*
X944338Y680470D01*
X943021Y678190D01*
X942340Y675647D01*
Y673014D01*
X943021Y670470D01*
X944338Y668190D01*
X944964Y667564D01*
X944478Y666390D01*
X937718D01*
X928393Y675715D01*
X927819Y677860D01*
X926502Y680140D01*
X924640Y682002D01*
X922360Y683318D01*
X919817Y684000D01*
X917184D01*
X914640Y683318D01*
X912360Y682002D01*
X911583Y681225D01*
X891007D01*
X889900Y682332D01*
X887620Y683649D01*
X885077Y684330D01*
X882443D01*
X879900Y683649D01*
X878864Y683050D01*
X878084Y684066D01*
X882439Y688422D01*
X888768D01*
X888768Y688422D01*
X890329Y688732D01*
X891652Y689616D01*
X903494Y701458D01*
X903494Y701458D01*
X904378Y702781D01*
X904688Y704342D01*
Y725070D01*
X904688Y725070D01*
X904378Y726631D01*
X903494Y727954D01*
X903494Y727954D01*
X898520Y732928D01*
X898670Y734070D01*
X898430Y735897D01*
X897725Y737600D01*
X896602Y739062D01*
X895140Y740184D01*
X893437Y740890D01*
X891610Y741130D01*
X888610D01*
X886783Y740890D01*
X885080Y740184D01*
X883618Y739062D01*
X882495Y737600D01*
X881790Y735897D01*
X881550Y734070D01*
X881790Y732243D01*
X882495Y730540D01*
X883618Y729078D01*
X884577Y728341D01*
X884651Y728171D01*
Y726969D01*
X884577Y726799D01*
X883618Y726062D01*
X882495Y724600D01*
X881790Y722897D01*
X881550Y721070D01*
X881790Y719243D01*
X882495Y717540D01*
X883618Y716078D01*
X885080Y714956D01*
X886783Y714250D01*
X888610Y714010D01*
X891610D01*
X893437Y714250D01*
X895140Y714956D01*
X895393Y715149D01*
X896532Y714587D01*
Y706031D01*
X887079Y696578D01*
X880750D01*
X880750Y696578D01*
X879189Y696268D01*
X877866Y695384D01*
X877866Y695384D01*
X868876Y686394D01*
X867992Y685071D01*
X867682Y683510D01*
X867682Y683510D01*
Y656644D01*
X867682Y656644D01*
X867992Y655083D01*
X868876Y653760D01*
X914422Y608215D01*
Y593192D01*
X912360Y592002D01*
X910498Y590140D01*
X909182Y587860D01*
X908500Y585317D01*
Y582683D01*
X909182Y580140D01*
X910498Y577860D01*
X912360Y575998D01*
X914640Y574682D01*
X917184Y574000D01*
X919817D01*
X922360Y574682D01*
X924640Y575998D01*
X926502Y577860D01*
X927819Y580140D01*
X928500Y582683D01*
Y585317D01*
X927819Y587860D01*
X926502Y590140D01*
X924640Y592002D01*
X922578Y593192D01*
Y609904D01*
X922578Y609904D01*
X922268Y611465D01*
X921384Y612788D01*
X875838Y658333D01*
Y666450D01*
X877012Y666936D01*
X877620Y666328D01*
X879900Y665012D01*
X882443Y664330D01*
X885077D01*
X887620Y665012D01*
X889900Y666328D01*
X890677Y667105D01*
X911253D01*
X912360Y665998D01*
X914640Y664681D01*
X917184Y664000D01*
X919817D01*
X920071Y664068D01*
X929801Y654338D01*
X931263Y653215D01*
X932966Y652510D01*
X934794Y652270D01*
X999330D01*
X1001157Y652510D01*
X1002860Y653215D01*
X1004323Y654338D01*
X1033516Y683531D01*
X1034690Y683045D01*
Y627560D01*
Y598675D01*
X962326Y526310D01*
X453955D01*
X453469Y527484D01*
X491992Y566008D01*
X493115Y567470D01*
X493820Y569173D01*
X494060Y571000D01*
Y627340D01*
X493820Y629167D01*
X493115Y630870D01*
X491992Y632332D01*
X435450Y688875D01*
Y690207D01*
X434768Y692750D01*
X433452Y695030D01*
X432510Y695972D01*
Y708648D01*
X433452Y709590D01*
X434768Y711870D01*
X435343Y714015D01*
X444998Y723670D01*
X451878D01*
X452364Y722496D01*
X451738Y721870D01*
X450421Y719590D01*
X449740Y717047D01*
Y714414D01*
X450421Y711870D01*
X451738Y709590D01*
X453600Y707728D01*
X455880Y706412D01*
X458424Y705730D01*
X461057D01*
X463600Y706412D01*
X465880Y707728D01*
X467742Y709590D01*
X469058Y711870D01*
X469740Y714414D01*
Y717047D01*
X469058Y719590D01*
X467742Y721870D01*
X467116Y722496D01*
X467602Y723670D01*
X511245D01*
X534826Y700090D01*
X534814Y700000D01*
X535157Y697390D01*
X536165Y694957D01*
X537768Y692868D01*
X539857Y691265D01*
X542290Y690257D01*
X544900Y689914D01*
X548900D01*
X551511Y690257D01*
X553943Y691265D01*
X556032Y692868D01*
X557635Y694957D01*
X558643Y697390D01*
X558986Y700000D01*
X558643Y702610D01*
X557635Y705043D01*
X556032Y707132D01*
X553943Y708735D01*
X551511Y709743D01*
X548900Y710086D01*
X544900D01*
X544810Y710074D01*
X539409Y715476D01*
X540128Y716553D01*
X542290Y715657D01*
X544900Y715314D01*
X548900D01*
X551511Y715657D01*
X553943Y716665D01*
X556032Y718268D01*
X557635Y720357D01*
X558643Y722790D01*
X558986Y725400D01*
X558643Y728010D01*
X557635Y730443D01*
X556032Y732532D01*
X553943Y734135D01*
X551511Y735143D01*
X548900Y735486D01*
X544900D01*
X542290Y735143D01*
X539857Y734135D01*
X537768Y732532D01*
X536165Y730443D01*
X535157Y728010D01*
X534814Y725400D01*
X535157Y722790D01*
X536053Y720628D01*
X534976Y719909D01*
X519162Y735722D01*
X517700Y736844D01*
X515997Y737550D01*
X514170Y737790D01*
X442074D01*
X440246Y737550D01*
X438543Y736844D01*
X437081Y735722D01*
X427021Y725662D01*
X426767Y725730D01*
X424133D01*
X421590Y725049D01*
X419310Y723732D01*
X417448Y721870D01*
X416132Y719590D01*
X415450Y717047D01*
Y714414D01*
X416132Y711870D01*
X417448Y709590D01*
X418390Y708648D01*
Y695972D01*
X417448Y695030D01*
X416132Y692750D01*
X415450Y690207D01*
Y687573D01*
X416132Y685030D01*
X417448Y682750D01*
X419310Y680888D01*
X421590Y679572D01*
X424133Y678890D01*
X425465D01*
X479940Y624416D01*
Y573924D01*
X430257Y524242D01*
X413008Y506992D01*
X411885Y505530D01*
X411180Y503827D01*
X410940Y502000D01*
Y470280D01*
X411180Y468453D01*
X411885Y466750D01*
X413008Y465288D01*
X437040Y441255D01*
Y439924D01*
X437721Y437380D01*
X439038Y435100D01*
X439940Y434198D01*
Y404000D01*
X440180Y402173D01*
X440886Y400470D01*
X442007Y399008D01*
X450882Y390133D01*
X452345Y389011D01*
X454048Y388305D01*
X455875Y388065D01*
X501451D01*
X508258Y381258D01*
X509720Y380135D01*
X511423Y379430D01*
X513250Y379190D01*
X537190D01*
X568312Y348068D01*
X569774Y346945D01*
X571477Y346240D01*
X573304Y346000D01*
X596939D01*
X597622Y345605D01*
X599657Y345060D01*
X601763D01*
X603798Y345605D01*
X604620Y346080D01*
X653950D01*
X654772Y345605D01*
X656807Y345060D01*
X658913D01*
X660948Y345605D01*
X661770Y346080D01*
X711377D01*
X711922Y345765D01*
X713957Y345220D01*
X716063D01*
X718098Y345765D01*
X719922Y346818D01*
X721412Y348308D01*
X722465Y350132D01*
X722669Y350894D01*
X745402Y373628D01*
X746525Y375090D01*
X747230Y376793D01*
X747470Y378620D01*
Y382635D01*
X748644Y383121D01*
X757758Y374008D01*
X758125Y373726D01*
X758452Y373399D01*
X758853Y373167D01*
X759220Y372886D01*
X759647Y372709D01*
X760048Y372477D01*
X760495Y372357D01*
X760923Y372180D01*
X761381Y372120D01*
X761828Y372000D01*
X762291D01*
X762750Y371940D01*
X763209Y372000D01*
X763672D01*
X764119Y372120D01*
X764577Y372180D01*
X765005Y372357D01*
X765452Y372477D01*
X765853Y372709D01*
X766280Y372886D01*
X766647Y373167D01*
X767048Y373399D01*
X767375Y373726D01*
X767742Y374008D01*
X768024Y374375D01*
X768351Y374702D01*
X768583Y375103D01*
X768865Y375470D01*
X769042Y375897D01*
X769273Y376298D01*
X769393Y376745D01*
X769570Y377173D01*
X769630Y377631D01*
X769750Y378078D01*
Y378541D01*
X769810Y379000D01*
X769750Y379459D01*
Y379922D01*
X769630Y380369D01*
X769570Y380827D01*
X769393Y381255D01*
X769273Y381702D01*
X769042Y382103D01*
X768865Y382530D01*
X768583Y382897D01*
X768351Y383298D01*
X768024Y383625D01*
X767742Y383993D01*
X747980Y403755D01*
X747542Y404888D01*
X749145Y406977D01*
X750153Y409409D01*
X750496Y412020D01*
Y416020D01*
X750153Y418630D01*
X749145Y421063D01*
X747542Y423152D01*
X745453Y424755D01*
X743020Y425763D01*
X740410Y426106D01*
X737800Y425763D01*
X735367Y424755D01*
X733278Y423152D01*
X731675Y421063D01*
X730667Y418630D01*
X730324Y416020D01*
Y412020D01*
X730667Y409409D01*
X731675Y406977D01*
X733278Y404888D01*
X733350Y404833D01*
Y400750D01*
Y381544D01*
X712684Y360879D01*
X711922Y360675D01*
X711100Y360200D01*
X661492D01*
X660948Y360515D01*
X658913Y361060D01*
X656807D01*
X654772Y360515D01*
X654228Y360200D01*
X604342D01*
X603798Y360515D01*
X601763Y361060D01*
X599657D01*
X597622Y360515D01*
X596939Y360120D01*
X576229D01*
X545107Y391242D01*
X543645Y392365D01*
X541942Y393070D01*
X540114Y393310D01*
X516175D01*
X509367Y400117D01*
X507905Y401240D01*
X506202Y401945D01*
X504375Y402185D01*
X458800D01*
X454060Y406925D01*
Y434118D01*
X455042Y435100D01*
X456358Y437380D01*
X457040Y439924D01*
Y442556D01*
X456358Y445100D01*
X455042Y447380D01*
X453180Y449242D01*
X450900Y450559D01*
X448357Y451240D01*
X447025D01*
X425060Y473204D01*
Y499076D01*
X438175Y512190D01*
X787045D01*
X787531Y511016D01*
X786258Y509742D01*
X785135Y508280D01*
X784430Y506577D01*
X784190Y504750D01*
Y499438D01*
X784078Y499352D01*
X782475Y497263D01*
X781467Y494831D01*
X781124Y492220D01*
Y488220D01*
X781467Y485610D01*
X782475Y483177D01*
X784078Y481088D01*
X786167Y479485D01*
X788599Y478477D01*
X791210Y478134D01*
X793820Y478477D01*
X796253Y479485D01*
X798342Y481088D01*
X799945Y483177D01*
X800953Y485610D01*
X801296Y488220D01*
Y492220D01*
X800953Y494831D01*
X799945Y497263D01*
X798342Y499352D01*
X798310Y499376D01*
Y501825D01*
X808674Y512190D01*
X965250D01*
X967077Y512430D01*
X968780Y513135D01*
X970242Y514258D01*
X1046742Y590757D01*
X1047865Y592220D01*
X1048570Y593923D01*
X1048810Y595750D01*
Y624636D01*
X1079830Y655656D01*
X1081004Y655170D01*
Y483699D01*
X1053073Y455769D01*
X1051900Y456255D01*
Y471510D01*
X1030900D01*
Y450510D01*
X1046155D01*
X1046641Y449337D01*
X1043281Y445976D01*
X1042782Y446110D01*
X1040018D01*
X1037347Y445394D01*
X1034953Y444012D01*
X1032998Y442057D01*
X1031616Y439663D01*
X1030900Y436992D01*
Y434228D01*
X1031616Y431557D01*
X1032998Y429163D01*
X1034340Y427821D01*
Y383738D01*
X1029487Y378885D01*
X1028630Y378773D01*
X1026197Y377765D01*
X1024108Y376162D01*
X1022505Y374073D01*
X1021497Y371641D01*
X1021154Y369030D01*
Y365030D01*
X1021497Y362420D01*
X1022505Y359987D01*
X1024108Y357898D01*
X1026197Y356295D01*
X1028630Y355287D01*
X1031240Y354944D01*
X1033850Y355287D01*
X1036283Y356295D01*
X1038372Y357898D01*
X1039975Y359987D01*
X1040983Y362420D01*
X1041326Y365030D01*
Y369030D01*
X1041126Y370554D01*
X1046392Y375821D01*
X1047514Y377283D01*
X1048220Y378986D01*
X1048460Y380814D01*
Y427821D01*
X1049802Y429163D01*
X1051184Y431557D01*
X1051900Y434228D01*
Y434626D01*
X1093056Y475782D01*
X1094179Y477244D01*
X1094884Y478947D01*
X1095125Y480775D01*
Y670950D01*
X1132825Y708650D01*
X1134156D01*
X1136700Y709332D01*
X1138980Y710648D01*
X1140842Y712510D01*
X1142159Y714790D01*
X1142840Y717334D01*
Y719967D01*
X1142159Y722510D01*
X1140842Y724790D01*
X1138980Y726652D01*
X1136700Y727969D01*
X1134156Y728650D01*
X1131524D01*
X1128980Y727969D01*
X1126700Y726652D01*
X1124838Y724790D01*
X1123521Y722510D01*
X1122840Y719967D01*
Y718635D01*
X1083072Y678867D01*
X1049984Y645779D01*
X1048810Y646265D01*
Y701750D01*
Y1034170D01*
X1048570Y1035997D01*
X1047865Y1037700D01*
X1046742Y1039162D01*
X1014654Y1071251D01*
X1014630Y1071437D01*
X1013924Y1073140D01*
X1012802Y1074602D01*
X1011843Y1075339D01*
X1011769Y1075509D01*
Y1076711D01*
X1011843Y1076881D01*
X1012802Y1077618D01*
X1013924Y1079080D01*
X1014630Y1080783D01*
X1014870Y1082610D01*
X1014630Y1084437D01*
X1013924Y1086140D01*
X1012802Y1087602D01*
X1011843Y1088339D01*
X1011769Y1088509D01*
Y1089711D01*
X1011843Y1089881D01*
X1012802Y1090618D01*
X1013924Y1092080D01*
X1014630Y1093783D01*
X1014870Y1095610D01*
X1014630Y1097437D01*
X1013924Y1099140D01*
X1012802Y1100602D01*
X1011340Y1101724D01*
X1009637Y1102430D01*
X1007810Y1102670D01*
D02*
G37*
G36*
X848430Y741130D02*
X845430D01*
X843603Y740890D01*
X841900Y740184D01*
X840438Y739062D01*
X839315Y737600D01*
X838610Y735897D01*
X838370Y734070D01*
X838610Y732243D01*
X839315Y730540D01*
X840438Y729078D01*
X841397Y728341D01*
X841471Y728171D01*
Y726969D01*
X841397Y726799D01*
X840438Y726062D01*
X839315Y724600D01*
X838610Y722897D01*
X838370Y721070D01*
X838610Y719243D01*
X839315Y717540D01*
X840438Y716078D01*
X841900Y714956D01*
X843603Y714250D01*
X845430Y714010D01*
X848430D01*
X850257Y714250D01*
X851960Y714956D01*
X853422Y716078D01*
X854545Y717540D01*
X855250Y719243D01*
X855350Y720003D01*
X856553Y720445D01*
X857401Y719759D01*
Y682200D01*
X856228Y681714D01*
X855610Y682332D01*
X853330Y683649D01*
X850787Y684330D01*
X848154D01*
X845610Y683649D01*
X843330Y682332D01*
X841468Y680470D01*
X840152Y678190D01*
X839470Y675647D01*
Y673014D01*
X840152Y670470D01*
X841468Y668190D01*
X843330Y666328D01*
X845610Y665012D01*
X848154Y664330D01*
X850787D01*
X853330Y665012D01*
X855610Y666328D01*
X856228Y666946D01*
X857401Y666460D01*
Y597308D01*
X853591Y593498D01*
X853330Y593648D01*
X850787Y594330D01*
X848154D01*
X845610Y593648D01*
X843330Y592332D01*
X841468Y590470D01*
X840152Y588190D01*
X839470Y585647D01*
Y583013D01*
X840152Y580470D01*
X841468Y578190D01*
X843330Y576328D01*
X845610Y575011D01*
X848154Y574330D01*
X850787D01*
X853330Y575011D01*
X855610Y576328D01*
X857472Y578190D01*
X858789Y580470D01*
X859470Y583013D01*
Y585647D01*
X858789Y588190D01*
X858638Y588451D01*
X863493Y593307D01*
X864267Y594464D01*
X864539Y595830D01*
Y721530D01*
X864267Y722896D01*
X863493Y724053D01*
X855256Y732291D01*
X855490Y734070D01*
X855250Y735897D01*
X854545Y737600D01*
X853422Y739062D01*
X851960Y740184D01*
X850257Y740890D01*
X848430Y741130D01*
D02*
G37*
G36*
X340472Y745830D02*
X337708D01*
X335037Y745114D01*
X332643Y743732D01*
X330688Y741777D01*
X329306Y739383D01*
X328590Y736712D01*
Y733948D01*
X329306Y731277D01*
X330688Y728883D01*
X332030Y727541D01*
Y681620D01*
X331385Y680780D01*
X330680Y679077D01*
X330440Y677250D01*
X330680Y675423D01*
X331385Y673720D01*
X332508Y672258D01*
X333467Y671521D01*
X333541Y671351D01*
Y670149D01*
X333467Y669979D01*
X332508Y669242D01*
X331385Y667780D01*
X330680Y666077D01*
X330440Y664250D01*
X330680Y662423D01*
X331385Y660720D01*
X332508Y659258D01*
X333970Y658136D01*
X335673Y657430D01*
X337500Y657190D01*
X340500D01*
X342327Y657430D01*
X344030Y658136D01*
X345493Y659258D01*
X346194Y660172D01*
X366520D01*
X366520Y660172D01*
X368081Y660482D01*
X369404Y661366D01*
X387544Y679506D01*
X389843Y678890D01*
X392477D01*
X395020Y679572D01*
X397300Y680888D01*
X399162Y682750D01*
X400479Y685030D01*
X401160Y687573D01*
Y690207D01*
X400479Y692750D01*
X399162Y695030D01*
X397300Y696892D01*
X395020Y698208D01*
X392477Y698890D01*
X389843D01*
X387300Y698208D01*
X385020Y696892D01*
X383158Y695030D01*
X381842Y692750D01*
X381160Y690207D01*
Y687573D01*
X381776Y685274D01*
X364831Y668328D01*
X346194D01*
X345493Y669242D01*
X344533Y669979D01*
X344459Y670149D01*
Y671351D01*
X344533Y671521D01*
X345493Y672258D01*
X346614Y673720D01*
X347320Y675423D01*
X347560Y677250D01*
X347320Y679077D01*
X346614Y680780D01*
X346150Y681385D01*
Y727541D01*
X347492Y728883D01*
X348874Y731277D01*
X349590Y733948D01*
Y736712D01*
X348874Y739383D01*
X347492Y741777D01*
X345537Y743732D01*
X343143Y745114D01*
X340472Y745830D01*
D02*
G37*
G36*
X461057Y698890D02*
X458424D01*
X455880Y698208D01*
X453600Y696892D01*
X451738Y695030D01*
X450421Y692750D01*
X449740Y690207D01*
Y687573D01*
X450421Y685030D01*
X451738Y682750D01*
X453600Y680888D01*
X455880Y679572D01*
X458424Y678890D01*
X461057D01*
X463600Y679572D01*
X465880Y680888D01*
X467742Y682750D01*
X469058Y685030D01*
X469740Y687573D01*
Y690207D01*
X469058Y692750D01*
X467742Y695030D01*
X465880Y696892D01*
X463600Y698208D01*
X461057Y698890D01*
D02*
G37*
G36*
X625100Y684686D02*
X621100D01*
X618489Y684343D01*
X616057Y683335D01*
X613968Y681732D01*
X612365Y679643D01*
X611357Y677210D01*
X611014Y674600D01*
X611357Y671990D01*
X612365Y669557D01*
X613968Y667468D01*
X616057Y665865D01*
X618489Y664857D01*
X621100Y664514D01*
X625100D01*
X627710Y664857D01*
X630143Y665865D01*
X632232Y667468D01*
X633835Y669557D01*
X634843Y671990D01*
X635186Y674600D01*
X634843Y677210D01*
X633835Y679643D01*
X632232Y681732D01*
X630143Y683335D01*
X627710Y684343D01*
X625100Y684686D01*
D02*
G37*
G36*
X548900D02*
X544900D01*
X542290Y684343D01*
X539857Y683335D01*
X537768Y681732D01*
X536165Y679643D01*
X535157Y677210D01*
X534814Y674600D01*
X535157Y671990D01*
X536165Y669557D01*
X537768Y667468D01*
X539857Y665865D01*
X542290Y664857D01*
X544900Y664514D01*
X548900D01*
X551511Y664857D01*
X553943Y665865D01*
X556032Y667468D01*
X557635Y669557D01*
X558643Y671990D01*
X558986Y674600D01*
X558643Y677210D01*
X557635Y679643D01*
X556032Y681732D01*
X553943Y683335D01*
X551511Y684343D01*
X548900Y684686D01*
D02*
G37*
G36*
X816497Y684330D02*
X813864D01*
X811320Y683649D01*
X809040Y682332D01*
X807178Y680470D01*
X805862Y678190D01*
X805180Y675647D01*
Y673014D01*
X805862Y670470D01*
X807178Y668190D01*
X809040Y666328D01*
X811320Y665012D01*
X813864Y664330D01*
X816497D01*
X819040Y665012D01*
X821320Y666328D01*
X823182Y668190D01*
X824499Y670470D01*
X825180Y673014D01*
Y675647D01*
X824499Y678190D01*
X823182Y680470D01*
X821320Y682332D01*
X819040Y683649D01*
X816497Y684330D01*
D02*
G37*
G36*
X782206D02*
X779574D01*
X777030Y683649D01*
X774750Y682332D01*
X772888Y680470D01*
X771572Y678190D01*
X770890Y675647D01*
Y673014D01*
X771572Y670470D01*
X772888Y668190D01*
X774750Y666328D01*
X777030Y665012D01*
X779574Y664330D01*
X782206D01*
X784750Y665012D01*
X787030Y666328D01*
X788892Y668190D01*
X790209Y670470D01*
X790890Y673014D01*
Y675647D01*
X790209Y678190D01*
X788892Y680470D01*
X787030Y682332D01*
X784750Y683649D01*
X782206Y684330D01*
D02*
G37*
G36*
X747916Y684330D02*
X745284D01*
X742740Y683649D01*
X740460Y682332D01*
X738598Y680470D01*
X737281Y678190D01*
X736600Y675647D01*
Y673014D01*
X737281Y670470D01*
X738598Y668190D01*
X740460Y666328D01*
X742740Y665012D01*
X745284Y664330D01*
X747916D01*
X750460Y665012D01*
X752740Y666328D01*
X754602Y668190D01*
X755919Y670470D01*
X756600Y673014D01*
Y675647D01*
X755919Y678190D01*
X754602Y680470D01*
X752740Y682332D01*
X750460Y683649D01*
X747916Y684330D01*
D02*
G37*
G36*
X625100Y659286D02*
X621100D01*
X618489Y658943D01*
X616057Y657935D01*
X613968Y656332D01*
X612365Y654243D01*
X611357Y651811D01*
X611014Y649200D01*
X611357Y646590D01*
X612365Y644157D01*
X613968Y642068D01*
X616057Y640465D01*
X618489Y639457D01*
X621100Y639114D01*
X625100D01*
X627710Y639457D01*
X630143Y640465D01*
X632232Y642068D01*
X633835Y644157D01*
X634843Y646590D01*
X635186Y649200D01*
X634843Y651811D01*
X633835Y654243D01*
X632232Y656332D01*
X630143Y657935D01*
X627710Y658943D01*
X625100Y659286D01*
D02*
G37*
G36*
X548900D02*
X544900D01*
X542290Y658943D01*
X539857Y657935D01*
X537768Y656332D01*
X536165Y654243D01*
X535157Y651811D01*
X534814Y649200D01*
X535157Y646590D01*
X536165Y644157D01*
X537768Y642068D01*
X539857Y640465D01*
X542290Y639457D01*
X544900Y639114D01*
X548900D01*
X551511Y639457D01*
X553943Y640465D01*
X556032Y642068D01*
X557635Y644157D01*
X558643Y646590D01*
X558986Y649200D01*
X558643Y651811D01*
X557635Y654243D01*
X556032Y656332D01*
X553943Y657935D01*
X551511Y658943D01*
X548900Y659286D01*
D02*
G37*
G36*
X1305607Y638820D02*
X1302973D01*
X1300430Y638139D01*
X1298150Y636822D01*
X1296288Y634960D01*
X1294971Y632680D01*
X1294290Y630136D01*
Y627504D01*
X1294971Y624960D01*
X1296288Y622680D01*
X1298150Y620818D01*
X1300430Y619501D01*
X1302973Y618820D01*
X1305607D01*
X1308150Y619501D01*
X1310430Y620818D01*
X1312292Y622680D01*
X1313609Y624960D01*
X1314290Y627504D01*
Y630136D01*
X1313609Y632680D01*
X1312292Y634960D01*
X1310430Y636822D01*
X1308150Y638139D01*
X1305607Y638820D01*
D02*
G37*
G36*
X1271317D02*
X1268683D01*
X1266140Y638139D01*
X1263860Y636822D01*
X1261998Y634960D01*
X1260682Y632680D01*
X1260000Y630136D01*
Y627504D01*
X1260682Y624960D01*
X1261998Y622680D01*
X1263860Y620818D01*
X1266140Y619501D01*
X1268683Y618820D01*
X1271317D01*
X1273860Y619501D01*
X1276140Y620818D01*
X1278002Y622680D01*
X1279318Y624960D01*
X1280000Y627504D01*
Y630136D01*
X1279318Y632680D01*
X1278002Y634960D01*
X1276140Y636822D01*
X1273860Y638139D01*
X1271317Y638820D01*
D02*
G37*
G36*
X1237027D02*
X1234393D01*
X1231850Y638139D01*
X1229570Y636822D01*
X1227708Y634960D01*
X1226392Y632680D01*
X1225710Y630136D01*
Y627504D01*
X1226392Y624960D01*
X1227708Y622680D01*
X1229570Y620818D01*
X1231850Y619501D01*
X1234393Y618820D01*
X1237027D01*
X1239570Y619501D01*
X1241850Y620818D01*
X1243712Y622680D01*
X1245029Y624960D01*
X1245710Y627504D01*
Y630136D01*
X1245029Y632680D01*
X1243712Y634960D01*
X1241850Y636822D01*
X1239570Y638139D01*
X1237027Y638820D01*
D02*
G37*
G36*
X1202737D02*
X1200104D01*
X1197560Y638139D01*
X1195280Y636822D01*
X1193418Y634960D01*
X1192102Y632680D01*
X1191420Y630136D01*
Y627504D01*
X1192102Y624960D01*
X1193418Y622680D01*
X1195280Y620818D01*
X1197560Y619501D01*
X1200104Y618820D01*
X1202737D01*
X1205280Y619501D01*
X1207560Y620818D01*
X1209422Y622680D01*
X1210739Y624960D01*
X1211420Y627504D01*
Y630136D01*
X1210739Y632680D01*
X1209422Y634960D01*
X1207560Y636822D01*
X1205280Y638139D01*
X1202737Y638820D01*
D02*
G37*
G36*
X625100Y633886D02*
X621100D01*
X618489Y633543D01*
X616057Y632535D01*
X613968Y630932D01*
X612365Y628843D01*
X611357Y626410D01*
X611014Y623800D01*
X611357Y621189D01*
X612365Y618757D01*
X613968Y616668D01*
X616057Y615065D01*
X618489Y614057D01*
X621100Y613714D01*
X625100D01*
X627710Y614057D01*
X630143Y615065D01*
X632232Y616668D01*
X633835Y618757D01*
X634843Y621189D01*
X635186Y623800D01*
X634843Y626410D01*
X633835Y628843D01*
X632232Y630932D01*
X630143Y632535D01*
X627710Y633543D01*
X625100Y633886D01*
D02*
G37*
G36*
X548900D02*
X544900D01*
X542290Y633543D01*
X539857Y632535D01*
X537768Y630932D01*
X536165Y628843D01*
X535157Y626410D01*
X534814Y623800D01*
X535157Y621189D01*
X536165Y618757D01*
X537768Y616668D01*
X539857Y615065D01*
X542290Y614057D01*
X544900Y613714D01*
X548900D01*
X551511Y614057D01*
X553943Y615065D01*
X556032Y616668D01*
X557635Y618757D01*
X558643Y621189D01*
X558986Y623800D01*
X558643Y626410D01*
X557635Y628843D01*
X556032Y630932D01*
X553943Y632535D01*
X551511Y633543D01*
X548900Y633886D01*
D02*
G37*
G36*
X1531146Y633000D02*
X1527854D01*
X1524675Y632148D01*
X1521825Y630503D01*
X1519498Y628175D01*
X1517852Y625325D01*
X1517000Y622146D01*
Y618854D01*
X1517852Y615675D01*
X1519498Y612825D01*
X1521825Y610498D01*
X1524675Y608852D01*
X1527854Y608000D01*
X1531146D01*
X1534325Y608852D01*
X1537175Y610498D01*
X1539503Y612825D01*
X1541148Y615675D01*
X1542000Y618854D01*
Y622146D01*
X1541148Y625325D01*
X1539503Y628175D01*
X1537175Y630503D01*
X1534325Y632148D01*
X1531146Y633000D01*
D02*
G37*
G36*
X1411146D02*
X1407854D01*
X1404675Y632148D01*
X1401825Y630503D01*
X1399498Y628175D01*
X1397852Y625325D01*
X1397000Y622146D01*
Y618854D01*
X1397852Y615675D01*
X1399498Y612825D01*
X1401825Y610498D01*
X1404675Y608852D01*
X1407854Y608000D01*
X1411146D01*
X1414325Y608852D01*
X1417175Y610498D01*
X1419503Y612825D01*
X1421148Y615675D01*
X1422000Y618854D01*
Y622146D01*
X1421148Y625325D01*
X1419503Y628175D01*
X1417175Y630503D01*
X1414325Y632148D01*
X1411146Y633000D01*
D02*
G37*
G36*
X885077Y594330D02*
X882443D01*
X879900Y593648D01*
X877620Y592332D01*
X875758Y590470D01*
X874442Y588190D01*
X873760Y585647D01*
Y583013D01*
X874442Y580470D01*
X875758Y578190D01*
X877620Y576328D01*
X879900Y575011D01*
X882443Y574330D01*
X885077D01*
X887620Y575011D01*
X889900Y576328D01*
X891762Y578190D01*
X893079Y580470D01*
X893760Y583013D01*
Y585647D01*
X893079Y588190D01*
X891762Y590470D01*
X889900Y592332D01*
X887620Y593648D01*
X885077Y594330D01*
D02*
G37*
G36*
X816497D02*
X813864D01*
X811320Y593648D01*
X809040Y592332D01*
X807178Y590470D01*
X805862Y588190D01*
X805180Y585647D01*
Y583013D01*
X805862Y580470D01*
X807178Y578190D01*
X809040Y576328D01*
X811320Y575011D01*
X813864Y574330D01*
X816497D01*
X819040Y575011D01*
X821320Y576328D01*
X823182Y578190D01*
X824499Y580470D01*
X825180Y583013D01*
Y585647D01*
X824499Y588190D01*
X823182Y590470D01*
X821320Y592332D01*
X819040Y593648D01*
X816497Y594330D01*
D02*
G37*
G36*
X953656Y594330D02*
X951023D01*
X948480Y593648D01*
X946200Y592332D01*
X944338Y590470D01*
X943021Y588190D01*
X942340Y585647D01*
Y583013D01*
X943021Y580470D01*
X944338Y578190D01*
X946200Y576328D01*
X948480Y575011D01*
X951023Y574330D01*
X953656D01*
X956200Y575011D01*
X958480Y576328D01*
X960342Y578190D01*
X961658Y580470D01*
X962340Y583013D01*
Y585647D01*
X961658Y588190D01*
X960342Y590470D01*
X958480Y592332D01*
X956200Y593648D01*
X953656Y594330D01*
D02*
G37*
G36*
X747916D02*
X745284D01*
X742740Y593648D01*
X740460Y592332D01*
X738598Y590470D01*
X737281Y588190D01*
X736600Y585647D01*
Y583013D01*
X737281Y580470D01*
X738598Y578190D01*
X740460Y576328D01*
X742740Y575011D01*
X745284Y574330D01*
X747916D01*
X750460Y575011D01*
X752740Y576328D01*
X754602Y578190D01*
X755919Y580470D01*
X756600Y583013D01*
Y585647D01*
X755919Y588190D01*
X754602Y590470D01*
X752740Y592332D01*
X750460Y593648D01*
X747916Y594330D01*
D02*
G37*
G36*
X709422Y548750D02*
X707578D01*
X705798Y548273D01*
X704202Y547351D01*
X702899Y546048D01*
X701977Y544452D01*
X701500Y542672D01*
Y540828D01*
X701977Y539048D01*
X702899Y537452D01*
X704202Y536149D01*
X705798Y535227D01*
X707578Y534750D01*
X709422D01*
X711202Y535227D01*
X712798Y536149D01*
X714101Y537452D01*
X715023Y539048D01*
X715500Y540828D01*
Y542672D01*
X715023Y544452D01*
X714101Y546048D01*
X712798Y547351D01*
X711202Y548273D01*
X709422Y548750D01*
D02*
G37*
G36*
X918210Y502306D02*
X915600Y501963D01*
X913167Y500955D01*
X911078Y499352D01*
X909475Y497263D01*
X908467Y494831D01*
X908124Y492220D01*
Y488220D01*
X908467Y485610D01*
X909475Y483177D01*
X911078Y481088D01*
X913167Y479485D01*
X915600Y478477D01*
X918210Y478134D01*
X920820Y478477D01*
X923253Y479485D01*
X925342Y481088D01*
X926945Y483177D01*
X927953Y485610D01*
X928296Y488220D01*
Y492220D01*
X927953Y494831D01*
X926945Y497263D01*
X925342Y499352D01*
X923253Y500955D01*
X920820Y501963D01*
X918210Y502306D01*
D02*
G37*
G36*
X892810D02*
X890200Y501963D01*
X887767Y500955D01*
X885678Y499352D01*
X884075Y497263D01*
X883067Y494831D01*
X882724Y492220D01*
Y488220D01*
X883067Y485610D01*
X884075Y483177D01*
X885678Y481088D01*
X887767Y479485D01*
X890200Y478477D01*
X892810Y478134D01*
X895421Y478477D01*
X897853Y479485D01*
X899942Y481088D01*
X901545Y483177D01*
X902553Y485610D01*
X902896Y488220D01*
Y492220D01*
X902553Y494831D01*
X901545Y497263D01*
X899942Y499352D01*
X897853Y500955D01*
X895421Y501963D01*
X892810Y502306D01*
D02*
G37*
G36*
X867410D02*
X864799Y501963D01*
X862367Y500955D01*
X860278Y499352D01*
X858675Y497263D01*
X857667Y494831D01*
X857324Y492220D01*
Y488220D01*
X857667Y485610D01*
X858675Y483177D01*
X860278Y481088D01*
X862367Y479485D01*
X864799Y478477D01*
X867410Y478134D01*
X870021Y478477D01*
X872453Y479485D01*
X874542Y481088D01*
X876145Y483177D01*
X877153Y485610D01*
X877496Y488220D01*
Y492220D01*
X877153Y494831D01*
X876145Y497263D01*
X874542Y499352D01*
X872453Y500955D01*
X870021Y501963D01*
X867410Y502306D01*
D02*
G37*
G36*
X842010D02*
X839399Y501963D01*
X836967Y500955D01*
X834878Y499352D01*
X833275Y497263D01*
X832267Y494831D01*
X831924Y492220D01*
Y488220D01*
X832267Y485610D01*
X833275Y483177D01*
X834878Y481088D01*
X836967Y479485D01*
X839399Y478477D01*
X842010Y478134D01*
X844621Y478477D01*
X847053Y479485D01*
X849142Y481088D01*
X850745Y483177D01*
X851753Y485610D01*
X852096Y488220D01*
Y492220D01*
X851753Y494831D01*
X850745Y497263D01*
X849142Y499352D01*
X847053Y500955D01*
X844621Y501963D01*
X842010Y502306D01*
D02*
G37*
G36*
X816610D02*
X813999Y501963D01*
X811567Y500955D01*
X809478Y499352D01*
X807875Y497263D01*
X806867Y494831D01*
X806524Y492220D01*
Y488220D01*
X806867Y485610D01*
X807875Y483177D01*
X809478Y481088D01*
X811567Y479485D01*
X813999Y478477D01*
X816610Y478134D01*
X819221Y478477D01*
X821653Y479485D01*
X823742Y481088D01*
X825345Y483177D01*
X826353Y485610D01*
X826696Y488220D01*
Y492220D01*
X826353Y494831D01*
X825345Y497263D01*
X823742Y499352D01*
X821653Y500955D01*
X819221Y501963D01*
X816610Y502306D01*
D02*
G37*
G36*
X765810D02*
X763199Y501963D01*
X760767Y500955D01*
X758678Y499352D01*
X757075Y497263D01*
X756067Y494831D01*
X755724Y492220D01*
Y488220D01*
X756067Y485610D01*
X757075Y483177D01*
X758678Y481088D01*
X760767Y479485D01*
X763199Y478477D01*
X765810Y478134D01*
X768420Y478477D01*
X770853Y479485D01*
X772942Y481088D01*
X774545Y483177D01*
X775553Y485610D01*
X775896Y488220D01*
Y492220D01*
X775553Y494831D01*
X774545Y497263D01*
X772942Y499352D01*
X770853Y500955D01*
X768420Y501963D01*
X765810Y502306D01*
D02*
G37*
G36*
X715010D02*
X712400Y501963D01*
X709967Y500955D01*
X707878Y499352D01*
X706275Y497263D01*
X705267Y494831D01*
X704924Y492220D01*
Y488220D01*
X705267Y485610D01*
X706275Y483177D01*
X707878Y481088D01*
X709967Y479485D01*
X712400Y478477D01*
X715010Y478134D01*
X717620Y478477D01*
X720053Y479485D01*
X722142Y481088D01*
X723745Y483177D01*
X724753Y485610D01*
X725096Y488220D01*
Y492220D01*
X724753Y494831D01*
X723745Y497263D01*
X722142Y499352D01*
X720053Y500955D01*
X717620Y501963D01*
X715010Y502306D01*
D02*
G37*
G36*
X689610D02*
X687000Y501963D01*
X684567Y500955D01*
X682478Y499352D01*
X680875Y497263D01*
X679867Y494831D01*
X679524Y492220D01*
Y488220D01*
X679867Y485610D01*
X680875Y483177D01*
X682478Y481088D01*
X684567Y479485D01*
X687000Y478477D01*
X689610Y478134D01*
X692221Y478477D01*
X694653Y479485D01*
X696742Y481088D01*
X698345Y483177D01*
X699353Y485610D01*
X699696Y488220D01*
Y492220D01*
X699353Y494831D01*
X698345Y497263D01*
X696742Y499352D01*
X694653Y500955D01*
X692221Y501963D01*
X689610Y502306D01*
D02*
G37*
G36*
X664210D02*
X661600Y501963D01*
X659167Y500955D01*
X657078Y499352D01*
X655475Y497263D01*
X654467Y494831D01*
X654124Y492220D01*
Y488220D01*
X654467Y485610D01*
X655475Y483177D01*
X657078Y481088D01*
X659167Y479485D01*
X661600Y478477D01*
X664210Y478134D01*
X666821Y478477D01*
X669253Y479485D01*
X671342Y481088D01*
X672945Y483177D01*
X673953Y485610D01*
X674296Y488220D01*
Y492220D01*
X673953Y494831D01*
X672945Y497263D01*
X671342Y499352D01*
X669253Y500955D01*
X666821Y501963D01*
X664210Y502306D01*
D02*
G37*
G36*
X638810D02*
X636199Y501963D01*
X633767Y500955D01*
X631678Y499352D01*
X630075Y497263D01*
X629067Y494831D01*
X628724Y492220D01*
Y488220D01*
X629067Y485610D01*
X630075Y483177D01*
X631678Y481088D01*
X633767Y479485D01*
X636199Y478477D01*
X638810Y478134D01*
X641421Y478477D01*
X643853Y479485D01*
X645942Y481088D01*
X647545Y483177D01*
X648553Y485610D01*
X648896Y488220D01*
Y492220D01*
X648553Y494831D01*
X647545Y497263D01*
X645942Y499352D01*
X643853Y500955D01*
X641421Y501963D01*
X638810Y502306D01*
D02*
G37*
G36*
X613410D02*
X610799Y501963D01*
X608367Y500955D01*
X606278Y499352D01*
X604675Y497263D01*
X603667Y494831D01*
X603324Y492220D01*
Y488220D01*
X603667Y485610D01*
X604675Y483177D01*
X606278Y481088D01*
X608367Y479485D01*
X610799Y478477D01*
X613410Y478134D01*
X616021Y478477D01*
X616985Y478877D01*
X630361Y465502D01*
X629875Y464328D01*
X617669D01*
X597353Y484645D01*
X597753Y485610D01*
X598096Y488220D01*
Y492220D01*
X597753Y494831D01*
X596745Y497263D01*
X595142Y499352D01*
X593053Y500955D01*
X590620Y501963D01*
X588010Y502306D01*
X585400Y501963D01*
X582967Y500955D01*
X580878Y499352D01*
X579275Y497263D01*
X578267Y494831D01*
X577924Y492220D01*
Y488220D01*
X578267Y485610D01*
X579275Y483177D01*
X580878Y481088D01*
X582967Y479485D01*
X585400Y478477D01*
X588010Y478134D01*
X590620Y478477D01*
X591585Y478877D01*
X611461Y459002D01*
X610975Y457828D01*
X574689D01*
X551884Y480634D01*
X552500Y482934D01*
Y485566D01*
X551819Y488110D01*
X550502Y490390D01*
X548640Y492252D01*
X546360Y493568D01*
X543816Y494250D01*
X541184D01*
X538640Y493568D01*
X536360Y492252D01*
X534498Y490390D01*
X533181Y488110D01*
X532500Y485566D01*
Y482934D01*
X533181Y480390D01*
X534498Y478110D01*
X536360Y476248D01*
X538640Y474931D01*
X541184Y474250D01*
X543816D01*
X546116Y474866D01*
X568851Y452131D01*
X568325Y450861D01*
X482656D01*
X458481Y475037D01*
X458640Y476248D01*
X460502Y478110D01*
X461819Y480390D01*
X462500Y482934D01*
Y485566D01*
X461819Y488110D01*
X460502Y490390D01*
X458640Y492252D01*
X456360Y493568D01*
X453816Y494250D01*
X451184D01*
X448640Y493568D01*
X446360Y492252D01*
X444498Y490390D01*
X443181Y488110D01*
X442500Y485566D01*
Y482934D01*
X443181Y480390D01*
X444498Y478110D01*
X446360Y476248D01*
X448465Y475033D01*
X448732Y473689D01*
X449616Y472366D01*
X478083Y443899D01*
X478083Y443899D01*
X479406Y443015D01*
X480967Y442705D01*
X758758D01*
X781867Y419595D01*
X781467Y418630D01*
X781124Y416020D01*
Y412020D01*
X781467Y409409D01*
X782475Y406977D01*
X784078Y404888D01*
X786167Y403285D01*
X788599Y402277D01*
X791210Y401934D01*
X793820Y402277D01*
X796253Y403285D01*
X798342Y404888D01*
X799945Y406977D01*
X800953Y409409D01*
X801296Y412020D01*
Y416020D01*
X800953Y418630D01*
X799945Y421063D01*
X798342Y423152D01*
X796253Y424755D01*
X793820Y425763D01*
X791210Y426106D01*
X788599Y425763D01*
X787635Y425363D01*
X764596Y448402D01*
X765122Y449672D01*
X777191D01*
X807267Y419595D01*
X806867Y418630D01*
X806524Y416020D01*
Y412020D01*
X806867Y409409D01*
X807875Y406977D01*
X809478Y404888D01*
X811567Y403285D01*
X813999Y402277D01*
X816610Y401934D01*
X819221Y402277D01*
X821653Y403285D01*
X823742Y404888D01*
X825345Y406977D01*
X826353Y409409D01*
X826696Y412020D01*
Y416020D01*
X826353Y418630D01*
X825345Y421063D01*
X823742Y423152D01*
X821653Y424755D01*
X819221Y425763D01*
X816610Y426106D01*
X813999Y425763D01*
X813035Y425363D01*
X783399Y454998D01*
X783885Y456172D01*
X919561D01*
X976422Y399311D01*
Y379030D01*
X970440D01*
Y355030D01*
X990440D01*
Y379030D01*
X984578D01*
Y398995D01*
X985752Y399481D01*
X1001762Y383471D01*
Y378165D01*
X1000797Y377765D01*
X998708Y376162D01*
X997105Y374073D01*
X996097Y371641D01*
X995754Y369030D01*
Y365030D01*
X996097Y362420D01*
X997105Y359987D01*
X998708Y357898D01*
X1000797Y356295D01*
X1003230Y355287D01*
X1005840Y354944D01*
X1008450Y355287D01*
X1010883Y356295D01*
X1012972Y357898D01*
X1014575Y359987D01*
X1015583Y362420D01*
X1015926Y365030D01*
Y369030D01*
X1015583Y371641D01*
X1014575Y374073D01*
X1012972Y376162D01*
X1010883Y377765D01*
X1009918Y378165D01*
Y385160D01*
X1009918Y385160D01*
X1009608Y386721D01*
X1008724Y388044D01*
X927634Y469134D01*
X926311Y470018D01*
X924750Y470328D01*
X924750Y470328D01*
X637069D01*
X622753Y484645D01*
X623153Y485610D01*
X623496Y488220D01*
Y492220D01*
X623153Y494831D01*
X622145Y497263D01*
X620542Y499352D01*
X618453Y500955D01*
X616021Y501963D01*
X613410Y502306D01*
D02*
G37*
G36*
X1017382Y471510D02*
X1014618D01*
X1011947Y470794D01*
X1009553Y469412D01*
X1007598Y467457D01*
X1006216Y465063D01*
X1005500Y462392D01*
Y459628D01*
X1006216Y456957D01*
X1007598Y454563D01*
X1009553Y452608D01*
X1011947Y451226D01*
X1014618Y450510D01*
X1017382D01*
X1020053Y451226D01*
X1022447Y452608D01*
X1024402Y454563D01*
X1025784Y456957D01*
X1026500Y459628D01*
Y462392D01*
X1025784Y465063D01*
X1024402Y467457D01*
X1022447Y469412D01*
X1020053Y470794D01*
X1017382Y471510D01*
D02*
G37*
G36*
X991982D02*
X989218D01*
X986547Y470794D01*
X984153Y469412D01*
X982198Y467457D01*
X980816Y465063D01*
X980100Y462392D01*
Y459628D01*
X980816Y456957D01*
X982198Y454563D01*
X984153Y452608D01*
X986547Y451226D01*
X989218Y450510D01*
X991982D01*
X994653Y451226D01*
X997047Y452608D01*
X999002Y454563D01*
X1000384Y456957D01*
X1001100Y459628D01*
Y462392D01*
X1000384Y465063D01*
X999002Y467457D01*
X997047Y469412D01*
X994653Y470794D01*
X991982Y471510D01*
D02*
G37*
G36*
X1017382Y446110D02*
X1014618D01*
X1011947Y445394D01*
X1009553Y444012D01*
X1007598Y442057D01*
X1006216Y439663D01*
X1005500Y436992D01*
Y434228D01*
X1006216Y431557D01*
X1007598Y429163D01*
X1009553Y427208D01*
X1011947Y425826D01*
X1014618Y425110D01*
X1017382D01*
X1020053Y425826D01*
X1022447Y427208D01*
X1024402Y429163D01*
X1025784Y431557D01*
X1026500Y434228D01*
Y436992D01*
X1025784Y439663D01*
X1024402Y442057D01*
X1022447Y444012D01*
X1020053Y445394D01*
X1017382Y446110D01*
D02*
G37*
G36*
X533284Y430080D02*
X530256D01*
X527331Y429296D01*
X524709Y427782D01*
X522568Y425641D01*
X521054Y423019D01*
X520270Y420094D01*
Y417066D01*
X521054Y414141D01*
X522568Y411519D01*
X524709Y409378D01*
X527331Y407864D01*
X530256Y407080D01*
X533284D01*
X536209Y407864D01*
X538831Y409378D01*
X540972Y411519D01*
X542486Y414141D01*
X543270Y417066D01*
Y420094D01*
X542486Y423019D01*
X540972Y425641D01*
X538831Y427782D01*
X536209Y429296D01*
X533284Y430080D01*
D02*
G37*
G36*
X598010Y426020D02*
X578010D01*
Y402020D01*
X598010D01*
Y426020D01*
D02*
G37*
G36*
X918210Y426106D02*
X915600Y425763D01*
X913167Y424755D01*
X911078Y423152D01*
X909475Y421063D01*
X908467Y418630D01*
X908124Y416020D01*
Y412020D01*
X908467Y409409D01*
X909475Y406977D01*
X911078Y404888D01*
X913167Y403285D01*
X915600Y402277D01*
X918210Y401934D01*
X920820Y402277D01*
X923253Y403285D01*
X925342Y404888D01*
X926945Y406977D01*
X927953Y409409D01*
X928296Y412020D01*
Y416020D01*
X927953Y418630D01*
X926945Y421063D01*
X925342Y423152D01*
X923253Y424755D01*
X920820Y425763D01*
X918210Y426106D01*
D02*
G37*
G36*
X892810D02*
X890200Y425763D01*
X887767Y424755D01*
X885678Y423152D01*
X884075Y421063D01*
X883067Y418630D01*
X882724Y416020D01*
Y412020D01*
X883067Y409409D01*
X884075Y406977D01*
X885678Y404888D01*
X887767Y403285D01*
X890200Y402277D01*
X892810Y401934D01*
X895421Y402277D01*
X897853Y403285D01*
X899942Y404888D01*
X901545Y406977D01*
X902553Y409409D01*
X902896Y412020D01*
Y416020D01*
X902553Y418630D01*
X901545Y421063D01*
X899942Y423152D01*
X897853Y424755D01*
X895421Y425763D01*
X892810Y426106D01*
D02*
G37*
G36*
X867410D02*
X864799Y425763D01*
X862367Y424755D01*
X860278Y423152D01*
X858675Y421063D01*
X857667Y418630D01*
X857324Y416020D01*
Y412020D01*
X857667Y409409D01*
X858675Y406977D01*
X860278Y404888D01*
X862367Y403285D01*
X864799Y402277D01*
X867410Y401934D01*
X870021Y402277D01*
X872453Y403285D01*
X874542Y404888D01*
X876145Y406977D01*
X877153Y409409D01*
X877496Y412020D01*
Y416020D01*
X877153Y418630D01*
X876145Y421063D01*
X874542Y423152D01*
X872453Y424755D01*
X870021Y425763D01*
X867410Y426106D01*
D02*
G37*
G36*
X715010D02*
X712400Y425763D01*
X709967Y424755D01*
X707878Y423152D01*
X706275Y421063D01*
X705267Y418630D01*
X704924Y416020D01*
Y412020D01*
X705267Y409409D01*
X706275Y406977D01*
X707878Y404888D01*
X709967Y403285D01*
X712400Y402277D01*
X715010Y401934D01*
X717620Y402277D01*
X720053Y403285D01*
X722142Y404888D01*
X723745Y406977D01*
X724753Y409409D01*
X725096Y412020D01*
Y416020D01*
X724753Y418630D01*
X723745Y421063D01*
X722142Y423152D01*
X720053Y424755D01*
X717620Y425763D01*
X715010Y426106D01*
D02*
G37*
G36*
X689610D02*
X687000Y425763D01*
X684567Y424755D01*
X682478Y423152D01*
X680875Y421063D01*
X679867Y418630D01*
X679524Y416020D01*
Y412020D01*
X679867Y409409D01*
X680875Y406977D01*
X682478Y404888D01*
X684567Y403285D01*
X687000Y402277D01*
X689610Y401934D01*
X692221Y402277D01*
X694653Y403285D01*
X696742Y404888D01*
X698345Y406977D01*
X699353Y409409D01*
X699696Y412020D01*
Y416020D01*
X699353Y418630D01*
X698345Y421063D01*
X696742Y423152D01*
X694653Y424755D01*
X692221Y425763D01*
X689610Y426106D01*
D02*
G37*
G36*
X664210D02*
X661600Y425763D01*
X659167Y424755D01*
X657078Y423152D01*
X655475Y421063D01*
X654467Y418630D01*
X654124Y416020D01*
Y412020D01*
X654467Y409409D01*
X655475Y406977D01*
X657078Y404888D01*
X659167Y403285D01*
X661600Y402277D01*
X664210Y401934D01*
X666821Y402277D01*
X669253Y403285D01*
X671342Y404888D01*
X672945Y406977D01*
X673953Y409409D01*
X674296Y412020D01*
Y416020D01*
X673953Y418630D01*
X672945Y421063D01*
X671342Y423152D01*
X669253Y424755D01*
X666821Y425763D01*
X664210Y426106D01*
D02*
G37*
G36*
X638810D02*
X636199Y425763D01*
X633767Y424755D01*
X631678Y423152D01*
X630075Y421063D01*
X629067Y418630D01*
X628724Y416020D01*
Y412020D01*
X629067Y409409D01*
X630075Y406977D01*
X631678Y404888D01*
X633767Y403285D01*
X636199Y402277D01*
X638810Y401934D01*
X641421Y402277D01*
X643853Y403285D01*
X645942Y404888D01*
X647545Y406977D01*
X648553Y409409D01*
X648896Y412020D01*
Y416020D01*
X648553Y418630D01*
X647545Y421063D01*
X645942Y423152D01*
X643853Y424755D01*
X641421Y425763D01*
X638810Y426106D01*
D02*
G37*
G36*
X613410D02*
X610799Y425763D01*
X608367Y424755D01*
X606278Y423152D01*
X604675Y421063D01*
X603667Y418630D01*
X603324Y416020D01*
Y412020D01*
X603667Y409409D01*
X604675Y406977D01*
X606278Y404888D01*
X608367Y403285D01*
X610799Y402277D01*
X613410Y401934D01*
X616021Y402277D01*
X618453Y403285D01*
X620542Y404888D01*
X622145Y406977D01*
X623153Y409409D01*
X623496Y412020D01*
Y416020D01*
X623153Y418630D01*
X622145Y421063D01*
X620542Y423152D01*
X618453Y424755D01*
X616021Y425763D01*
X613410Y426106D01*
D02*
G37*
G36*
X864883Y373590D02*
X862777D01*
X860742Y373045D01*
X858918Y371992D01*
X857428Y370502D01*
X856375Y368678D01*
X855830Y366643D01*
Y364537D01*
X856375Y362502D01*
X857428Y360678D01*
X858918Y359188D01*
X860742Y358135D01*
X862777Y357590D01*
X864883D01*
X866918Y358135D01*
X868742Y359188D01*
X870232Y360678D01*
X871285Y362502D01*
X871830Y364537D01*
Y366643D01*
X871285Y368678D01*
X870232Y370502D01*
X868742Y371992D01*
X866918Y373045D01*
X864883Y373590D01*
D02*
G37*
G36*
X815883D02*
X813777D01*
X811742Y373045D01*
X809918Y371992D01*
X808428Y370502D01*
X807375Y368678D01*
X806830Y366643D01*
Y364537D01*
X807375Y362502D01*
X808428Y360678D01*
X809918Y359188D01*
X811742Y358135D01*
X813777Y357590D01*
X815883D01*
X817918Y358135D01*
X819742Y359188D01*
X821232Y360678D01*
X822285Y362502D01*
X822830Y364537D01*
Y366643D01*
X822285Y368678D01*
X821232Y370502D01*
X819742Y371992D01*
X817918Y373045D01*
X815883Y373590D01*
D02*
G37*
G36*
X1328130Y800080D02*
X1325130D01*
X1323303Y799840D01*
X1321600Y799134D01*
X1320137Y798012D01*
X1319016Y796550D01*
X1318310Y794847D01*
X1318070Y793020D01*
X1318310Y791193D01*
X1319016Y789490D01*
X1320137Y788027D01*
X1321097Y787291D01*
X1321171Y787121D01*
Y785919D01*
X1321097Y785749D01*
X1320137Y785012D01*
X1319016Y783550D01*
X1318310Y781847D01*
X1318070Y780020D01*
X1318310Y778193D01*
X1319016Y776490D01*
X1320137Y775027D01*
X1321600Y773905D01*
X1323303Y773200D01*
X1325130Y772960D01*
X1328130D01*
X1329272Y773110D01*
X1345922Y756461D01*
Y581689D01*
X1108311Y344078D01*
X915719D01*
X851353Y408445D01*
X851753Y409409D01*
X852096Y412020D01*
Y416020D01*
X851753Y418630D01*
X850745Y421063D01*
X849142Y423152D01*
X847053Y424755D01*
X844621Y425763D01*
X842010Y426106D01*
X839399Y425763D01*
X836967Y424755D01*
X834878Y423152D01*
X833275Y421063D01*
X832267Y418630D01*
X831924Y416020D01*
Y412020D01*
X832267Y409409D01*
X833275Y406977D01*
X834878Y404888D01*
X836967Y403285D01*
X839399Y402277D01*
X842010Y401934D01*
X844621Y402277D01*
X845585Y402677D01*
X911146Y337116D01*
X911146Y337116D01*
X912469Y336232D01*
X914030Y335922D01*
X914030Y335922D01*
X1110000D01*
X1110000Y335922D01*
X1111561Y336232D01*
X1112884Y337116D01*
X1352884Y577116D01*
X1353768Y578439D01*
X1354078Y580000D01*
X1354078Y580000D01*
Y758150D01*
X1354078Y758150D01*
X1353768Y759711D01*
X1352884Y761034D01*
X1352884Y761034D01*
X1335040Y778878D01*
X1335190Y780020D01*
X1334950Y781847D01*
X1334244Y783550D01*
X1333122Y785012D01*
X1332163Y785749D01*
X1332089Y785919D01*
Y787121D01*
X1332163Y787291D01*
X1333122Y788027D01*
X1334244Y789490D01*
X1334950Y791193D01*
X1335190Y793020D01*
X1334950Y794847D01*
X1334244Y796550D01*
X1333122Y798012D01*
X1331660Y799134D01*
X1329957Y799840D01*
X1328130Y800080D01*
D02*
G37*
G36*
X533284Y365080D02*
X530256D01*
X527331Y364296D01*
X524709Y362782D01*
X522568Y360641D01*
X521054Y358019D01*
X520270Y355094D01*
Y352066D01*
X521054Y349141D01*
X522568Y346519D01*
X524709Y344378D01*
X527331Y342864D01*
X530256Y342080D01*
X533284D01*
X536209Y342864D01*
X538831Y344378D01*
X540972Y346519D01*
X542486Y349141D01*
X543270Y352066D01*
Y355094D01*
X542486Y358019D01*
X540972Y360641D01*
X538831Y362782D01*
X536209Y364296D01*
X533284Y365080D01*
D02*
G37*
G36*
X448357Y361240D02*
X445723D01*
X443180Y360559D01*
X440900Y359242D01*
X439038Y357380D01*
X437721Y355100D01*
X437040Y352556D01*
Y349924D01*
X437721Y347380D01*
X439038Y345100D01*
X440900Y343238D01*
X443180Y341922D01*
X445723Y341240D01*
X448357D01*
X450900Y341922D01*
X453180Y343238D01*
X455042Y345100D01*
X456358Y347380D01*
X457040Y349924D01*
Y352556D01*
X456358Y355100D01*
X455042Y357380D01*
X453180Y359242D01*
X450900Y360559D01*
X448357Y361240D01*
D02*
G37*
G36*
X825172Y328250D02*
X823328D01*
X821548Y327773D01*
X819952Y326851D01*
X818649Y325548D01*
X817727Y323952D01*
X817250Y322172D01*
Y320328D01*
X817727Y318548D01*
X818649Y316952D01*
X819952Y315649D01*
X821548Y314727D01*
X823328Y314250D01*
X825172D01*
X826952Y314727D01*
X828548Y315649D01*
X829851Y316952D01*
X830773Y318548D01*
X831250Y320328D01*
Y322172D01*
X830773Y323952D01*
X829851Y325548D01*
X828548Y326851D01*
X826952Y327773D01*
X825172Y328250D01*
D02*
G37*
G36*
X857132Y328140D02*
X855288D01*
X853508Y327663D01*
X851912Y326741D01*
X850609Y325438D01*
X849687Y323842D01*
X849210Y322062D01*
Y320218D01*
X849687Y318438D01*
X850609Y316842D01*
X851912Y315539D01*
X853508Y314617D01*
X855288Y314140D01*
X857132D01*
X858912Y314617D01*
X860508Y315539D01*
X861811Y316842D01*
X862733Y318438D01*
X863210Y320218D01*
Y322062D01*
X862733Y323842D01*
X861811Y325438D01*
X860508Y326741D01*
X858912Y327663D01*
X857132Y328140D01*
D02*
G37*
G36*
X490112Y304180D02*
X488268D01*
X486488Y303703D01*
X484892Y302781D01*
X483589Y301478D01*
X482667Y299882D01*
X482190Y298102D01*
Y296258D01*
X482667Y294478D01*
X483589Y292882D01*
X484892Y291579D01*
X486488Y290657D01*
X488268Y290180D01*
X490112D01*
X491892Y290657D01*
X493488Y291579D01*
X494791Y292882D01*
X495713Y294478D01*
X496190Y296258D01*
Y298102D01*
X495713Y299882D01*
X494791Y301478D01*
X493488Y302781D01*
X491892Y303703D01*
X490112Y304180D01*
D02*
G37*
%LPD*%
G36*
X1317465Y975507D02*
X1319068Y973418D01*
X1319944Y972746D01*
X1319958Y972709D01*
X1319812Y971246D01*
X1319046Y970734D01*
X1319046Y970734D01*
X1298252Y949940D01*
X1297078Y950426D01*
Y963311D01*
X1310239Y976472D01*
X1317065D01*
X1317465Y975507D01*
D02*
G37*
G36*
X1225692Y848265D02*
Y794459D01*
X1201252Y770019D01*
X1200078Y770505D01*
Y835311D01*
X1202827Y838059D01*
X1204167Y837603D01*
X1204761Y836168D01*
X1206168Y834761D01*
X1208005Y834000D01*
X1209995D01*
X1211832Y834761D01*
X1213239Y836168D01*
X1214000Y838005D01*
Y838232D01*
X1224518Y848751D01*
X1225692Y848265D01*
D02*
G37*
D10*
X270000Y1233000D02*
X316500Y1279500D01*
X270000Y642250D02*
X292250Y620000D01*
X270000Y642250D02*
Y1233000D01*
X404340Y620000D02*
X425450Y598890D01*
X292250Y620000D02*
X404340D01*
X1562157Y1279500D02*
X1582000Y1259657D01*
X316500Y1279500D02*
X1562157D01*
X1582000Y872250D02*
Y1259657D01*
X1562500Y852750D02*
X1582000Y872250D01*
X1544750Y852750D02*
X1562500D01*
X644500Y578000D02*
Y652000D01*
X644000Y577500D02*
X644500Y578000D01*
Y652000D02*
X808750Y816250D01*
X993000D01*
X1079000D02*
X1079370D01*
X1190010Y926890D01*
X842010Y412020D02*
X914030Y340000D01*
X842010Y412020D02*
Y414020D01*
X914030Y340000D02*
X1110000D01*
X1350000Y580000D01*
X1328130Y780020D02*
X1350000Y758150D01*
Y580000D02*
Y758150D01*
X1326630Y780020D02*
X1328130D01*
X756000Y864000D02*
X906000D01*
X936460Y894460D01*
X1252000Y929750D02*
X1254000D01*
X1266000Y941750D02*
Y1019350D01*
X1254000Y929750D02*
X1266000Y941750D01*
X1254000Y1031350D02*
X1266000Y1019350D01*
X1252000Y1031350D02*
X1254000D01*
X1132840Y628650D02*
X1167130D01*
X425450Y805730D02*
X459740D01*
X425450Y805730D02*
X425450Y805730D01*
X391160D02*
X425450D01*
X425450Y805730D01*
X1225000Y930000D02*
Y1000000D01*
X1156990Y952064D02*
X1214000Y1009074D01*
Y1135000D01*
X1216000Y1137000D01*
X1096000Y801000D02*
X1225000Y930000D01*
X918500Y584000D02*
Y609904D01*
X871760Y656644D02*
X918500Y609904D01*
X871760Y656644D02*
Y683510D01*
X880750Y692500D01*
X1385000Y953459D02*
X1457000Y881459D01*
X1385000Y953459D02*
Y954000D01*
X1457000Y879750D02*
Y881459D01*
X1190010Y1183260D02*
X1274000Y1099270D01*
Y1076750D02*
Y1099270D01*
X1156990Y926890D02*
Y952064D01*
X1254000Y1056750D02*
X1274000Y1076750D01*
X1238000Y1051779D02*
Y1070150D01*
X1250000Y1082150D02*
X1252000D01*
X1238000Y1070150D02*
X1250000Y1082150D01*
X1238000Y1051779D02*
X1246430Y1043350D01*
X1150000Y663000D02*
Y673000D01*
X1179130Y702130D01*
Y750615D02*
X1196000Y767485D01*
Y837000D01*
X1167130Y681014D02*
X1185130Y699014D01*
Y748130D02*
X1229770Y792770D01*
X1179130Y702130D02*
Y750615D01*
X1185130Y699014D02*
Y748130D01*
X1196000Y837000D02*
X1287000Y928000D01*
X1167130Y628650D02*
Y681014D01*
X1229770Y792770D02*
Y851285D01*
X1240270Y853299D02*
X1305000Y918029D01*
X1229770Y851285D02*
X1299000Y920515D01*
X1305000Y918029D02*
Y930207D01*
X1299000Y920515D02*
Y944921D01*
X1317943Y943150D02*
X1335171D01*
X1209000Y839000D02*
X1293000Y923000D01*
Y965000D01*
X1305000Y930207D02*
X1317943Y943150D01*
X1240270Y792720D02*
Y853299D01*
X1287000Y928000D02*
Y1015321D01*
X1246430Y1043350D02*
X1258970D01*
X1287000Y1015321D01*
X1252000Y1056750D02*
X1254000D01*
X987079Y951921D02*
X1010000Y929000D01*
X987079Y951921D02*
Y1060161D01*
X964630Y1082610D02*
X987079Y1060161D01*
X963130Y1082610D02*
X964630D01*
X918222Y947478D02*
X936460Y929240D01*
X900750Y1083250D02*
X918222Y1065778D01*
Y947478D02*
Y1065778D01*
X1335171Y943150D02*
X1348200Y956179D01*
Y1027350D01*
X1334471Y1018650D02*
X1342200Y1010921D01*
X1334471Y967850D02*
X1342200Y975580D01*
Y1010921D01*
X1314200Y1044750D02*
X1326200Y1056750D01*
X1328200Y1031350D02*
X1344200D01*
X1314200Y1026379D02*
X1321929Y1018650D01*
X1344200Y1031350D02*
X1348200Y1027350D01*
X1321929Y1018650D02*
X1334471D01*
X1326200Y1056750D02*
X1328200D01*
X1299000Y944921D02*
X1321929Y967850D01*
X1314200Y1026379D02*
Y1044750D01*
X1321929Y967850D02*
X1334471D01*
X1293000Y965000D02*
X1308550Y980550D01*
X1328200D01*
X936460Y894460D02*
Y929240D01*
X880750Y692500D02*
X888768D01*
X900610Y704342D01*
Y725070D01*
X891610Y734070D02*
X900610Y725070D01*
X890110Y734070D02*
X891610D01*
X452500Y475250D02*
Y484250D01*
X760447Y446783D02*
X791210Y416020D01*
X480967Y446783D02*
X760447D01*
X791210Y414020D02*
Y416020D01*
X452500Y475250D02*
X480967Y446783D01*
X542500Y484250D02*
X573000Y453750D01*
X778880D01*
X816610Y414020D02*
Y416020D01*
X778880Y453750D02*
X816610Y416020D01*
X1005840Y367030D02*
Y385160D01*
X924750Y466250D02*
X1005840Y385160D01*
X980500Y367090D02*
Y401000D01*
X921250Y460250D02*
X980500Y401000D01*
X615980Y460250D02*
X921250D01*
X613410Y488220D02*
Y490220D01*
Y488220D02*
X635380Y466250D01*
X924750D01*
X588010Y488220D02*
X615980Y460250D01*
X980440Y367030D02*
X980500Y367090D01*
X588010Y488220D02*
Y490220D01*
X403160Y586890D02*
X447740D01*
X391160Y598890D02*
X403160Y586890D01*
X447740D02*
X459740Y598890D01*
X366520Y664250D02*
X391160Y688890D01*
X339000Y664250D02*
X366520D01*
X715010Y414020D02*
Y416020D01*
D13*
X848430Y734070D02*
X860970Y721530D01*
Y595830D02*
Y721530D01*
X849470Y584330D02*
X860970Y595830D01*
X846930Y734070D02*
X848430D01*
D24*
X486770Y418580D02*
D03*
X531770D02*
D03*
Y353580D02*
D03*
D26*
X486770D02*
D03*
D35*
X487860Y1158840D02*
D03*
X457860D02*
D03*
X487860Y1130900D02*
D03*
X457860D02*
D03*
X487860Y1102960D02*
D03*
X457860D02*
D03*
X487860Y1075020D02*
D03*
X457860D02*
D03*
X1544750Y852750D02*
D03*
X1514750D02*
D03*
X814830Y365590D02*
D03*
X863830D02*
D03*
X880750Y1083250D02*
D03*
X900750D02*
D03*
X657860Y373060D02*
D03*
Y353060D02*
D03*
X600710Y373060D02*
D03*
Y353060D02*
D03*
X715010Y373220D02*
D03*
Y353220D02*
D03*
D44*
X514170Y730730D02*
X544900Y700000D01*
X546900D01*
X442074Y730730D02*
X514170D01*
X435250Y519250D02*
X805750D01*
X1007810Y1068110D02*
Y1069610D01*
X1041750Y701750D02*
Y1034170D01*
X1007810Y1068110D02*
X1041750Y1034170D01*
Y627560D02*
Y701750D01*
Y595750D02*
Y627560D01*
X1088064Y673874D01*
X531250Y850000D02*
X964250D01*
X505000Y823750D02*
X531250Y850000D01*
X964250D02*
X1018750Y904500D01*
X740410Y400750D02*
X741000D01*
X740410D02*
Y414020D01*
Y378620D02*
Y400750D01*
X741000D02*
X762750Y379000D01*
X339090Y677250D02*
Y735330D01*
X339000Y677250D02*
X339090D01*
X482230Y760730D02*
X505000Y783500D01*
X339090Y760730D02*
X482230D01*
X505000Y783500D02*
Y823750D01*
X918500Y674000D02*
X920124D01*
X934794Y659330D01*
X999330D01*
X1041750Y701750D01*
X918335Y674165D02*
X918500Y674000D01*
X883760Y674330D02*
X883925Y674165D01*
X918335D01*
X1088064Y480775D02*
Y673874D01*
X1041400Y435610D02*
X1042899D01*
X1088064Y480775D01*
Y673874D02*
X1132840Y718650D01*
X600790Y353140D02*
X714930D01*
X1031240Y370654D02*
X1041400Y380814D01*
X1031240Y367030D02*
Y370654D01*
X1041400Y380814D02*
Y435610D01*
X427074Y715730D02*
X442074Y730730D01*
X425450Y715730D02*
X427074D01*
X435250Y519250D02*
X487000Y571000D01*
X418000Y502000D02*
X435250Y519250D01*
X418000Y470280D02*
X447040Y441240D01*
X418000Y470280D02*
Y502000D01*
X487000Y571000D02*
Y627340D01*
X425450Y688890D02*
X487000Y627340D01*
X425450Y688890D02*
Y715730D01*
X715010Y353220D02*
X740410Y378620D01*
X447000Y441200D02*
X447040Y441240D01*
X447000Y404000D02*
Y441200D01*
Y404000D02*
X455875Y395125D01*
X504375D02*
X513250Y386250D01*
X455875Y395125D02*
X504375D01*
X540114Y386250D02*
X573304Y353060D01*
X600710D01*
X513250Y386250D02*
X540114D01*
X714930Y353140D02*
X715010Y353220D01*
X600710Y353060D02*
X600790Y353140D01*
X791250Y490260D02*
Y504750D01*
X791210Y490220D02*
X791250Y490260D01*
Y504750D02*
X805750Y519250D01*
X965250D01*
X1041750Y595750D01*
X1006310Y1069610D02*
X1007810D01*
D45*
X1100000Y1171000D02*
D03*
D46*
X1075000Y1121000D02*
D03*
X1125000D02*
D03*
X694000Y775000D02*
D03*
Y825000D02*
D03*
X936460Y1019240D02*
D03*
Y929240D02*
D03*
X425450Y598890D02*
D03*
Y688890D02*
D03*
Y715730D02*
D03*
Y805730D02*
D03*
X459740Y688890D02*
D03*
Y598890D02*
D03*
X902170Y1019240D02*
D03*
Y929240D02*
D03*
X459740Y805730D02*
D03*
Y715730D02*
D03*
X867880Y1019240D02*
D03*
Y929240D02*
D03*
X391160Y598890D02*
D03*
Y688890D02*
D03*
X1457000Y969750D02*
D03*
Y879750D02*
D03*
X657750Y1204250D02*
D03*
X567750D02*
D03*
X391160Y805730D02*
D03*
Y715730D02*
D03*
X1489500Y969750D02*
D03*
Y879750D02*
D03*
X918500Y584000D02*
D03*
Y674000D02*
D03*
X883760Y584330D02*
D03*
Y674330D02*
D03*
X1156990Y1183260D02*
D03*
Y1093260D02*
D03*
X1132840Y628650D02*
D03*
Y718650D02*
D03*
X863000Y798000D02*
D03*
X953000D02*
D03*
X815180Y584330D02*
D03*
Y674330D02*
D03*
X849470Y584330D02*
D03*
Y674330D02*
D03*
X1190010Y926890D02*
D03*
Y1016890D02*
D03*
X1156990Y926890D02*
D03*
Y1016890D02*
D03*
X1270000Y718820D02*
D03*
Y628820D02*
D03*
X1201420Y718820D02*
D03*
Y628820D02*
D03*
X1304290D02*
D03*
Y718820D02*
D03*
X1090950Y1016890D02*
D03*
Y926890D02*
D03*
X780890Y584330D02*
D03*
Y674330D02*
D03*
X952340Y674330D02*
D03*
Y584330D02*
D03*
X746600Y674330D02*
D03*
Y584330D02*
D03*
X1123970Y926890D02*
D03*
Y1016890D02*
D03*
X1190010Y1093260D02*
D03*
Y1183260D02*
D03*
X1167130Y718650D02*
D03*
Y628650D02*
D03*
X1235710Y718820D02*
D03*
Y628820D02*
D03*
X447040Y351240D02*
D03*
Y441240D02*
D03*
X452500Y484250D02*
D03*
X542500D02*
D03*
X610000Y1077500D02*
D03*
Y1127500D02*
D03*
X487500Y950000D02*
D03*
Y1000000D02*
D03*
X735000Y1077500D02*
D03*
Y1127500D02*
D03*
Y950000D02*
D03*
Y1000000D02*
D03*
X610000Y950000D02*
D03*
Y1000000D02*
D03*
X1398250Y1209000D02*
D03*
Y1159000D02*
D03*
X1275750Y1209000D02*
D03*
Y1159000D02*
D03*
X892500Y1168500D02*
D03*
Y1203500D02*
D03*
X982500Y1168750D02*
D03*
Y1203750D02*
D03*
X1162500Y770000D02*
D03*
Y805000D02*
D03*
X779000Y1204000D02*
D03*
X689000D02*
D03*
X1010000Y929000D02*
D03*
Y1019000D02*
D03*
X972000Y929000D02*
D03*
Y1019000D02*
D03*
X1425000Y820000D02*
D03*
X1515000D02*
D03*
D47*
X744000Y800000D02*
D03*
D48*
X1056640Y367030D02*
D03*
X1031240D02*
D03*
X1005840D02*
D03*
X613410Y414020D02*
D03*
X638810D02*
D03*
X664210D02*
D03*
X689610D02*
D03*
X715010D02*
D03*
X740410D02*
D03*
X765810D02*
D03*
X791210D02*
D03*
X816610D02*
D03*
X842010D02*
D03*
X867410D02*
D03*
X892810D02*
D03*
X918210D02*
D03*
X588010Y490220D02*
D03*
X613410D02*
D03*
X638810D02*
D03*
X664210D02*
D03*
X689610D02*
D03*
X715010D02*
D03*
X740410D02*
D03*
X765810D02*
D03*
X791210D02*
D03*
X816610D02*
D03*
X842010D02*
D03*
X867410D02*
D03*
X892810D02*
D03*
X918210D02*
D03*
D49*
X980440Y367030D02*
D03*
X588010Y414020D02*
D03*
D50*
X990600Y435610D02*
D03*
X1016000D02*
D03*
X1041400D02*
D03*
X990600Y461010D02*
D03*
X1016000D02*
D03*
X339090Y735330D02*
D03*
Y760730D02*
D03*
D51*
X1041400Y461010D02*
D03*
D52*
X339090Y786130D02*
D03*
D53*
X408940Y1214120D02*
D03*
X328930Y342900D02*
D03*
X1510000Y330000D02*
D03*
X1530000Y1230000D02*
D03*
D54*
X1409500Y742500D02*
D03*
D55*
X1529500D02*
D03*
X1409500Y620500D02*
D03*
X1529500D02*
D03*
X1469500Y762500D02*
D03*
D56*
X306550Y963140D02*
D03*
X366550D02*
D03*
X306550Y1023140D02*
D03*
X310000Y1125000D02*
D03*
X1527000Y1123000D02*
D03*
D57*
X366550Y1023140D02*
D03*
D58*
X756760Y735770D02*
D03*
Y705770D02*
D03*
X762750Y379000D02*
D03*
Y349000D02*
D03*
X708500Y541750D02*
D03*
X678500D02*
D03*
X489190Y297180D02*
D03*
X519190D02*
D03*
X886210Y321140D02*
D03*
X856210D02*
D03*
X794250Y321250D02*
D03*
X824250D02*
D03*
D59*
X310000Y1175000D02*
D03*
X1527000Y1063000D02*
D03*
D60*
X1547750Y953800D02*
D03*
D61*
Y928400D02*
D03*
Y903000D02*
D03*
D62*
X1006310Y1095610D02*
D03*
Y1082610D02*
D03*
Y1069610D02*
D03*
X963130Y1095610D02*
D03*
Y1082610D02*
D03*
Y1069610D02*
D03*
X339000Y677250D02*
D03*
Y664250D02*
D03*
Y651250D02*
D03*
X890110Y734070D02*
D03*
Y721070D02*
D03*
Y708070D02*
D03*
X846930Y734070D02*
D03*
Y721070D02*
D03*
Y708070D02*
D03*
X1326630Y793020D02*
D03*
Y780020D02*
D03*
Y767020D02*
D03*
X933290Y734070D02*
D03*
Y721070D02*
D03*
Y708070D02*
D03*
X1283450Y793020D02*
D03*
Y780020D02*
D03*
Y767020D02*
D03*
X1240270Y792720D02*
D03*
Y779720D02*
D03*
Y766720D02*
D03*
X803750Y734070D02*
D03*
Y721070D02*
D03*
Y708070D02*
D03*
D63*
X1413250Y1095250D02*
D03*
Y895250D02*
D03*
D64*
X1252000Y1082150D02*
D03*
Y1056750D02*
D03*
Y1031350D02*
D03*
Y1005950D02*
D03*
Y980550D02*
D03*
Y955150D02*
D03*
Y929750D02*
D03*
X1328200Y1082150D02*
D03*
Y1056750D02*
D03*
Y1031350D02*
D03*
Y1005950D02*
D03*
Y980550D02*
D03*
Y955150D02*
D03*
X623100Y623800D02*
D03*
Y649200D02*
D03*
Y674600D02*
D03*
Y700000D02*
D03*
Y725400D02*
D03*
Y750800D02*
D03*
Y776200D02*
D03*
X546900Y623800D02*
D03*
Y649200D02*
D03*
Y674600D02*
D03*
Y700000D02*
D03*
Y725400D02*
D03*
Y750800D02*
D03*
D65*
X1328200Y929750D02*
D03*
X546900Y776200D02*
D03*
D66*
X644000Y577500D02*
D03*
X993000Y816250D02*
D03*
X1079000D02*
D03*
X756000Y864000D02*
D03*
X1225000Y1000000D02*
D03*
X1096000Y801000D02*
D03*
X1385000Y954000D02*
D03*
X1216000Y1137000D02*
D03*
X1150000Y663000D02*
D03*
X1209000Y839000D02*
D03*
X1018750Y904500D02*
D03*
M02*
