G04*
G04 #@! TF.GenerationSoftware,Altium Limited,Altium Designer,22.0.2 (36)*
G04*
G04 Layer_Physical_Order=2*
G04 Layer_Color=16711680*
%FSLAX44Y44*%
%MOMM*%
G71*
G04*
G04 #@! TF.SameCoordinates,5839D2CD-8417-4FFE-AC2F-3A0E45452BBB*
G04*
G04*
G04 #@! TF.FilePolarity,Positive*
G04*
G01*
G75*
%ADD10C,0.4000*%
%ADD13C,0.3000*%
%ADD24C,1.9000*%
%ADD26R,1.9000X1.9000*%
%ADD35C,1.2000*%
%ADD44C,1.0000*%
%ADD45R,1.6000X1.6000*%
%ADD46C,1.6000*%
%ADD47R,1.6000X1.6000*%
%ADD48O,1.6000X2.0000*%
%ADD49R,1.6000X2.0000*%
%ADD50C,1.7000*%
%ADD51R,1.7000X1.7000*%
%ADD52R,1.7000X1.7000*%
%ADD53C,7.4000*%
%ADD54R,2.1000X2.1000*%
%ADD55C,2.1000*%
%ADD56C,3.5000*%
%ADD57R,3.5000X3.5000*%
%ADD58C,1.0000*%
%ADD59R,3.5000X3.5000*%
%ADD60R,2.2000X1.6000*%
%ADD61O,2.2000X1.6000*%
%ADD62O,1.3000X1.0000*%
%ADD63C,3.0000*%
%ADD64O,2.0000X1.6000*%
%ADD65R,2.0000X1.6000*%
%ADD66C,0.6000*%
%ADD67C,1.5000*%
%ADD68C,4.0000*%
%ADD69C,3.0000*%
%ADD70C,2.9500*%
%ADD71C,2.0000*%
G36*
X1590000Y924923D02*
X1588827Y924437D01*
X1572784Y940479D01*
X1570196Y942603D01*
X1567242Y944182D01*
X1564038Y945154D01*
X1560750Y945478D01*
Y963800D01*
X1534750D01*
Y963382D01*
X1513955D01*
X1511475Y963055D01*
X1509164Y962098D01*
X1507180Y960575D01*
X1503436Y956832D01*
X1418750D01*
X1416270Y956506D01*
X1413959Y955548D01*
X1411974Y954025D01*
X1397281Y939332D01*
X1340200D01*
Y939750D01*
X1316200D01*
Y919750D01*
X1340200D01*
Y920168D01*
X1401250D01*
X1403730Y920495D01*
X1406041Y921452D01*
X1408026Y922975D01*
X1422719Y937668D01*
X1507405D01*
X1509885Y937995D01*
X1512196Y938952D01*
X1514180Y940474D01*
X1517924Y944218D01*
X1534750D01*
Y943800D01*
X1538415D01*
X1538724Y942568D01*
X1538399Y942394D01*
X1535849Y940301D01*
X1533755Y937751D01*
X1532200Y934841D01*
X1531242Y931684D01*
X1530919Y928400D01*
X1531242Y925116D01*
X1532200Y921959D01*
X1533755Y919049D01*
X1535849Y916499D01*
X1538399Y914406D01*
X1540336Y913370D01*
X1540351Y913278D01*
X1540052Y912082D01*
X1530576D01*
X1511829Y930829D01*
X1509240Y932953D01*
X1506287Y934532D01*
X1503083Y935504D01*
X1499750Y935832D01*
X1436750D01*
X1433417Y935504D01*
X1430213Y934532D01*
X1427260Y932953D01*
X1424671Y930829D01*
X1403457Y909615D01*
X1403080Y909992D01*
X1401618Y911115D01*
X1399915Y911820D01*
X1398088Y912060D01*
X1265000D01*
X1263173Y911820D01*
X1262546Y911560D01*
X1260345D01*
X1259819Y912830D01*
X1268884Y921896D01*
X1268884Y921896D01*
X1269768Y923219D01*
X1270078Y924780D01*
Y968550D01*
X1269768Y970111D01*
X1268884Y971434D01*
X1268884Y971434D01*
X1263343Y976975D01*
X1263743Y977940D01*
X1264086Y980550D01*
X1263743Y983160D01*
X1262735Y985593D01*
X1261132Y987682D01*
X1259043Y989285D01*
X1256610Y990293D01*
X1254000Y990636D01*
X1250000D01*
X1247390Y990293D01*
X1244957Y989285D01*
X1242868Y987682D01*
X1241265Y985593D01*
X1240257Y983160D01*
X1239914Y980550D01*
X1240257Y977940D01*
X1241265Y975507D01*
X1242868Y973418D01*
X1244957Y971815D01*
X1247390Y970807D01*
X1250000Y970464D01*
X1254000D01*
X1256610Y970807D01*
X1257575Y971207D01*
X1261922Y966861D01*
Y963261D01*
X1260652Y962651D01*
X1259043Y963885D01*
X1256610Y964893D01*
X1254000Y965236D01*
X1250000D01*
X1247390Y964893D01*
X1247044Y964749D01*
X1199121Y1012671D01*
X1199329Y1013030D01*
X1200010Y1015574D01*
Y1018206D01*
X1199329Y1020750D01*
X1198012Y1023030D01*
X1196150Y1024892D01*
X1193870Y1026208D01*
X1191327Y1026890D01*
X1188693D01*
X1186150Y1026208D01*
X1183870Y1024892D01*
X1182008Y1023030D01*
X1180818Y1020968D01*
X1166182D01*
X1164992Y1023030D01*
X1163130Y1024892D01*
X1160850Y1026208D01*
X1158307Y1026890D01*
X1155674D01*
X1153130Y1026208D01*
X1150850Y1024892D01*
X1148988Y1023030D01*
X1147672Y1020750D01*
X1146990Y1018206D01*
Y1015574D01*
X1147672Y1013030D01*
X1148988Y1010750D01*
X1150850Y1008888D01*
X1153130Y1007571D01*
X1155674Y1006890D01*
X1158307D01*
X1160850Y1007571D01*
X1163130Y1008888D01*
X1164992Y1010750D01*
X1166182Y1012812D01*
X1180818D01*
X1182008Y1010750D01*
X1183870Y1008888D01*
X1186150Y1007571D01*
X1188693Y1006890D01*
X1191327D01*
X1192936Y1007321D01*
X1240913Y959344D01*
X1240257Y957760D01*
X1239914Y955150D01*
X1240257Y952540D01*
X1241265Y950107D01*
X1242868Y948018D01*
X1244957Y946415D01*
X1247390Y945407D01*
X1250000Y945064D01*
X1254000D01*
X1256610Y945407D01*
X1259043Y946415D01*
X1260652Y947649D01*
X1261922Y947039D01*
Y937861D01*
X1260652Y937251D01*
X1259043Y938485D01*
X1256610Y939493D01*
X1254000Y939836D01*
X1250000D01*
X1247390Y939493D01*
X1244957Y938485D01*
X1242868Y936882D01*
X1241265Y934793D01*
X1240273Y932398D01*
X1198377D01*
X1198012Y933030D01*
X1196150Y934892D01*
X1193870Y936208D01*
X1191327Y936890D01*
X1188693D01*
X1186150Y936208D01*
X1183870Y934892D01*
X1182008Y933030D01*
X1180692Y930750D01*
X1180010Y928207D01*
Y925574D01*
X1180692Y923030D01*
X1182008Y920750D01*
X1182616Y920142D01*
X1182130Y918968D01*
X1164870D01*
X1164384Y920142D01*
X1164992Y920750D01*
X1166309Y923030D01*
X1166990Y925574D01*
Y928207D01*
X1166309Y930750D01*
X1164992Y933030D01*
X1163130Y934892D01*
X1160850Y936208D01*
X1158307Y936890D01*
X1155674D01*
X1153130Y936208D01*
X1150850Y934892D01*
X1148988Y933030D01*
X1147672Y930750D01*
X1146990Y928207D01*
Y925574D01*
X1147672Y923030D01*
X1148988Y920750D01*
X1149596Y920142D01*
X1149110Y918968D01*
X1137659D01*
X1133354Y923274D01*
X1133970Y925574D01*
Y928207D01*
X1133288Y930750D01*
X1131972Y933030D01*
X1130110Y934892D01*
X1127830Y936208D01*
X1125286Y936890D01*
X1122654D01*
X1120110Y936208D01*
X1117830Y934892D01*
X1115968Y933030D01*
X1114778Y930968D01*
X1100142D01*
X1098952Y933030D01*
X1097090Y934892D01*
X1094810Y936208D01*
X1092266Y936890D01*
X1089633D01*
X1087090Y936208D01*
X1084810Y934892D01*
X1082948Y933030D01*
X1081631Y930750D01*
X1080950Y928206D01*
Y925574D01*
X1081631Y923030D01*
X1082948Y920750D01*
X1084810Y918888D01*
X1087090Y917571D01*
X1089633Y916890D01*
X1092266D01*
X1094810Y917571D01*
X1097090Y918888D01*
X1098952Y920750D01*
X1100142Y922812D01*
X1114778D01*
X1115968Y920750D01*
X1117830Y918888D01*
X1120110Y917571D01*
X1122654Y916890D01*
X1125286D01*
X1127586Y917506D01*
X1132262Y912830D01*
X1131736Y911560D01*
X1037705D01*
X1037219Y912734D01*
X1095943Y971458D01*
X1097065Y972920D01*
X1097770Y974623D01*
X1098010Y976450D01*
Y1009808D01*
X1098952Y1010750D01*
X1100268Y1013030D01*
X1100950Y1015574D01*
Y1018206D01*
X1100268Y1020750D01*
X1098952Y1023030D01*
X1097090Y1024892D01*
X1094810Y1026208D01*
X1092266Y1026890D01*
X1089633D01*
X1087090Y1026208D01*
X1084810Y1024892D01*
X1082948Y1023030D01*
X1081631Y1020750D01*
X1080950Y1018206D01*
Y1015574D01*
X1081631Y1013030D01*
X1082948Y1010750D01*
X1083890Y1009808D01*
Y979374D01*
X1014832Y910317D01*
X1013758Y909492D01*
X1012635Y908030D01*
X1011930Y906327D01*
X1011690Y904500D01*
X1011930Y902673D01*
X1012635Y900970D01*
X1013758Y899508D01*
X1015220Y898385D01*
X1016923Y897680D01*
X1018750Y897440D01*
X1264500D01*
X1266327Y897680D01*
X1266954Y897940D01*
X1395164D01*
X1396250Y896853D01*
Y896085D01*
X1396168Y895250D01*
X1396250Y894415D01*
Y893576D01*
X1396414Y892752D01*
X1396496Y891917D01*
X1396740Y891114D01*
X1396903Y890291D01*
X1397224Y889516D01*
X1397468Y888713D01*
X1397864Y887973D01*
X1398185Y887197D01*
X1398651Y886500D01*
X1399047Y885760D01*
X1399579Y885111D01*
X1400045Y884413D01*
X1400639Y883820D01*
X1401171Y883171D01*
X1401820Y882639D01*
X1402413Y882045D01*
X1403111Y881579D01*
X1403760Y881047D01*
X1404500Y880651D01*
X1405197Y880185D01*
X1405973Y879864D01*
X1406713Y879468D01*
X1407516Y879224D01*
X1408291Y878903D01*
X1409115Y878740D01*
X1409917Y878496D01*
X1410752Y878414D01*
X1411576Y878250D01*
X1412415D01*
X1413250Y878168D01*
X1414085Y878250D01*
X1414924D01*
X1415748Y878414D01*
X1416583Y878496D01*
X1417386Y878740D01*
X1418209Y878903D01*
X1418984Y879224D01*
X1419787Y879468D01*
X1420527Y879864D01*
X1421302Y880185D01*
X1422000Y880651D01*
X1422740Y881047D01*
X1423389Y881579D01*
X1424087Y882045D01*
X1424680Y882639D01*
X1425329Y883171D01*
X1443826Y901668D01*
X1492674D01*
X1511421Y882921D01*
X1514010Y880797D01*
X1516963Y879218D01*
X1520167Y878246D01*
X1523500Y877918D01*
X1546000D01*
X1549333Y878246D01*
X1552537Y879218D01*
X1555490Y880797D01*
X1558079Y882921D01*
X1559648Y884833D01*
X1560918Y884378D01*
Y604326D01*
X1552674Y596082D01*
X1458076D01*
X1421579Y632579D01*
X1418990Y634703D01*
X1416037Y636282D01*
X1412833Y637254D01*
X1409500Y637582D01*
X1406167Y637254D01*
X1402963Y636282D01*
X1400010Y634703D01*
X1397421Y632579D01*
X1395297Y629990D01*
X1393718Y627037D01*
X1392746Y623833D01*
X1392457Y620898D01*
X1312170D01*
X1311684Y622072D01*
X1312292Y622680D01*
X1313609Y624960D01*
X1314290Y627504D01*
Y630136D01*
X1313609Y632680D01*
X1312292Y634960D01*
X1310430Y636822D01*
X1308150Y638139D01*
X1305607Y638820D01*
X1302973D01*
X1300674Y638204D01*
X1293994Y644884D01*
X1292671Y645768D01*
X1291110Y646078D01*
X1291110Y646078D01*
X1248890D01*
X1248890Y646078D01*
X1247329Y645768D01*
X1246006Y644884D01*
X1246006Y644884D01*
X1239326Y638204D01*
X1237027Y638820D01*
X1234393D01*
X1232094Y638204D01*
X1189078Y681219D01*
Y737261D01*
X1196882Y745065D01*
X1197869Y744255D01*
X1197652Y743931D01*
X1197342Y742370D01*
X1197342Y742370D01*
Y728012D01*
X1195280Y726822D01*
X1193418Y724960D01*
X1192102Y722680D01*
X1191420Y720136D01*
Y717504D01*
X1192102Y714960D01*
X1193418Y712680D01*
X1195280Y710818D01*
X1197560Y709501D01*
X1200104Y708820D01*
X1202737D01*
X1205280Y709501D01*
X1207560Y710818D01*
X1209422Y712680D01*
X1210739Y714960D01*
X1211420Y717504D01*
Y720136D01*
X1210739Y722680D01*
X1209422Y724960D01*
X1207560Y726822D01*
X1205498Y728012D01*
Y740681D01*
X1237628Y772810D01*
X1238770Y772660D01*
X1241770D01*
X1243597Y772900D01*
X1245300Y773605D01*
X1246762Y774727D01*
X1247884Y776190D01*
X1248590Y777893D01*
X1248830Y779720D01*
X1248590Y781547D01*
X1247884Y783250D01*
X1246780Y784690D01*
X1246795Y784799D01*
X1247223Y785960D01*
X1276251D01*
X1276710Y784690D01*
X1275835Y783550D01*
X1275130Y781847D01*
X1274890Y780020D01*
X1275040Y778878D01*
X1267116Y770954D01*
X1266232Y769631D01*
X1265922Y768070D01*
X1265922Y768070D01*
Y728012D01*
X1263860Y726822D01*
X1261998Y724960D01*
X1260682Y722680D01*
X1260000Y720136D01*
Y717504D01*
X1260682Y714960D01*
X1261998Y712680D01*
X1263860Y710818D01*
X1266140Y709501D01*
X1268683Y708820D01*
X1271317D01*
X1273860Y709501D01*
X1276140Y710818D01*
X1278002Y712680D01*
X1279318Y714960D01*
X1280000Y717504D01*
Y720136D01*
X1279318Y722680D01*
X1278002Y724960D01*
X1276140Y726822D01*
X1274078Y728012D01*
Y766381D01*
X1280808Y773110D01*
X1281950Y772960D01*
X1284950D01*
X1286777Y773200D01*
X1288480Y773905D01*
X1289942Y775027D01*
X1291064Y776490D01*
X1291770Y778193D01*
X1292010Y780020D01*
X1291770Y781847D01*
X1291064Y783550D01*
X1289942Y785012D01*
X1288983Y785749D01*
X1288909Y785919D01*
Y787121D01*
X1288983Y787291D01*
X1289942Y788027D01*
X1291064Y789490D01*
X1291770Y791193D01*
X1292010Y793020D01*
X1291770Y794847D01*
X1291064Y796550D01*
X1289942Y798012D01*
X1288480Y799134D01*
X1286777Y799840D01*
X1284950Y800080D01*
X1242070D01*
X1241473Y800002D01*
X1231482Y809993D01*
X1230020Y811115D01*
X1228317Y811820D01*
X1226490Y812060D01*
X1169582D01*
X1168640Y813002D01*
X1166360Y814318D01*
X1163817Y815000D01*
X1161183D01*
X1158640Y814318D01*
X1156360Y813002D01*
X1154498Y811140D01*
X1153182Y808860D01*
X1152500Y806317D01*
Y803683D01*
X1153182Y801140D01*
X1154498Y798860D01*
X1156360Y796998D01*
X1158640Y795682D01*
X1161183Y795000D01*
X1163817D01*
X1166360Y795682D01*
X1168640Y796998D01*
X1169582Y797940D01*
X1223565D01*
X1230894Y790611D01*
X1182116Y741834D01*
X1181232Y740511D01*
X1180922Y738950D01*
X1180922Y738950D01*
Y679530D01*
X1180922Y679530D01*
X1181232Y677969D01*
X1182116Y676646D01*
X1226326Y632436D01*
X1225710Y630136D01*
Y627504D01*
X1226392Y624960D01*
X1227708Y622680D01*
X1229570Y620818D01*
X1231850Y619501D01*
X1234393Y618820D01*
X1237027D01*
X1239570Y619501D01*
X1241850Y620818D01*
X1243712Y622680D01*
X1245029Y624960D01*
X1245710Y627504D01*
Y630136D01*
X1245094Y632436D01*
X1250579Y637922D01*
X1263449D01*
X1263690Y636652D01*
X1261998Y634960D01*
X1260682Y632680D01*
X1260000Y630136D01*
Y627504D01*
X1260616Y625204D01*
X1250491Y615078D01*
X1220929D01*
X1210804Y625204D01*
X1211420Y627504D01*
Y630136D01*
X1210739Y632680D01*
X1209422Y634960D01*
X1207560Y636822D01*
X1205280Y638139D01*
X1202737Y638820D01*
X1200104D01*
X1197560Y638139D01*
X1195280Y636822D01*
X1193418Y634960D01*
X1192102Y632680D01*
X1191420Y630136D01*
Y627504D01*
X1192102Y624960D01*
X1193418Y622680D01*
X1195280Y620818D01*
X1197560Y619501D01*
X1200104Y618820D01*
X1202737D01*
X1205036Y619436D01*
X1216356Y608116D01*
X1217679Y607232D01*
X1219240Y606922D01*
X1219240Y606922D01*
X1252180D01*
X1252180Y606922D01*
X1253741Y607232D01*
X1255064Y608116D01*
X1266384Y619436D01*
X1268683Y618820D01*
X1271317D01*
X1273860Y619501D01*
X1276140Y620818D01*
X1278002Y622680D01*
X1279192Y624742D01*
X1283564D01*
X1294370Y613936D01*
X1294370Y613936D01*
X1295693Y613052D01*
X1297254Y612742D01*
X1394371D01*
X1395297Y611010D01*
X1397421Y608421D01*
X1438921Y566921D01*
X1441510Y564797D01*
X1444463Y563218D01*
X1447667Y562246D01*
X1451000Y561918D01*
X1559750D01*
X1563083Y562246D01*
X1566287Y563218D01*
X1569240Y564797D01*
X1571829Y566921D01*
X1588827Y583919D01*
X1590000Y583433D01*
Y260000D01*
X260000D01*
Y1290000D01*
X1590000D01*
Y924923D01*
D02*
G37*
G36*
X1242868Y922618D02*
X1244957Y921015D01*
X1246832Y920238D01*
X1246579Y918968D01*
X1197890D01*
X1197404Y920142D01*
X1198012Y920750D01*
X1199329Y923030D01*
X1199653Y924242D01*
X1241622D01*
X1242868Y922618D01*
D02*
G37*
%LPC*%
G36*
X659066Y1214250D02*
X656433D01*
X653890Y1213568D01*
X651610Y1212252D01*
X649748Y1210390D01*
X648431Y1208110D01*
X647750Y1205566D01*
Y1204235D01*
X605008Y1161492D01*
X603885Y1160030D01*
X603180Y1158327D01*
X602940Y1156500D01*
Y1148348D01*
X601540Y1147924D01*
X597718Y1145881D01*
X594368Y1143132D01*
X591619Y1139782D01*
X589576Y1135960D01*
X588318Y1131813D01*
X587894Y1127500D01*
X588318Y1123187D01*
X589576Y1119040D01*
X591619Y1115218D01*
X594368Y1111868D01*
X597718Y1109119D01*
X601540Y1107076D01*
X605687Y1105818D01*
X610000Y1105394D01*
X725843D01*
X759394Y1071843D01*
Y1055657D01*
X725843Y1022106D01*
X526606D01*
Y1143750D01*
X526182Y1148063D01*
X524924Y1152210D01*
X522881Y1156032D01*
X520132Y1159382D01*
X514632Y1164882D01*
X511282Y1167631D01*
X507460Y1169674D01*
X503313Y1170932D01*
X499000Y1171356D01*
X494687Y1170932D01*
X491996Y1170115D01*
X490993Y1170531D01*
X487860Y1170944D01*
X484727Y1170531D01*
X481808Y1169322D01*
X479301Y1167399D01*
X477378Y1164892D01*
X476169Y1161973D01*
X475756Y1158840D01*
Y1149250D01*
X476169Y1146117D01*
X477378Y1143198D01*
X478152Y1142190D01*
X478576Y1140790D01*
X479294Y1139448D01*
X477378Y1136952D01*
X476169Y1134033D01*
X475756Y1130900D01*
Y1102960D01*
Y1075020D01*
X476169Y1071887D01*
X477378Y1068968D01*
X479301Y1066461D01*
X481808Y1064538D01*
X482394Y1064296D01*
Y1008599D01*
X481360Y1008002D01*
X479498Y1006140D01*
X478181Y1003860D01*
X477500Y1001317D01*
Y998683D01*
X478181Y996140D01*
X479498Y993860D01*
X481360Y991998D01*
X483640Y990682D01*
X484685Y990402D01*
X486119Y987718D01*
X488868Y984368D01*
X492218Y981619D01*
X496040Y979576D01*
X500187Y978318D01*
X504500Y977894D01*
X738093D01*
X862368Y853618D01*
X862368Y853618D01*
X865718Y850869D01*
X869540Y848826D01*
X873687Y847568D01*
X878000Y847144D01*
X1333343D01*
X1376118Y804369D01*
X1376118Y804368D01*
X1387394Y793093D01*
Y742500D01*
X1387818Y738187D01*
X1389076Y734040D01*
X1391119Y730218D01*
X1393868Y726868D01*
X1397218Y724119D01*
X1401040Y722076D01*
X1405187Y720818D01*
X1409500Y720394D01*
X1413813Y720818D01*
X1417960Y722076D01*
X1421782Y724119D01*
X1425132Y726868D01*
X1438657Y740394D01*
X1469500D01*
X1473813Y740818D01*
X1477960Y742076D01*
X1481782Y744119D01*
X1485132Y746868D01*
X1487881Y750218D01*
X1489924Y754040D01*
X1491182Y758187D01*
X1491606Y762500D01*
X1491182Y766813D01*
X1489924Y770960D01*
X1487881Y774782D01*
X1485132Y778132D01*
X1481782Y780881D01*
X1477960Y782924D01*
X1473813Y784182D01*
X1469500Y784606D01*
X1431606D01*
Y799014D01*
X1433460Y799576D01*
X1437282Y801619D01*
X1440632Y804368D01*
X1443381Y807718D01*
X1445424Y811540D01*
X1446682Y815687D01*
X1447106Y820000D01*
X1446682Y824313D01*
X1445424Y828460D01*
X1443381Y832282D01*
X1440632Y835632D01*
X1437282Y838381D01*
X1433460Y840424D01*
X1429313Y841682D01*
X1425000Y842106D01*
X1400907D01*
X1358132Y884882D01*
X1354782Y887631D01*
X1350960Y889674D01*
X1346813Y890932D01*
X1342500Y891356D01*
X887157D01*
X772388Y1006125D01*
X797132Y1030868D01*
X797132Y1030868D01*
X799881Y1034218D01*
X801924Y1038040D01*
X803182Y1042187D01*
X803606Y1046500D01*
Y1081000D01*
X803182Y1085313D01*
X801924Y1089460D01*
X799881Y1093282D01*
X797132Y1096632D01*
X797132Y1096632D01*
X750632Y1143132D01*
X747282Y1145881D01*
X743460Y1147924D01*
X739313Y1149182D01*
X735000Y1149606D01*
X617060D01*
Y1153576D01*
X657735Y1194250D01*
X659066D01*
X661610Y1194931D01*
X663890Y1196248D01*
X664707Y1197065D01*
X681793D01*
X682860Y1195998D01*
X685140Y1194681D01*
X687683Y1194000D01*
X690316D01*
X692860Y1194681D01*
X695140Y1195998D01*
X697002Y1197860D01*
X698318Y1200140D01*
X699000Y1202683D01*
Y1205316D01*
X698318Y1207860D01*
X697002Y1210140D01*
X695140Y1212002D01*
X692860Y1213318D01*
X690316Y1214000D01*
X687683D01*
X685140Y1213318D01*
X682860Y1212002D01*
X682043Y1211185D01*
X664957D01*
X663890Y1212252D01*
X661610Y1213568D01*
X659066Y1214250D01*
D02*
G37*
G36*
X1191327Y1193260D02*
X1188693D01*
X1186150Y1192579D01*
X1183870Y1191262D01*
X1182008Y1189400D01*
X1180818Y1187338D01*
X1166182D01*
X1164992Y1189400D01*
X1163130Y1191262D01*
X1160850Y1192579D01*
X1158307Y1193260D01*
X1155674D01*
X1153130Y1192579D01*
X1150850Y1191262D01*
X1148988Y1189400D01*
X1147798Y1187338D01*
X1112260D01*
X1110699Y1187028D01*
X1109376Y1186144D01*
X1109376Y1186144D01*
X1104232Y1181000D01*
X1090000D01*
Y1161000D01*
X1110000D01*
Y1175232D01*
X1113949Y1179182D01*
X1147798D01*
X1148988Y1177120D01*
X1150850Y1175258D01*
X1153130Y1173941D01*
X1155674Y1173260D01*
X1158307D01*
X1160850Y1173941D01*
X1163130Y1175258D01*
X1164992Y1177120D01*
X1166182Y1179182D01*
X1180818D01*
X1182008Y1177120D01*
X1183870Y1175258D01*
X1186150Y1173941D01*
X1188693Y1173260D01*
X1191327D01*
X1193870Y1173941D01*
X1196150Y1175258D01*
X1198012Y1177120D01*
X1199329Y1179400D01*
X1200010Y1181944D01*
Y1184576D01*
X1199329Y1187120D01*
X1198012Y1189400D01*
X1196150Y1191262D01*
X1193870Y1192579D01*
X1191327Y1193260D01*
D02*
G37*
G36*
X901803Y1091250D02*
X899697D01*
X897662Y1090705D01*
X895838Y1089652D01*
X894348Y1088162D01*
X893295Y1086338D01*
X892750Y1084303D01*
Y1082197D01*
X893295Y1080162D01*
X894348Y1078338D01*
X895838Y1076848D01*
X897662Y1075795D01*
X899697Y1075250D01*
X901803D01*
X903838Y1075795D01*
X905662Y1076848D01*
X907152Y1078338D01*
X908205Y1080162D01*
X908750Y1082197D01*
Y1084303D01*
X908205Y1086338D01*
X907152Y1088162D01*
X905662Y1089652D01*
X903838Y1090705D01*
X901803Y1091250D01*
D02*
G37*
G36*
X1330200Y1092236D02*
X1326200D01*
X1323589Y1091893D01*
X1321157Y1090885D01*
X1319068Y1089282D01*
X1317465Y1087193D01*
X1316457Y1084761D01*
X1316114Y1082150D01*
X1316457Y1079539D01*
X1316857Y1078575D01*
X1263500Y1025218D01*
X1262543Y1026057D01*
X1262735Y1026307D01*
X1263743Y1028739D01*
X1264086Y1031350D01*
X1263743Y1033960D01*
X1262735Y1036393D01*
X1261132Y1038482D01*
X1259043Y1040085D01*
X1256610Y1041093D01*
X1254000Y1041436D01*
X1250000D01*
X1247390Y1041093D01*
X1244957Y1040085D01*
X1242868Y1038482D01*
X1241265Y1036393D01*
X1240257Y1033960D01*
X1239914Y1031350D01*
X1240257Y1028739D01*
X1241265Y1026307D01*
X1242728Y1024401D01*
X1242748Y1023972D01*
X1242710Y1023685D01*
X1242483Y1022913D01*
X1241466Y1022234D01*
X1241466Y1022234D01*
X1224232Y1005000D01*
X1224005D01*
X1222168Y1004239D01*
X1220761Y1002832D01*
X1220000Y1000995D01*
Y999005D01*
X1220761Y997168D01*
X1222168Y995761D01*
X1224005Y995000D01*
X1225995D01*
X1227832Y995761D01*
X1229239Y997168D01*
X1230000Y999005D01*
Y999232D01*
X1246039Y1015272D01*
X1263400D01*
X1263400Y1015272D01*
X1264961Y1015582D01*
X1266284Y1016466D01*
X1322625Y1072807D01*
X1323589Y1072407D01*
X1326200Y1072064D01*
X1330200D01*
X1332811Y1072407D01*
X1335243Y1073415D01*
X1337332Y1075018D01*
X1338935Y1077107D01*
X1339943Y1079539D01*
X1340286Y1082150D01*
X1339943Y1084761D01*
X1338935Y1087193D01*
X1337332Y1089282D01*
X1335243Y1090885D01*
X1332811Y1091893D01*
X1330200Y1092236D01*
D02*
G37*
G36*
X1254000D02*
X1250000D01*
X1247390Y1091893D01*
X1244957Y1090885D01*
X1242868Y1089282D01*
X1241265Y1087193D01*
X1240257Y1084761D01*
X1239914Y1082150D01*
X1240257Y1079539D01*
X1241265Y1077107D01*
X1242868Y1075018D01*
X1244957Y1073415D01*
X1247390Y1072407D01*
X1250000Y1072064D01*
X1254000D01*
X1256610Y1072407D01*
X1259043Y1073415D01*
X1261132Y1075018D01*
X1262735Y1077107D01*
X1263743Y1079539D01*
X1264086Y1082150D01*
X1263743Y1084761D01*
X1262735Y1087193D01*
X1261132Y1089282D01*
X1259043Y1090885D01*
X1256610Y1091893D01*
X1254000Y1092236D01*
D02*
G37*
G36*
X1330200Y1066836D02*
X1326200D01*
X1323589Y1066493D01*
X1321157Y1065485D01*
X1319068Y1063882D01*
X1317465Y1061793D01*
X1316457Y1059361D01*
X1316114Y1056750D01*
X1316457Y1054139D01*
X1317465Y1051707D01*
X1319068Y1049618D01*
X1321157Y1048015D01*
X1323589Y1047007D01*
X1326200Y1046664D01*
X1330200D01*
X1332811Y1047007D01*
X1335243Y1048015D01*
X1337332Y1049618D01*
X1338935Y1051707D01*
X1339943Y1054139D01*
X1340286Y1056750D01*
X1339943Y1059361D01*
X1338935Y1061793D01*
X1337332Y1063882D01*
X1335243Y1065485D01*
X1332811Y1066493D01*
X1330200Y1066836D01*
D02*
G37*
G36*
X1254000D02*
X1250000D01*
X1247390Y1066493D01*
X1244957Y1065485D01*
X1242868Y1063882D01*
X1241265Y1061793D01*
X1240257Y1059361D01*
X1239914Y1056750D01*
X1240257Y1054139D01*
X1241265Y1051707D01*
X1242868Y1049618D01*
X1244957Y1048015D01*
X1247390Y1047007D01*
X1250000Y1046664D01*
X1254000D01*
X1256610Y1047007D01*
X1259043Y1048015D01*
X1261132Y1049618D01*
X1262735Y1051707D01*
X1263743Y1054139D01*
X1264086Y1056750D01*
X1263743Y1059361D01*
X1262735Y1061793D01*
X1261132Y1063882D01*
X1259043Y1065485D01*
X1256610Y1066493D01*
X1254000Y1066836D01*
D02*
G37*
G36*
X1330200Y1041436D02*
X1326200D01*
X1323589Y1041093D01*
X1321157Y1040085D01*
X1319068Y1038482D01*
X1317465Y1036393D01*
X1316457Y1033960D01*
X1316114Y1031350D01*
X1316457Y1028739D01*
X1317465Y1026307D01*
X1319068Y1024218D01*
X1321157Y1022615D01*
X1323589Y1021607D01*
X1326200Y1021264D01*
X1330200D01*
X1332811Y1021607D01*
X1335243Y1022615D01*
X1337332Y1024218D01*
X1338935Y1026307D01*
X1339943Y1028739D01*
X1340286Y1031350D01*
X1339943Y1033960D01*
X1338935Y1036393D01*
X1337332Y1038482D01*
X1335243Y1040085D01*
X1332811Y1041093D01*
X1330200Y1041436D01*
D02*
G37*
G36*
X780316Y1214000D02*
X777683D01*
X775140Y1213318D01*
X772860Y1212002D01*
X770998Y1210140D01*
X769681Y1207860D01*
X769000Y1205316D01*
Y1202683D01*
X769681Y1200140D01*
X770998Y1197860D01*
X772860Y1195998D01*
X775140Y1194681D01*
X777683Y1194000D01*
X779148D01*
X779771Y1193918D01*
X889623D01*
X891183Y1193500D01*
X892515D01*
X939940Y1146076D01*
Y1110240D01*
X940180Y1108413D01*
X940885Y1106710D01*
X942008Y1105247D01*
X950915Y1096340D01*
X947116Y1092541D01*
X946232Y1091218D01*
X945922Y1089657D01*
X945922Y1089657D01*
Y1070897D01*
X904100Y1029076D01*
X903486Y1029240D01*
X900854D01*
X898310Y1028559D01*
X896030Y1027242D01*
X894168Y1025380D01*
X892978Y1023318D01*
X877072D01*
X875882Y1025380D01*
X874020Y1027242D01*
X871740Y1028559D01*
X869196Y1029240D01*
X866563D01*
X864020Y1028559D01*
X861740Y1027242D01*
X859878Y1025380D01*
X858561Y1023100D01*
X857880Y1020556D01*
Y1017924D01*
X858561Y1015380D01*
X859878Y1013100D01*
X861740Y1011238D01*
X864020Y1009921D01*
X866563Y1009240D01*
X869196D01*
X871740Y1009921D01*
X874020Y1011238D01*
X875882Y1013100D01*
X877072Y1015162D01*
X892978D01*
X894168Y1013100D01*
X896030Y1011238D01*
X898310Y1009921D01*
X900854Y1009240D01*
X903486D01*
X906030Y1009921D01*
X908310Y1011238D01*
X910172Y1013100D01*
X911488Y1015380D01*
X912170Y1017924D01*
Y1020556D01*
X911488Y1023100D01*
X910819Y1024259D01*
X928226Y1041666D01*
X929400Y1041180D01*
Y1026322D01*
X928458Y1025380D01*
X927141Y1023100D01*
X926460Y1020556D01*
Y1017924D01*
X927141Y1015380D01*
X928458Y1013100D01*
X930320Y1011238D01*
X932600Y1009921D01*
X935144Y1009240D01*
X937776D01*
X940320Y1009921D01*
X942600Y1011238D01*
X944462Y1013100D01*
X945779Y1015380D01*
X946460Y1017924D01*
Y1020556D01*
X945779Y1023100D01*
X944462Y1025380D01*
X943520Y1026322D01*
Y1040015D01*
X966055Y1062550D01*
X1050360D01*
X1052187Y1062790D01*
X1053890Y1063495D01*
X1055352Y1064618D01*
X1104675Y1113940D01*
X1117918D01*
X1118860Y1112998D01*
X1121140Y1111682D01*
X1123683Y1111000D01*
X1126317D01*
X1128642Y1111623D01*
X1146990Y1093275D01*
Y1091944D01*
X1147672Y1089400D01*
X1148988Y1087120D01*
X1150850Y1085258D01*
X1153130Y1083941D01*
X1155674Y1083260D01*
X1158307D01*
X1160850Y1083941D01*
X1163130Y1085258D01*
X1164992Y1087120D01*
X1166309Y1089400D01*
X1166990Y1091944D01*
Y1094576D01*
X1166309Y1097120D01*
X1164992Y1099400D01*
X1163130Y1101262D01*
X1160850Y1102579D01*
X1158307Y1103260D01*
X1156975D01*
X1147469Y1112766D01*
X1147955Y1113940D01*
X1333326D01*
X1358190Y1089075D01*
Y1027424D01*
X1343826Y1013060D01*
X1337349D01*
X1337332Y1013082D01*
X1335243Y1014685D01*
X1332811Y1015693D01*
X1330200Y1016036D01*
X1326200D01*
X1323589Y1015693D01*
X1321157Y1014685D01*
X1319068Y1013082D01*
X1317465Y1010993D01*
X1316457Y1008560D01*
X1316114Y1005950D01*
X1316457Y1003339D01*
X1317465Y1000907D01*
X1319068Y998818D01*
X1321157Y997215D01*
X1323589Y996207D01*
X1326200Y995864D01*
X1330200D01*
X1332811Y996207D01*
X1335243Y997215D01*
X1337332Y998818D01*
X1337426Y998940D01*
X1346750D01*
X1348577Y999180D01*
X1350280Y999885D01*
X1351743Y1001008D01*
X1370242Y1019508D01*
X1371364Y1020970D01*
X1372070Y1022673D01*
X1372310Y1024500D01*
Y1092000D01*
X1372070Y1093827D01*
X1371364Y1095530D01*
X1370242Y1096992D01*
X1341243Y1125992D01*
X1339780Y1127114D01*
X1338077Y1127820D01*
X1336250Y1128060D01*
X1132082D01*
X1131140Y1129002D01*
X1128860Y1130319D01*
X1126317Y1131000D01*
X1123683D01*
X1121140Y1130319D01*
X1118860Y1129002D01*
X1117918Y1128060D01*
X1101750D01*
X1099923Y1127820D01*
X1098220Y1127114D01*
X1096758Y1125992D01*
X1047436Y1076670D01*
X1017552D01*
X1017096Y1077940D01*
X1024802Y1085647D01*
X1025925Y1087109D01*
X1026630Y1088812D01*
X1026870Y1090639D01*
Y1166440D01*
X1026630Y1168267D01*
X1025925Y1169970D01*
X1024802Y1171432D01*
X992500Y1203735D01*
Y1205067D01*
X991818Y1207610D01*
X990502Y1209890D01*
X988640Y1211752D01*
X986360Y1213068D01*
X983817Y1213750D01*
X981183D01*
X978640Y1213068D01*
X976360Y1211752D01*
X974498Y1209890D01*
X973182Y1207610D01*
X972500Y1205067D01*
Y1202433D01*
X973182Y1199890D01*
X974498Y1197610D01*
X976360Y1195748D01*
X978640Y1194432D01*
X981183Y1193750D01*
X982515D01*
X1012750Y1163515D01*
Y1102079D01*
X1011611Y1101517D01*
X1011340Y1101724D01*
X1009637Y1102430D01*
X1007810Y1102670D01*
X964555D01*
X954060Y1113165D01*
Y1149000D01*
X953820Y1150827D01*
X953114Y1152530D01*
X951992Y1153992D01*
X902500Y1203485D01*
Y1204817D01*
X901818Y1207360D01*
X900502Y1209640D01*
X898640Y1211502D01*
X896360Y1212819D01*
X893817Y1213500D01*
X891183D01*
X889623Y1213082D01*
X783270D01*
X782860Y1213318D01*
X780316Y1214000D01*
D02*
G37*
G36*
X310000Y1197106D02*
X305687Y1196682D01*
X301540Y1195424D01*
X299812Y1194500D01*
X290500D01*
Y1185188D01*
X289576Y1183460D01*
X288318Y1179313D01*
X287894Y1175000D01*
X288318Y1170687D01*
X289576Y1166540D01*
X290500Y1164812D01*
Y1155500D01*
X298700D01*
X299468Y1154869D01*
X303290Y1152826D01*
X307437Y1151568D01*
X311750Y1151144D01*
X333962D01*
X344444Y1140662D01*
Y1023140D01*
X344868Y1018827D01*
X346126Y1014680D01*
X347050Y1012952D01*
Y1003640D01*
X356362D01*
X358090Y1002716D01*
X362237Y1001458D01*
X366550Y1001034D01*
X370863Y1001458D01*
X375010Y1002716D01*
X376738Y1003640D01*
X386050D01*
Y1012952D01*
X386974Y1014680D01*
X388232Y1018827D01*
X388656Y1023140D01*
Y1149818D01*
X388657Y1149818D01*
X388232Y1154131D01*
X386974Y1158278D01*
X384931Y1162100D01*
X382182Y1165450D01*
X382182Y1165450D01*
X358750Y1188882D01*
X355400Y1191631D01*
X351578Y1193674D01*
X347431Y1194932D01*
X343119Y1195356D01*
X318586D01*
X318460Y1195424D01*
X314313Y1196682D01*
X310000Y1197106D01*
D02*
G37*
G36*
Y1147106D02*
X305687Y1146682D01*
X301540Y1145424D01*
X297718Y1143381D01*
X294368Y1140632D01*
X291619Y1137282D01*
X289576Y1133460D01*
X288318Y1129313D01*
X287894Y1125000D01*
Y1034906D01*
X286126Y1031600D01*
X284868Y1027453D01*
X284444Y1023140D01*
X284868Y1018827D01*
X286126Y1014680D01*
X288169Y1010858D01*
X290918Y1007508D01*
X294268Y1004759D01*
X298090Y1002716D01*
X302237Y1001458D01*
X306550Y1001034D01*
X310863Y1001458D01*
X315010Y1002716D01*
X318832Y1004759D01*
X322182Y1007508D01*
X325632Y1010958D01*
X328381Y1014308D01*
X330424Y1018130D01*
X331682Y1022277D01*
X332106Y1026590D01*
X332106Y1026590D01*
Y1125000D01*
X331682Y1129313D01*
X330424Y1133460D01*
X328381Y1137282D01*
X325632Y1140632D01*
X322282Y1143381D01*
X318460Y1145424D01*
X314313Y1146682D01*
X310000Y1147106D01*
D02*
G37*
G36*
X457860Y1170944D02*
X452590D01*
X449457Y1170531D01*
X446538Y1169322D01*
X444031Y1167399D01*
X430691Y1154059D01*
X428768Y1151552D01*
X427559Y1148633D01*
X427146Y1145500D01*
Y1040853D01*
X368856Y982563D01*
X368471Y982640D01*
X364629D01*
X360862Y981891D01*
X357313Y980421D01*
X354119Y978287D01*
X351403Y975571D01*
X349269Y972377D01*
X347799Y968828D01*
X347050Y965061D01*
Y961219D01*
X347799Y957452D01*
X349269Y953903D01*
X351403Y950710D01*
X354119Y947993D01*
X357313Y945859D01*
X360862Y944389D01*
X364629Y943640D01*
X368471D01*
X372238Y944389D01*
X375787Y945859D01*
X378980Y947993D01*
X381697Y950710D01*
X382824Y952396D01*
X392750D01*
X395883Y952809D01*
X398802Y954018D01*
X401309Y955941D01*
X466418Y1021051D01*
X468342Y1023558D01*
X469551Y1026477D01*
X469964Y1029610D01*
Y1075020D01*
Y1102960D01*
Y1130900D01*
Y1158840D01*
X469551Y1161973D01*
X468342Y1164892D01*
X466418Y1167399D01*
X463912Y1169322D01*
X460993Y1170531D01*
X457860Y1170944D01*
D02*
G37*
G36*
X1330200Y990636D02*
X1326200D01*
X1323589Y990293D01*
X1321157Y989285D01*
X1319068Y987682D01*
X1317465Y985593D01*
X1316457Y983160D01*
X1316114Y980550D01*
X1316457Y977940D01*
X1317465Y975507D01*
X1319068Y973418D01*
X1321157Y971815D01*
X1323589Y970807D01*
X1326200Y970464D01*
X1330200D01*
X1332811Y970807D01*
X1335243Y971815D01*
X1337332Y973418D01*
X1338935Y975507D01*
X1339943Y977940D01*
X1340286Y980550D01*
X1339943Y983160D01*
X1338935Y985593D01*
X1337332Y987682D01*
X1335243Y989285D01*
X1332811Y990293D01*
X1330200Y990636D01*
D02*
G37*
G36*
X1398250Y1181106D02*
X1275750D01*
X1271437Y1180682D01*
X1267290Y1179424D01*
X1263468Y1177381D01*
X1260118Y1174632D01*
X1257369Y1171282D01*
X1255326Y1167460D01*
X1254068Y1163313D01*
X1254045Y1163078D01*
X1238000D01*
X1236439Y1162768D01*
X1235116Y1161884D01*
X1235116Y1161884D01*
X1215232Y1142000D01*
X1215005D01*
X1213168Y1141239D01*
X1211761Y1139832D01*
X1211000Y1137995D01*
Y1136005D01*
X1211761Y1134168D01*
X1213168Y1132761D01*
X1215005Y1132000D01*
X1216995D01*
X1218832Y1132761D01*
X1220239Y1134168D01*
X1221000Y1136005D01*
Y1136232D01*
X1239689Y1154922D01*
X1254045D01*
X1254068Y1154687D01*
X1255326Y1150540D01*
X1257369Y1146718D01*
X1260118Y1143368D01*
X1263468Y1140619D01*
X1267290Y1138576D01*
X1271437Y1137318D01*
X1275750Y1136894D01*
X1389093D01*
X1402987Y1123000D01*
X1397618Y1117632D01*
X1394869Y1114282D01*
X1392826Y1110460D01*
X1391568Y1106313D01*
X1391144Y1102000D01*
Y1095250D01*
X1391568Y1090937D01*
X1392826Y1086790D01*
X1394869Y1082968D01*
X1397618Y1079618D01*
X1400968Y1076869D01*
X1404790Y1074826D01*
X1408922Y1073573D01*
Y1013343D01*
X1408922Y1013343D01*
X1409232Y1011782D01*
X1410116Y1010459D01*
X1412459Y1008116D01*
X1412459Y1008116D01*
X1413685Y1007297D01*
X1447616Y973366D01*
X1447000Y971067D01*
Y968433D01*
X1447681Y965890D01*
X1448998Y963610D01*
X1450860Y961748D01*
X1453140Y960432D01*
X1455683Y959750D01*
X1458316D01*
X1460860Y960432D01*
X1463140Y961748D01*
X1465002Y963610D01*
X1466192Y965672D01*
X1480308D01*
X1481498Y963610D01*
X1483360Y961748D01*
X1485640Y960432D01*
X1488183Y959750D01*
X1490817D01*
X1493360Y960432D01*
X1495640Y961748D01*
X1497502Y963610D01*
X1498819Y965890D01*
X1499500Y968433D01*
Y971067D01*
X1498819Y973610D01*
X1497502Y975890D01*
X1495640Y977752D01*
X1493360Y979069D01*
X1490817Y979750D01*
X1488183D01*
X1485640Y979069D01*
X1483360Y977752D01*
X1481498Y975890D01*
X1480308Y973828D01*
X1466192D01*
X1465002Y975890D01*
X1463140Y977752D01*
X1460860Y979069D01*
X1458316Y979750D01*
X1455683D01*
X1453384Y979134D01*
X1418634Y1013884D01*
X1417408Y1014703D01*
X1417078Y1015033D01*
Y1073521D01*
X1417563Y1073568D01*
X1421710Y1074826D01*
X1425532Y1076869D01*
X1428882Y1079618D01*
X1431631Y1082968D01*
X1433674Y1086790D01*
X1434932Y1090937D01*
X1435094Y1092580D01*
X1443407Y1100894D01*
X1527000D01*
X1531313Y1101318D01*
X1535460Y1102576D01*
X1539282Y1104619D01*
X1542632Y1107368D01*
X1545381Y1110718D01*
X1547424Y1114540D01*
X1548682Y1118687D01*
X1549106Y1123000D01*
X1548682Y1127313D01*
X1547424Y1131460D01*
X1545381Y1135282D01*
X1542632Y1138632D01*
X1539282Y1141381D01*
X1535460Y1143424D01*
X1531313Y1144682D01*
X1527000Y1145106D01*
X1443407D01*
X1413882Y1174632D01*
X1410532Y1177381D01*
X1406710Y1179424D01*
X1402563Y1180682D01*
X1398250Y1181106D01*
D02*
G37*
G36*
X1330200Y965236D02*
X1326200D01*
X1323589Y964893D01*
X1321157Y963885D01*
X1319068Y962282D01*
X1317465Y960193D01*
X1316457Y957760D01*
X1316114Y955150D01*
X1316457Y952540D01*
X1317465Y950107D01*
X1319068Y948018D01*
X1321157Y946415D01*
X1323589Y945407D01*
X1326200Y945064D01*
X1330200D01*
X1332811Y945407D01*
X1335243Y946415D01*
X1337332Y948018D01*
X1338935Y950107D01*
X1339335Y951072D01*
X1380857D01*
X1382168Y949761D01*
X1384005Y949000D01*
X1385995D01*
X1387832Y949761D01*
X1389239Y951168D01*
X1390000Y953005D01*
Y954995D01*
X1389239Y956832D01*
X1387832Y958239D01*
X1385995Y959000D01*
X1384005D01*
X1384003Y958999D01*
X1382850Y959228D01*
X1382850Y959228D01*
X1339335D01*
X1338935Y960193D01*
X1337332Y962282D01*
X1335243Y963885D01*
X1332811Y964893D01*
X1330200Y965236D01*
D02*
G37*
G36*
X937776Y939240D02*
X935144D01*
X932600Y938559D01*
X930320Y937242D01*
X928458Y935380D01*
X927141Y933100D01*
X926460Y930556D01*
Y929697D01*
X925287Y929210D01*
X922373Y932124D01*
X921050Y933008D01*
X919489Y933318D01*
X919489Y933318D01*
X911362D01*
X910172Y935380D01*
X908310Y937242D01*
X906030Y938559D01*
X903486Y939240D01*
X900854D01*
X898310Y938559D01*
X896030Y937242D01*
X894168Y935380D01*
X892978Y933318D01*
X877072D01*
X875882Y935380D01*
X874020Y937242D01*
X871740Y938559D01*
X869196Y939240D01*
X866563D01*
X864020Y938559D01*
X861740Y937242D01*
X859878Y935380D01*
X858561Y933100D01*
X857880Y930556D01*
Y927924D01*
X858561Y925380D01*
X859878Y923100D01*
X861740Y921238D01*
X864020Y919921D01*
X866563Y919240D01*
X869196D01*
X871740Y919921D01*
X874020Y921238D01*
X875882Y923100D01*
X877072Y925162D01*
X892978D01*
X894168Y923100D01*
X896030Y921238D01*
X898310Y919921D01*
X900854Y919240D01*
X903486D01*
X906030Y919921D01*
X908310Y921238D01*
X910172Y923100D01*
X911362Y925162D01*
X917800D01*
X928846Y914116D01*
X930169Y913232D01*
X931729Y912922D01*
X931730Y912922D01*
X998000D01*
X998000Y912922D01*
X999561Y913232D01*
X1000884Y914116D01*
X1006384Y919616D01*
X1008683Y919000D01*
X1011317D01*
X1013860Y919681D01*
X1016140Y920998D01*
X1018002Y922860D01*
X1019318Y925140D01*
X1020000Y927683D01*
Y930317D01*
X1019318Y932860D01*
X1018002Y935140D01*
X1016140Y937002D01*
X1013860Y938318D01*
X1011317Y939000D01*
X1008683D01*
X1006140Y938318D01*
X1003860Y937002D01*
X1001998Y935140D01*
X1000682Y932860D01*
X1000000Y930317D01*
Y927683D01*
X1000616Y925384D01*
X996311Y921078D01*
X979880D01*
X979394Y922252D01*
X980002Y922860D01*
X981319Y925140D01*
X982000Y927683D01*
Y930317D01*
X981319Y932860D01*
X980002Y935140D01*
X978140Y937002D01*
X975860Y938318D01*
X973316Y939000D01*
X970684D01*
X968140Y938318D01*
X965860Y937002D01*
X963998Y935140D01*
X962877Y933198D01*
X945722D01*
X944462Y935380D01*
X942600Y937242D01*
X940320Y938559D01*
X937776Y939240D01*
D02*
G37*
G36*
X1458316Y889750D02*
X1455683D01*
X1453140Y889069D01*
X1450860Y887752D01*
X1448998Y885890D01*
X1447681Y883610D01*
X1447000Y881067D01*
Y878433D01*
X1447681Y875890D01*
X1448998Y873610D01*
X1450860Y871748D01*
X1453140Y870432D01*
X1455683Y869750D01*
X1458316D01*
X1460860Y870432D01*
X1463140Y871748D01*
X1465002Y873610D01*
X1466319Y875890D01*
X1467000Y878433D01*
Y881067D01*
X1466319Y883610D01*
X1465002Y885890D01*
X1463140Y887752D01*
X1460860Y889069D01*
X1458316Y889750D01*
D02*
G37*
G36*
X1545803Y860750D02*
X1543697D01*
X1541662Y860205D01*
X1539838Y859152D01*
X1538348Y857662D01*
X1537295Y855838D01*
X1536750Y853803D01*
Y851697D01*
X1537295Y849662D01*
X1538348Y847838D01*
X1539838Y846348D01*
X1541662Y845295D01*
X1543697Y844750D01*
X1545803D01*
X1547838Y845295D01*
X1549662Y846348D01*
X1551152Y847838D01*
X1552205Y849662D01*
X1552750Y851697D01*
Y853803D01*
X1552205Y855838D01*
X1551152Y857662D01*
X1549662Y859152D01*
X1547838Y860205D01*
X1545803Y860750D01*
D02*
G37*
G36*
X1079995Y821250D02*
X1078005D01*
X1076168Y820489D01*
X1076007Y820328D01*
X995993D01*
X995832Y820489D01*
X993995Y821250D01*
X992005D01*
X990168Y820489D01*
X988761Y819082D01*
X988000Y817245D01*
Y815255D01*
X988761Y813418D01*
X990168Y812011D01*
X992005Y811250D01*
X993995D01*
X995832Y812011D01*
X995993Y812172D01*
X1076007D01*
X1076168Y812011D01*
X1078005Y811250D01*
X1079995D01*
X1081832Y812011D01*
X1083239Y813418D01*
X1084000Y815255D01*
Y817245D01*
X1083239Y819082D01*
X1081832Y820489D01*
X1079995Y821250D01*
D02*
G37*
G36*
X426767Y815730D02*
X424133D01*
X421590Y815049D01*
X419310Y813732D01*
X417448Y811870D01*
X416132Y809590D01*
X415450Y807047D01*
Y804414D01*
X416132Y801870D01*
X417448Y799590D01*
X419310Y797728D01*
X421590Y796412D01*
X424133Y795730D01*
X426767D01*
X429310Y796412D01*
X431590Y797728D01*
X433452Y799590D01*
X434768Y801870D01*
X435450Y804414D01*
Y807047D01*
X434768Y809590D01*
X433452Y811870D01*
X431590Y813732D01*
X429310Y815049D01*
X426767Y815730D01*
D02*
G37*
G36*
X461057Y815730D02*
X458424D01*
X455880Y815049D01*
X453600Y813732D01*
X451738Y811870D01*
X450421Y809590D01*
X449740Y807047D01*
Y804414D01*
X450421Y801870D01*
X451738Y799590D01*
X453600Y797728D01*
X455880Y796412D01*
X458424Y795730D01*
X461057D01*
X463600Y796412D01*
X465880Y797728D01*
X467742Y799590D01*
X469058Y801870D01*
X469740Y804414D01*
Y807047D01*
X469058Y809590D01*
X467742Y811870D01*
X465880Y813732D01*
X463600Y815049D01*
X461057Y815730D01*
D02*
G37*
G36*
X392477D02*
X389843D01*
X387300Y815049D01*
X385020Y813732D01*
X383158Y811870D01*
X381842Y809590D01*
X381160Y807047D01*
Y804414D01*
X381842Y801870D01*
X383158Y799590D01*
X385020Y797728D01*
X387300Y796412D01*
X389843Y795730D01*
X392477D01*
X395020Y796412D01*
X397300Y797728D01*
X399162Y799590D01*
X400479Y801870D01*
X401160Y804414D01*
Y807047D01*
X400479Y809590D01*
X399162Y811870D01*
X397300Y813732D01*
X395020Y815049D01*
X392477Y815730D01*
D02*
G37*
G36*
X349590Y796630D02*
X328590D01*
Y775630D01*
X349590D01*
Y796630D01*
D02*
G37*
G36*
X558900Y786200D02*
X534900D01*
Y766200D01*
X558900D01*
Y786200D01*
D02*
G37*
G36*
X625100Y786286D02*
X621100D01*
X618489Y785943D01*
X616057Y784935D01*
X613968Y783332D01*
X612365Y781243D01*
X611357Y778811D01*
X611014Y776200D01*
X611357Y773589D01*
X612365Y771157D01*
X613968Y769068D01*
X616057Y767465D01*
X618489Y766457D01*
X621100Y766114D01*
X625100D01*
X627710Y766457D01*
X630143Y767465D01*
X632232Y769068D01*
X633835Y771157D01*
X634843Y773589D01*
X635186Y776200D01*
X634843Y778811D01*
X633835Y781243D01*
X632232Y783332D01*
X630143Y784935D01*
X627710Y785943D01*
X625100Y786286D01*
D02*
G37*
G36*
X756995Y869000D02*
X755005D01*
X753168Y868239D01*
X751761Y866832D01*
X751000Y864995D01*
Y864768D01*
X691116Y804884D01*
X690232Y803561D01*
X689922Y802000D01*
X689922Y802000D01*
Y784192D01*
X687860Y783002D01*
X685998Y781140D01*
X684681Y778860D01*
X684000Y776317D01*
Y773683D01*
X684681Y771140D01*
X685998Y768860D01*
X687860Y766998D01*
X690140Y765682D01*
X692683Y765000D01*
X695316D01*
X697860Y765682D01*
X700140Y766998D01*
X702002Y768860D01*
X703318Y771140D01*
X704000Y773683D01*
Y776317D01*
X703318Y778860D01*
X702002Y781140D01*
X700140Y783002D01*
X698078Y784192D01*
Y800311D01*
X756768Y859000D01*
X756995D01*
X758832Y859761D01*
X760239Y861168D01*
X761000Y863005D01*
Y864995D01*
X760239Y866832D01*
X758832Y868239D01*
X756995Y869000D01*
D02*
G37*
G36*
X340472Y771230D02*
X337708D01*
X335037Y770514D01*
X332643Y769132D01*
X330688Y767177D01*
X329306Y764783D01*
X328590Y762112D01*
Y759348D01*
X329306Y756677D01*
X330688Y754283D01*
X332643Y752328D01*
X335037Y750946D01*
X337708Y750230D01*
X340472D01*
X343143Y750946D01*
X345537Y752328D01*
X347492Y754283D01*
X348874Y756677D01*
X349590Y759348D01*
Y762112D01*
X348874Y764783D01*
X347492Y767177D01*
X345537Y769132D01*
X343143Y770514D01*
X340472Y771230D01*
D02*
G37*
G36*
X625100Y760886D02*
X621100D01*
X618489Y760543D01*
X616057Y759535D01*
X613968Y757932D01*
X612365Y755843D01*
X611357Y753410D01*
X611014Y750800D01*
X611357Y748189D01*
X612365Y745757D01*
X613968Y743668D01*
X616057Y742065D01*
X618489Y741057D01*
X621100Y740714D01*
X625100D01*
X627710Y741057D01*
X630143Y742065D01*
X632232Y743668D01*
X633835Y745757D01*
X634843Y748189D01*
X635186Y750800D01*
X634843Y753410D01*
X633835Y755843D01*
X632232Y757932D01*
X630143Y759535D01*
X627710Y760543D01*
X625100Y760886D01*
D02*
G37*
G36*
X548900D02*
X544900D01*
X542290Y760543D01*
X539857Y759535D01*
X537768Y757932D01*
X536165Y755843D01*
X535157Y753410D01*
X534814Y750800D01*
X535157Y748189D01*
X536165Y745757D01*
X537768Y743668D01*
X539857Y742065D01*
X542290Y741057D01*
X544900Y740714D01*
X548900D01*
X551511Y741057D01*
X553943Y742065D01*
X556032Y743668D01*
X557635Y745757D01*
X558643Y748189D01*
X558986Y750800D01*
X558643Y753410D01*
X557635Y755843D01*
X556032Y757932D01*
X553943Y759535D01*
X551511Y760543D01*
X548900Y760886D01*
D02*
G37*
G36*
X1209995Y844000D02*
X1208005D01*
X1206168Y843239D01*
X1206007Y843078D01*
X783000D01*
X781439Y842768D01*
X780116Y841884D01*
X780116Y841884D01*
X748232Y810000D01*
X734000D01*
Y790000D01*
X754000D01*
Y804232D01*
X784689Y834922D01*
X983054D01*
X983243Y834355D01*
X983265Y833652D01*
X982116Y832884D01*
X982116Y832884D01*
X956616Y807384D01*
X954316Y808000D01*
X951684D01*
X949140Y807318D01*
X946860Y806002D01*
X944998Y804140D01*
X943681Y801860D01*
X943000Y799316D01*
Y796684D01*
X943681Y794140D01*
X944998Y791860D01*
X946860Y789998D01*
X949140Y788681D01*
X951684Y788000D01*
X954316D01*
X956860Y788681D01*
X959140Y789998D01*
X961002Y791860D01*
X962318Y794140D01*
X963000Y796684D01*
Y799316D01*
X962384Y801616D01*
X986689Y825922D01*
X1273461D01*
X1318220Y781162D01*
X1318070Y780020D01*
X1318310Y778193D01*
X1319016Y776490D01*
X1320137Y775027D01*
X1321600Y773905D01*
X1323303Y773200D01*
X1325130Y772960D01*
X1328130D01*
X1329957Y773200D01*
X1331660Y773905D01*
X1333122Y775027D01*
X1334244Y776490D01*
X1334950Y778193D01*
X1335190Y780020D01*
X1334950Y781847D01*
X1334244Y783550D01*
X1333370Y784690D01*
X1333828Y785960D01*
X1341055D01*
X1356940Y770076D01*
Y724858D01*
X1357030Y724168D01*
X1355917Y722898D01*
X1313482D01*
X1312292Y724960D01*
X1310430Y726822D01*
X1308150Y728139D01*
X1305607Y728820D01*
X1302973D01*
X1300430Y728139D01*
X1298150Y726822D01*
X1296288Y724960D01*
X1294971Y722680D01*
X1294290Y720136D01*
Y717504D01*
X1294971Y714960D01*
X1296288Y712680D01*
X1298150Y710818D01*
X1300430Y709501D01*
X1302973Y708820D01*
X1305607D01*
X1308150Y709501D01*
X1310430Y710818D01*
X1312292Y712680D01*
X1313482Y714742D01*
X1355621D01*
X1452746Y617616D01*
X1452746Y617616D01*
X1454069Y616732D01*
X1455630Y616422D01*
X1455630Y616422D01*
X1517652D01*
X1517852Y615675D01*
X1519498Y612825D01*
X1521825Y610498D01*
X1524675Y608852D01*
X1527854Y608000D01*
X1531146D01*
X1534325Y608852D01*
X1537175Y610498D01*
X1539503Y612825D01*
X1541148Y615675D01*
X1542000Y618854D01*
Y622146D01*
X1541148Y625325D01*
X1539503Y628175D01*
X1537175Y630503D01*
X1534325Y632148D01*
X1531146Y633000D01*
X1527854D01*
X1524675Y632148D01*
X1521825Y630503D01*
X1519498Y628175D01*
X1517852Y625325D01*
X1517652Y624578D01*
X1457319D01*
X1384131Y697766D01*
X1384617Y698940D01*
X1493000D01*
X1494827Y699180D01*
X1496530Y699885D01*
X1497993Y701008D01*
X1527169Y730184D01*
X1527854Y730000D01*
X1531146D01*
X1534325Y730852D01*
X1537175Y732497D01*
X1539503Y734825D01*
X1541148Y737675D01*
X1542000Y740854D01*
Y744146D01*
X1541148Y747325D01*
X1539503Y750175D01*
X1537175Y752503D01*
X1536060Y753146D01*
Y804376D01*
X1535820Y806204D01*
X1535114Y807907D01*
X1533992Y809369D01*
X1524932Y818429D01*
X1525000Y818683D01*
Y821317D01*
X1524319Y823860D01*
X1523002Y826140D01*
X1521140Y828002D01*
X1518860Y829318D01*
X1516317Y830000D01*
X1513683D01*
X1511140Y829318D01*
X1508860Y828002D01*
X1506998Y826140D01*
X1505681Y823860D01*
X1505000Y821317D01*
Y818683D01*
X1505681Y816140D01*
X1506998Y813860D01*
X1508860Y811998D01*
X1511140Y810682D01*
X1513285Y810107D01*
X1521940Y801452D01*
Y752569D01*
X1521825Y752503D01*
X1519498Y750175D01*
X1517852Y747325D01*
X1517000Y744146D01*
Y740854D01*
X1517184Y740169D01*
X1490076Y713060D01*
X1385782D01*
X1371060Y727782D01*
Y773000D01*
X1370820Y774827D01*
X1370114Y776530D01*
X1368992Y777992D01*
X1348972Y798012D01*
X1347510Y799134D01*
X1345807Y799840D01*
X1343980Y800080D01*
X1325130D01*
X1323303Y799840D01*
X1321600Y799134D01*
X1320137Y798012D01*
X1319016Y796550D01*
X1318310Y794847D01*
X1318259Y794455D01*
X1316918Y794000D01*
X1278034Y832884D01*
X1276711Y833768D01*
X1275150Y834078D01*
X1275150Y834078D01*
X1212945D01*
X1212419Y835348D01*
X1213239Y836168D01*
X1214000Y838005D01*
Y839995D01*
X1213239Y841832D01*
X1211832Y843239D01*
X1209995Y844000D01*
D02*
G37*
G36*
X340472Y745830D02*
X337708D01*
X335037Y745114D01*
X332643Y743732D01*
X330688Y741777D01*
X329306Y739383D01*
X328590Y736712D01*
Y733948D01*
X329306Y731277D01*
X330688Y728883D01*
X332643Y726928D01*
X335037Y725546D01*
X337708Y724830D01*
X340472D01*
X343143Y725546D01*
X345537Y726928D01*
X347492Y728883D01*
X348874Y731277D01*
X349590Y733948D01*
Y736712D01*
X348874Y739383D01*
X347492Y741777D01*
X345537Y743732D01*
X343143Y745114D01*
X340472Y745830D01*
D02*
G37*
G36*
X625100Y735486D02*
X621100D01*
X618489Y735143D01*
X616057Y734135D01*
X613968Y732532D01*
X612365Y730443D01*
X611357Y728010D01*
X611014Y725400D01*
X611357Y722790D01*
X612365Y720357D01*
X613968Y718268D01*
X616057Y716665D01*
X618489Y715657D01*
X621100Y715314D01*
X625100D01*
X627710Y715657D01*
X630143Y716665D01*
X632232Y718268D01*
X633835Y720357D01*
X634843Y722790D01*
X635186Y725400D01*
X634843Y728010D01*
X633835Y730443D01*
X632232Y732532D01*
X630143Y734135D01*
X627710Y735143D01*
X625100Y735486D01*
D02*
G37*
G36*
X548900D02*
X544900D01*
X542290Y735143D01*
X539857Y734135D01*
X537768Y732532D01*
X536165Y730443D01*
X535157Y728010D01*
X534814Y725400D01*
X535157Y722790D01*
X536165Y720357D01*
X537768Y718268D01*
X539857Y716665D01*
X542290Y715657D01*
X544900Y715314D01*
X548900D01*
X551511Y715657D01*
X553943Y716665D01*
X556032Y718268D01*
X557635Y720357D01*
X558643Y722790D01*
X558986Y725400D01*
X558643Y728010D01*
X557635Y730443D01*
X556032Y732532D01*
X553943Y734135D01*
X551511Y735143D01*
X548900Y735486D01*
D02*
G37*
G36*
X864316Y808000D02*
X861684D01*
X859140Y807318D01*
X856860Y806002D01*
X854998Y804140D01*
X853681Y801860D01*
X853000Y799316D01*
Y796684D01*
X853681Y794140D01*
X854998Y791860D01*
X856860Y789998D01*
X858922Y788808D01*
Y759680D01*
X858922Y759680D01*
X859232Y758119D01*
X860116Y756796D01*
X881700Y735212D01*
X881550Y734070D01*
X881790Y732243D01*
X882495Y730540D01*
X883618Y729078D01*
X884577Y728341D01*
X884651Y728171D01*
Y726969D01*
X884577Y726799D01*
X883618Y726062D01*
X882525Y724639D01*
X880570D01*
X879204Y724367D01*
X878047Y723593D01*
X863477Y709023D01*
X862703Y707866D01*
X862431Y706500D01*
Y692338D01*
X853591Y683498D01*
X853330Y683649D01*
X850787Y684330D01*
X848154D01*
X845610Y683649D01*
X843330Y682332D01*
X841468Y680470D01*
X840152Y678190D01*
X839470Y675647D01*
Y673014D01*
X840152Y670470D01*
X840302Y670209D01*
X836492Y666399D01*
X823050D01*
X822564Y667572D01*
X823182Y668190D01*
X824499Y670470D01*
X825180Y673014D01*
Y675647D01*
X824499Y678190D01*
X823182Y680470D01*
X821320Y682332D01*
X819040Y683649D01*
X818749Y683727D01*
Y717501D01*
X839345D01*
X840438Y716078D01*
X841900Y714956D01*
X843603Y714250D01*
X845430Y714010D01*
X848430D01*
X850257Y714250D01*
X851960Y714956D01*
X853422Y716078D01*
X854545Y717540D01*
X855250Y719243D01*
X855490Y721070D01*
X855250Y722897D01*
X854545Y724600D01*
X853422Y726062D01*
X852463Y726799D01*
X852389Y726969D01*
Y728171D01*
X852463Y728341D01*
X853422Y729078D01*
X854545Y730540D01*
X855250Y732243D01*
X855490Y734070D01*
X855250Y735897D01*
X854545Y737600D01*
X853422Y739062D01*
X851960Y740184D01*
X850257Y740890D01*
X848430Y741130D01*
X845430D01*
X843603Y740890D01*
X841900Y740184D01*
X840438Y739062D01*
X839315Y737600D01*
X838610Y735897D01*
X838370Y734070D01*
X838610Y732243D01*
X839315Y730540D01*
X840438Y729078D01*
X841397Y728341D01*
X841471Y728171D01*
Y726969D01*
X841397Y726799D01*
X840438Y726062D01*
X839345Y724639D01*
X819728D01*
X812076Y732291D01*
X812310Y734070D01*
X812070Y735897D01*
X811365Y737600D01*
X810242Y739062D01*
X808780Y740184D01*
X807077Y740890D01*
X805250Y741130D01*
X802250D01*
X800423Y740890D01*
X798720Y740184D01*
X797258Y739062D01*
X796817Y738489D01*
X763273D01*
X762361Y740068D01*
X761058Y741371D01*
X759462Y742293D01*
X757682Y742770D01*
X755838D01*
X754058Y742293D01*
X752462Y741371D01*
X751159Y740068D01*
X750237Y738472D01*
X749760Y736692D01*
Y734848D01*
X750237Y733068D01*
X751159Y731472D01*
X752462Y730169D01*
X754058Y729247D01*
X755838Y728770D01*
X757682D01*
X759462Y729247D01*
X761058Y730169D01*
X762241Y731351D01*
X795799D01*
X796135Y730540D01*
X797258Y729078D01*
X798217Y728341D01*
X798291Y728171D01*
Y726969D01*
X798217Y726799D01*
X797258Y726062D01*
X796556Y725148D01*
X793340D01*
X791779Y724838D01*
X790456Y723954D01*
X790456Y723954D01*
X750216Y683714D01*
X747916Y684330D01*
X745284D01*
X742740Y683649D01*
X740460Y682332D01*
X738598Y680470D01*
X737281Y678190D01*
X736600Y675647D01*
Y673014D01*
X737281Y670470D01*
X738598Y668190D01*
X740460Y666328D01*
X742740Y665012D01*
X745284Y664330D01*
X747916D01*
X750460Y665012D01*
X752740Y666328D01*
X754602Y668190D01*
X755919Y670470D01*
X756600Y673014D01*
Y675647D01*
X755984Y677946D01*
X795029Y716992D01*
X796556D01*
X797258Y716078D01*
X798720Y714956D01*
X800423Y714250D01*
X802250Y714010D01*
X805250D01*
X807077Y714250D01*
X808780Y714956D01*
X810242Y716078D01*
X810341Y716207D01*
X811611Y715775D01*
Y683727D01*
X811320Y683649D01*
X809040Y682332D01*
X807178Y680470D01*
X805862Y678190D01*
X805180Y675647D01*
Y673014D01*
X805862Y670470D01*
X807178Y668190D01*
X807796Y667572D01*
X807310Y666399D01*
X793868D01*
X790058Y670209D01*
X790209Y670470D01*
X790890Y673014D01*
Y675647D01*
X790209Y678190D01*
X788892Y680470D01*
X787030Y682332D01*
X784750Y683649D01*
X782206Y684330D01*
X779574D01*
X777030Y683649D01*
X774750Y682332D01*
X772888Y680470D01*
X771572Y678190D01*
X770890Y675647D01*
Y673014D01*
X771572Y670470D01*
X772888Y668190D01*
X774750Y666328D01*
X777030Y665012D01*
X779574Y664330D01*
X782206D01*
X784750Y665012D01*
X785011Y665162D01*
X789867Y660307D01*
X791024Y659533D01*
X792390Y659261D01*
X837970D01*
X839336Y659533D01*
X840493Y660307D01*
X845349Y665162D01*
X845610Y665012D01*
X848154Y664330D01*
X850787D01*
X853330Y665012D01*
X855610Y666328D01*
X857472Y668190D01*
X858789Y670470D01*
X859470Y673014D01*
Y675647D01*
X858789Y678190D01*
X858638Y678451D01*
X868523Y688337D01*
X869297Y689494D01*
X869569Y690860D01*
Y705022D01*
X881466Y716919D01*
X883040Y716830D01*
X883618Y716078D01*
X885080Y714956D01*
X886783Y714250D01*
X888610Y714010D01*
X891610D01*
X893437Y714250D01*
X895140Y714956D01*
X896602Y716078D01*
X897695Y717501D01*
X918790D01*
X920156Y717773D01*
X921313Y718547D01*
X923494Y720727D01*
X924835Y720272D01*
X924970Y719243D01*
X925676Y717540D01*
X926798Y716078D01*
X928260Y714956D01*
X929963Y714250D01*
X931790Y714010D01*
X934790D01*
X936569Y714244D01*
X948771Y702042D01*
Y683727D01*
X948480Y683649D01*
X946200Y682332D01*
X944338Y680470D01*
X943021Y678190D01*
X942340Y675647D01*
Y673014D01*
X943021Y670470D01*
X944338Y668190D01*
X946200Y666328D01*
X948480Y665012D01*
X951023Y664330D01*
X951883D01*
X952370Y663157D01*
X921284Y632071D01*
X807582D01*
X807582Y632071D01*
X806021Y631761D01*
X804698Y630877D01*
X762230Y588408D01*
X755792D01*
X754602Y590470D01*
X752740Y592332D01*
X750460Y593648D01*
X747916Y594330D01*
X745284D01*
X742740Y593648D01*
X740460Y592332D01*
X738598Y590470D01*
X737281Y588190D01*
X736600Y585647D01*
Y583013D01*
X737281Y580470D01*
X738598Y578190D01*
X740460Y576328D01*
X742740Y575011D01*
X745284Y574330D01*
X747916D01*
X750460Y575011D01*
X752740Y576328D01*
X754602Y578190D01*
X755792Y580252D01*
X763919D01*
X763919Y580252D01*
X765480Y580562D01*
X766803Y581446D01*
X809271Y623914D01*
X922973D01*
X922973Y623914D01*
X924534Y624225D01*
X925857Y625109D01*
X1096748Y796000D01*
X1096995D01*
X1098832Y796761D01*
X1100239Y798168D01*
X1101000Y800005D01*
Y801995D01*
X1100239Y803832D01*
X1098832Y805239D01*
X1096995Y806000D01*
X1095005D01*
X1093168Y805239D01*
X1091761Y803832D01*
X1091000Y801995D01*
Y801787D01*
X963513Y674300D01*
X962340Y674786D01*
Y675647D01*
X961658Y678190D01*
X960342Y680470D01*
X958480Y682332D01*
X956200Y683649D01*
X955909Y683727D01*
Y703520D01*
X955637Y704886D01*
X954863Y706043D01*
X941616Y719291D01*
X941850Y721070D01*
X941610Y722897D01*
X940904Y724600D01*
X939782Y726062D01*
X938823Y726799D01*
X938749Y726969D01*
Y728171D01*
X938823Y728341D01*
X939782Y729078D01*
X940904Y730540D01*
X941610Y732243D01*
X941850Y734070D01*
X941610Y735897D01*
X940904Y737600D01*
X939782Y739062D01*
X938320Y740184D01*
X936617Y740890D01*
X934790Y741130D01*
X931790D01*
X929963Y740890D01*
X928260Y740184D01*
X926798Y739062D01*
X925676Y737600D01*
X924970Y735897D01*
X924730Y734070D01*
X924964Y732291D01*
X917312Y724639D01*
X897695D01*
X896602Y726062D01*
X895643Y726799D01*
X895569Y726969D01*
Y728171D01*
X895643Y728341D01*
X896602Y729078D01*
X897725Y730540D01*
X898430Y732243D01*
X898670Y734070D01*
X898430Y735897D01*
X897725Y737600D01*
X896602Y739062D01*
X895140Y740184D01*
X893437Y740890D01*
X891610Y741130D01*
X888610D01*
X887468Y740980D01*
X867078Y761369D01*
Y788808D01*
X869140Y789998D01*
X871002Y791860D01*
X872318Y794140D01*
X873000Y796684D01*
Y799316D01*
X872318Y801860D01*
X871002Y804140D01*
X869140Y806002D01*
X866860Y807318D01*
X864316Y808000D01*
D02*
G37*
G36*
X1134156Y728650D02*
X1131524D01*
X1128980Y727969D01*
X1126700Y726652D01*
X1124838Y724790D01*
X1123521Y722510D01*
X1122840Y719967D01*
Y717334D01*
X1123521Y714790D01*
X1124838Y712510D01*
X1126700Y710648D01*
X1128980Y709332D01*
X1131524Y708650D01*
X1134156D01*
X1136700Y709332D01*
X1138980Y710648D01*
X1140842Y712510D01*
X1142159Y714790D01*
X1142840Y717334D01*
Y719967D01*
X1142159Y722510D01*
X1140842Y724790D01*
X1138980Y726652D01*
X1136700Y727969D01*
X1134156Y728650D01*
D02*
G37*
G36*
X426767Y725730D02*
X424133D01*
X421590Y725049D01*
X419310Y723732D01*
X417448Y721870D01*
X416132Y719590D01*
X415450Y717047D01*
Y714414D01*
X416132Y711870D01*
X417448Y709590D01*
X419310Y707728D01*
X421590Y706412D01*
X424133Y705730D01*
X426767D01*
X429310Y706412D01*
X431590Y707728D01*
X433452Y709590D01*
X434768Y711870D01*
X435450Y714414D01*
Y717047D01*
X434768Y719590D01*
X433452Y721870D01*
X431590Y723732D01*
X429310Y725049D01*
X426767Y725730D01*
D02*
G37*
G36*
X548900Y710086D02*
X544900D01*
X542290Y709743D01*
X539857Y708735D01*
X537768Y707132D01*
X536165Y705043D01*
X535157Y702610D01*
X534814Y700000D01*
X535157Y697390D01*
X536165Y694957D01*
X537768Y692868D01*
X539857Y691265D01*
X542290Y690257D01*
X544900Y689914D01*
X548900D01*
X551511Y690257D01*
X553943Y691265D01*
X556032Y692868D01*
X557635Y694957D01*
X558643Y697390D01*
X558986Y700000D01*
X558643Y702610D01*
X557635Y705043D01*
X556032Y707132D01*
X553943Y708735D01*
X551511Y709743D01*
X548900Y710086D01*
D02*
G37*
G36*
X426767Y698890D02*
X424133D01*
X421590Y698208D01*
X419310Y696892D01*
X417448Y695030D01*
X416132Y692750D01*
X415450Y690207D01*
Y687573D01*
X416132Y685030D01*
X417448Y682750D01*
X419310Y680888D01*
X421590Y679572D01*
X424133Y678890D01*
X426767D01*
X429310Y679572D01*
X431590Y680888D01*
X433452Y682750D01*
X434768Y685030D01*
X435450Y687573D01*
Y690207D01*
X434768Y692750D01*
X433452Y695030D01*
X431590Y696892D01*
X429310Y698208D01*
X426767Y698890D01*
D02*
G37*
G36*
X392477D02*
X389843D01*
X387300Y698208D01*
X385020Y696892D01*
X383158Y695030D01*
X381842Y692750D01*
X381160Y690207D01*
Y687573D01*
X381842Y685030D01*
X383158Y682750D01*
X385020Y680888D01*
X387300Y679572D01*
X389843Y678890D01*
X392477D01*
X395020Y679572D01*
X397300Y680888D01*
X399162Y682750D01*
X400479Y685030D01*
X401160Y687573D01*
Y690207D01*
X400479Y692750D01*
X399162Y695030D01*
X397300Y696892D01*
X395020Y698208D01*
X392477Y698890D01*
D02*
G37*
G36*
X625100Y684686D02*
X621100D01*
X618489Y684343D01*
X616057Y683335D01*
X613968Y681732D01*
X612365Y679643D01*
X611357Y677210D01*
X611014Y674600D01*
X611357Y671990D01*
X612365Y669557D01*
X613968Y667468D01*
X616057Y665865D01*
X618489Y664857D01*
X621100Y664514D01*
X625100D01*
X627710Y664857D01*
X630143Y665865D01*
X632232Y667468D01*
X633835Y669557D01*
X634843Y671990D01*
X635186Y674600D01*
X634843Y677210D01*
X633835Y679643D01*
X632232Y681732D01*
X630143Y683335D01*
X627710Y684343D01*
X625100Y684686D01*
D02*
G37*
G36*
X461057Y725730D02*
X458424D01*
X455880Y725049D01*
X453600Y723732D01*
X451738Y721870D01*
X450421Y719590D01*
X449740Y717047D01*
Y714414D01*
X450421Y711870D01*
X451738Y709590D01*
X453600Y707728D01*
X455662Y706538D01*
Y698082D01*
X453600Y696892D01*
X451738Y695030D01*
X450421Y692750D01*
X449740Y690207D01*
Y687573D01*
X450421Y685030D01*
X451738Y682750D01*
X453600Y680888D01*
X455880Y679572D01*
X458424Y678890D01*
X461057D01*
X463356Y679506D01*
X471146Y671716D01*
X471146Y671716D01*
X472469Y670832D01*
X474030Y670522D01*
X474030Y670522D01*
X535765D01*
X536165Y669557D01*
X537768Y667468D01*
X539857Y665865D01*
X542290Y664857D01*
X544900Y664514D01*
X548900D01*
X551511Y664857D01*
X553943Y665865D01*
X556032Y667468D01*
X557635Y669557D01*
X558643Y671990D01*
X558986Y674600D01*
X558643Y677210D01*
X557635Y679643D01*
X556032Y681732D01*
X553943Y683335D01*
X551511Y684343D01*
X548900Y684686D01*
X544900D01*
X542290Y684343D01*
X539857Y683335D01*
X537768Y681732D01*
X536165Y679643D01*
X535765Y678678D01*
X475719D01*
X469124Y685274D01*
X469740Y687573D01*
Y690207D01*
X469058Y692750D01*
X467742Y695030D01*
X465880Y696892D01*
X463818Y698082D01*
Y706538D01*
X465880Y707728D01*
X467742Y709590D01*
X469058Y711870D01*
X469740Y714414D01*
Y717047D01*
X469058Y719590D01*
X467742Y721870D01*
X465880Y723732D01*
X463600Y725049D01*
X461057Y725730D01*
D02*
G37*
G36*
X885077Y684330D02*
X882443D01*
X879900Y683649D01*
X877620Y682332D01*
X875758Y680470D01*
X874442Y678190D01*
X873760Y675647D01*
Y673014D01*
X874442Y670470D01*
X875758Y668190D01*
X877620Y666328D01*
X879900Y665012D01*
X882443Y664330D01*
X885077D01*
X887620Y665012D01*
X889900Y666328D01*
X891762Y668190D01*
X893079Y670470D01*
X893760Y673014D01*
Y675647D01*
X893079Y678190D01*
X891762Y680470D01*
X889900Y682332D01*
X887620Y683649D01*
X885077Y684330D01*
D02*
G37*
G36*
X919817Y684000D02*
X917184D01*
X914640Y683318D01*
X912360Y682002D01*
X910498Y680140D01*
X909182Y677860D01*
X908500Y675316D01*
Y672683D01*
X909182Y670140D01*
X910498Y667860D01*
X912360Y665998D01*
X914640Y664681D01*
X917184Y664000D01*
X919817D01*
X922360Y664681D01*
X924640Y665998D01*
X926502Y667860D01*
X927819Y670140D01*
X928500Y672683D01*
Y675316D01*
X927819Y677860D01*
X926502Y680140D01*
X924640Y682002D01*
X922360Y683318D01*
X919817Y684000D01*
D02*
G37*
G36*
X340500Y684310D02*
X337500D01*
X335673Y684070D01*
X333970Y683364D01*
X332508Y682243D01*
X331385Y680780D01*
X330680Y679077D01*
X330440Y677250D01*
X330680Y675423D01*
X331385Y673720D01*
X332508Y672258D01*
X333467Y671521D01*
X333541Y671351D01*
Y670149D01*
X333467Y669979D01*
X332508Y669242D01*
X331385Y667780D01*
X330680Y666077D01*
X330440Y664250D01*
X330680Y662423D01*
X331385Y660720D01*
X332508Y659258D01*
X333970Y658136D01*
X335673Y657430D01*
X337500Y657190D01*
X340500D01*
X342327Y657430D01*
X344030Y658136D01*
X345493Y659258D01*
X346614Y660720D01*
X347320Y662423D01*
X347560Y664250D01*
X347320Y666077D01*
X346614Y667780D01*
X345493Y669242D01*
X344533Y669979D01*
X344459Y670149D01*
Y671351D01*
X344533Y671521D01*
X345493Y672258D01*
X346614Y673720D01*
X347320Y675423D01*
X347560Y677250D01*
X347320Y679077D01*
X346614Y680780D01*
X345493Y682243D01*
X344030Y683364D01*
X342327Y684070D01*
X340500Y684310D01*
D02*
G37*
G36*
X625100Y659286D02*
X621100D01*
X618489Y658943D01*
X616057Y657935D01*
X613968Y656332D01*
X612365Y654243D01*
X611357Y651811D01*
X611014Y649200D01*
X611357Y646590D01*
X612365Y644157D01*
X613968Y642068D01*
X616057Y640465D01*
X618489Y639457D01*
X621100Y639114D01*
X625100D01*
X627710Y639457D01*
X630143Y640465D01*
X632232Y642068D01*
X633835Y644157D01*
X634843Y646590D01*
X635186Y649200D01*
X634843Y651811D01*
X633835Y654243D01*
X632232Y656332D01*
X630143Y657935D01*
X627710Y658943D01*
X625100Y659286D01*
D02*
G37*
G36*
X548900Y633886D02*
X544900D01*
X542290Y633543D01*
X539857Y632535D01*
X537768Y630932D01*
X536165Y628843D01*
X535765Y627878D01*
X484650D01*
X484650Y627878D01*
X483089Y627568D01*
X481766Y626684D01*
X463356Y608274D01*
X461057Y608890D01*
X458424D01*
X455880Y608209D01*
X453600Y606892D01*
X451738Y605030D01*
X450421Y602750D01*
X449740Y600206D01*
Y597574D01*
X450421Y595030D01*
X451738Y592750D01*
X453600Y590888D01*
X455880Y589571D01*
X458424Y588890D01*
X461057D01*
X463600Y589571D01*
X465880Y590888D01*
X467742Y592750D01*
X469058Y595030D01*
X469740Y597574D01*
Y600206D01*
X469124Y602506D01*
X486339Y619722D01*
X535765D01*
X536165Y618757D01*
X537768Y616668D01*
X539857Y615065D01*
X542290Y614057D01*
X544900Y613714D01*
X548900D01*
X551511Y614057D01*
X553943Y615065D01*
X556032Y616668D01*
X557635Y618757D01*
X558643Y621189D01*
X558986Y623800D01*
X558643Y626410D01*
X557635Y628843D01*
X556032Y630932D01*
X553943Y632535D01*
X551511Y633543D01*
X548900Y633886D01*
D02*
G37*
G36*
X1168447Y638650D02*
X1165814D01*
X1163270Y637968D01*
X1160990Y636652D01*
X1159128Y634790D01*
X1157812Y632510D01*
X1157130Y629967D01*
Y627333D01*
X1157812Y624790D01*
X1159128Y622510D01*
X1160990Y620648D01*
X1163270Y619332D01*
X1165814Y618650D01*
X1168447D01*
X1170990Y619332D01*
X1173270Y620648D01*
X1175132Y622510D01*
X1176449Y624790D01*
X1177130Y627333D01*
Y629967D01*
X1176449Y632510D01*
X1175132Y634790D01*
X1173270Y636652D01*
X1170990Y637968D01*
X1168447Y638650D01*
D02*
G37*
G36*
X1134156D02*
X1131524D01*
X1128980Y637968D01*
X1126700Y636652D01*
X1124838Y634790D01*
X1123521Y632510D01*
X1122840Y629967D01*
Y627333D01*
X1123521Y624790D01*
X1124838Y622510D01*
X1126700Y620648D01*
X1128980Y619332D01*
X1131524Y618650D01*
X1134156D01*
X1136700Y619332D01*
X1138980Y620648D01*
X1140842Y622510D01*
X1142159Y624790D01*
X1142840Y627333D01*
Y629967D01*
X1142159Y632510D01*
X1140842Y634790D01*
X1138980Y636652D01*
X1136700Y637968D01*
X1134156Y638650D01*
D02*
G37*
G36*
X625100Y633886D02*
X621100D01*
X618489Y633543D01*
X616057Y632535D01*
X613968Y630932D01*
X612365Y628843D01*
X611357Y626410D01*
X611014Y623800D01*
X611357Y621189D01*
X612365Y618757D01*
X613968Y616668D01*
X616057Y615065D01*
X618489Y614057D01*
X621100Y613714D01*
X625100D01*
X627710Y614057D01*
X630143Y615065D01*
X632232Y616668D01*
X633835Y618757D01*
X634843Y621189D01*
X635186Y623800D01*
X634843Y626410D01*
X633835Y628843D01*
X632232Y630932D01*
X630143Y632535D01*
X627710Y633543D01*
X625100Y633886D01*
D02*
G37*
G36*
X392477Y608890D02*
X389843D01*
X387300Y608209D01*
X385020Y606892D01*
X383158Y605030D01*
X381842Y602750D01*
X381160Y600206D01*
Y597574D01*
X381842Y595030D01*
X383158Y592750D01*
X385020Y590888D01*
X387300Y589571D01*
X389843Y588890D01*
X392477D01*
X395020Y589571D01*
X397300Y590888D01*
X399162Y592750D01*
X400479Y595030D01*
X401160Y597574D01*
Y600206D01*
X400479Y602750D01*
X399162Y605030D01*
X397300Y606892D01*
X395020Y608209D01*
X392477Y608890D01*
D02*
G37*
G36*
X1150995Y668000D02*
X1149005D01*
X1147168Y667239D01*
X1145761Y665832D01*
X1145000Y663995D01*
Y662005D01*
X1145761Y660168D01*
X1145922Y660007D01*
Y625689D01*
X1108641Y588408D01*
X961532D01*
X960342Y590470D01*
X958480Y592332D01*
X956200Y593648D01*
X953656Y594330D01*
X951023D01*
X948480Y593648D01*
X946200Y592332D01*
X944338Y590470D01*
X943021Y588190D01*
X942340Y585647D01*
Y583013D01*
X943021Y580470D01*
X944338Y578190D01*
X946200Y576328D01*
X948480Y575011D01*
X951023Y574330D01*
X953656D01*
X956200Y575011D01*
X958480Y576328D01*
X960342Y578190D01*
X961532Y580252D01*
X1110330D01*
X1110330Y580252D01*
X1111891Y580562D01*
X1113214Y581446D01*
X1152884Y621116D01*
X1152884Y621116D01*
X1153768Y622439D01*
X1154078Y624000D01*
X1154078Y624000D01*
Y660007D01*
X1154239Y660168D01*
X1155000Y662005D01*
Y663995D01*
X1154239Y665832D01*
X1152832Y667239D01*
X1150995Y668000D01*
D02*
G37*
G36*
X885077Y594330D02*
X882443D01*
X879900Y593648D01*
X877620Y592332D01*
X875758Y590470D01*
X874442Y588190D01*
X874363Y587899D01*
X858867D01*
X858789Y588190D01*
X857472Y590470D01*
X855610Y592332D01*
X853330Y593648D01*
X850787Y594330D01*
X848154D01*
X845610Y593648D01*
X843330Y592332D01*
X841468Y590470D01*
X840152Y588190D01*
X839470Y585647D01*
Y583013D01*
X840152Y580470D01*
X841468Y578190D01*
X843310Y576348D01*
X843303Y576056D01*
X843041Y575078D01*
X830199D01*
X824564Y580714D01*
X825180Y583013D01*
Y585647D01*
X824499Y588190D01*
X823182Y590470D01*
X821320Y592332D01*
X819040Y593648D01*
X816497Y594330D01*
X813864D01*
X811320Y593648D01*
X809040Y592332D01*
X807178Y590470D01*
X805862Y588190D01*
X805180Y585647D01*
Y583013D01*
X805862Y580470D01*
X807178Y578190D01*
X809040Y576328D01*
X811320Y575011D01*
X813864Y574330D01*
X816497D01*
X818796Y574946D01*
X825626Y568116D01*
X826949Y567232D01*
X828510Y566922D01*
X828510Y566922D01*
X905500D01*
X905500Y566922D01*
X907061Y567232D01*
X908384Y568116D01*
X914884Y574616D01*
X917184Y574000D01*
X919817D01*
X922360Y574682D01*
X924640Y575998D01*
X926502Y577860D01*
X927819Y580140D01*
X928500Y582683D01*
Y585317D01*
X927819Y587860D01*
X926502Y590140D01*
X924640Y592002D01*
X922360Y593318D01*
X919817Y594000D01*
X917184D01*
X914640Y593318D01*
X912360Y592002D01*
X910498Y590140D01*
X909182Y587860D01*
X908500Y585317D01*
Y582683D01*
X909116Y580384D01*
X903811Y575078D01*
X890189D01*
X889927Y576056D01*
X889920Y576348D01*
X891762Y578190D01*
X893079Y580470D01*
X893760Y583013D01*
Y585647D01*
X893079Y588190D01*
X891762Y590470D01*
X889900Y592332D01*
X887620Y593648D01*
X885077Y594330D01*
D02*
G37*
G36*
X548900Y659286D02*
X544900D01*
X542290Y658943D01*
X539857Y657935D01*
X537768Y656332D01*
X536165Y654243D01*
X535765Y653278D01*
X475760D01*
X474199Y652968D01*
X472876Y652084D01*
X429066Y608274D01*
X426767Y608890D01*
X424133D01*
X421590Y608209D01*
X419310Y606892D01*
X417448Y605030D01*
X416132Y602750D01*
X415450Y600206D01*
Y597574D01*
X416132Y595030D01*
X417448Y592750D01*
X419310Y590888D01*
X421590Y589571D01*
X424133Y588890D01*
X426767D01*
X429310Y589571D01*
X431590Y590888D01*
X433452Y592750D01*
X434768Y595030D01*
X435450Y597574D01*
Y600206D01*
X434834Y602506D01*
X477449Y645122D01*
X535765D01*
X536165Y644157D01*
X537768Y642068D01*
X539857Y640465D01*
X542290Y639457D01*
X544900Y639114D01*
X548900D01*
X551511Y639457D01*
X552475Y639857D01*
X622672Y569661D01*
Y498663D01*
X621402Y498232D01*
X620542Y499352D01*
X618453Y500955D01*
X616021Y501963D01*
X613410Y502306D01*
X610799Y501963D01*
X608367Y500955D01*
X606278Y499352D01*
X604675Y497263D01*
X603667Y494831D01*
X603324Y492220D01*
Y488220D01*
X603667Y485610D01*
X604675Y483177D01*
X606278Y481088D01*
X608367Y479485D01*
X610799Y478477D01*
X613410Y478134D01*
X616021Y478477D01*
X618453Y479485D01*
X620542Y481088D01*
X621556Y482409D01*
X622914Y482093D01*
X622982Y481749D01*
X623866Y480426D01*
X635676Y468616D01*
X636999Y467732D01*
X638559Y467422D01*
X638560Y467422D01*
X649750D01*
X649750Y467422D01*
X651311Y467732D01*
X652634Y468616D01*
X662391Y478373D01*
X664210Y478134D01*
X666821Y478477D01*
X669253Y479485D01*
X671342Y481088D01*
X672945Y483177D01*
X673953Y485610D01*
X674296Y488220D01*
Y492220D01*
X673953Y494831D01*
X672945Y497263D01*
X671342Y499352D01*
X669253Y500955D01*
X666821Y501963D01*
X664210Y502306D01*
X661600Y501963D01*
X659167Y500955D01*
X657078Y499352D01*
X655475Y497263D01*
X654467Y494831D01*
X654124Y492220D01*
Y488220D01*
X654467Y485610D01*
X655475Y483177D01*
X655555Y483073D01*
X648061Y475578D01*
X640249D01*
X638944Y476883D01*
X639410Y478213D01*
X641421Y478477D01*
X643853Y479485D01*
X645942Y481088D01*
X647545Y483177D01*
X648553Y485610D01*
X648896Y488220D01*
Y492220D01*
X648553Y494831D01*
X647545Y497263D01*
X647514Y497303D01*
X647634Y498523D01*
X648518Y499846D01*
X648828Y501407D01*
Y504250D01*
X648518Y505811D01*
X648078Y506469D01*
Y574507D01*
X648239Y574668D01*
X649000Y576505D01*
Y578495D01*
X648239Y580332D01*
X646832Y581739D01*
X644995Y582500D01*
X643005D01*
X641168Y581739D01*
X639761Y580332D01*
X639000Y578495D01*
Y576505D01*
X639761Y574668D01*
X639922Y574507D01*
Y505000D01*
X639922Y505000D01*
X640232Y503439D01*
X640425Y503151D01*
X639579Y502205D01*
X638810Y502306D01*
X636199Y501963D01*
X633767Y500955D01*
X632098Y499675D01*
X630828Y500227D01*
Y571350D01*
X630518Y572911D01*
X629634Y574234D01*
X629634Y574234D01*
X558243Y645625D01*
X558643Y646590D01*
X558986Y649200D01*
X558643Y651811D01*
X557635Y654243D01*
X556032Y656332D01*
X553943Y657935D01*
X551511Y658943D01*
X548900Y659286D01*
D02*
G37*
G36*
X918210Y502306D02*
X915600Y501963D01*
X913167Y500955D01*
X911078Y499352D01*
X909475Y497263D01*
X908467Y494831D01*
X908124Y492220D01*
Y488220D01*
X908467Y485610D01*
X909475Y483177D01*
X911078Y481088D01*
X913167Y479485D01*
X915600Y478477D01*
X918210Y478134D01*
X920820Y478477D01*
X923253Y479485D01*
X925342Y481088D01*
X926945Y483177D01*
X927953Y485610D01*
X928296Y488220D01*
Y492220D01*
X927953Y494831D01*
X926945Y497263D01*
X925342Y499352D01*
X923253Y500955D01*
X920820Y501963D01*
X918210Y502306D01*
D02*
G37*
G36*
X892810D02*
X890200Y501963D01*
X887767Y500955D01*
X885678Y499352D01*
X884075Y497263D01*
X883067Y494831D01*
X882724Y492220D01*
Y488220D01*
X883067Y485610D01*
X884075Y483177D01*
X885678Y481088D01*
X887767Y479485D01*
X890200Y478477D01*
X892810Y478134D01*
X895421Y478477D01*
X897853Y479485D01*
X899942Y481088D01*
X901545Y483177D01*
X902553Y485610D01*
X902896Y488220D01*
Y492220D01*
X902553Y494831D01*
X901545Y497263D01*
X899942Y499352D01*
X897853Y500955D01*
X895421Y501963D01*
X892810Y502306D01*
D02*
G37*
G36*
X867410D02*
X864799Y501963D01*
X862367Y500955D01*
X860278Y499352D01*
X858675Y497263D01*
X857667Y494831D01*
X857324Y492220D01*
Y488220D01*
X857667Y485610D01*
X858675Y483177D01*
X860278Y481088D01*
X862367Y479485D01*
X864799Y478477D01*
X867410Y478134D01*
X870021Y478477D01*
X872453Y479485D01*
X874542Y481088D01*
X876145Y483177D01*
X877153Y485610D01*
X877496Y488220D01*
Y492220D01*
X877153Y494831D01*
X876145Y497263D01*
X874542Y499352D01*
X872453Y500955D01*
X870021Y501963D01*
X867410Y502306D01*
D02*
G37*
G36*
X842010D02*
X839399Y501963D01*
X836967Y500955D01*
X834878Y499352D01*
X833275Y497263D01*
X832267Y494831D01*
X831924Y492220D01*
Y488220D01*
X832267Y485610D01*
X833275Y483177D01*
X834878Y481088D01*
X836967Y479485D01*
X839399Y478477D01*
X842010Y478134D01*
X844621Y478477D01*
X847053Y479485D01*
X849142Y481088D01*
X850745Y483177D01*
X851753Y485610D01*
X852096Y488220D01*
Y492220D01*
X851753Y494831D01*
X850745Y497263D01*
X849142Y499352D01*
X847053Y500955D01*
X844621Y501963D01*
X842010Y502306D01*
D02*
G37*
G36*
X816610D02*
X813999Y501963D01*
X811567Y500955D01*
X809478Y499352D01*
X807875Y497263D01*
X806867Y494831D01*
X806524Y492220D01*
Y488220D01*
X806867Y485610D01*
X807875Y483177D01*
X809478Y481088D01*
X811567Y479485D01*
X813999Y478477D01*
X816610Y478134D01*
X819221Y478477D01*
X821653Y479485D01*
X823742Y481088D01*
X825345Y483177D01*
X826353Y485610D01*
X826696Y488220D01*
Y492220D01*
X826353Y494831D01*
X825345Y497263D01*
X823742Y499352D01*
X821653Y500955D01*
X819221Y501963D01*
X816610Y502306D01*
D02*
G37*
G36*
X791210D02*
X788599Y501963D01*
X786167Y500955D01*
X784078Y499352D01*
X782475Y497263D01*
X781467Y494831D01*
X781124Y492220D01*
Y488220D01*
X781467Y485610D01*
X782475Y483177D01*
X784078Y481088D01*
X786167Y479485D01*
X788599Y478477D01*
X791210Y478134D01*
X793820Y478477D01*
X796253Y479485D01*
X798342Y481088D01*
X799945Y483177D01*
X800953Y485610D01*
X801296Y488220D01*
Y492220D01*
X800953Y494831D01*
X799945Y497263D01*
X798342Y499352D01*
X796253Y500955D01*
X793820Y501963D01*
X791210Y502306D01*
D02*
G37*
G36*
X748500Y548810D02*
X708500D01*
X708041Y548750D01*
X707578D01*
X707131Y548630D01*
X706673Y548570D01*
X706245Y548393D01*
X705798Y548273D01*
X705397Y548041D01*
X704970Y547864D01*
X704603Y547583D01*
X704202Y547351D01*
X703875Y547024D01*
X703508Y546742D01*
X703226Y546375D01*
X702899Y546048D01*
X702667Y545647D01*
X702385Y545280D01*
X702208Y544853D01*
X701977Y544452D01*
X701857Y544005D01*
X701680Y543577D01*
X701620Y543119D01*
X701500Y542672D01*
Y542209D01*
X701440Y541750D01*
X701500Y541291D01*
Y540828D01*
X701620Y540381D01*
X701680Y539923D01*
X701857Y539495D01*
X701977Y539048D01*
X702208Y538647D01*
X702385Y538220D01*
X702667Y537853D01*
X702899Y537452D01*
X703226Y537125D01*
X703508Y536758D01*
X703875Y536476D01*
X704202Y536149D01*
X704603Y535917D01*
X704970Y535635D01*
X705397Y535458D01*
X705798Y535227D01*
X706245Y535107D01*
X706673Y534930D01*
X707131Y534870D01*
X707578Y534750D01*
X708041D01*
X708500Y534690D01*
X745575D01*
X758190Y522076D01*
Y498716D01*
X757075Y497263D01*
X756067Y494831D01*
X755724Y492220D01*
Y488220D01*
X756067Y485610D01*
X757075Y483177D01*
X758678Y481088D01*
X760767Y479485D01*
X763199Y478477D01*
X765810Y478134D01*
X768420Y478477D01*
X770853Y479485D01*
X772942Y481088D01*
X774545Y483177D01*
X775553Y485610D01*
X775896Y488220D01*
Y492220D01*
X775553Y494831D01*
X774545Y497263D01*
X772942Y499352D01*
X772310Y499837D01*
Y525000D01*
X772070Y526827D01*
X771365Y528530D01*
X770242Y529992D01*
X753492Y546742D01*
X752030Y547864D01*
X750327Y548570D01*
X748500Y548810D01*
D02*
G37*
G36*
X715010Y502306D02*
X712400Y501963D01*
X709967Y500955D01*
X707878Y499352D01*
X706275Y497263D01*
X705267Y494831D01*
X704924Y492220D01*
Y488220D01*
X705267Y485610D01*
X706275Y483177D01*
X707878Y481088D01*
X709967Y479485D01*
X712400Y478477D01*
X715010Y478134D01*
X717620Y478477D01*
X720053Y479485D01*
X722142Y481088D01*
X723745Y483177D01*
X724753Y485610D01*
X725096Y488220D01*
Y492220D01*
X724753Y494831D01*
X723745Y497263D01*
X722142Y499352D01*
X720053Y500955D01*
X717620Y501963D01*
X715010Y502306D01*
D02*
G37*
G36*
X689610D02*
X687000Y501963D01*
X684567Y500955D01*
X682478Y499352D01*
X680875Y497263D01*
X679867Y494831D01*
X679524Y492220D01*
Y488220D01*
X679867Y485610D01*
X680875Y483177D01*
X682478Y481088D01*
X684567Y479485D01*
X687000Y478477D01*
X689610Y478134D01*
X692221Y478477D01*
X694653Y479485D01*
X696742Y481088D01*
X698345Y483177D01*
X699353Y485610D01*
X699696Y488220D01*
Y492220D01*
X699353Y494831D01*
X698345Y497263D01*
X696742Y499352D01*
X694653Y500955D01*
X692221Y501963D01*
X689610Y502306D01*
D02*
G37*
G36*
X588010D02*
X585400Y501963D01*
X582967Y500955D01*
X580878Y499352D01*
X579275Y497263D01*
X578267Y494831D01*
X577924Y492220D01*
Y488220D01*
X578267Y485610D01*
X579275Y483177D01*
X580878Y481088D01*
X582967Y479485D01*
X585400Y478477D01*
X588010Y478134D01*
X590620Y478477D01*
X593053Y479485D01*
X595142Y481088D01*
X596745Y483177D01*
X597753Y485610D01*
X598096Y488220D01*
Y492220D01*
X597753Y494831D01*
X596745Y497263D01*
X595142Y499352D01*
X593053Y500955D01*
X590620Y501963D01*
X588010Y502306D01*
D02*
G37*
G36*
X543816Y494250D02*
X541184D01*
X538640Y493568D01*
X536360Y492252D01*
X534498Y490390D01*
X533181Y488110D01*
X532500Y485566D01*
Y482934D01*
X533181Y480390D01*
X534498Y478110D01*
X536360Y476248D01*
X538640Y474931D01*
X541184Y474250D01*
X543816D01*
X546360Y474931D01*
X548640Y476248D01*
X550502Y478110D01*
X551819Y480390D01*
X552500Y482934D01*
Y485566D01*
X551819Y488110D01*
X550502Y490390D01*
X548640Y492252D01*
X546360Y493568D01*
X543816Y494250D01*
D02*
G37*
G36*
X453816D02*
X451184D01*
X448640Y493568D01*
X446360Y492252D01*
X444498Y490390D01*
X443181Y488110D01*
X442500Y485566D01*
Y482934D01*
X443181Y480390D01*
X444498Y478110D01*
X446360Y476248D01*
X448640Y474931D01*
X451184Y474250D01*
X453816D01*
X456360Y474931D01*
X458640Y476248D01*
X460502Y478110D01*
X461819Y480390D01*
X462500Y482934D01*
Y485566D01*
X461819Y488110D01*
X460502Y490390D01*
X458640Y492252D01*
X456360Y493568D01*
X453816Y494250D01*
D02*
G37*
G36*
X1051900Y471510D02*
X1030900D01*
Y456278D01*
X1026811Y452188D01*
X1023824D01*
X1023298Y453458D01*
X1024402Y454563D01*
X1025784Y456957D01*
X1026500Y459628D01*
Y462392D01*
X1025784Y465063D01*
X1024402Y467457D01*
X1022447Y469412D01*
X1020053Y470794D01*
X1017382Y471510D01*
X1014618D01*
X1011947Y470794D01*
X1009553Y469412D01*
X1007598Y467457D01*
X1006216Y465063D01*
X1005500Y462392D01*
Y459628D01*
X1006047Y457587D01*
X1001048Y452588D01*
X998824D01*
X998298Y453858D01*
X999002Y454563D01*
X1000384Y456957D01*
X1001100Y459628D01*
Y462392D01*
X1000384Y465063D01*
X999002Y467457D01*
X997047Y469412D01*
X994653Y470794D01*
X991982Y471510D01*
X989218D01*
X986547Y470794D01*
X984153Y469412D01*
X982198Y467457D01*
X980830Y465088D01*
X709200D01*
X709200Y465088D01*
X707639Y464778D01*
X706316Y463894D01*
X667785Y425363D01*
X666821Y425763D01*
X664210Y426106D01*
X661600Y425763D01*
X659167Y424755D01*
X657078Y423152D01*
X655475Y421063D01*
X654467Y418630D01*
X654124Y416020D01*
Y412020D01*
X654467Y409409D01*
X655475Y406977D01*
X657078Y404888D01*
X659167Y403285D01*
X661600Y402277D01*
X664210Y401934D01*
X666821Y402277D01*
X669253Y403285D01*
X671342Y404888D01*
X672945Y406977D01*
X673953Y409409D01*
X674296Y412020D01*
Y416020D01*
X673953Y418630D01*
X673553Y419595D01*
X710889Y456932D01*
X980830D01*
X982198Y454563D01*
X982903Y453858D01*
X982376Y452588D01*
X722100D01*
X722100Y452588D01*
X720539Y452278D01*
X719216Y451394D01*
X719216Y451394D01*
X693185Y425363D01*
X692221Y425763D01*
X689610Y426106D01*
X687000Y425763D01*
X684567Y424755D01*
X682478Y423152D01*
X680875Y421063D01*
X679867Y418630D01*
X679524Y416020D01*
Y412020D01*
X679867Y409409D01*
X680875Y406977D01*
X682478Y404888D01*
X684567Y403285D01*
X687000Y402277D01*
X689610Y401934D01*
X692221Y402277D01*
X694653Y403285D01*
X696742Y404888D01*
X698345Y406977D01*
X699353Y409409D01*
X699696Y412020D01*
Y416020D01*
X699353Y418630D01*
X698953Y419595D01*
X723789Y444432D01*
X999741D01*
X1000209Y443162D01*
X999532Y442148D01*
X999222Y440588D01*
X999222Y440588D01*
Y432322D01*
X994088Y427188D01*
X969079D01*
X956134Y440134D01*
X954811Y441018D01*
X953250Y441328D01*
X953250Y441328D01*
X736240D01*
X736240Y441328D01*
X734679Y441018D01*
X733356Y440134D01*
X718585Y425363D01*
X717620Y425763D01*
X715010Y426106D01*
X712400Y425763D01*
X709967Y424755D01*
X707878Y423152D01*
X706275Y421063D01*
X705267Y418630D01*
X704924Y416020D01*
Y412020D01*
X705267Y409409D01*
X706275Y406977D01*
X707878Y404888D01*
X709967Y403285D01*
X712400Y402277D01*
X715010Y401934D01*
X717620Y402277D01*
X720053Y403285D01*
X722142Y404888D01*
X723745Y406977D01*
X724753Y409409D01*
X725096Y412020D01*
Y416020D01*
X724753Y418630D01*
X724353Y419595D01*
X737929Y433172D01*
X951561D01*
X964506Y420226D01*
X964506Y420226D01*
X965829Y419342D01*
X967390Y419032D01*
X967390Y419032D01*
X995778D01*
X995778Y419032D01*
X997338Y419342D01*
X998661Y420226D01*
X1006184Y427748D01*
X1006634Y428423D01*
X1008169Y428592D01*
X1009553Y427208D01*
X1011947Y425826D01*
X1014618Y425110D01*
X1017382D01*
X1020053Y425826D01*
X1022447Y427208D01*
X1024402Y429163D01*
X1025784Y431557D01*
X1026500Y434228D01*
Y436992D01*
X1025784Y439663D01*
X1024402Y442057D01*
X1023698Y442762D01*
X1024224Y444032D01*
X1028500D01*
X1028500Y444032D01*
X1030061Y444342D01*
X1031384Y445226D01*
X1036668Y450510D01*
X1051900D01*
Y471510D01*
D02*
G37*
G36*
X448357Y451240D02*
X445723D01*
X443180Y450559D01*
X440900Y449242D01*
X439038Y447380D01*
X437721Y445100D01*
X437040Y442556D01*
Y439924D01*
X437721Y437380D01*
X439038Y435100D01*
X440900Y433238D01*
X443180Y431922D01*
X445723Y431240D01*
X448357D01*
X450900Y431922D01*
X453180Y433238D01*
X455042Y435100D01*
X456358Y437380D01*
X457040Y439924D01*
Y442556D01*
X456358Y445100D01*
X455042Y447380D01*
X453180Y449242D01*
X450900Y450559D01*
X448357Y451240D01*
D02*
G37*
G36*
X1042782Y446110D02*
X1040018D01*
X1037347Y445394D01*
X1034953Y444012D01*
X1032998Y442057D01*
X1031616Y439663D01*
X1030900Y436992D01*
Y434228D01*
X1031616Y431557D01*
X1032998Y429163D01*
X1034953Y427208D01*
X1037347Y425826D01*
X1040018Y425110D01*
X1042782D01*
X1045453Y425826D01*
X1047847Y427208D01*
X1049802Y429163D01*
X1051184Y431557D01*
X1051900Y434228D01*
Y436992D01*
X1051184Y439663D01*
X1049802Y442057D01*
X1047847Y444012D01*
X1045453Y445394D01*
X1042782Y446110D01*
D02*
G37*
G36*
X533284Y430080D02*
X530256D01*
X527331Y429296D01*
X524709Y427782D01*
X522568Y425641D01*
X521054Y423019D01*
X520270Y420094D01*
Y417066D01*
X521054Y414141D01*
X522568Y411519D01*
X524709Y409378D01*
X527331Y407864D01*
X530256Y407080D01*
X533284D01*
X536209Y407864D01*
X538470Y409169D01*
X542922Y404718D01*
Y370499D01*
X536532Y364110D01*
X536209Y364296D01*
X533284Y365080D01*
X530256D01*
X527331Y364296D01*
X524709Y362782D01*
X522568Y360641D01*
X521054Y358019D01*
X520270Y355094D01*
Y352066D01*
X521054Y349141D01*
X522568Y346519D01*
X524709Y344378D01*
X524822Y344313D01*
Y338579D01*
X490357Y304114D01*
X490112Y304180D01*
X488268D01*
X486488Y303703D01*
X484892Y302781D01*
X483589Y301478D01*
X483462Y301258D01*
X475009D01*
X452828Y323439D01*
Y343035D01*
X453180Y343238D01*
X455042Y345100D01*
X456358Y347380D01*
X457040Y349924D01*
Y352556D01*
X456358Y355100D01*
X455042Y357380D01*
X453180Y359242D01*
X450900Y360559D01*
X448357Y361240D01*
X445723D01*
X443180Y360559D01*
X440900Y359242D01*
X439038Y357380D01*
X437721Y355100D01*
X437040Y352556D01*
Y349924D01*
X437721Y347380D01*
X439038Y345100D01*
X440900Y343238D01*
X443180Y341922D01*
X444672Y341522D01*
Y321750D01*
X444672Y321750D01*
X444982Y320189D01*
X445866Y318866D01*
X470436Y294296D01*
X470436Y294296D01*
X471759Y293412D01*
X473320Y293102D01*
X483462D01*
X483589Y292882D01*
X484892Y291579D01*
X486488Y290657D01*
X488268Y290180D01*
X490112D01*
X491892Y290657D01*
X493488Y291579D01*
X494791Y292882D01*
X495713Y294478D01*
X496190Y296258D01*
Y298102D01*
X496124Y298347D01*
X531784Y334006D01*
X531784Y334006D01*
X532668Y335329D01*
X532978Y336890D01*
X532978Y336890D01*
Y342080D01*
X533284D01*
X536209Y342864D01*
X538831Y344378D01*
X540972Y346519D01*
X542486Y349141D01*
X543270Y352066D01*
Y355094D01*
X542486Y358019D01*
X542300Y358342D01*
X549884Y365926D01*
X550768Y367249D01*
X551078Y368810D01*
X551078Y368810D01*
Y406407D01*
X551078Y406407D01*
X550768Y407968D01*
X549884Y409291D01*
X549884Y409291D01*
X545846Y413328D01*
X546332Y414502D01*
X578010D01*
Y402020D01*
X598010D01*
Y426020D01*
X578010D01*
Y422658D01*
X542583D01*
X542486Y423019D01*
X540972Y425641D01*
X538831Y427782D01*
X536209Y429296D01*
X533284Y430080D01*
D02*
G37*
G36*
X918210Y426106D02*
X915600Y425763D01*
X913167Y424755D01*
X911078Y423152D01*
X909475Y421063D01*
X908467Y418630D01*
X908124Y416020D01*
Y412020D01*
X908467Y409409D01*
X909475Y406977D01*
X911078Y404888D01*
X913167Y403285D01*
X915600Y402277D01*
X918210Y401934D01*
X920820Y402277D01*
X923253Y403285D01*
X925342Y404888D01*
X926945Y406977D01*
X927953Y409409D01*
X928296Y412020D01*
Y416020D01*
X927953Y418630D01*
X926945Y421063D01*
X925342Y423152D01*
X923253Y424755D01*
X920820Y425763D01*
X918210Y426106D01*
D02*
G37*
G36*
X892810D02*
X890200Y425763D01*
X887767Y424755D01*
X885678Y423152D01*
X884075Y421063D01*
X883067Y418630D01*
X882724Y416020D01*
Y412020D01*
X883067Y409409D01*
X884075Y406977D01*
X885678Y404888D01*
X887767Y403285D01*
X890200Y402277D01*
X892810Y401934D01*
X895421Y402277D01*
X897853Y403285D01*
X899942Y404888D01*
X901545Y406977D01*
X902553Y409409D01*
X902896Y412020D01*
Y416020D01*
X902553Y418630D01*
X901545Y421063D01*
X899942Y423152D01*
X897853Y424755D01*
X895421Y425763D01*
X892810Y426106D01*
D02*
G37*
G36*
X867410D02*
X864799Y425763D01*
X862367Y424755D01*
X860278Y423152D01*
X858675Y421063D01*
X857667Y418630D01*
X857324Y416020D01*
Y412020D01*
X857667Y409409D01*
X858675Y406977D01*
X860278Y404888D01*
X862367Y403285D01*
X864799Y402277D01*
X867410Y401934D01*
X870021Y402277D01*
X872453Y403285D01*
X874542Y404888D01*
X876145Y406977D01*
X877153Y409409D01*
X877496Y412020D01*
Y416020D01*
X877153Y418630D01*
X876145Y421063D01*
X874542Y423152D01*
X872453Y424755D01*
X870021Y425763D01*
X867410Y426106D01*
D02*
G37*
G36*
X842010D02*
X839399Y425763D01*
X836967Y424755D01*
X834878Y423152D01*
X833275Y421063D01*
X832267Y418630D01*
X831924Y416020D01*
Y412020D01*
X832267Y409409D01*
X833275Y406977D01*
X834878Y404888D01*
X836967Y403285D01*
X839399Y402277D01*
X842010Y401934D01*
X844621Y402277D01*
X847053Y403285D01*
X849142Y404888D01*
X850745Y406977D01*
X851753Y409409D01*
X852096Y412020D01*
Y416020D01*
X851753Y418630D01*
X850745Y421063D01*
X849142Y423152D01*
X847053Y424755D01*
X844621Y425763D01*
X842010Y426106D01*
D02*
G37*
G36*
X740410D02*
X737800Y425763D01*
X735367Y424755D01*
X733278Y423152D01*
X731675Y421063D01*
X730667Y418630D01*
X730324Y416020D01*
Y412020D01*
X730667Y409409D01*
X731675Y406977D01*
X733278Y404888D01*
X735367Y403285D01*
X737800Y402277D01*
X740410Y401934D01*
X743020Y402277D01*
X745453Y403285D01*
X747542Y404888D01*
X749145Y406977D01*
X750153Y409409D01*
X750496Y412020D01*
Y416020D01*
X750153Y418630D01*
X749145Y421063D01*
X747542Y423152D01*
X745453Y424755D01*
X743020Y425763D01*
X740410Y426106D01*
D02*
G37*
G36*
X638810D02*
X636199Y425763D01*
X633767Y424755D01*
X631678Y423152D01*
X630075Y421063D01*
X629067Y418630D01*
X628724Y416020D01*
Y412020D01*
X629067Y409409D01*
X630075Y406977D01*
X631678Y404888D01*
X633767Y403285D01*
X636199Y402277D01*
X638810Y401934D01*
X641421Y402277D01*
X643853Y403285D01*
X645942Y404888D01*
X647545Y406977D01*
X648553Y409409D01*
X648896Y412020D01*
Y416020D01*
X648553Y418630D01*
X647545Y421063D01*
X645942Y423152D01*
X643853Y424755D01*
X641421Y425763D01*
X638810Y426106D01*
D02*
G37*
G36*
X613410D02*
X610799Y425763D01*
X608367Y424755D01*
X606278Y423152D01*
X604675Y421063D01*
X603667Y418630D01*
X603324Y416020D01*
Y412020D01*
X603667Y409409D01*
X604675Y406977D01*
X606278Y404888D01*
X608367Y403285D01*
X610799Y402277D01*
X613410Y401934D01*
X616021Y402277D01*
X618453Y403285D01*
X620542Y404888D01*
X622145Y406977D01*
X623153Y409409D01*
X623496Y412020D01*
Y416020D01*
X623153Y418630D01*
X622145Y421063D01*
X620542Y423152D01*
X618453Y424755D01*
X616021Y425763D01*
X613410Y426106D01*
D02*
G37*
G36*
X763672Y386000D02*
X761828D01*
X760048Y385523D01*
X758452Y384601D01*
X757149Y383298D01*
X756227Y381702D01*
X755750Y379922D01*
Y378078D01*
X756227Y376298D01*
X757149Y374702D01*
X758452Y373399D01*
X760048Y372477D01*
X761828Y372000D01*
X763672D01*
X765452Y372477D01*
X767048Y373399D01*
X768351Y374702D01*
X769273Y376298D01*
X769750Y378078D01*
Y379922D01*
X769273Y381702D01*
X768351Y383298D01*
X767048Y384601D01*
X765452Y385523D01*
X763672Y386000D01*
D02*
G37*
G36*
X990440Y379030D02*
X970440D01*
Y355030D01*
X990440D01*
Y379030D01*
D02*
G37*
G36*
X1031240Y379116D02*
X1028630Y378773D01*
X1026197Y377765D01*
X1024108Y376162D01*
X1022505Y374073D01*
X1021497Y371641D01*
X1021154Y369030D01*
Y365030D01*
X1021497Y362420D01*
X1022505Y359987D01*
X1024108Y357898D01*
X1026197Y356295D01*
X1028630Y355287D01*
X1031240Y354944D01*
X1033850Y355287D01*
X1036283Y356295D01*
X1038372Y357898D01*
X1039975Y359987D01*
X1040983Y362420D01*
X1041326Y365030D01*
Y369030D01*
X1040983Y371641D01*
X1039975Y374073D01*
X1038372Y376162D01*
X1036283Y377765D01*
X1033850Y378773D01*
X1031240Y379116D01*
D02*
G37*
G36*
X1005840D02*
X1003230Y378773D01*
X1000797Y377765D01*
X998708Y376162D01*
X997105Y374073D01*
X996097Y371641D01*
X995754Y369030D01*
Y365030D01*
X996097Y362420D01*
X997105Y359987D01*
X998708Y357898D01*
X1000797Y356295D01*
X1003230Y355287D01*
X1005840Y354944D01*
X1008450Y355287D01*
X1010883Y356295D01*
X1012972Y357898D01*
X1014575Y359987D01*
X1015583Y362420D01*
X1015926Y365030D01*
Y369030D01*
X1015583Y371641D01*
X1014575Y374073D01*
X1012972Y376162D01*
X1010883Y377765D01*
X1008450Y378773D01*
X1005840Y379116D01*
D02*
G37*
G36*
X716063Y361220D02*
X713957D01*
X711922Y360675D01*
X710098Y359622D01*
X708608Y358132D01*
X707555Y356308D01*
X707010Y354273D01*
Y352167D01*
X707555Y350132D01*
X708608Y348308D01*
X710098Y346818D01*
X711922Y345765D01*
X713957Y345220D01*
X716063D01*
X718098Y345765D01*
X719922Y346818D01*
X721412Y348308D01*
X722465Y350132D01*
X723010Y352167D01*
Y354273D01*
X722465Y356308D01*
X721412Y358132D01*
X719922Y359622D01*
X718098Y360675D01*
X716063Y361220D01*
D02*
G37*
G36*
X658913Y361060D02*
X656807D01*
X654772Y360515D01*
X652948Y359462D01*
X651458Y357972D01*
X650405Y356148D01*
X649860Y354113D01*
Y352007D01*
X650405Y349972D01*
X651458Y348148D01*
X652948Y346658D01*
X654772Y345605D01*
X656807Y345060D01*
X658913D01*
X660948Y345605D01*
X662772Y346658D01*
X664262Y348148D01*
X665315Y349972D01*
X665860Y352007D01*
Y354113D01*
X665315Y356148D01*
X664262Y357972D01*
X662772Y359462D01*
X660948Y360515D01*
X658913Y361060D01*
D02*
G37*
G36*
X601763D02*
X599657D01*
X597622Y360515D01*
X595798Y359462D01*
X594308Y357972D01*
X593255Y356148D01*
X592710Y354113D01*
Y352007D01*
X593255Y349972D01*
X594308Y348148D01*
X595798Y346658D01*
X597622Y345605D01*
X599657Y345060D01*
X601763D01*
X603798Y345605D01*
X605622Y346658D01*
X607112Y348148D01*
X608165Y349972D01*
X608710Y352007D01*
Y354113D01*
X608165Y356148D01*
X607112Y357972D01*
X605622Y359462D01*
X603798Y360515D01*
X601763Y361060D01*
D02*
G37*
G36*
X791210Y426106D02*
X788599Y425763D01*
X786167Y424755D01*
X784078Y423152D01*
X782475Y421063D01*
X781467Y418630D01*
X781124Y416020D01*
Y412020D01*
X781467Y409409D01*
X782475Y406977D01*
X784078Y404888D01*
X786167Y403285D01*
X788599Y402277D01*
X791210Y401934D01*
X793820Y402277D01*
X794785Y402677D01*
X810752Y386711D01*
Y372473D01*
X809918Y371992D01*
X808428Y370502D01*
X807375Y368678D01*
X806830Y366643D01*
Y364537D01*
X807375Y362502D01*
X808428Y360678D01*
X809918Y359188D01*
X810752Y358707D01*
Y330670D01*
X810752Y330670D01*
X811062Y329109D01*
X811946Y327786D01*
X817316Y322417D01*
X817250Y322172D01*
Y320328D01*
X817727Y318548D01*
X818649Y316952D01*
X819952Y315649D01*
X821548Y314727D01*
X823328Y314250D01*
X825172D01*
X826952Y314727D01*
X828548Y315649D01*
X829851Y316952D01*
X830773Y318548D01*
X831250Y320328D01*
Y322172D01*
X830773Y323952D01*
X829851Y325548D01*
X828548Y326851D01*
X826952Y327773D01*
X825172Y328250D01*
X823328D01*
X823083Y328184D01*
X818908Y332359D01*
Y358707D01*
X819742Y359188D01*
X821232Y360678D01*
X822285Y362502D01*
X822830Y364537D01*
Y366643D01*
X822285Y368678D01*
X821232Y370502D01*
X819742Y371992D01*
X818908Y372473D01*
Y388400D01*
X818598Y389961D01*
X817714Y391284D01*
X817714Y391284D01*
X800553Y408445D01*
X800953Y409409D01*
X801296Y412020D01*
Y416020D01*
X800953Y418630D01*
X799945Y421063D01*
X798342Y423152D01*
X796253Y424755D01*
X793820Y425763D01*
X791210Y426106D01*
D02*
G37*
G36*
X816610D02*
X813999Y425763D01*
X811567Y424755D01*
X809478Y423152D01*
X807875Y421063D01*
X806867Y418630D01*
X806524Y416020D01*
Y412020D01*
X806867Y409409D01*
X807875Y406977D01*
X809478Y404888D01*
X811567Y403285D01*
X813999Y402277D01*
X816610Y401934D01*
X819221Y402277D01*
X820465Y402793D01*
X855996Y367262D01*
X855830Y366643D01*
Y364537D01*
X856375Y362502D01*
X857428Y360678D01*
X858918Y359188D01*
X859752Y358707D01*
Y330766D01*
X857126Y328140D01*
X855288D01*
X853508Y327663D01*
X851912Y326741D01*
X850609Y325438D01*
X849687Y323842D01*
X849210Y322062D01*
Y320218D01*
X849687Y318438D01*
X850609Y316842D01*
X851912Y315539D01*
X853508Y314617D01*
X855288Y314140D01*
X857132D01*
X858912Y314617D01*
X860508Y315539D01*
X861811Y316842D01*
X862733Y318438D01*
X863210Y320218D01*
Y322062D01*
X863077Y322556D01*
X866714Y326193D01*
X867598Y327516D01*
X867908Y329076D01*
X867908Y329076D01*
Y358707D01*
X868742Y359188D01*
X870232Y360678D01*
X871285Y362502D01*
X871830Y364537D01*
Y366643D01*
X871285Y368678D01*
X870232Y370502D01*
X868742Y371992D01*
X866918Y373045D01*
X864883Y373590D01*
X862777D01*
X861535Y373257D01*
X826069Y408724D01*
X826353Y409409D01*
X826696Y412020D01*
Y416020D01*
X826353Y418630D01*
X825345Y421063D01*
X823742Y423152D01*
X821653Y424755D01*
X819221Y425763D01*
X816610Y426106D01*
D02*
G37*
%LPD*%
D10*
X664210Y485960D02*
Y490220D01*
X649750Y471500D02*
X664210Y485960D01*
X638559Y471500D02*
X649750D01*
X626750Y483309D02*
X638559Y471500D01*
X546900Y649200D02*
X548900D01*
X626750Y571350D01*
Y483309D02*
Y571350D01*
X644750Y501407D02*
Y504250D01*
X638810Y490220D02*
Y495467D01*
X644750Y501407D01*
X644000Y505000D02*
X644750Y504250D01*
X644000Y505000D02*
Y577500D01*
X993000Y816250D02*
X1079000D01*
X953000Y798000D02*
X985000Y830000D01*
X1275150D01*
X922973Y627993D02*
X1095981Y801000D01*
X807582Y627993D02*
X922973D01*
X1095981Y801000D02*
X1096000D01*
X744000Y800000D02*
X783000Y839000D01*
X694000Y802000D02*
X756000Y864000D01*
X694000Y775000D02*
Y802000D01*
X863000Y759680D02*
Y798000D01*
X888610Y734070D02*
X890110D01*
X863000Y759680D02*
X888610Y734070D01*
X1100000Y1171000D02*
X1112260Y1183260D01*
X1156990D01*
X1244350Y1019350D02*
X1263400D01*
X1326200Y1082150D02*
X1328200D01*
X1263400Y1019350D02*
X1326200Y1082150D01*
X1225000Y1000000D02*
X1244350Y1019350D01*
X1275150Y830000D02*
X1325130Y780020D01*
X763919Y584330D02*
X807582Y627993D01*
X746600Y584330D02*
X763919D01*
X1382850Y955150D02*
X1384000Y954000D01*
X1385000D01*
X1328200Y955150D02*
X1382850D01*
X1254000Y980550D02*
X1266000Y968550D01*
Y924780D02*
Y968550D01*
X1252000Y980550D02*
X1254000D01*
X1135970Y914890D02*
X1256111D01*
X1266000Y924780D01*
X1123970Y926890D02*
X1135970Y914890D01*
X1325130Y780020D02*
X1326630D01*
X1216000Y1137000D02*
X1238000Y1159000D01*
X1275750D01*
X952340Y584330D02*
X1110330D01*
X1150000Y624000D01*
Y663000D01*
X783000Y839000D02*
X1209000D01*
X1090950Y926890D02*
X1123970D01*
X1123970Y926890D01*
X1250570Y928320D02*
X1252000Y929750D01*
X1190010Y926890D02*
X1191440Y928320D01*
X1250570D01*
X998000Y917000D02*
X1010000Y929000D01*
X931729Y917000D02*
X998000D01*
X919489Y929240D02*
X931729Y917000D01*
X902170Y929240D02*
X919489D01*
X867880D02*
X902170D01*
X961982Y1094462D02*
X963130Y1095610D01*
X950000Y1069208D02*
Y1089657D01*
X954805Y1094462D02*
X961982D01*
X950000Y1089657D02*
X954805Y1094462D01*
X902170Y1019240D02*
Y1021378D01*
X950000Y1069208D01*
X867880Y1019240D02*
X902170D01*
X1250875Y955150D02*
X1252000D01*
X1190010Y1016015D02*
X1250875Y955150D01*
X1190010Y1016015D02*
Y1016890D01*
X1156990D02*
X1190010D01*
X1156990Y1183260D02*
X1190010D01*
X1190010Y1183260D01*
X1401220Y616820D02*
X1404900Y620500D01*
X1409500D01*
X1270000Y628820D02*
X1285254D01*
X1297254Y616820D01*
X1401220D01*
X1252180Y611000D02*
X1270000Y628820D01*
X1219240Y611000D02*
X1252180D01*
X1201420Y628820D02*
X1219240Y611000D01*
X1185000Y679530D02*
Y738950D01*
X1238770Y792720D02*
X1240270D01*
X1185000Y738950D02*
X1238770Y792720D01*
X1185000Y679530D02*
X1235710Y628820D01*
X1248890Y642000D02*
X1291110D01*
X1235710Y628820D02*
X1248890Y642000D01*
X1291110D02*
X1304290Y628820D01*
X1357310Y718820D02*
X1455630Y620500D01*
X1304290Y718820D02*
X1357310D01*
X1455630Y620500D02*
X1529500D01*
X1201420Y742370D02*
X1238770Y779720D01*
X1201420Y718820D02*
Y742370D01*
X1238770Y779720D02*
X1240270D01*
X1270000Y768070D02*
X1281950Y780020D01*
X1270000Y718820D02*
Y768070D01*
X1281950Y780020D02*
X1283450D01*
X1327250Y954200D02*
X1328200Y955150D01*
X1413000Y1013343D02*
Y1095000D01*
X1415343Y1011000D02*
X1415750D01*
X1413000Y1095000D02*
X1413250Y1095250D01*
X1413000Y1013343D02*
X1415343Y1011000D01*
X1415750D02*
X1457000Y969750D01*
X1489500D01*
X971880Y929120D02*
X972000Y929000D01*
X936580Y929120D02*
X971880D01*
X936460Y929240D02*
X936580Y929120D01*
X746600Y674330D02*
X793340Y721070D01*
X803750D01*
X905500Y571000D02*
X918500Y584000D01*
X828510Y571000D02*
X905500D01*
X815180Y584330D02*
X828510Y571000D01*
X953250Y437250D02*
X967390Y423110D01*
X995778D02*
X1003300Y430632D01*
Y440588D01*
X1010822Y448110D01*
X1028500D02*
X1041400Y461010D01*
X722100Y448510D02*
X1002737D01*
X1015237Y461010D01*
X1010822Y448110D02*
X1028500D01*
X1015237Y461010D02*
X1016000D01*
X967390Y423110D02*
X995778D01*
X736240Y437250D02*
X953250D01*
X715010Y416020D02*
X736240Y437250D01*
X715010Y414020D02*
Y416020D01*
X816610Y412415D02*
Y414020D01*
X863435Y365590D02*
X863830D01*
X816610Y412415D02*
X863435Y365590D01*
X791210Y412020D02*
X814830Y388400D01*
X791210Y412020D02*
Y414020D01*
X814830Y365590D02*
Y388400D01*
X474030Y674600D02*
X546900D01*
X459740Y688890D02*
X474030Y674600D01*
X459740Y688890D02*
Y715730D01*
Y598890D02*
X484650Y623800D01*
X546900D01*
X475760Y649200D02*
X546900D01*
X425450Y598890D02*
X475760Y649200D01*
X689610Y416020D02*
X722100Y448510D01*
X689610Y414020D02*
Y416020D01*
X664210D02*
X709200Y461010D01*
X990600D01*
X664210Y414020D02*
Y416020D01*
X528900Y336890D02*
Y350710D01*
X489190Y297180D02*
X528900Y336890D01*
Y350710D02*
X531770Y353580D01*
X448750Y321750D02*
X473320Y297180D01*
X489190D01*
X448750Y321750D02*
Y349530D01*
X447040Y351240D02*
X448750Y349530D01*
X534827Y418580D02*
X583450D01*
X547000Y368810D02*
Y406407D01*
X531770Y418580D02*
X534827D01*
X547000Y406407D01*
X531770Y353580D02*
X547000Y368810D01*
X583450Y418580D02*
X588010Y414020D01*
X856210Y321456D02*
X863830Y329076D01*
Y365590D01*
X856210Y321140D02*
Y321456D01*
X814830Y330670D02*
Y365590D01*
Y330670D02*
X824250Y321250D01*
X791210Y414020D02*
X791500Y413730D01*
D13*
X952340Y674330D02*
Y703520D01*
X933290Y721070D02*
X934790D01*
X952340Y703520D01*
X918790Y721070D02*
X931790Y734070D01*
X933290D01*
X890110Y721070D02*
X918790D01*
X866000Y706500D02*
X880570Y721070D01*
X890110D01*
X849470Y674330D02*
X866000Y690860D01*
Y706500D01*
X780890Y674330D02*
X792390Y662830D01*
X837970D01*
X849470Y674330D01*
X815180Y724140D02*
X818250Y721070D01*
X805250Y734070D02*
X815180Y724140D01*
X803750Y734070D02*
X805250D01*
X815180Y674330D02*
Y724140D01*
X818250Y721070D02*
X846930D01*
X757610Y734920D02*
X802900D01*
X756760Y735770D02*
X757610Y734920D01*
X802900D02*
X803750Y734070D01*
X849470Y584330D02*
X883760D01*
D24*
X486770Y418580D02*
D03*
X531770D02*
D03*
Y353580D02*
D03*
D26*
X486770D02*
D03*
D35*
X487860Y1158840D02*
D03*
X457860D02*
D03*
X487860Y1130900D02*
D03*
X457860D02*
D03*
X487860Y1102960D02*
D03*
X457860D02*
D03*
X487860Y1075020D02*
D03*
X457860D02*
D03*
X1544750Y852750D02*
D03*
X1514750D02*
D03*
X814830Y365590D02*
D03*
X863830D02*
D03*
X880750Y1083250D02*
D03*
X900750D02*
D03*
X657860Y373060D02*
D03*
Y353060D02*
D03*
X600710Y373060D02*
D03*
Y353060D02*
D03*
X715010Y373220D02*
D03*
Y353220D02*
D03*
D44*
X1130398Y1119852D02*
X1156990Y1093260D01*
X1126148Y1119852D02*
X1130398D01*
X1125000Y1121000D02*
X1126148Y1119852D01*
X1125000Y1121000D02*
X1336250D01*
X1101750D02*
X1125000D01*
X1019000Y904500D02*
X1264500D01*
X1018750D02*
X1019000D01*
X1407838Y895250D02*
X1413250D01*
X1398088Y905000D02*
X1407838Y895250D01*
X1265000Y905000D02*
X1398088D01*
X1264500Y904500D02*
X1265000Y905000D01*
X1493000Y706000D02*
X1529500Y742500D01*
X1382858Y706000D02*
X1493000D01*
X1364000Y724858D02*
Y773000D01*
Y724858D02*
X1382858Y706000D01*
X1326630Y793020D02*
X1343980D01*
X1364000Y773000D01*
X1242070Y793020D02*
X1283450D01*
X1241770Y792720D02*
X1242070Y793020D01*
X1240270Y792720D02*
X1241770D01*
X1226490Y805000D02*
X1238770Y792720D01*
X1162500Y805000D02*
X1226490D01*
X1529000Y743000D02*
X1529500Y742500D01*
X1529000Y743000D02*
Y804376D01*
X1515000Y818376D02*
Y820000D01*
Y818376D02*
X1529000Y804376D01*
X765250Y490780D02*
X765810Y490220D01*
X765250Y490780D02*
Y525000D01*
X748500Y541750D02*
X765250Y525000D01*
X708500Y541750D02*
X748500D01*
X765810Y490220D02*
Y492220D01*
X1019000Y904500D02*
X1090950Y976450D01*
Y1016890D01*
X961630Y1068110D02*
Y1069610D01*
X936460Y1042940D02*
X961630Y1068110D01*
X936460Y1019240D02*
Y1042940D01*
X961630Y1069610D02*
X963130D01*
X1328250Y1006000D02*
X1346750D01*
X1328200Y1005950D02*
X1328250Y1006000D01*
X1346750D02*
X1365250Y1024500D01*
Y1092000D01*
X1336250Y1121000D02*
X1365250Y1092000D01*
X1050360Y1069610D02*
X1101750Y1121000D01*
X1006310Y1069610D02*
X1050360D01*
X982500Y1203750D02*
X1019810Y1166440D01*
Y1090639D02*
Y1166440D01*
X1011781Y1082610D02*
X1019810Y1090639D01*
X1006310Y1082610D02*
X1011781D01*
X947000Y1110240D02*
Y1149000D01*
X892500Y1203500D02*
X947000Y1149000D01*
X961630Y1095610D02*
X963130D01*
X947000Y1110240D02*
X961630Y1095610D01*
X963130Y1069610D02*
X1006310D01*
X963130Y1082610D02*
X1006310D01*
X963130Y1095610D02*
X1006310D01*
X610000Y1127500D02*
Y1156500D01*
X657750Y1204250D01*
X657875Y1204125D02*
X688875D01*
X657750Y1204250D02*
X657875Y1204125D01*
X688875D02*
X689000Y1204000D01*
D45*
X1100000Y1171000D02*
D03*
D46*
X1075000Y1121000D02*
D03*
X1125000D02*
D03*
X694000Y775000D02*
D03*
Y825000D02*
D03*
X936460Y1019240D02*
D03*
Y929240D02*
D03*
X425450Y598890D02*
D03*
Y688890D02*
D03*
Y715730D02*
D03*
Y805730D02*
D03*
X459740Y688890D02*
D03*
Y598890D02*
D03*
X902170Y1019240D02*
D03*
Y929240D02*
D03*
X459740Y805730D02*
D03*
Y715730D02*
D03*
X867880Y1019240D02*
D03*
Y929240D02*
D03*
X391160Y598890D02*
D03*
Y688890D02*
D03*
X1457000Y969750D02*
D03*
Y879750D02*
D03*
X657750Y1204250D02*
D03*
X567750D02*
D03*
X391160Y805730D02*
D03*
Y715730D02*
D03*
X1489500Y969750D02*
D03*
Y879750D02*
D03*
X918500Y584000D02*
D03*
Y674000D02*
D03*
X883760Y584330D02*
D03*
Y674330D02*
D03*
X1156990Y1183260D02*
D03*
Y1093260D02*
D03*
X1132840Y628650D02*
D03*
Y718650D02*
D03*
X863000Y798000D02*
D03*
X953000D02*
D03*
X815180Y584330D02*
D03*
Y674330D02*
D03*
X849470Y584330D02*
D03*
Y674330D02*
D03*
X1190010Y926890D02*
D03*
Y1016890D02*
D03*
X1156990Y926890D02*
D03*
Y1016890D02*
D03*
X1270000Y718820D02*
D03*
Y628820D02*
D03*
X1201420Y718820D02*
D03*
Y628820D02*
D03*
X1304290D02*
D03*
Y718820D02*
D03*
X1090950Y1016890D02*
D03*
Y926890D02*
D03*
X780890Y584330D02*
D03*
Y674330D02*
D03*
X952340Y674330D02*
D03*
Y584330D02*
D03*
X746600Y674330D02*
D03*
Y584330D02*
D03*
X1123970Y926890D02*
D03*
Y1016890D02*
D03*
X1190010Y1093260D02*
D03*
Y1183260D02*
D03*
X1167130Y718650D02*
D03*
Y628650D02*
D03*
X1235710Y718820D02*
D03*
Y628820D02*
D03*
X447040Y351240D02*
D03*
Y441240D02*
D03*
X452500Y484250D02*
D03*
X542500D02*
D03*
X610000Y1077500D02*
D03*
Y1127500D02*
D03*
X487500Y950000D02*
D03*
Y1000000D02*
D03*
X735000Y1077500D02*
D03*
Y1127500D02*
D03*
Y950000D02*
D03*
Y1000000D02*
D03*
X610000Y950000D02*
D03*
Y1000000D02*
D03*
X1398250Y1209000D02*
D03*
Y1159000D02*
D03*
X1275750Y1209000D02*
D03*
Y1159000D02*
D03*
X892500Y1168500D02*
D03*
Y1203500D02*
D03*
X982500Y1168750D02*
D03*
Y1203750D02*
D03*
X1162500Y770000D02*
D03*
Y805000D02*
D03*
X779000Y1204000D02*
D03*
X689000D02*
D03*
X1010000Y929000D02*
D03*
Y1019000D02*
D03*
X972000Y929000D02*
D03*
Y1019000D02*
D03*
X1425000Y820000D02*
D03*
X1515000D02*
D03*
D47*
X744000Y800000D02*
D03*
D48*
X1056640Y367030D02*
D03*
X1031240D02*
D03*
X1005840D02*
D03*
X613410Y414020D02*
D03*
X638810D02*
D03*
X664210D02*
D03*
X689610D02*
D03*
X715010D02*
D03*
X740410D02*
D03*
X765810D02*
D03*
X791210D02*
D03*
X816610D02*
D03*
X842010D02*
D03*
X867410D02*
D03*
X892810D02*
D03*
X918210D02*
D03*
X588010Y490220D02*
D03*
X613410D02*
D03*
X638810D02*
D03*
X664210D02*
D03*
X689610D02*
D03*
X715010D02*
D03*
X740410D02*
D03*
X765810D02*
D03*
X791210D02*
D03*
X816610D02*
D03*
X842010D02*
D03*
X867410D02*
D03*
X892810D02*
D03*
X918210D02*
D03*
D49*
X980440Y367030D02*
D03*
X588010Y414020D02*
D03*
D50*
X990600Y435610D02*
D03*
X1016000D02*
D03*
X1041400D02*
D03*
X990600Y461010D02*
D03*
X1016000D02*
D03*
X339090Y735330D02*
D03*
Y760730D02*
D03*
D51*
X1041400Y461010D02*
D03*
D52*
X339090Y786130D02*
D03*
D53*
X408940Y1214120D02*
D03*
X328930Y342900D02*
D03*
X1510000Y330000D02*
D03*
X1530000Y1230000D02*
D03*
D54*
X1409500Y742500D02*
D03*
D55*
X1529500D02*
D03*
X1409500Y620500D02*
D03*
X1529500D02*
D03*
X1469500Y762500D02*
D03*
D56*
X306550Y963140D02*
D03*
X366550D02*
D03*
X306550Y1023140D02*
D03*
X310000Y1125000D02*
D03*
X1527000Y1123000D02*
D03*
D57*
X366550Y1023140D02*
D03*
D58*
X756760Y735770D02*
D03*
Y705770D02*
D03*
X762750Y379000D02*
D03*
Y349000D02*
D03*
X708500Y541750D02*
D03*
X678500D02*
D03*
X489190Y297180D02*
D03*
X519190D02*
D03*
X886210Y321140D02*
D03*
X856210D02*
D03*
X794250Y321250D02*
D03*
X824250D02*
D03*
D59*
X310000Y1175000D02*
D03*
X1527000Y1063000D02*
D03*
D60*
X1547750Y953800D02*
D03*
D61*
Y928400D02*
D03*
Y903000D02*
D03*
D62*
X1006310Y1095610D02*
D03*
Y1082610D02*
D03*
Y1069610D02*
D03*
X963130Y1095610D02*
D03*
Y1082610D02*
D03*
Y1069610D02*
D03*
X339000Y677250D02*
D03*
Y664250D02*
D03*
Y651250D02*
D03*
X890110Y734070D02*
D03*
Y721070D02*
D03*
Y708070D02*
D03*
X846930Y734070D02*
D03*
Y721070D02*
D03*
Y708070D02*
D03*
X1326630Y793020D02*
D03*
Y780020D02*
D03*
Y767020D02*
D03*
X933290Y734070D02*
D03*
Y721070D02*
D03*
Y708070D02*
D03*
X1283450Y793020D02*
D03*
Y780020D02*
D03*
Y767020D02*
D03*
X1240270Y792720D02*
D03*
Y779720D02*
D03*
Y766720D02*
D03*
X803750Y734070D02*
D03*
Y721070D02*
D03*
Y708070D02*
D03*
D63*
X1413250Y1095250D02*
D03*
Y895250D02*
D03*
D64*
X1252000Y1082150D02*
D03*
Y1056750D02*
D03*
Y1031350D02*
D03*
Y1005950D02*
D03*
Y980550D02*
D03*
Y955150D02*
D03*
Y929750D02*
D03*
X1328200Y1082150D02*
D03*
Y1056750D02*
D03*
Y1031350D02*
D03*
Y1005950D02*
D03*
Y980550D02*
D03*
Y955150D02*
D03*
X623100Y623800D02*
D03*
Y649200D02*
D03*
Y674600D02*
D03*
Y700000D02*
D03*
Y725400D02*
D03*
Y750800D02*
D03*
Y776200D02*
D03*
X546900Y623800D02*
D03*
Y649200D02*
D03*
Y674600D02*
D03*
Y700000D02*
D03*
Y725400D02*
D03*
Y750800D02*
D03*
D65*
X1328200Y929750D02*
D03*
X546900Y776200D02*
D03*
D66*
X644000Y577500D02*
D03*
X993000Y816250D02*
D03*
X1079000D02*
D03*
X756000Y864000D02*
D03*
X1225000Y1000000D02*
D03*
X1096000Y801000D02*
D03*
X1385000Y954000D02*
D03*
X1216000Y1137000D02*
D03*
X1150000Y663000D02*
D03*
X1209000Y839000D02*
D03*
X1018750Y904500D02*
D03*
D67*
X1513955Y953800D02*
X1547750D01*
X1328200Y929750D02*
X1401250D01*
X1418750Y947250D01*
X1507405D02*
X1513955Y953800D01*
X1418750Y947250D02*
X1507405D01*
X779271Y1204000D02*
X779771Y1203500D01*
X892500D01*
X779000Y1204000D02*
X779271D01*
D68*
X1391750Y820000D02*
X1425000D01*
X878000Y869250D02*
X1342500D01*
X747250Y1000000D02*
X878000Y869250D01*
X735000Y1000000D02*
X747250D01*
X499000Y1149250D02*
X504500Y1143750D01*
Y1000000D02*
X610000D01*
X504500D02*
Y1143750D01*
X610000Y1127500D02*
X735000D01*
X306550Y1023140D02*
X310000Y1026590D01*
Y1125000D01*
Y1175000D02*
X311750Y1173250D01*
X366550Y1023140D02*
Y1149818D01*
X311750Y1173250D02*
X343119D01*
X366550Y1149818D01*
X1391750Y820000D02*
X1409500Y802250D01*
X1342500Y869250D02*
X1391750Y820000D01*
X1409500Y742500D02*
X1429500Y762500D01*
X1469500D01*
X1409500Y742500D02*
Y802250D01*
X1413250Y1095250D02*
Y1102000D01*
X1434250Y1123000D01*
X1398250Y1159000D02*
X1434250Y1123000D01*
X1527000D01*
X1275750Y1159000D02*
X1398250D01*
X735000Y1127500D02*
X781500Y1081000D01*
X735000Y1000000D02*
X781500Y1046500D01*
Y1081000D01*
X610000Y1000000D02*
X735000D01*
D69*
X1451000Y579000D02*
X1559750D01*
X1560705Y928400D02*
X1578000Y911105D01*
Y597250D02*
Y911105D01*
X1559750Y579000D02*
X1578000Y597250D01*
X1523500Y895000D02*
X1546000D01*
X1499750Y918750D02*
X1523500Y895000D01*
X1436750Y918750D02*
X1499750D01*
X1409500Y620500D02*
X1451000Y579000D01*
X1413250Y895250D02*
X1436750Y918750D01*
D70*
X1547750Y928400D02*
X1560705D01*
D71*
X439250Y1035840D02*
Y1145500D01*
X457860Y1130900D02*
Y1158840D01*
X367910Y964500D02*
X439250Y1035840D01*
X366550Y963140D02*
X367910Y964500D01*
X452590Y1158840D02*
X457860D01*
X439250Y1145500D02*
X452590Y1158840D01*
X367910Y964500D02*
X392750D01*
X457860Y1029610D01*
X487860Y1149250D02*
Y1158840D01*
X457860Y1029610D02*
Y1075020D01*
Y1102960D02*
Y1130900D01*
Y1075020D02*
Y1102960D01*
X487860D02*
Y1130900D01*
Y1075020D02*
Y1102960D01*
M02*
