G04*
G04 #@! TF.GenerationSoftware,Altium Limited,Altium Designer,22.0.2 (36)*
G04*
G04 Layer_Color=65535*
%FSLAX44Y44*%
%MOMM*%
G71*
G04*
G04 #@! TF.SameCoordinates,5839D2CD-8417-4FFE-AC2F-3A0E45452BBB*
G04*
G04*
G04 #@! TF.FilePolarity,Positive*
G04*
G01*
G75*
%ADD10C,0.4000*%
%ADD11C,0.2000*%
%ADD12C,0.5000*%
%ADD13C,0.3000*%
%ADD14C,0.2540*%
%ADD15C,0.1524*%
%ADD16C,0.9000*%
%ADD17C,0.8000*%
%ADD18C,0.4500*%
D10*
X1134250Y1161750D02*
G03*
X1065652Y1161750I-34299J-12484D01*
G01*
X734750Y765750D02*
G03*
X734750Y834348I-12484J34299D01*
G01*
X1135000Y1106000D02*
Y1112750D01*
X1065000Y1106000D02*
Y1112500D01*
X1065652Y1131848D02*
Y1161750D01*
X1134250Y1131750D02*
Y1161750D01*
X1065000Y1106000D02*
X1135000D01*
X679000Y765000D02*
Y835000D01*
X704750Y765750D02*
X734750D01*
X704848Y834348D02*
X734750D01*
X679000Y835000D02*
X685500D01*
X679000Y765000D02*
X685750D01*
X276550Y1053140D02*
X396550D01*
X276550Y933140D02*
Y1053140D01*
Y933140D02*
X396550D01*
Y1053140D01*
X280000Y1090000D02*
Y1210000D01*
Y1090000D02*
X340000D01*
Y1210000D01*
X280000D02*
X340000D01*
X1557000Y1033000D02*
Y1153000D01*
X1497000D02*
X1557000D01*
X1497000Y1033000D02*
Y1153000D01*
Y1033000D02*
X1557000D01*
X1418250Y1075250D02*
X1423250Y1070250D01*
Y920250D02*
Y1070250D01*
X1418250Y915250D02*
X1423250Y920250D01*
X1408250Y1075250D02*
X1408250D01*
X1403250Y1070250D02*
X1408250Y1075250D01*
X1403250Y920250D02*
Y1070250D01*
Y920250D02*
X1408250Y915250D01*
X1418250D01*
X1408250Y1075250D02*
X1418250D01*
X363500Y1101500D02*
Y1106578D01*
Y1104039D01*
X348265D01*
X350804Y1101500D01*
X348265Y1124353D02*
Y1114196D01*
X355882D01*
X353343Y1119274D01*
Y1121813D01*
X355882Y1124353D01*
X360961D01*
X363500Y1121813D01*
Y1116735D01*
X360961Y1114196D01*
X348265Y1129431D02*
X358422D01*
X363500Y1134509D01*
X358422Y1139588D01*
X348265D01*
X363500Y1159901D02*
X348265D01*
Y1167519D01*
X350804Y1170058D01*
X355882D01*
X358422Y1167519D01*
Y1159901D01*
Y1164979D02*
X363500Y1170058D01*
Y1175136D02*
X348265D01*
X353343Y1180214D01*
X348265Y1185293D01*
X363500D01*
X350804Y1200528D02*
X348265Y1197989D01*
Y1192910D01*
X350804Y1190371D01*
X353343D01*
X355882Y1192910D01*
Y1197989D01*
X358422Y1200528D01*
X360961D01*
X363500Y1197989D01*
Y1192910D01*
X360961Y1190371D01*
X1038304Y946157D02*
X1035765Y943617D01*
Y938539D01*
X1038304Y936000D01*
X1048461D01*
X1051000Y938539D01*
Y943617D01*
X1048461Y946157D01*
X1035765Y951235D02*
X1048461D01*
X1051000Y953774D01*
Y958853D01*
X1048461Y961392D01*
X1035765D01*
X1051000Y966470D02*
X1035765D01*
Y974088D01*
X1038304Y976627D01*
X1043382D01*
X1045922Y974088D01*
Y966470D01*
Y971548D02*
X1051000Y976627D01*
Y981705D02*
X1035765D01*
Y989323D01*
X1038304Y991862D01*
X1043382D01*
X1045922Y989323D01*
Y981705D01*
Y986784D02*
X1051000Y991862D01*
X1035765Y1007097D02*
Y996940D01*
X1051000D01*
Y1007097D01*
X1043382Y996940D02*
Y1002019D01*
X1051000Y1012175D02*
X1035765D01*
X1051000Y1022332D01*
X1035765D01*
Y1027410D02*
Y1037567D01*
Y1032489D01*
X1051000D01*
X1035765Y1057880D02*
Y1068037D01*
Y1062959D01*
X1051000D01*
X1035765Y1073116D02*
X1051000D01*
X1043382D01*
Y1083272D01*
X1035765D01*
X1051000D01*
Y1088351D02*
X1035765D01*
Y1095968D01*
X1038304Y1098507D01*
X1043382D01*
X1045922Y1095968D01*
Y1088351D01*
Y1093429D02*
X1051000Y1098507D01*
X1035765Y1113743D02*
Y1103586D01*
X1051000D01*
Y1113743D01*
X1043382Y1103586D02*
Y1108664D01*
X1038304Y1128978D02*
X1035765Y1126438D01*
Y1121360D01*
X1038304Y1118821D01*
X1040843D01*
X1043382Y1121360D01*
Y1126438D01*
X1045922Y1128978D01*
X1048461D01*
X1051000Y1126438D01*
Y1121360D01*
X1048461Y1118821D01*
X1035765Y1134056D02*
X1051000D01*
X1043382D01*
Y1144213D01*
X1035765D01*
X1051000D01*
X1035765Y1156908D02*
Y1151830D01*
X1038304Y1149291D01*
X1048461D01*
X1051000Y1151830D01*
Y1156908D01*
X1048461Y1159448D01*
X1038304D01*
X1035765Y1156908D01*
Y1164526D02*
X1051000D01*
Y1174683D01*
X1035765Y1179761D02*
X1051000D01*
Y1187379D01*
X1048461Y1189918D01*
X1038304D01*
X1035765Y1187379D01*
Y1179761D01*
X519157Y879196D02*
X516618Y881735D01*
X511539D01*
X509000Y879196D01*
Y869039D01*
X511539Y866500D01*
X516618D01*
X519157Y869039D01*
X524235Y866500D02*
Y876657D01*
X529313Y881735D01*
X534392Y876657D01*
Y866500D01*
Y874118D01*
X524235D01*
X539470Y866500D02*
Y881735D01*
X547088D01*
X549627Y879196D01*
Y874118D01*
X547088Y871578D01*
X539470D01*
X554705Y866500D02*
Y876657D01*
X559784Y881735D01*
X564862Y876657D01*
Y866500D01*
Y874118D01*
X554705D01*
X580097Y879196D02*
X577558Y881735D01*
X572480D01*
X569940Y879196D01*
Y869039D01*
X572480Y866500D01*
X577558D01*
X580097Y869039D01*
X585175Y881735D02*
X590254D01*
X587715D01*
Y866500D01*
X585175D01*
X590254D01*
X597871Y881735D02*
X608028D01*
X602950D01*
Y866500D01*
X620724Y881735D02*
X615645D01*
X613106Y879196D01*
Y869039D01*
X615645Y866500D01*
X620724D01*
X623263Y869039D01*
Y879196D01*
X620724Y881735D01*
X628341Y866500D02*
Y881735D01*
X635959D01*
X638498Y879196D01*
Y874118D01*
X635959Y871578D01*
X628341D01*
X633420D02*
X638498Y866500D01*
X658811D02*
Y876657D01*
X663890Y881735D01*
X668968Y876657D01*
Y866500D01*
Y874118D01*
X658811D01*
X674047Y866500D02*
Y881735D01*
X681664D01*
X684203Y879196D01*
Y874118D01*
X681664Y871578D01*
X674047D01*
X679125D02*
X684203Y866500D01*
X689282D02*
Y881735D01*
X696899D01*
X699438Y879196D01*
Y874118D01*
X696899Y871578D01*
X689282D01*
X694360D02*
X699438Y866500D01*
X704517D02*
Y876657D01*
X709595Y881735D01*
X714673Y876657D01*
Y866500D01*
Y874118D01*
X704517D01*
X719752Y881735D02*
Y879196D01*
X724830Y874118D01*
X729909Y879196D01*
Y881735D01*
X724830Y874118D02*
Y866500D01*
X559157Y906696D02*
X556618Y909235D01*
X551539D01*
X549000Y906696D01*
Y904157D01*
X551539Y901618D01*
X556618D01*
X559157Y899078D01*
Y896539D01*
X556618Y894000D01*
X551539D01*
X549000Y896539D01*
X564235Y894000D02*
Y909235D01*
X569313Y904157D01*
X574392Y909235D01*
Y894000D01*
X587088Y909235D02*
X582009D01*
X579470Y906696D01*
Y896539D01*
X582009Y894000D01*
X587088D01*
X589627Y896539D01*
Y906696D01*
X587088Y909235D01*
X602323D02*
X597244D01*
X594705Y906696D01*
Y896539D01*
X597244Y894000D01*
X602323D01*
X604862Y896539D01*
Y906696D01*
X602323Y909235D01*
X609940D02*
X620097D01*
X615019D01*
Y894000D01*
X625175Y909235D02*
Y894000D01*
Y901618D01*
X635332D01*
Y909235D01*
Y894000D01*
X640410Y909235D02*
X645489D01*
X642950D01*
Y894000D01*
X640410D01*
X645489D01*
X653106D02*
Y909235D01*
X663263Y894000D01*
Y909235D01*
X678498Y906696D02*
X675959Y909235D01*
X670881D01*
X668341Y906696D01*
Y896539D01*
X670881Y894000D01*
X675959D01*
X678498Y896539D01*
Y901618D01*
X673420D01*
X1119000Y304235D02*
X1129157D01*
Y301696D01*
X1119000Y291539D01*
Y289000D01*
X1149470D02*
Y304235D01*
X1154548Y299157D01*
X1159627Y304235D01*
Y289000D01*
X1167244Y299157D02*
X1172323D01*
X1174862Y296618D01*
Y289000D01*
X1167244D01*
X1164705Y291539D01*
X1167244Y294078D01*
X1174862D01*
X1179940Y299157D02*
Y289000D01*
Y294078D01*
X1182479Y296618D01*
X1185019Y299157D01*
X1187558D01*
X1205332D02*
X1197714D01*
X1195175Y296618D01*
Y291539D01*
X1197714Y289000D01*
X1205332D01*
X1210410Y304235D02*
Y289000D01*
Y296618D01*
X1212950Y299157D01*
X1218028D01*
X1220567Y296618D01*
Y289000D01*
X1251037D02*
X1240881D01*
X1251037Y299157D01*
Y301696D01*
X1248498Y304235D01*
X1243420D01*
X1240881Y301696D01*
X1256116D02*
X1258655Y304235D01*
X1263733D01*
X1266272Y301696D01*
Y291539D01*
X1263733Y289000D01*
X1258655D01*
X1256116Y291539D01*
Y301696D01*
X1281507Y289000D02*
X1271351D01*
X1281507Y299157D01*
Y301696D01*
X1278968Y304235D01*
X1273890D01*
X1271351Y301696D01*
X1296743Y289000D02*
X1286586D01*
X1296743Y299157D01*
Y301696D01*
X1294203Y304235D01*
X1289125D01*
X1286586Y301696D01*
X1119000Y329235D02*
Y319078D01*
X1124078Y314000D01*
X1129157Y319078D01*
Y329235D01*
X1149470Y314000D02*
X1154548D01*
X1152009D01*
Y329235D01*
X1149470Y326696D01*
X1162166Y314000D02*
Y316539D01*
X1164705D01*
Y314000D01*
X1162166D01*
X1174862Y326696D02*
X1177401Y329235D01*
X1182479D01*
X1185019Y326696D01*
Y316539D01*
X1182479Y314000D01*
X1177401D01*
X1174862Y316539D01*
Y326696D01*
X1190097Y314000D02*
Y316539D01*
X1192636D01*
Y314000D01*
X1190097D01*
X1202793Y326696D02*
X1205332Y329235D01*
X1210410D01*
X1212950Y326696D01*
Y316539D01*
X1210410Y314000D01*
X1205332D01*
X1202793Y316539D01*
Y326696D01*
X1218028Y314000D02*
Y316539D01*
X1220567D01*
Y314000D01*
X1218028D01*
X1230724Y326696D02*
X1233263Y329235D01*
X1238341D01*
X1240881Y326696D01*
Y316539D01*
X1238341Y314000D01*
X1233263D01*
X1230724Y316539D01*
Y326696D01*
X408500Y374000D02*
X393265D01*
Y381618D01*
X395804Y384157D01*
X400882D01*
X403422Y381618D01*
Y374000D01*
Y379078D02*
X408500Y384157D01*
X393265Y399392D02*
Y389235D01*
X408500D01*
Y399392D01*
X400882Y389235D02*
Y394313D01*
X395804Y414627D02*
X393265Y412088D01*
Y407009D01*
X395804Y404470D01*
X398343D01*
X400882Y407009D01*
Y412088D01*
X403422Y414627D01*
X405961D01*
X408500Y412088D01*
Y407009D01*
X405961Y404470D01*
X393265Y429862D02*
Y419705D01*
X408500D01*
Y429862D01*
X400882Y419705D02*
Y424784D01*
X393265Y434940D02*
Y445097D01*
Y440019D01*
X408500D01*
X1101000Y616500D02*
X1085765D01*
Y624118D01*
X1088304Y626657D01*
X1093382D01*
X1095922Y624118D01*
Y616500D01*
X1101000Y631735D02*
X1085765D01*
Y639353D01*
X1088304Y641892D01*
X1093382D01*
X1095922Y639353D01*
Y631735D01*
Y636813D02*
X1101000Y641892D01*
X1085765Y654588D02*
Y649509D01*
X1088304Y646970D01*
X1098461D01*
X1101000Y649509D01*
Y654588D01*
X1098461Y657127D01*
X1088304D01*
X1085765Y654588D01*
Y662205D02*
Y672362D01*
Y667284D01*
X1101000D01*
X1085765Y687597D02*
Y677440D01*
X1101000D01*
Y687597D01*
X1093382Y677440D02*
Y682519D01*
X1088304Y702832D02*
X1085765Y700293D01*
Y695214D01*
X1088304Y692675D01*
X1098461D01*
X1101000Y695214D01*
Y700293D01*
X1098461Y702832D01*
X1085765Y707910D02*
Y718067D01*
Y712989D01*
X1101000D01*
X1085765Y723146D02*
Y728224D01*
Y725685D01*
X1101000D01*
Y723146D01*
Y728224D01*
X1085765Y743459D02*
Y738381D01*
X1088304Y735841D01*
X1098461D01*
X1101000Y738381D01*
Y743459D01*
X1098461Y745998D01*
X1088304D01*
X1085765Y743459D01*
X1101000Y751077D02*
X1085765D01*
X1101000Y761233D01*
X1085765D01*
X1073500Y574000D02*
Y579078D01*
Y576539D01*
X1058265D01*
X1060804Y574000D01*
X1073500Y586696D02*
Y591774D01*
Y589235D01*
X1058265D01*
X1060804Y586696D01*
X1073500Y599392D02*
X1063343D01*
X1058265Y604470D01*
X1063343Y609548D01*
X1073500D01*
X1065882D01*
Y599392D01*
X1058265Y637479D02*
Y632401D01*
X1060804Y629862D01*
X1070961D01*
X1073500Y632401D01*
Y637479D01*
X1070961Y640019D01*
X1060804D01*
X1058265Y637479D01*
Y645097D02*
X1068422D01*
X1073500Y650175D01*
X1068422Y655254D01*
X1058265D01*
Y670489D02*
Y660332D01*
X1073500D01*
Y670489D01*
X1065882Y660332D02*
Y665410D01*
X1073500Y675567D02*
X1058265D01*
Y683185D01*
X1060804Y685724D01*
X1065882D01*
X1068422Y683185D01*
Y675567D01*
Y680646D02*
X1073500Y685724D01*
X1060804Y716194D02*
X1058265Y713655D01*
Y708577D01*
X1060804Y706037D01*
X1070961D01*
X1073500Y708577D01*
Y713655D01*
X1070961Y716194D01*
X1058265Y721272D02*
X1070961D01*
X1073500Y723811D01*
Y728890D01*
X1070961Y731429D01*
X1058265D01*
X1073500Y736507D02*
X1058265D01*
Y744125D01*
X1060804Y746664D01*
X1065882D01*
X1068422Y744125D01*
Y736507D01*
Y741586D02*
X1073500Y746664D01*
Y751742D02*
X1058265D01*
Y759360D01*
X1060804Y761899D01*
X1065882D01*
X1068422Y759360D01*
Y751742D01*
Y756821D02*
X1073500Y761899D01*
X1058265Y777134D02*
Y766978D01*
X1073500D01*
Y777134D01*
X1065882Y766978D02*
Y772056D01*
X1073500Y782213D02*
X1058265D01*
X1073500Y792369D01*
X1058265D01*
Y797448D02*
Y807604D01*
Y802526D01*
X1073500D01*
X691515Y602907D02*
Y592750D01*
X699132D01*
Y597828D01*
Y592750D01*
X706750D01*
X691515Y607985D02*
X706750D01*
Y618142D01*
X691515Y623220D02*
Y628298D01*
Y625759D01*
X706750D01*
Y623220D01*
Y628298D01*
Y635916D02*
X691515D01*
Y643533D01*
X694054Y646073D01*
X699132D01*
X701672Y643533D01*
Y635916D01*
X691515Y676543D02*
Y666386D01*
X699132D01*
Y671464D01*
Y666386D01*
X706750D01*
X691515Y681621D02*
X706750D01*
Y691778D01*
X691515Y704474D02*
Y699396D01*
X694054Y696856D01*
X704211D01*
X706750Y699396D01*
Y704474D01*
X704211Y707013D01*
X694054D01*
X691515Y704474D01*
X706750Y712091D02*
X691515D01*
Y719709D01*
X694054Y722248D01*
X699132D01*
X701672Y719709D01*
Y712091D01*
X974000Y331735D02*
Y316500D01*
X981618D01*
X984157Y319039D01*
Y329196D01*
X981618Y331735D01*
X974000D01*
X989235D02*
X994313D01*
X991774D01*
Y316500D01*
X989235D01*
X994313D01*
X1012088Y329196D02*
X1009548Y331735D01*
X1004470D01*
X1001931Y329196D01*
Y326657D01*
X1004470Y324118D01*
X1009548D01*
X1012088Y321578D01*
Y319039D01*
X1009548Y316500D01*
X1004470D01*
X1001931Y319039D01*
X1017166Y316500D02*
Y331735D01*
X1024783D01*
X1027323Y329196D01*
Y324118D01*
X1024783Y321578D01*
X1017166D01*
X1032401Y331735D02*
Y316500D01*
X1042558D01*
X1047636D02*
Y326657D01*
X1052714Y331735D01*
X1057793Y326657D01*
Y316500D01*
Y324118D01*
X1047636D01*
X1062871Y331735D02*
Y329196D01*
X1067950Y324118D01*
X1073028Y329196D01*
Y331735D01*
X1067950Y324118D02*
Y316500D01*
X976657Y501735D02*
X966500D01*
Y486500D01*
X976657D01*
X966500Y494118D02*
X971578D01*
X981735Y486500D02*
Y501735D01*
X991892Y486500D01*
Y501735D01*
X1007127Y499196D02*
X1004588Y501735D01*
X999509D01*
X996970Y499196D01*
Y489039D01*
X999509Y486500D01*
X1004588D01*
X1007127Y489039D01*
X1019823Y501735D02*
X1014744D01*
X1012205Y499196D01*
Y489039D01*
X1014744Y486500D01*
X1019823D01*
X1022362Y489039D01*
Y499196D01*
X1019823Y501735D01*
X1027440D02*
Y486500D01*
X1035058D01*
X1037597Y489039D01*
Y499196D01*
X1035058Y501735D01*
X1027440D01*
X1052832D02*
X1042675D01*
Y486500D01*
X1052832D01*
X1042675Y494118D02*
X1047754D01*
X1057910Y486500D02*
Y501735D01*
X1065528D01*
X1068067Y499196D01*
Y494118D01*
X1065528Y491578D01*
X1057910D01*
X1062989D02*
X1068067Y486500D01*
X298500Y709000D02*
Y714078D01*
Y711539D01*
X283265D01*
X285804Y709000D01*
X298500Y731853D02*
Y721696D01*
X288343Y731853D01*
X285804D01*
X283265Y729313D01*
Y724235D01*
X285804Y721696D01*
X288343Y736931D02*
X298500Y742009D01*
X288343Y747088D01*
X283265Y777558D02*
Y767401D01*
X290882D01*
Y772479D01*
Y767401D01*
X298500D01*
Y782636D02*
X288343D01*
X283265Y787714D01*
X288343Y792793D01*
X298500D01*
X290882D01*
Y782636D01*
X298500Y797871D02*
X283265D01*
X298500Y808028D01*
X283265D01*
X279000Y886500D02*
Y901735D01*
X286618D01*
X289157Y899196D01*
Y894118D01*
X286618Y891578D01*
X279000D01*
X284078D02*
X289157Y886500D01*
X304392Y901735D02*
X294235D01*
Y886500D01*
X304392D01*
X294235Y894118D02*
X299313D01*
X319627Y899196D02*
X317088Y901735D01*
X312009D01*
X309470Y899196D01*
Y889039D01*
X312009Y886500D01*
X317088D01*
X319627Y889039D01*
X324705Y901735D02*
X334862D01*
X329784D01*
Y886500D01*
X339940Y901735D02*
X345019D01*
X342480D01*
Y886500D01*
X339940D01*
X345019D01*
X362793Y901735D02*
X352636D01*
Y894118D01*
X357715D01*
X352636D01*
Y886500D01*
X367871Y901735D02*
X372950D01*
X370410D01*
Y886500D01*
X367871D01*
X372950D01*
X390724Y901735D02*
X380567D01*
Y886500D01*
X390724D01*
X380567Y894118D02*
X385645D01*
X395802Y886500D02*
Y901735D01*
X403420D01*
X405959Y899196D01*
Y894118D01*
X403420Y891578D01*
X395802D01*
X400881D02*
X405959Y886500D01*
D11*
X575310Y445770D02*
G03*
X575310Y458470I0J6350D01*
G01*
X457860Y1169840D02*
G03*
X457860Y1147840I0J-11000D01*
G01*
X487860D02*
G03*
X487860Y1169840I0J11000D01*
G01*
X457860Y1141900D02*
G03*
X457860Y1119900I0J-11000D01*
G01*
X487860D02*
G03*
X487860Y1141900I0J11000D01*
G01*
X457860Y1113960D02*
G03*
X457860Y1091960I0J-11000D01*
G01*
X487860D02*
G03*
X487860Y1113960I0J11000D01*
G01*
X457860Y1086020D02*
G03*
X457860Y1064020I0J-11000D01*
G01*
X487860D02*
G03*
X487860Y1086020I0J11000D01*
G01*
X1514750Y863750D02*
G03*
X1514750Y841750I0J-11000D01*
G01*
X1544750D02*
G03*
X1544750Y863750I0J11000D01*
G01*
X804830Y388590D02*
G03*
X804830Y342590I0J-23000D01*
G01*
X873580D02*
G03*
X873580Y388590I0J23000D01*
G01*
X767760Y735770D02*
G03*
X745760Y735770I-11000J0D01*
G01*
Y705770D02*
G03*
X767760Y705770I11000J0D01*
G01*
X773750Y379000D02*
G03*
X751750Y379000I-11000J0D01*
G01*
Y349000D02*
G03*
X773750Y349000I11000J0D01*
G01*
X708500Y530750D02*
G03*
X708500Y552750I0J11000D01*
G01*
X678500D02*
G03*
X678500Y530750I0J-11000D01*
G01*
X489190Y308180D02*
G03*
X489190Y286180I0J-11000D01*
G01*
X519190D02*
G03*
X519190Y308180I0J11000D01*
G01*
X886210Y310140D02*
G03*
X886210Y332140I0J11000D01*
G01*
X856210D02*
G03*
X856210Y310140I0J-11000D01*
G01*
X794250Y332250D02*
G03*
X794250Y310250I0J-11000D01*
G01*
X824250D02*
G03*
X824250Y332250I0J11000D01*
G01*
X1296450Y909050D02*
G03*
X1283750Y909050I-6350J0D01*
G01*
X578650Y796900D02*
G03*
X591350Y796900I6350J0D01*
G01*
X1067680Y373380D02*
Y379730D01*
Y354330D02*
Y360680D01*
X968440Y354330D02*
Y379730D01*
X1067680Y360680D02*
Y373380D01*
X968440Y354330D02*
X1067680D01*
X968440Y379730D02*
X1067680D01*
X1054100Y424180D02*
Y472440D01*
X977900Y424180D02*
X1054100D01*
X977900D02*
Y472440D01*
X1054100D01*
X327660Y798830D02*
X351090D01*
Y722630D02*
Y798830D01*
X327660Y722630D02*
X351090D01*
X327660D02*
Y798830D01*
X499270Y416080D02*
X519270D01*
X539270Y366080D02*
Y406080D01*
X479270Y366080D02*
Y406080D01*
X499270Y356080D02*
X519270D01*
X575310Y400120D02*
Y445770D01*
Y458470D02*
Y504120D01*
X931110D01*
Y400120D02*
Y504120D01*
X575310Y400120D02*
X931110D01*
X457860Y1169840D02*
X487860D01*
X457860Y1147840D02*
X487860D01*
X457860Y1141900D02*
X487860D01*
X457860Y1119900D02*
X487860D01*
X457860Y1113960D02*
X487860D01*
X457860Y1091960D02*
X487860D01*
X457860Y1086020D02*
X487860D01*
X457860Y1064020D02*
X487860D01*
X1514750Y863750D02*
X1544750D01*
X1514750Y841750D02*
X1544750D01*
X804580Y388590D02*
X873580D01*
X804830Y342590D02*
X874080D01*
X608000Y1162420D02*
Y1172580D01*
X602920Y1167500D02*
X613080D01*
X485500Y1034920D02*
Y1045080D01*
X480420Y1040000D02*
X490580D01*
X733000Y1162420D02*
Y1172580D01*
X727920Y1167500D02*
X738080D01*
X733000Y1034920D02*
Y1045080D01*
X727920Y1040000D02*
X738080D01*
X608000Y1034920D02*
Y1045080D01*
X602920Y1040000D02*
X613080D01*
X1400250Y1113920D02*
Y1124080D01*
X1395170Y1119000D02*
X1405330D01*
X1277750Y1113920D02*
Y1124080D01*
X1272670Y1119000D02*
X1282830D01*
X892500Y1233520D02*
Y1243680D01*
X887420Y1238600D02*
X897580D01*
X982500Y1233770D02*
Y1243930D01*
X977420Y1238850D02*
X987580D01*
X1162500Y835020D02*
Y845180D01*
X1157420Y840100D02*
X1167580D01*
X767760Y705770D02*
Y735770D01*
X745760Y705770D02*
Y735770D01*
X773750Y349000D02*
Y379000D01*
X751750Y349000D02*
Y379000D01*
X678500Y530750D02*
X708500D01*
X678500Y552750D02*
X708500D01*
X489190Y308180D02*
X519190D01*
X489190Y286180D02*
X519190D01*
X856210Y310140D02*
X886210D01*
X856210Y332140D02*
X886210D01*
X794250Y332250D02*
X824250D01*
X794250Y310250D02*
X824250D01*
X921750Y1083250D02*
X931910D01*
X926830Y1078170D02*
Y1088330D01*
X657860Y321900D02*
Y332060D01*
X652780Y326980D02*
X662940D01*
X600710Y321900D02*
Y332060D01*
X595630Y326980D02*
X605790D01*
X715010Y322060D02*
Y332220D01*
X709930Y327140D02*
X720090D01*
X727250Y1211000D02*
X734250Y1204000D01*
X727250Y1197000D02*
Y1211000D01*
Y1197000D02*
X734250Y1204000D01*
Y1197000D02*
Y1211000D01*
X1010000Y973750D02*
X1017000Y980750D01*
X1003000D02*
X1017000D01*
X1003000D02*
X1010000Y973750D01*
X1003000D02*
X1017000D01*
X972000D02*
X979000Y980750D01*
X965000D02*
X979000D01*
X965000D02*
X972000Y973750D01*
X965000D02*
X979000D01*
X1469750Y820000D02*
X1476750Y813000D01*
Y827000D01*
X1469750Y820000D02*
X1476750Y827000D01*
X1469750Y813000D02*
Y827000D01*
X1343100Y908950D02*
Y1102950D01*
X1237100D02*
X1343100D01*
X1237100Y909321D02*
Y1102950D01*
Y909050D02*
X1283750D01*
X1296450D02*
X1343100D01*
X532000Y603000D02*
Y797000D01*
Y603000D02*
X638000D01*
Y796629D01*
X591350Y796900D02*
X638000D01*
X532000D02*
X578650D01*
D12*
X662251Y1102500D02*
G03*
X662251Y1102500I-52251J0D01*
G01*
X539751Y975000D02*
G03*
X539751Y975000I-52251J0D01*
G01*
X787251Y1102500D02*
G03*
X787251Y1102500I-52251J0D01*
G01*
Y975000D02*
G03*
X787251Y975000I-52251J0D01*
G01*
X662251D02*
G03*
X662251Y975000I-52251J0D01*
G01*
X1450501Y1184000D02*
G03*
X1450501Y1184000I-52251J0D01*
G01*
X1328001D02*
G03*
X1328001Y1184000I-52251J0D01*
G01*
X1112500Y395823D02*
X1129161D01*
X1120831D01*
Y370831D01*
X1149988D02*
X1141657D01*
X1137492Y374996D01*
Y383327D01*
X1141657Y387492D01*
X1149988D01*
X1154153Y383327D01*
Y379161D01*
X1137492D01*
X1166649Y387492D02*
X1174980D01*
X1179145Y383327D01*
Y370831D01*
X1166649D01*
X1162484Y374996D01*
X1166649Y379161D01*
X1179145D01*
X1187476Y370831D02*
Y387492D01*
X1191641D01*
X1195806Y383327D01*
Y370831D01*
Y383327D01*
X1199972Y387492D01*
X1204137Y383327D01*
Y370831D01*
X1254121Y391657D02*
X1249956Y395823D01*
X1241625D01*
X1237460Y391657D01*
Y387492D01*
X1241625Y383327D01*
X1249956D01*
X1254121Y379161D01*
Y374996D01*
X1249956Y370831D01*
X1241625D01*
X1237460Y374996D01*
X1266617Y387492D02*
X1274948D01*
X1279113Y383327D01*
Y370831D01*
X1266617D01*
X1262451Y374996D01*
X1266617Y379161D01*
X1279113D01*
X1295774Y362500D02*
X1299939D01*
X1304105Y366665D01*
Y387492D01*
X1291609D01*
X1287443Y383327D01*
Y374996D01*
X1291609Y370831D01*
X1304105D01*
X1320766Y362500D02*
X1324931D01*
X1329097Y366665D01*
Y387492D01*
X1316601D01*
X1312435Y383327D01*
Y374996D01*
X1316601Y370831D01*
X1329097D01*
X1337427D02*
X1345758D01*
X1341593D01*
Y387492D01*
X1337427D01*
X1362419Y391657D02*
Y387492D01*
X1358254D01*
X1366584D01*
X1362419D01*
Y374996D01*
X1366584Y370831D01*
X1383246Y387492D02*
X1391577D01*
X1395742Y383327D01*
Y370831D01*
X1383246D01*
X1379081Y374996D01*
X1383246Y379161D01*
X1395742D01*
X1404072Y387492D02*
Y370831D01*
Y379161D01*
X1408238Y383327D01*
X1412403Y387492D01*
X1416568D01*
X1429064Y370831D02*
X1437395D01*
X1433230D01*
Y387492D01*
X1429064D01*
X1454056Y370831D02*
X1462387D01*
X1466552Y374996D01*
Y383327D01*
X1462387Y387492D01*
X1454056D01*
X1449891Y383327D01*
Y374996D01*
X1454056Y370831D01*
X1474883Y387492D02*
Y374996D01*
X1479048Y370831D01*
X1491544D01*
Y387492D01*
X1499875Y370831D02*
X1512371D01*
X1516536Y374996D01*
X1512371Y379161D01*
X1504040D01*
X1499875Y383327D01*
X1504040Y387492D01*
X1516536D01*
D13*
X933804Y1186000D02*
G03*
X933804Y1186000I-41304J0D01*
G01*
X1023804Y1186250D02*
G03*
X1023804Y1186250I-41304J0D01*
G01*
X1203804Y787500D02*
G03*
X1203804Y787500I-41304J0D01*
G01*
X1021389Y1101290D02*
G03*
X1021389Y1063931I-13080J-18679D01*
G01*
X978210Y1101290D02*
G03*
X978210Y1063931I-13080J-18679D01*
G01*
X354080Y682930D02*
G03*
X354080Y645571I-13080J-18679D01*
G01*
X905190Y739750D02*
G03*
X905190Y702391I-13080J-18679D01*
G01*
X862010Y739750D02*
G03*
X862010Y702391I-13080J-18679D01*
G01*
X1341709Y798699D02*
G03*
X1341709Y761340I-13080J-18679D01*
G01*
X948370Y739750D02*
G03*
X948370Y702391I-13080J-18679D01*
G01*
X1298530Y798699D02*
G03*
X1298530Y761340I-13080J-18679D01*
G01*
X1255350Y798400D02*
G03*
X1255350Y761040I-13080J-18679D01*
G01*
X818830Y739750D02*
G03*
X818830Y702391I-13080J-18679D01*
G01*
X916769Y1083250D02*
G03*
X916769Y1083250I-26019J0D01*
G01*
X683879Y363060D02*
G03*
X683879Y363060I-26019J0D01*
G01*
X626729D02*
G03*
X626729Y363060I-26019J0D01*
G01*
X741029Y363220D02*
G03*
X741029Y363220I-26019J0D01*
G01*
X1389500Y582500D02*
Y782500D01*
Y582500D02*
X1549500D01*
Y782500D01*
X1389500D02*
X1549500D01*
X1529750Y979800D02*
X1577750D01*
Y877800D02*
Y979800D01*
X1529750Y877800D02*
X1577750D01*
X1529750D02*
Y979800D01*
X1570750Y877800D02*
Y979800D01*
X1021389Y1063931D02*
Y1101290D01*
X978210Y1063931D02*
Y1101290D01*
X354080Y645571D02*
Y682930D01*
X905190Y702391D02*
Y739750D01*
X862010Y702391D02*
Y739750D01*
X1341709Y761340D02*
Y798699D01*
X948370Y702391D02*
Y739750D01*
X1298530Y761340D02*
Y798699D01*
X1255350Y761040D02*
Y798400D01*
X818830Y702391D02*
Y739750D01*
D14*
X923460Y1008240D02*
X949460D01*
X923460Y940240D02*
X949460D01*
Y1008240D01*
X923460Y940240D02*
Y1008240D01*
X412450Y609890D02*
X438450D01*
X412450Y677890D02*
X438450D01*
X412450Y609890D02*
Y677890D01*
X438450Y609890D02*
Y677890D01*
X412450Y726730D02*
X438450D01*
X412450Y794730D02*
X438450D01*
X412450Y726730D02*
Y794730D01*
X438450Y726730D02*
Y794730D01*
X446740Y677890D02*
X472740D01*
X446740Y609890D02*
X472740D01*
Y677890D01*
X446740Y609890D02*
Y677890D01*
X889170Y1008240D02*
X915170D01*
X889170Y940240D02*
X915170D01*
Y1008240D01*
X889170Y940240D02*
Y1008240D01*
X446740Y794730D02*
X472740D01*
X446740Y726730D02*
X472740D01*
Y794730D01*
X446740Y726730D02*
Y794730D01*
X854880Y1008240D02*
X880880D01*
X854880Y940240D02*
X880880D01*
Y1008240D01*
X854880Y940240D02*
Y1008240D01*
X378160Y609890D02*
X404160D01*
X378160Y677890D02*
X404160D01*
X378160Y609890D02*
Y677890D01*
X404160Y609890D02*
Y677890D01*
X1444000Y958750D02*
X1470000D01*
X1444000Y890750D02*
X1470000D01*
Y958750D01*
X1444000Y890750D02*
Y958750D01*
X646750Y1191250D02*
Y1217250D01*
X578750Y1191250D02*
Y1217250D01*
Y1191250D02*
X646750D01*
X578750Y1217250D02*
X646750D01*
X378160Y794730D02*
X404160D01*
X378160Y726730D02*
X404160D01*
Y794730D01*
X378160Y726730D02*
Y794730D01*
X1476500Y958750D02*
X1502500D01*
X1476500Y890750D02*
X1502500D01*
Y958750D01*
X1476500Y890750D02*
Y958750D01*
X905500Y595000D02*
X931500D01*
X905500Y663000D02*
X931500D01*
X905500Y595000D02*
Y663000D01*
X931500Y595000D02*
Y663000D01*
X870760Y595330D02*
X896760D01*
X870760Y663330D02*
X896760D01*
X870760Y595330D02*
Y663330D01*
X896760Y595330D02*
Y663330D01*
X1143990Y1172260D02*
X1169990D01*
X1143990Y1104260D02*
X1169990D01*
Y1172260D01*
X1143990Y1104260D02*
Y1172260D01*
X1119840Y639650D02*
X1145840D01*
X1119840Y707650D02*
X1145840D01*
X1119840Y639650D02*
Y707650D01*
X1145840Y639650D02*
Y707650D01*
X874000Y785000D02*
Y811000D01*
X942000Y785000D02*
Y811000D01*
X874000D02*
X942000D01*
X874000Y785000D02*
X942000D01*
X802180Y595330D02*
X828180D01*
X802180Y663330D02*
X828180D01*
X802180Y595330D02*
Y663330D01*
X828180Y595330D02*
Y663330D01*
X836470Y595330D02*
X862470D01*
X836470Y663330D02*
X862470D01*
X836470Y595330D02*
Y663330D01*
X862470Y595330D02*
Y663330D01*
X1177010Y937890D02*
X1203010D01*
X1177010Y1005890D02*
X1203010D01*
X1177010Y937890D02*
Y1005890D01*
X1203010Y937890D02*
Y1005890D01*
X1143990Y937890D02*
X1169990D01*
X1143990Y1005890D02*
X1169990D01*
X1143990Y937890D02*
Y1005890D01*
X1169990Y937890D02*
Y1005890D01*
X1257000Y707820D02*
X1283000D01*
X1257000Y639820D02*
X1283000D01*
Y707820D01*
X1257000Y639820D02*
Y707820D01*
X1188420D02*
X1214420D01*
X1188420Y639820D02*
X1214420D01*
Y707820D01*
X1188420Y639820D02*
Y707820D01*
X1291290Y639820D02*
X1317290D01*
X1291290Y707820D02*
X1317290D01*
X1291290Y639820D02*
Y707820D01*
X1317290Y639820D02*
Y707820D01*
X1077950Y1005890D02*
X1103950D01*
X1077950Y937890D02*
X1103950D01*
Y1005890D01*
X1077950Y937890D02*
Y1005890D01*
X767890Y595330D02*
X793890D01*
X767890Y663330D02*
X793890D01*
X767890Y595330D02*
Y663330D01*
X793890Y595330D02*
Y663330D01*
X939340D02*
X965340D01*
X939340Y595330D02*
X965340D01*
Y663330D01*
X939340Y595330D02*
Y663330D01*
X733600D02*
X759600D01*
X733600Y595330D02*
X759600D01*
Y663330D01*
X733600Y595330D02*
Y663330D01*
X1110970Y937890D02*
X1136970D01*
X1110970Y1005890D02*
X1136970D01*
X1110970Y937890D02*
Y1005890D01*
X1136970Y937890D02*
Y1005890D01*
X1177010Y1104260D02*
X1203010D01*
X1177010Y1172260D02*
X1203010D01*
X1177010Y1104260D02*
Y1172260D01*
X1203010Y1104260D02*
Y1172260D01*
X1154130Y707650D02*
X1180130D01*
X1154130Y639650D02*
X1180130D01*
Y707650D01*
X1154130Y639650D02*
Y707650D01*
X1222710Y707820D02*
X1248710D01*
X1222710Y639820D02*
X1248710D01*
Y707820D01*
X1222710Y639820D02*
Y707820D01*
X434040Y362240D02*
X460040D01*
X434040Y430240D02*
X460040D01*
X434040Y362240D02*
Y430240D01*
X460040Y362240D02*
Y430240D01*
X463500Y471250D02*
Y497250D01*
X531500Y471250D02*
Y497250D01*
X463500D02*
X531500D01*
X463500Y471250D02*
X531500D01*
X758000Y1191000D02*
Y1217000D01*
X700000D02*
X768000D01*
X700000Y1191000D02*
X768000D01*
X700000D02*
Y1217000D01*
X768000Y1191000D02*
Y1217000D01*
X997000Y950000D02*
X1023000D01*
Y940000D02*
Y1008000D01*
X997000Y940000D02*
Y1008000D01*
X1023000D01*
X997000Y940000D02*
X1023000D01*
X959000Y950000D02*
X985000D01*
Y940000D02*
Y1008000D01*
X959000Y940000D02*
Y1008000D01*
X985000D01*
X959000Y940000D02*
X985000D01*
X1446000Y807000D02*
Y833000D01*
X1436000Y807000D02*
X1504000D01*
X1436000Y833000D02*
X1504000D01*
Y807000D02*
Y833000D01*
X1436000Y807000D02*
Y833000D01*
X349131Y397540D02*
X359128D01*
X355796D01*
X349131Y404204D01*
X354129Y399206D01*
X359128Y404204D01*
X352463Y409203D02*
Y412535D01*
X354129Y414201D01*
X359128D01*
Y409203D01*
X357462Y407537D01*
X355796Y409203D01*
Y414201D01*
X362460Y417534D02*
Y419200D01*
X360794Y420866D01*
X352463D01*
X349131Y427530D02*
X359128D01*
X354129D01*
X352463Y429197D01*
Y432529D01*
X354129Y434195D01*
X359128D01*
X352463Y439193D02*
Y442525D01*
X354129Y444192D01*
X359128D01*
Y439193D01*
X357462Y437527D01*
X355796Y439193D01*
Y444192D01*
X359128Y447524D02*
X352463D01*
Y452522D01*
X354129Y454188D01*
X359128D01*
X352463Y459187D02*
Y462519D01*
X354129Y464185D01*
X359128D01*
Y459187D01*
X357462Y457521D01*
X355796Y459187D01*
Y464185D01*
X359128Y467518D02*
X352463D01*
Y472516D01*
X354129Y474182D01*
X359128D01*
X349131Y487511D02*
X359128D01*
X355796D01*
X349131Y494175D01*
X354129Y489177D01*
X359128Y494175D01*
X352463Y499174D02*
Y502506D01*
X354129Y504172D01*
X359128D01*
Y499174D01*
X357462Y497508D01*
X355796Y499174D01*
Y504172D01*
X359128Y507505D02*
Y510837D01*
Y509171D01*
X352463D01*
Y507505D01*
X359128Y515835D02*
Y519168D01*
Y517501D01*
X349131D01*
Y515835D01*
X352463Y525832D02*
Y529164D01*
X354129Y530830D01*
X359128D01*
Y525832D01*
X357462Y524166D01*
X355796Y525832D01*
Y530830D01*
X359128Y534163D02*
X352463D01*
Y539161D01*
X354129Y540827D01*
X359128D01*
X352463Y545826D02*
Y549158D01*
X354129Y550824D01*
X359128D01*
Y545826D01*
X357462Y544159D01*
X355796Y545826D01*
Y550824D01*
X350797Y555822D02*
X352463D01*
Y554156D01*
Y557489D01*
Y555822D01*
X357462D01*
X359128Y557489D01*
X349131Y562487D02*
X359128D01*
X354129D01*
X352463Y564153D01*
Y567485D01*
X354129Y569151D01*
X359128D01*
X352463Y574150D02*
Y577482D01*
X354129Y579148D01*
X359128D01*
Y574150D01*
X357462Y572484D01*
X355796Y574150D01*
Y579148D01*
X359128Y582480D02*
X352463D01*
Y587479D01*
X354129Y589145D01*
X359128D01*
X339128Y397540D02*
X329131D01*
Y402538D01*
X330797Y404204D01*
X334129D01*
X335796Y402538D01*
Y397540D01*
X339128Y409203D02*
Y412535D01*
X337462Y414201D01*
X334129D01*
X332463Y412535D01*
Y409203D01*
X334129Y407537D01*
X337462D01*
X339128Y409203D01*
Y419200D02*
Y422532D01*
X337462Y424198D01*
X334129D01*
X332463Y422532D01*
Y419200D01*
X334129Y417534D01*
X337462D01*
X339128Y419200D01*
X342460Y430863D02*
Y432529D01*
X340794Y434195D01*
X332463D01*
Y429197D01*
X334129Y427530D01*
X337462D01*
X339128Y429197D01*
Y434195D01*
Y437527D02*
Y440859D01*
Y439193D01*
X332463D01*
Y437527D01*
X330797Y447524D02*
X332463D01*
Y445858D01*
Y449190D01*
Y447524D01*
X337462D01*
X339128Y449190D01*
X329131Y454188D02*
X339128D01*
X334129D01*
X332463Y455854D01*
Y459187D01*
X334129Y460853D01*
X339128D01*
X332463Y465851D02*
Y469184D01*
X334129Y470850D01*
X339128D01*
Y465851D01*
X337462Y464185D01*
X335796Y465851D01*
Y470850D01*
X329131Y490843D02*
Y487511D01*
Y489177D01*
X337462D01*
X339128Y487511D01*
Y485845D01*
X337462Y484179D01*
X339128Y499174D02*
Y495842D01*
X337462Y494175D01*
X334129D01*
X332463Y495842D01*
Y499174D01*
X334129Y500840D01*
X335796D01*
Y494175D01*
X342460Y507505D02*
Y509171D01*
X340794Y510837D01*
X332463D01*
Y505838D01*
X334129Y504172D01*
X337462D01*
X339128Y505838D01*
Y510837D01*
X332463Y515835D02*
Y519168D01*
X334129Y520834D01*
X339128D01*
Y515835D01*
X337462Y514169D01*
X335796Y515835D01*
Y520834D01*
X339128Y524166D02*
X329131D01*
X335796D02*
X332463Y529164D01*
X335796Y524166D02*
X339128Y529164D01*
X332463Y534163D02*
X337462D01*
X339128Y535829D01*
Y540827D01*
X332463D01*
X339128Y544159D02*
X332463D01*
Y545826D01*
X334129Y547492D01*
X339128D01*
X334129D01*
X332463Y549158D01*
X334129Y550824D01*
X339128D01*
X332463Y555822D02*
Y559155D01*
X334129Y560821D01*
X339128D01*
Y555822D01*
X337462Y554156D01*
X335796Y555822D01*
Y560821D01*
X332463Y564153D02*
X339128D01*
X335796D01*
X334129Y565819D01*
X332463Y567485D01*
Y569151D01*
Y575816D02*
Y579148D01*
X334129Y580814D01*
X339128D01*
Y575816D01*
X337462Y574150D01*
X335796Y575816D01*
Y580814D01*
X339128Y584146D02*
X332463D01*
Y589145D01*
X334129Y590811D01*
X339128D01*
X319128Y397540D02*
X309131D01*
Y402538D01*
X310797Y404204D01*
X314129D01*
X315795Y402538D01*
Y397540D01*
X312463Y407537D02*
X319128D01*
X315795D01*
X314129Y409203D01*
X312463Y410869D01*
Y412535D01*
Y419200D02*
Y422532D01*
X314129Y424198D01*
X319128D01*
Y419200D01*
X317462Y417534D01*
X315795Y419200D01*
Y424198D01*
X309131Y427530D02*
X319128D01*
Y432529D01*
X317462Y434195D01*
X315795D01*
X314129D01*
X312463Y432529D01*
Y427530D01*
X309131Y437527D02*
X319128D01*
X314129D01*
X312463Y439193D01*
Y442525D01*
X314129Y444192D01*
X319128D01*
X312463Y449190D02*
Y452522D01*
X314129Y454188D01*
X319128D01*
Y449190D01*
X317462Y447524D01*
X315795Y449190D01*
Y454188D01*
X319128Y457521D02*
Y462519D01*
X317462Y464185D01*
X315795Y462519D01*
Y459187D01*
X314129Y457521D01*
X312463Y459187D01*
Y464185D01*
X309131Y467518D02*
X319128D01*
X314129D01*
X312463Y469184D01*
Y472516D01*
X314129Y474182D01*
X319128D01*
X312463Y477514D02*
X317462D01*
X319128Y479180D01*
X317462Y480846D01*
X319128Y482513D01*
X317462Y484179D01*
X312463D01*
Y489177D02*
Y492509D01*
X314129Y494175D01*
X319128D01*
Y489177D01*
X317462Y487511D01*
X315795Y489177D01*
Y494175D01*
X312463Y497508D02*
X319128D01*
X315795D01*
X314129Y499174D01*
X312463Y500840D01*
Y502506D01*
Y509171D02*
Y512503D01*
X314129Y514169D01*
X319128D01*
Y509171D01*
X317462Y507505D01*
X315795Y509171D01*
Y514169D01*
X309131Y527498D02*
X319128D01*
X315795D01*
X309131Y534163D01*
X314129Y529164D01*
X319128Y534163D01*
X312463Y539161D02*
Y542493D01*
X314129Y544159D01*
X319128D01*
Y539161D01*
X317462Y537495D01*
X315795Y539161D01*
Y544159D01*
X309131Y547492D02*
X319128D01*
X314129D01*
X312463Y549158D01*
Y552490D01*
X314129Y554156D01*
X319128D01*
X312463Y559155D02*
Y562487D01*
X314129Y564153D01*
X319128D01*
Y559155D01*
X317462Y557489D01*
X315795Y559155D01*
Y564153D01*
X312463Y567485D02*
X317462D01*
X319128Y569151D01*
X317462Y570817D01*
X319128Y572484D01*
X317462Y574150D01*
X312463D01*
Y579148D02*
Y582480D01*
X314129Y584147D01*
X319128D01*
Y579148D01*
X317462Y577482D01*
X315795Y579148D01*
Y584147D01*
X319128Y587479D02*
Y590811D01*
Y589145D01*
X309131D01*
Y587479D01*
X312463Y597476D02*
Y600808D01*
X314129Y602474D01*
X319128D01*
Y597476D01*
X317462Y595810D01*
X315795Y597476D01*
Y602474D01*
X322460Y609138D02*
Y610805D01*
X320794Y612471D01*
X312463D01*
Y607472D01*
X314129Y605806D01*
X317462D01*
X319128Y607472D01*
Y612471D01*
Y620801D02*
Y617469D01*
X317462Y615803D01*
X314129D01*
X312463Y617469D01*
Y620801D01*
X314129Y622467D01*
X315795D01*
Y615803D01*
X292463Y397540D02*
X294129D01*
X297462Y400872D01*
X294129Y404204D01*
X292463D01*
X297462Y400872D02*
X302460D01*
X295795Y409203D02*
Y412535D01*
X297462Y414201D01*
X302460D01*
Y409203D01*
X300794Y407537D01*
X299128Y409203D01*
Y414201D01*
X302460Y417534D02*
Y422532D01*
X300794Y424198D01*
X299128Y422532D01*
Y419200D01*
X297462Y417534D01*
X295795Y419200D01*
Y424198D01*
X302460Y427530D02*
Y430863D01*
Y429197D01*
X295795D01*
Y427530D01*
Y435861D02*
X302460D01*
X299128D01*
X297462Y437527D01*
X295795Y439193D01*
Y440859D01*
Y445858D02*
X300794D01*
X302460Y447524D01*
Y452522D01*
X295795D01*
X294129Y472516D02*
X292463Y470850D01*
Y467518D01*
X294129Y465851D01*
X295795D01*
X297462Y467518D01*
Y470850D01*
X299128Y472516D01*
X300794D01*
X302460Y470850D01*
Y467518D01*
X300794Y465851D01*
X302460Y480846D02*
Y477514D01*
X300794Y475848D01*
X297462D01*
X295795Y477514D01*
Y480846D01*
X297462Y482513D01*
X299128D01*
Y475848D01*
X302460Y485845D02*
X295795D01*
Y490843D01*
X297462Y492509D01*
X302460D01*
Y500840D02*
Y497508D01*
X300794Y495842D01*
X297462D01*
X295795Y497508D01*
Y500840D01*
X297462Y502506D01*
X299128D01*
Y495842D01*
X295795Y505838D02*
X302460D01*
X299128D01*
X297462Y507505D01*
X295795Y509171D01*
Y510837D01*
Y517501D02*
Y520834D01*
X297462Y522500D01*
X302460D01*
Y517501D01*
X300794Y515835D01*
X299128Y517501D01*
Y522500D01*
X294129Y527498D02*
X295795D01*
Y525832D01*
Y529164D01*
Y527498D01*
X300794D01*
X302460Y529164D01*
X292463Y534163D02*
X302460D01*
X297462D01*
X295795Y535829D01*
Y539161D01*
X297462Y540827D01*
X302460D01*
X279128Y397540D02*
X272463D01*
X269131Y400872D01*
X272463Y404204D01*
X279128D01*
X274129D01*
Y397540D01*
X282460Y420866D02*
Y422532D01*
X280794Y424198D01*
X272463D01*
Y419200D01*
X274129Y417534D01*
X277462D01*
X279128Y419200D01*
Y424198D01*
X272463Y427530D02*
X279128D01*
X275795D01*
X274129Y429197D01*
X272463Y430863D01*
Y432529D01*
X279128Y442525D02*
Y439193D01*
X277462Y437527D01*
X274129D01*
X272463Y439193D01*
Y442525D01*
X274129Y444192D01*
X275795D01*
Y437527D01*
X272463Y449190D02*
Y452522D01*
X274129Y454188D01*
X279128D01*
Y449190D01*
X277462Y447524D01*
X275795Y449190D01*
Y454188D01*
X270797Y459187D02*
X272463D01*
Y457521D01*
Y460853D01*
Y459187D01*
X277462D01*
X279128Y460853D01*
X270797Y477514D02*
X272463D01*
Y475848D01*
Y479180D01*
Y477514D01*
X277462D01*
X279128Y479180D01*
Y489177D02*
Y485845D01*
X277462Y484179D01*
X274129D01*
X272463Y485845D01*
Y489177D01*
X274129Y490843D01*
X275795D01*
Y484179D01*
X272463Y495842D02*
Y499174D01*
X274129Y500840D01*
X279128D01*
Y495842D01*
X277462Y494175D01*
X275795Y495842D01*
Y500840D01*
X279128Y504172D02*
X272463D01*
Y505839D01*
X274129Y507505D01*
X279128D01*
X274129D01*
X272463Y509171D01*
X274129Y510837D01*
X279128D01*
X272463Y524166D02*
X277462D01*
X279128Y525832D01*
X277462Y527498D01*
X279128Y529164D01*
X277462Y530830D01*
X272463D01*
X279128Y535829D02*
Y539161D01*
X277462Y540827D01*
X274129D01*
X272463Y539161D01*
Y535829D01*
X274129Y534163D01*
X277462D01*
X279128Y535829D01*
X272463Y544159D02*
X279128D01*
X275795D01*
X274129Y545826D01*
X272463Y547492D01*
Y549158D01*
X279128Y554156D02*
X269131D01*
X275795D02*
X272463Y559155D01*
X275795Y554156D02*
X279128Y559155D01*
X269131Y574150D02*
X279128D01*
Y579148D01*
X277462Y580814D01*
X275795D01*
X274129D01*
X272463Y579148D01*
Y574150D01*
Y584147D02*
X277462D01*
X279128Y585813D01*
Y590811D01*
X280794D01*
X282460Y589145D01*
Y587479D01*
X279128Y590811D02*
X272463D01*
X985520Y344170D02*
Y349248D01*
Y346709D01*
X970285D01*
X972824Y344170D01*
X304090Y920600D02*
Y910443D01*
X364168Y920600D02*
Y910443D01*
X369247Y915522D02*
X359090D01*
X304090Y1075600D02*
X306629Y1073061D01*
Y1067982D01*
X309168Y1065443D01*
X364090Y1075600D02*
X366629Y1073061D01*
Y1067982D01*
X369168Y1065443D01*
X1474764Y1042697D02*
X1472225Y1040157D01*
Y1035079D01*
X1474764Y1032540D01*
X1484921D01*
X1487460Y1035079D01*
Y1040157D01*
X1484921Y1042697D01*
X1479843D01*
Y1037618D01*
X1487460Y1047775D02*
X1472225D01*
X1487460Y1057932D01*
X1472225D01*
Y1063010D02*
X1487460D01*
Y1070628D01*
X1484921Y1073167D01*
X1474764D01*
X1472225Y1070628D01*
Y1063010D01*
X1479842Y1092540D02*
Y1102697D01*
X1474764Y1097618D02*
X1484921D01*
X1487460Y1107775D02*
Y1112853D01*
Y1110314D01*
X1472225D01*
X1474764Y1107775D01*
Y1120471D02*
X1472225Y1123010D01*
Y1128089D01*
X1474764Y1130628D01*
X1484921D01*
X1487460Y1128089D01*
Y1123010D01*
X1484921Y1120471D01*
X1474764D01*
X1472225Y1135706D02*
X1482382D01*
X1487460Y1140784D01*
X1482382Y1145863D01*
X1472225D01*
X798671Y752522D02*
Y762678D01*
X796132Y765218D01*
X791053D01*
X788514Y762678D01*
Y752522D01*
X791053Y749983D01*
X796132D01*
X793593Y755061D02*
X798671Y749983D01*
X796132D02*
X798671Y752522D01*
X803749D02*
X806288Y749983D01*
X811367D01*
X813906Y752522D01*
Y762678D01*
X811367Y765218D01*
X806288D01*
X803749Y762678D01*
Y760139D01*
X806288Y757600D01*
X813906D01*
X769687Y796383D02*
Y811618D01*
X777304D01*
X779843Y809078D01*
Y804000D01*
X777304Y801461D01*
X769687D01*
X774765D02*
X779843Y796383D01*
X792539D02*
Y811618D01*
X784922Y804000D01*
X795078D01*
X810313Y796383D02*
X800157D01*
X810313Y806539D01*
Y809078D01*
X807774Y811618D01*
X802696D01*
X800157Y809078D01*
X1233675Y1259074D02*
X1231135Y1261613D01*
X1226057D01*
X1223518Y1259074D01*
Y1248917D01*
X1226057Y1246378D01*
X1231135D01*
X1233675Y1248917D01*
X1248910Y1246378D02*
X1238753D01*
X1248910Y1256535D01*
Y1259074D01*
X1246371Y1261613D01*
X1241292D01*
X1238753Y1259074D01*
X1253988D02*
X1256527Y1261613D01*
X1261606D01*
X1264145Y1259074D01*
Y1248917D01*
X1261606Y1246378D01*
X1256527D01*
X1253988Y1248917D01*
Y1259074D01*
X1356103D02*
X1353564Y1261613D01*
X1348485D01*
X1345946Y1259074D01*
Y1248917D01*
X1348485Y1246378D01*
X1353564D01*
X1356103Y1248917D01*
X1361181Y1246378D02*
X1366259D01*
X1363720D01*
Y1261613D01*
X1361181Y1259074D01*
X1373877Y1248917D02*
X1376416Y1246378D01*
X1381494D01*
X1384034Y1248917D01*
Y1259074D01*
X1381494Y1261613D01*
X1376416D01*
X1373877Y1259074D01*
Y1256535D01*
X1376416Y1253996D01*
X1384034D01*
X1044843Y407617D02*
X1039765D01*
X1042304D01*
Y394922D01*
X1039765Y392383D01*
X1037226D01*
X1034687Y394922D01*
X1049922Y392383D02*
Y407617D01*
X1057539D01*
X1060078Y405078D01*
Y400000D01*
X1057539Y397461D01*
X1049922D01*
X1075313Y392383D02*
X1065157D01*
X1075313Y402539D01*
Y405078D01*
X1072774Y407617D01*
X1067696D01*
X1065157Y405078D01*
X982461Y407617D02*
X977383D01*
X979922D01*
Y394922D01*
X977383Y392383D01*
X974843D01*
X972304Y394922D01*
X987539Y405078D02*
X990078Y407617D01*
X995157D01*
X997696Y405078D01*
Y402539D01*
X995157Y400000D01*
X992617D01*
X995157D01*
X997696Y397461D01*
Y394922D01*
X995157Y392383D01*
X990078D01*
X987539Y394922D01*
X1081226Y1194382D02*
Y1209617D01*
X1088843D01*
X1091383Y1207078D01*
Y1202000D01*
X1088843Y1199461D01*
X1081226D01*
X1086304D02*
X1091383Y1194382D01*
X1104078D02*
Y1209617D01*
X1096461Y1202000D01*
X1106618D01*
X1111696Y1194382D02*
X1116774D01*
X1114235D01*
Y1209617D01*
X1111696Y1207078D01*
X830813Y373208D02*
Y370668D01*
X835892Y365590D01*
X840970Y370668D01*
Y373208D01*
X835892Y365590D02*
Y357972D01*
X846048D02*
X851127D01*
X848588D01*
Y373208D01*
X846048Y370668D01*
X390937Y477632D02*
Y492868D01*
X398554D01*
X401093Y490328D01*
Y485250D01*
X398554Y482711D01*
X390937D01*
X396015D02*
X401093Y477632D01*
X413789D02*
Y492868D01*
X406172Y485250D01*
X416328D01*
X421407Y490328D02*
X423946Y492868D01*
X429024D01*
X431563Y490328D01*
Y480172D01*
X429024Y477632D01*
X423946D01*
X421407Y480172D01*
Y490328D01*
X800863Y298328D02*
X798324Y300868D01*
X793245D01*
X790706Y298328D01*
Y288172D01*
X793245Y285632D01*
X798324D01*
X800863Y288172D01*
X805941Y285632D02*
X811020D01*
X808481D01*
Y300868D01*
X805941Y298328D01*
X818637D02*
X821176Y300868D01*
X826255D01*
X828794Y298328D01*
Y295789D01*
X826255Y293250D01*
X828794Y290711D01*
Y288172D01*
X826255Y285632D01*
X821176D01*
X818637Y288172D01*
Y290711D01*
X821176Y293250D01*
X818637Y295789D01*
Y298328D01*
X821176Y293250D02*
X826255D01*
X862563Y298278D02*
X860024Y300818D01*
X854945D01*
X852406Y298278D01*
Y288122D01*
X854945Y285583D01*
X860024D01*
X862563Y288122D01*
X867641Y285583D02*
X872720D01*
X870181D01*
Y300818D01*
X867641Y298278D01*
X880337Y300818D02*
X890494D01*
Y298278D01*
X880337Y288122D01*
Y285583D01*
X739144Y461007D02*
Y448312D01*
X741683Y445773D01*
X746762D01*
X749301Y448312D01*
Y461007D01*
X761997Y445773D02*
Y461007D01*
X754379Y453390D01*
X764536D01*
X502132Y444578D02*
X499593Y447118D01*
X494515D01*
X491976Y444578D01*
Y442039D01*
X494515Y439500D01*
X499593D01*
X502132Y436961D01*
Y434422D01*
X499593Y431883D01*
X494515D01*
X491976Y434422D01*
X507211Y447118D02*
Y431883D01*
X512289Y436961D01*
X517368Y431883D01*
Y447118D01*
X522446Y431883D02*
X527524D01*
X524985D01*
Y447118D01*
X522446Y444578D01*
X452118Y292107D02*
X436883D01*
Y299724D01*
X439422Y302263D01*
X444500D01*
X447039Y299724D01*
Y292107D01*
Y297185D02*
X452118Y302263D01*
X439422Y307342D02*
X436883Y309881D01*
Y314959D01*
X439422Y317498D01*
X441961D01*
X444500Y314959D01*
Y312420D01*
Y314959D01*
X447039Y317498D01*
X449578D01*
X452118Y314959D01*
Y309881D01*
X449578Y307342D01*
Y322577D02*
X452118Y325116D01*
Y330194D01*
X449578Y332733D01*
X439422D01*
X436883Y330194D01*
Y325116D01*
X439422Y322577D01*
X441961D01*
X444500Y325116D01*
Y332733D01*
X495063Y328928D02*
X492524Y331468D01*
X487445D01*
X484906Y328928D01*
Y318772D01*
X487445Y316232D01*
X492524D01*
X495063Y318772D01*
X500141Y316232D02*
X505220D01*
X502680D01*
Y331468D01*
X500141Y328928D01*
X522994Y331468D02*
X517915Y328928D01*
X512837Y323850D01*
Y318772D01*
X515376Y316232D01*
X520455D01*
X522994Y318772D01*
Y321311D01*
X520455Y323850D01*
X512837D01*
X632783Y546828D02*
X630244Y549367D01*
X625165D01*
X622626Y546828D01*
Y536672D01*
X625165Y534132D01*
X630244D01*
X632783Y536672D01*
X637861Y534132D02*
X642940D01*
X640400D01*
Y549367D01*
X637861Y546828D01*
X660714Y549367D02*
X650557D01*
Y541750D01*
X655636Y544289D01*
X658175D01*
X660714Y541750D01*
Y536672D01*
X658175Y534132D01*
X653096D01*
X650557Y536672D01*
X709932Y283213D02*
X707392Y280674D01*
Y275595D01*
X709932Y273056D01*
X720088D01*
X722627Y275595D01*
Y280674D01*
X720088Y283213D01*
X722627Y288291D02*
Y293370D01*
Y290830D01*
X707392D01*
X709932Y288291D01*
X722627Y308605D02*
X707392D01*
X715010Y300987D01*
Y311144D01*
X594362Y283213D02*
X591822Y280674D01*
Y275595D01*
X594362Y273056D01*
X604518D01*
X607057Y275595D01*
Y280674D01*
X604518Y283213D01*
X607057Y288291D02*
Y293370D01*
Y290830D01*
X591822D01*
X594362Y288291D01*
Y300987D02*
X591822Y303526D01*
Y308605D01*
X594362Y311144D01*
X596901D01*
X599440Y308605D01*
Y306066D01*
Y308605D01*
X601979Y311144D01*
X604518D01*
X607057Y308605D01*
Y303526D01*
X604518Y300987D01*
X758942Y303043D02*
X756403Y300504D01*
Y295425D01*
X758942Y292886D01*
X769098D01*
X771637Y295425D01*
Y300504D01*
X769098Y303043D01*
X771637Y308121D02*
Y313200D01*
Y310660D01*
X756403D01*
X758942Y308121D01*
X771637Y330974D02*
Y320817D01*
X761481Y330974D01*
X758942D01*
X756403Y328435D01*
Y323356D01*
X758942Y320817D01*
X652782Y288292D02*
X650242Y285753D01*
Y280674D01*
X652782Y278135D01*
X662938D01*
X665478Y280674D01*
Y285753D01*
X662938Y288292D01*
X665478Y293370D02*
Y298449D01*
Y295910D01*
X650242D01*
X652782Y293370D01*
X665478Y306066D02*
Y311145D01*
Y308605D01*
X650242D01*
X652782Y306066D01*
X1454304Y703118D02*
Y690422D01*
X1456843Y687882D01*
X1461922D01*
X1464461Y690422D01*
Y703118D01*
X1469539Y700578D02*
X1472078Y703118D01*
X1477157D01*
X1479696Y700578D01*
Y698039D01*
X1477157Y695500D01*
X1474617D01*
X1477157D01*
X1479696Y692961D01*
Y690422D01*
X1477157Y687882D01*
X1472078D01*
X1469539Y690422D01*
X533146Y821177D02*
Y808481D01*
X535685Y805942D01*
X540764D01*
X543303Y808481D01*
Y821177D01*
X558538Y805942D02*
X548381D01*
X558538Y816099D01*
Y818638D01*
X555999Y821177D01*
X550920D01*
X548381Y818638D01*
X1204443Y1075818D02*
Y1063122D01*
X1206982Y1060583D01*
X1212061D01*
X1214600Y1063122D01*
Y1075818D01*
X1219678Y1060583D02*
X1224757D01*
X1222218D01*
Y1075818D01*
X1219678Y1073278D01*
X1243327Y571507D02*
X1228092D01*
Y579124D01*
X1230632Y581663D01*
X1235710D01*
X1238249Y579124D01*
Y571507D01*
Y576585D02*
X1243327Y581663D01*
X1230632Y586742D02*
X1228092Y589281D01*
Y594359D01*
X1230632Y596898D01*
X1233171D01*
X1235710Y594359D01*
Y591820D01*
Y594359D01*
X1238249Y596898D01*
X1240788D01*
X1243327Y594359D01*
Y589281D01*
X1240788Y586742D01*
X1228092Y612133D02*
X1230632Y607055D01*
X1235710Y601977D01*
X1240788D01*
X1243327Y604516D01*
Y609594D01*
X1240788Y612133D01*
X1238249D01*
X1235710Y609594D01*
Y601977D01*
X1176018Y572777D02*
X1160782D01*
Y580394D01*
X1163322Y582933D01*
X1168400D01*
X1170939Y580394D01*
Y572777D01*
Y577855D02*
X1176018Y582933D01*
X1163322Y588012D02*
X1160782Y590551D01*
Y595629D01*
X1163322Y598168D01*
X1165861D01*
X1168400Y595629D01*
Y593090D01*
Y595629D01*
X1170939Y598168D01*
X1173478D01*
X1176018Y595629D01*
Y590551D01*
X1173478Y588012D01*
X1176018Y610864D02*
X1160782D01*
X1168400Y603247D01*
Y613403D01*
X1196358Y1197957D02*
X1181123D01*
Y1205574D01*
X1183662Y1208113D01*
X1188740D01*
X1191279Y1205574D01*
Y1197957D01*
Y1203035D02*
X1196358Y1208113D01*
Y1223348D02*
Y1213192D01*
X1186201Y1223348D01*
X1183662D01*
X1181123Y1220809D01*
Y1215731D01*
X1183662Y1213192D01*
X1196358Y1236044D02*
X1181123D01*
X1188740Y1228427D01*
Y1238584D01*
X1132858Y1031586D02*
X1117623D01*
Y1039203D01*
X1120162Y1041742D01*
X1125240D01*
X1127779Y1039203D01*
Y1031586D01*
Y1036664D02*
X1132858Y1041742D01*
Y1056977D02*
Y1046821D01*
X1122701Y1056977D01*
X1120162D01*
X1117623Y1054438D01*
Y1049360D01*
X1120162Y1046821D01*
X1132858Y1062056D02*
Y1067134D01*
Y1064595D01*
X1117623D01*
X1120162Y1062056D01*
X754218Y526467D02*
X738982D01*
Y534084D01*
X741522Y536623D01*
X746600D01*
X749139Y534084D01*
Y526467D01*
Y531545D02*
X754218Y536623D01*
X741522Y541702D02*
X738982Y544241D01*
Y549319D01*
X741522Y551858D01*
X744061D01*
X746600Y549319D01*
Y546780D01*
Y549319D01*
X749139Y551858D01*
X751678D01*
X754218Y549319D01*
Y544241D01*
X751678Y541702D01*
X754218Y567094D02*
Y556937D01*
X744061Y567094D01*
X741522D01*
X738982Y564554D01*
Y559476D01*
X741522Y556937D01*
X959958Y526467D02*
X944722D01*
Y534084D01*
X947262Y536623D01*
X952340D01*
X954879Y534084D01*
Y526467D01*
Y531545D02*
X959958Y536623D01*
Y551858D02*
Y541702D01*
X949801Y551858D01*
X947262D01*
X944722Y549319D01*
Y544241D01*
X947262Y541702D01*
X944722Y567093D02*
X947262Y562015D01*
X952340Y556937D01*
X957418D01*
X959958Y559476D01*
Y564554D01*
X957418Y567093D01*
X954879D01*
X952340Y564554D01*
Y556937D01*
X788508Y525197D02*
X773272D01*
Y532814D01*
X775812Y535353D01*
X780890D01*
X783429Y532814D01*
Y525197D01*
Y530275D02*
X788508Y535353D01*
Y550588D02*
Y540432D01*
X778351Y550588D01*
X775812D01*
X773272Y548049D01*
Y542971D01*
X775812Y540432D01*
X785968Y555667D02*
X788508Y558206D01*
Y563284D01*
X785968Y565823D01*
X775812D01*
X773272Y563284D01*
Y558206D01*
X775812Y555667D01*
X778351D01*
X780890Y558206D01*
Y565823D01*
X1098568Y1031587D02*
X1083333D01*
Y1039204D01*
X1085872Y1041743D01*
X1090950D01*
X1093489Y1039204D01*
Y1031587D01*
Y1036665D02*
X1098568Y1041743D01*
Y1056978D02*
Y1046822D01*
X1088411Y1056978D01*
X1085872D01*
X1083333Y1054439D01*
Y1049361D01*
X1085872Y1046822D01*
Y1062057D02*
X1083333Y1064596D01*
Y1069674D01*
X1085872Y1072214D01*
X1096028D01*
X1098568Y1069674D01*
Y1064596D01*
X1096028Y1062057D01*
X1085872D01*
X1313177Y571507D02*
X1297943D01*
Y579124D01*
X1300482Y581663D01*
X1305560D01*
X1308099Y579124D01*
Y571507D01*
Y576585D02*
X1313177Y581663D01*
X1300482Y586742D02*
X1297943Y589281D01*
Y594359D01*
X1300482Y596898D01*
X1303021D01*
X1305560Y594359D01*
Y591820D01*
Y594359D01*
X1308099Y596898D01*
X1310638D01*
X1313177Y594359D01*
Y589281D01*
X1310638Y586742D01*
X1297943Y612133D02*
Y601977D01*
X1305560D01*
X1303021Y607055D01*
Y609594D01*
X1305560Y612133D01*
X1310638D01*
X1313177Y609594D01*
Y604516D01*
X1310638Y601977D01*
X1209037Y572227D02*
X1193802D01*
Y579844D01*
X1196342Y582383D01*
X1201420D01*
X1203959Y579844D01*
Y572227D01*
Y577305D02*
X1209037Y582383D01*
X1196342Y587462D02*
X1193802Y590001D01*
Y595079D01*
X1196342Y597618D01*
X1198881D01*
X1201420Y595079D01*
Y592540D01*
Y595079D01*
X1203959Y597618D01*
X1206498D01*
X1209037Y595079D01*
Y590001D01*
X1206498Y587462D01*
X1196342Y602697D02*
X1193802Y605236D01*
Y610314D01*
X1196342Y612853D01*
X1198881D01*
X1201420Y610314D01*
X1203959Y612853D01*
X1206498D01*
X1209037Y610314D01*
Y605236D01*
X1206498Y602697D01*
X1203959D01*
X1201420Y605236D01*
X1198881Y602697D01*
X1196342D01*
X1201420Y605236D02*
Y610314D01*
X1280157Y571507D02*
X1264922D01*
Y579124D01*
X1267462Y581663D01*
X1272540D01*
X1275079Y579124D01*
Y571507D01*
Y576585D02*
X1280157Y581663D01*
X1267462Y586742D02*
X1264922Y589281D01*
Y594359D01*
X1267462Y596898D01*
X1270001D01*
X1272540Y594359D01*
Y591820D01*
Y594359D01*
X1275079Y596898D01*
X1277618D01*
X1280157Y594359D01*
Y589281D01*
X1277618Y586742D01*
X1264922Y601977D02*
Y612133D01*
X1267462D01*
X1277618Y601977D01*
X1280157D01*
X1164607Y1031586D02*
X1149372D01*
Y1039204D01*
X1151912Y1041743D01*
X1156990D01*
X1159529Y1039204D01*
Y1031586D01*
Y1036665D02*
X1164607Y1041743D01*
Y1046821D02*
Y1051900D01*
Y1049360D01*
X1149372D01*
X1151912Y1046821D01*
X1162068Y1059517D02*
X1164607Y1062056D01*
Y1067135D01*
X1162068Y1069674D01*
X1151912D01*
X1149372Y1067135D01*
Y1062056D01*
X1151912Y1059517D01*
X1154451D01*
X1156990Y1062056D01*
Y1069674D01*
X1197628Y1031587D02*
X1182393D01*
Y1039204D01*
X1184932Y1041743D01*
X1190010D01*
X1192549Y1039204D01*
Y1031587D01*
Y1036665D02*
X1197628Y1041743D01*
Y1056978D02*
Y1046822D01*
X1187471Y1056978D01*
X1184932D01*
X1182393Y1054439D01*
Y1049361D01*
X1184932Y1046822D01*
X1197628Y1072214D02*
Y1062057D01*
X1187471Y1072214D01*
X1184932D01*
X1182393Y1069674D01*
Y1064596D01*
X1184932Y1062057D01*
X857087Y525197D02*
X841852D01*
Y532814D01*
X844392Y535353D01*
X849470D01*
X852009Y532814D01*
Y525197D01*
Y530275D02*
X857087Y535353D01*
X844392Y540432D02*
X841852Y542971D01*
Y548049D01*
X844392Y550588D01*
X846931D01*
X849470Y548049D01*
Y545510D01*
Y548049D01*
X852009Y550588D01*
X854548D01*
X857087Y548049D01*
Y542971D01*
X854548Y540432D01*
X844392Y555667D02*
X841852Y558206D01*
Y563284D01*
X844392Y565824D01*
X854548D01*
X857087Y563284D01*
Y558206D01*
X854548Y555667D01*
X844392D01*
X822797Y526467D02*
X807562D01*
Y534084D01*
X810102Y536623D01*
X815180D01*
X817719Y534084D01*
Y526467D01*
Y531545D02*
X822797Y536623D01*
Y551858D02*
Y541702D01*
X812641Y551858D01*
X810102D01*
X807562Y549319D01*
Y544241D01*
X810102Y541702D01*
Y556937D02*
X807562Y559476D01*
Y564554D01*
X810102Y567094D01*
X812641D01*
X815180Y564554D01*
X817719Y567094D01*
X820258D01*
X822797Y564554D01*
Y559476D01*
X820258Y556937D01*
X817719D01*
X815180Y559476D01*
X812641Y556937D01*
X810102D01*
X815180Y559476D02*
Y564554D01*
X885187Y817883D02*
Y833118D01*
X892804D01*
X895343Y830578D01*
Y825500D01*
X892804Y822961D01*
X885187D01*
X890265D02*
X895343Y817883D01*
X910578D02*
X900422D01*
X910578Y828039D01*
Y830578D01*
X908039Y833118D01*
X902961D01*
X900422Y830578D01*
X925813Y833118D02*
X915657D01*
Y825500D01*
X920735Y828039D01*
X923274D01*
X925813Y825500D01*
Y820422D01*
X923274Y817883D01*
X918196D01*
X915657Y820422D01*
X1140458Y571507D02*
X1125222D01*
Y579124D01*
X1127762Y581663D01*
X1132840D01*
X1135379Y579124D01*
Y571507D01*
Y576585D02*
X1140458Y581663D01*
X1127762Y586742D02*
X1125222Y589281D01*
Y594359D01*
X1127762Y596898D01*
X1130301D01*
X1132840Y594359D01*
Y591820D01*
Y594359D01*
X1135379Y596898D01*
X1137918D01*
X1140458Y594359D01*
Y589281D01*
X1137918Y586742D01*
X1127762Y601977D02*
X1125222Y604516D01*
Y609594D01*
X1127762Y612133D01*
X1130301D01*
X1132840Y609594D01*
Y607055D01*
Y609594D01*
X1135379Y612133D01*
X1137918D01*
X1140458Y609594D01*
Y604516D01*
X1137918Y601977D01*
X1165878Y1197957D02*
X1150642D01*
Y1205574D01*
X1153182Y1208113D01*
X1158260D01*
X1160799Y1205574D01*
Y1197957D01*
Y1203035D02*
X1165878Y1208113D01*
Y1223348D02*
Y1213192D01*
X1155721Y1223348D01*
X1153182D01*
X1150642Y1220809D01*
Y1215731D01*
X1153182Y1213192D01*
Y1228427D02*
X1150642Y1230966D01*
Y1236044D01*
X1153182Y1238584D01*
X1155721D01*
X1158260Y1236044D01*
Y1233505D01*
Y1236044D01*
X1160799Y1238584D01*
X1163338D01*
X1165878Y1236044D01*
Y1230966D01*
X1163338Y1228427D01*
X891377Y531546D02*
X876142D01*
Y539163D01*
X878682Y541702D01*
X883760D01*
X886299Y539163D01*
Y531546D01*
Y536624D02*
X891377Y541702D01*
X878682Y546781D02*
X876142Y549320D01*
Y554398D01*
X878682Y556937D01*
X881221D01*
X883760Y554398D01*
Y551859D01*
Y554398D01*
X886299Y556937D01*
X888838D01*
X891377Y554398D01*
Y549320D01*
X888838Y546781D01*
X891377Y562016D02*
Y567094D01*
Y564555D01*
X876142D01*
X878682Y562016D01*
X929928Y526137D02*
X914692D01*
Y533754D01*
X917232Y536293D01*
X922310D01*
X924849Y533754D01*
Y526137D01*
Y531215D02*
X929928Y536293D01*
Y551528D02*
Y541372D01*
X919771Y551528D01*
X917232D01*
X914692Y548989D01*
Y543911D01*
X917232Y541372D01*
X914692Y556607D02*
Y566763D01*
X917232D01*
X927388Y556607D01*
X929928D01*
X1477772Y986282D02*
Y1001517D01*
X1485390D01*
X1487929Y998978D01*
Y993900D01*
X1485390Y991360D01*
X1477772D01*
X1482850D02*
X1487929Y986282D01*
X1493007D02*
X1498085D01*
X1495546D01*
Y1001517D01*
X1493007Y998978D01*
X1505703D02*
X1508242Y1001517D01*
X1513320D01*
X1515860Y998978D01*
Y988821D01*
X1513320Y986282D01*
X1508242D01*
X1505703Y988821D01*
Y998978D01*
X398778Y825506D02*
X383542D01*
Y833124D01*
X386082Y835663D01*
X391160D01*
X393699Y833124D01*
Y825506D01*
Y830584D02*
X398778Y835663D01*
Y840741D02*
Y845820D01*
Y843280D01*
X383542D01*
X386082Y840741D01*
X383542Y863594D02*
Y853437D01*
X391160D01*
X388621Y858515D01*
Y861055D01*
X391160Y863594D01*
X396238D01*
X398778Y861055D01*
Y855976D01*
X396238Y853437D01*
X1537956Y813633D02*
Y828867D01*
X1545574D01*
X1548113Y826328D01*
Y821250D01*
X1545574Y818711D01*
X1537956D01*
X1543035D02*
X1548113Y813633D01*
X1553191D02*
X1558270D01*
X1555730D01*
Y828867D01*
X1553191Y826328D01*
X1565887D02*
X1568426Y828867D01*
X1573505D01*
X1576044Y826328D01*
Y823789D01*
X1573505Y821250D01*
X1570966D01*
X1573505D01*
X1576044Y818711D01*
Y816172D01*
X1573505Y813633D01*
X1568426D01*
X1565887Y816172D01*
X601324Y1225843D02*
Y1241077D01*
X608942D01*
X611481Y1238538D01*
Y1233460D01*
X608942Y1230921D01*
X601324D01*
X606403D02*
X611481Y1225843D01*
X626716Y1241077D02*
X616559D01*
Y1233460D01*
X621637Y1235999D01*
X624177D01*
X626716Y1233460D01*
Y1228382D01*
X624177Y1225843D01*
X619098D01*
X616559Y1228382D01*
X1445260Y986282D02*
Y1001517D01*
X1452878D01*
X1455417Y998978D01*
Y993900D01*
X1452878Y991360D01*
X1445260D01*
X1450338D02*
X1455417Y986282D01*
X1460495Y988821D02*
X1463034Y986282D01*
X1468113D01*
X1470652Y988821D01*
Y998978D01*
X1468113Y1001517D01*
X1463034D01*
X1460495Y998978D01*
Y996439D01*
X1463034Y993900D01*
X1470652D01*
X414444Y1066132D02*
Y1081367D01*
X422062D01*
X424601Y1078828D01*
Y1073750D01*
X422062Y1071211D01*
X414444D01*
X419523D02*
X424601Y1066132D01*
X437297D02*
Y1081367D01*
X429679Y1073750D01*
X439836D01*
X1376882Y1020255D02*
X1392118D01*
Y1012637D01*
X1389578Y1010098D01*
X1384500D01*
X1381961Y1012637D01*
Y1020255D01*
Y1015176D02*
X1376882Y1010098D01*
Y1005020D02*
Y999941D01*
Y1002480D01*
X1392118D01*
X1389578Y1005020D01*
X1376882Y992324D02*
Y987245D01*
Y989784D01*
X1392118D01*
X1389578Y992324D01*
X413174Y1095342D02*
Y1110577D01*
X420792D01*
X423331Y1108038D01*
Y1102960D01*
X420792Y1100421D01*
X413174D01*
X418252D02*
X423331Y1095342D01*
X428409Y1108038D02*
X430948Y1110577D01*
X436027D01*
X438566Y1108038D01*
Y1105499D01*
X436027Y1102960D01*
X433488D01*
X436027D01*
X438566Y1100421D01*
Y1097882D01*
X436027Y1095342D01*
X430948D01*
X428409Y1097882D01*
X398778Y543566D02*
X383542D01*
Y551184D01*
X386082Y553723D01*
X391160D01*
X393699Y551184D01*
Y543566D01*
Y548644D02*
X398778Y553723D01*
Y558801D02*
Y563880D01*
Y561340D01*
X383542D01*
X386082Y558801D01*
Y571497D02*
X383542Y574036D01*
Y579115D01*
X386082Y581654D01*
X388621D01*
X391160Y579115D01*
X393699Y581654D01*
X396238D01*
X398778Y579115D01*
Y574036D01*
X396238Y571497D01*
X393699D01*
X391160Y574036D01*
X388621Y571497D01*
X386082D01*
X391160Y574036D02*
Y579115D01*
X875498Y887334D02*
X860263D01*
Y894952D01*
X862802Y897491D01*
X867880D01*
X870419Y894952D01*
Y887334D01*
Y892412D02*
X875498Y897491D01*
X860263Y912726D02*
X862802Y907647D01*
X867880Y902569D01*
X872958D01*
X875498Y905108D01*
Y910187D01*
X872958Y912726D01*
X870419D01*
X867880Y910187D01*
Y902569D01*
X468628Y825506D02*
X453392D01*
Y833124D01*
X455932Y835663D01*
X461010D01*
X463549Y833124D01*
Y825506D01*
Y830584D02*
X468628Y835663D01*
Y840741D02*
Y845820D01*
Y843280D01*
X453392D01*
X455932Y840741D01*
X453392Y863594D02*
X455932Y858515D01*
X461010Y853437D01*
X466088D01*
X468628Y855976D01*
Y861055D01*
X466088Y863594D01*
X463549D01*
X461010Y861055D01*
Y853437D01*
X412910Y1123303D02*
Y1138538D01*
X420527D01*
X423066Y1135999D01*
Y1130920D01*
X420527Y1128381D01*
X412910D01*
X417988D02*
X423066Y1123303D01*
X438301D02*
X428145D01*
X438301Y1133459D01*
Y1135999D01*
X435762Y1138538D01*
X430684D01*
X428145Y1135999D01*
X911058Y888604D02*
X895823D01*
Y896222D01*
X898362Y898761D01*
X903440D01*
X905979Y896222D01*
Y888604D01*
Y893682D02*
X911058Y898761D01*
X895823Y903839D02*
Y913996D01*
X898362D01*
X908518Y903839D01*
X911058D01*
X413173Y1151222D02*
Y1166458D01*
X420791D01*
X423330Y1163918D01*
Y1158840D01*
X420791Y1156301D01*
X413173D01*
X418252D02*
X423330Y1151222D01*
X428408D02*
X433487D01*
X430948D01*
Y1166458D01*
X428408Y1163918D01*
X468628Y543566D02*
X453392D01*
Y551184D01*
X455932Y553723D01*
X461010D01*
X463549Y551184D01*
Y543566D01*
Y548644D02*
X468628Y553723D01*
Y558801D02*
Y563880D01*
Y561340D01*
X453392D01*
X455932Y558801D01*
X453392Y571497D02*
Y581654D01*
X455932D01*
X466088Y571497D01*
X468628D01*
X434338Y825506D02*
X419102D01*
Y833124D01*
X421642Y835663D01*
X426720D01*
X429259Y833124D01*
Y825506D01*
Y830584D02*
X434338Y835663D01*
Y840741D02*
Y845820D01*
Y843280D01*
X419102D01*
X421642Y840741D01*
X434338Y861055D02*
X419102D01*
X426720Y853437D01*
Y863594D01*
X433068Y543566D02*
X417832D01*
Y551184D01*
X420372Y553723D01*
X425450D01*
X427989Y551184D01*
Y543566D01*
Y548644D02*
X433068Y553723D01*
Y558801D02*
Y563880D01*
Y561340D01*
X417832D01*
X420372Y558801D01*
X433068Y581654D02*
Y571497D01*
X422911Y581654D01*
X420372D01*
X417832Y579115D01*
Y574036D01*
X420372Y571497D01*
X945348Y887884D02*
X930113D01*
Y895502D01*
X932652Y898041D01*
X937730D01*
X940269Y895502D01*
Y887884D01*
Y892962D02*
X945348Y898041D01*
X932652Y903119D02*
X930113Y905658D01*
Y910737D01*
X932652Y913276D01*
X935191D01*
X937730Y910737D01*
X940269Y913276D01*
X942808D01*
X945348Y910737D01*
Y905658D01*
X942808Y903119D01*
X940269D01*
X937730Y905658D01*
X935191Y903119D01*
X932652D01*
X937730Y905658D02*
Y910737D01*
X1231382Y813042D02*
Y823198D01*
X1228843Y825738D01*
X1223764D01*
X1221225Y823198D01*
Y813042D01*
X1223764Y810502D01*
X1228843D01*
X1226304Y815581D02*
X1231382Y810502D01*
X1228843D02*
X1231382Y813042D01*
X1236460Y810502D02*
X1241539D01*
X1239000D01*
Y825738D01*
X1236460Y823198D01*
X1249156Y810502D02*
X1254235D01*
X1251695D01*
Y825738D01*
X1249156Y823198D01*
X1273293Y813042D02*
Y823198D01*
X1270754Y825738D01*
X1265675D01*
X1263136Y823198D01*
Y813042D01*
X1265675Y810502D01*
X1270754D01*
X1268214Y815581D02*
X1273293Y810502D01*
X1270754D02*
X1273293Y813042D01*
X1278371Y810502D02*
X1283450D01*
X1280910D01*
Y825738D01*
X1278371Y823198D01*
X1291067D02*
X1293606Y825738D01*
X1298685D01*
X1301224Y823198D01*
Y813042D01*
X1298685Y810502D01*
X1293606D01*
X1291067Y813042D01*
Y823198D01*
X928211Y752522D02*
Y762678D01*
X925672Y765218D01*
X920593D01*
X918054Y762678D01*
Y752522D01*
X920593Y749983D01*
X925672D01*
X923132Y755061D02*
X928211Y749983D01*
X925672D02*
X928211Y752522D01*
X933289Y762678D02*
X935828Y765218D01*
X940907D01*
X943446Y762678D01*
Y760139D01*
X940907Y757600D01*
X943446Y755061D01*
Y752522D01*
X940907Y749983D01*
X935828D01*
X933289Y752522D01*
Y755061D01*
X935828Y757600D01*
X933289Y760139D01*
Y762678D01*
X935828Y757600D02*
X940907D01*
X1325361Y813042D02*
Y823198D01*
X1322822Y825738D01*
X1317743D01*
X1315204Y823198D01*
Y813042D01*
X1317743Y810502D01*
X1322822D01*
X1320282Y815581D02*
X1325361Y810502D01*
X1322822D02*
X1325361Y813042D01*
X1330439Y825738D02*
X1340596D01*
Y823198D01*
X1330439Y813042D01*
Y810502D01*
X843121Y752522D02*
Y762678D01*
X840582Y765218D01*
X835503D01*
X832964Y762678D01*
Y752522D01*
X835503Y749983D01*
X840582D01*
X838043Y755061D02*
X843121Y749983D01*
X840582D02*
X843121Y752522D01*
X858356Y765218D02*
X853278Y762678D01*
X848199Y757600D01*
Y752522D01*
X850738Y749983D01*
X855817D01*
X858356Y752522D01*
Y755061D01*
X855817Y757600D01*
X848199D01*
X885031Y752522D02*
Y762678D01*
X882492Y765218D01*
X877413D01*
X874874Y762678D01*
Y752522D01*
X877413Y749983D01*
X882492D01*
X879952Y755061D02*
X885031Y749983D01*
X882492D02*
X885031Y752522D01*
X900266Y765218D02*
X890109D01*
Y757600D01*
X895188Y760139D01*
X897727D01*
X900266Y757600D01*
Y752522D01*
X897727Y749983D01*
X892648D01*
X890109Y752522D01*
X329181Y699007D02*
Y709164D01*
X326642Y711703D01*
X321563D01*
X319024Y709164D01*
Y699007D01*
X321563Y696468D01*
X326642D01*
X324102Y701546D02*
X329181Y696468D01*
X326642D02*
X329181Y699007D01*
X341877Y696468D02*
Y711703D01*
X334259Y704085D01*
X344416D01*
X1541015Y991361D02*
Y1001518D01*
X1538475Y1004057D01*
X1533397D01*
X1530858Y1001518D01*
Y991361D01*
X1533397Y988822D01*
X1538475D01*
X1535936Y993900D02*
X1541015Y988822D01*
X1538475D02*
X1541015Y991361D01*
X1546093Y1001518D02*
X1548632Y1004057D01*
X1553711D01*
X1556250Y1001518D01*
Y998979D01*
X1553711Y996440D01*
X1551171D01*
X1553711D01*
X1556250Y993900D01*
Y991361D01*
X1553711Y988822D01*
X1548632D01*
X1546093Y991361D01*
X958211Y1113172D02*
Y1123328D01*
X955672Y1125867D01*
X950593D01*
X948054Y1123328D01*
Y1113172D01*
X950593Y1110632D01*
X955672D01*
X953132Y1115711D02*
X958211Y1110632D01*
X955672D02*
X958211Y1113172D01*
X973446Y1110632D02*
X963289D01*
X973446Y1120789D01*
Y1123328D01*
X970907Y1125867D01*
X965828D01*
X963289Y1123328D01*
X1003250Y1113172D02*
Y1123328D01*
X1000711Y1125867D01*
X995632D01*
X993093Y1123328D01*
Y1113172D01*
X995632Y1110632D01*
X1000711D01*
X998172Y1115711D02*
X1003250Y1110632D01*
X1000711D02*
X1003250Y1113172D01*
X1008328Y1110632D02*
X1013407D01*
X1010868D01*
Y1125867D01*
X1008328Y1123328D01*
X1494687Y1274883D02*
Y1290117D01*
X1499765Y1285039D01*
X1504843Y1290117D01*
Y1274883D01*
X1509922Y1290117D02*
Y1274883D01*
Y1282500D01*
X1520078D01*
Y1290117D01*
Y1274883D01*
X1532774D02*
Y1290117D01*
X1525157Y1282500D01*
X1535313D01*
X1542187Y262383D02*
Y277617D01*
X1547265Y272539D01*
X1552343Y277617D01*
Y262383D01*
X1557422Y277617D02*
Y262383D01*
Y270000D01*
X1567578D01*
Y277617D01*
Y262383D01*
X1572657Y275078D02*
X1575196Y277617D01*
X1580274D01*
X1582813Y275078D01*
Y272539D01*
X1580274Y270000D01*
X1577735D01*
X1580274D01*
X1582813Y267461D01*
Y264922D01*
X1580274Y262383D01*
X1575196D01*
X1572657Y264922D01*
X385117Y299687D02*
X369883D01*
X374961Y304765D01*
X369883Y309843D01*
X385117D01*
X369883Y314922D02*
X385117D01*
X377500D01*
Y325078D01*
X369883D01*
X385117D01*
Y340313D02*
Y330157D01*
X374961Y340313D01*
X372422D01*
X369883Y337774D01*
Y332696D01*
X372422Y330157D01*
X455936Y1209043D02*
Y1224277D01*
X461014Y1219199D01*
X466092Y1224277D01*
Y1209043D01*
X471171Y1224277D02*
Y1209043D01*
Y1216660D01*
X481328D01*
Y1224277D01*
Y1209043D01*
X486406D02*
X491484D01*
X488945D01*
Y1224277D01*
X486406Y1221738D01*
X331472Y820423D02*
Y815344D01*
Y817883D01*
X344168D01*
X346707Y815344D01*
Y812805D01*
X344168Y810266D01*
X346707Y825501D02*
X331472D01*
Y833118D01*
X334012Y835658D01*
X339090D01*
X341629Y833118D01*
Y825501D01*
X346707Y840736D02*
Y845814D01*
Y843275D01*
X331472D01*
X334012Y840736D01*
X1511461Y1181618D02*
X1506382D01*
X1508922D01*
Y1168922D01*
X1506382Y1166383D01*
X1503843D01*
X1501304Y1168922D01*
X1526696Y1166383D02*
X1516539D01*
X1526696Y1176539D01*
Y1179078D01*
X1524157Y1181618D01*
X1519078D01*
X1516539Y1179078D01*
X310000Y1237617D02*
X304922D01*
X307461D01*
Y1224922D01*
X304922Y1222383D01*
X302383D01*
X299843Y1224922D01*
X315078Y1222383D02*
X320157D01*
X317618D01*
Y1237617D01*
X315078Y1235078D01*
X1457304Y854287D02*
Y839052D01*
X1464922D01*
X1467461Y841592D01*
Y851748D01*
X1464922Y854287D01*
X1457304D01*
X1482696D02*
X1472539D01*
Y846670D01*
X1477617Y849209D01*
X1480157D01*
X1482696Y846670D01*
Y841592D01*
X1480157Y839052D01*
X1475078D01*
X1472539Y841592D01*
X964382Y887644D02*
X979617D01*
Y895262D01*
X977078Y897801D01*
X966922D01*
X964382Y895262D01*
Y887644D01*
X979617Y910497D02*
X964382D01*
X972000Y902879D01*
Y913036D01*
X1002383Y887644D02*
X1017617D01*
Y895262D01*
X1015078Y897801D01*
X1004922D01*
X1002383Y895262D01*
Y887644D01*
X1004922Y902879D02*
X1002383Y905418D01*
Y910497D01*
X1004922Y913036D01*
X1007461D01*
X1010000Y910497D01*
Y907958D01*
Y910497D01*
X1012539Y913036D01*
X1015078D01*
X1017617Y910497D01*
Y905418D01*
X1015078Y902879D01*
X722574Y1242097D02*
Y1226862D01*
X730192D01*
X732731Y1229402D01*
Y1239558D01*
X730192Y1242097D01*
X722574D01*
X747966Y1226862D02*
X737809D01*
X747966Y1237019D01*
Y1239558D01*
X745427Y1242097D01*
X740348D01*
X737809Y1239558D01*
X272343Y1077617D02*
Y1062383D01*
X279961D01*
X282500Y1064922D01*
Y1075078D01*
X279961Y1077617D01*
X272343D01*
X287578Y1062383D02*
X292657D01*
X290118D01*
Y1077617D01*
X287578Y1075078D01*
X1116113Y850078D02*
X1113574Y852617D01*
X1108495D01*
X1105956Y850078D01*
Y839922D01*
X1108495Y837383D01*
X1113574D01*
X1116113Y839922D01*
X1121191Y837383D02*
X1126270D01*
X1123730D01*
Y852617D01*
X1121191Y850078D01*
X1133887D02*
X1136426Y852617D01*
X1141505D01*
X1144044Y850078D01*
Y839922D01*
X1141505Y837383D01*
X1136426D01*
X1133887Y839922D01*
Y850078D01*
X727422Y719961D02*
X724883Y717422D01*
Y712343D01*
X727422Y709804D01*
X737578D01*
X740117Y712343D01*
Y717422D01*
X737578Y719961D01*
Y725039D02*
X740117Y727578D01*
Y732657D01*
X737578Y735196D01*
X727422D01*
X724883Y732657D01*
Y727578D01*
X727422Y725039D01*
X729961D01*
X732500Y727578D01*
Y735196D01*
X857568Y1087059D02*
X860107Y1089598D01*
Y1094677D01*
X857568Y1097216D01*
X847412D01*
X844873Y1094677D01*
Y1089598D01*
X847412Y1087059D01*
X857568Y1081981D02*
X860107Y1079442D01*
Y1074363D01*
X857568Y1071824D01*
X855029D01*
X852490Y1074363D01*
X849951Y1071824D01*
X847412D01*
X844873Y1074363D01*
Y1079442D01*
X847412Y1081981D01*
X849951D01*
X852490Y1079442D01*
X855029Y1081981D01*
X857568D01*
X852490Y1079442D02*
Y1074363D01*
X952461Y1248828D02*
X949922Y1251367D01*
X944843D01*
X942304Y1248828D01*
Y1238672D01*
X944843Y1236133D01*
X949922D01*
X952461Y1238672D01*
X957539Y1251367D02*
X967696D01*
Y1248828D01*
X957539Y1238672D01*
Y1236133D01*
X864961Y1248578D02*
X862422Y1251117D01*
X857343D01*
X854804Y1248578D01*
Y1238422D01*
X857343Y1235882D01*
X862422D01*
X864961Y1238422D01*
X880196Y1251117D02*
X875117Y1248578D01*
X870039Y1243500D01*
Y1238422D01*
X872578Y1235882D01*
X877657D01*
X880196Y1238422D01*
Y1240961D01*
X877657Y1243500D01*
X870039D01*
X569961Y1042578D02*
X567422Y1045117D01*
X562343D01*
X559804Y1042578D01*
Y1032422D01*
X562343Y1029883D01*
X567422D01*
X569961Y1032422D01*
X585196Y1045117D02*
X575039D01*
Y1037500D01*
X580117Y1040039D01*
X582657D01*
X585196Y1037500D01*
Y1032422D01*
X582657Y1029883D01*
X577578D01*
X575039Y1032422D01*
X694961Y1042578D02*
X692422Y1045117D01*
X687343D01*
X684804Y1042578D01*
Y1032422D01*
X687343Y1029883D01*
X692422D01*
X694961Y1032422D01*
X707657Y1029883D02*
Y1045117D01*
X700039Y1037500D01*
X710196D01*
X694961Y1170078D02*
X692422Y1172617D01*
X687343D01*
X684804Y1170078D01*
Y1159922D01*
X687343Y1157383D01*
X692422D01*
X694961Y1159922D01*
X700039Y1170078D02*
X702578Y1172617D01*
X707657D01*
X710196Y1170078D01*
Y1167539D01*
X707657Y1165000D01*
X705117D01*
X707657D01*
X710196Y1162461D01*
Y1159922D01*
X707657Y1157383D01*
X702578D01*
X700039Y1159922D01*
X447461Y1045078D02*
X444922Y1047617D01*
X439843D01*
X437304Y1045078D01*
Y1034922D01*
X439843Y1032383D01*
X444922D01*
X447461Y1034922D01*
X462696Y1032383D02*
X452539D01*
X462696Y1042539D01*
Y1045078D01*
X460157Y1047617D01*
X455078D01*
X452539Y1045078D01*
X567500Y1172578D02*
X564961Y1175117D01*
X559883D01*
X557343Y1172578D01*
Y1162422D01*
X559883Y1159883D01*
X564961D01*
X567500Y1162422D01*
X572578Y1159883D02*
X577657D01*
X575118D01*
Y1175117D01*
X572578Y1172578D01*
D15*
X1039114Y479806D02*
Y477267D01*
Y478536D01*
X1046732D01*
X1045462Y479806D01*
X320294Y783844D02*
X322833D01*
X321564D01*
Y791461D01*
X320294Y790192D01*
D16*
X1263158Y458152D02*
X1256494Y464816D01*
X1243165D01*
X1236500Y458152D01*
Y451487D01*
X1243165Y444823D01*
X1256494D01*
X1263158Y438158D01*
Y431493D01*
X1256494Y424829D01*
X1243165D01*
X1236500Y431493D01*
X1276487Y451487D02*
Y431493D01*
X1283152Y424829D01*
X1303145D01*
Y451487D01*
X1316474Y411500D02*
Y451487D01*
X1336468D01*
X1343132Y444823D01*
Y431493D01*
X1336468Y424829D01*
X1316474D01*
X1356461Y411500D02*
Y451487D01*
X1376455D01*
X1383119Y444823D01*
Y431493D01*
X1376455Y424829D01*
X1356461D01*
X1396448D02*
X1409777D01*
X1403113D01*
Y464816D01*
X1396448D01*
X1429771Y451487D02*
Y431493D01*
X1436435Y424829D01*
X1456429D01*
Y418164D01*
X1449764Y411500D01*
X1443100D01*
X1456429Y424829D02*
Y451487D01*
D17*
X1115500Y525487D02*
Y485500D01*
X1142158D01*
X1155487D02*
X1168816D01*
X1162151D01*
Y512158D01*
X1155487D01*
X1188810Y485500D02*
Y512158D01*
X1208803D01*
X1215468Y505494D01*
Y485500D01*
X1248790D02*
X1235461D01*
X1228797Y492164D01*
Y505494D01*
X1235461Y512158D01*
X1248790D01*
X1255455Y505494D01*
Y498829D01*
X1228797D01*
X1275448Y512158D02*
X1288777D01*
X1295442Y505494D01*
Y485500D01*
X1275448D01*
X1268784Y492164D01*
X1275448Y498829D01*
X1295442D01*
X1308771Y512158D02*
Y485500D01*
Y498829D01*
X1315435Y505494D01*
X1322100Y512158D01*
X1328764D01*
X1388745Y485500D02*
Y525487D01*
X1408739D01*
X1415403Y518823D01*
Y505494D01*
X1408739Y498829D01*
X1388745D01*
X1435397Y485500D02*
X1448726D01*
X1455390Y492164D01*
Y505494D01*
X1448726Y512158D01*
X1435397D01*
X1428732Y505494D01*
Y492164D01*
X1435397Y485500D01*
X1468719Y512158D02*
Y492164D01*
X1475384Y485500D01*
X1482048Y492164D01*
X1488713Y485500D01*
X1495377Y492164D01*
Y512158D01*
X1528700Y485500D02*
X1515371D01*
X1508706Y492164D01*
Y505494D01*
X1515371Y512158D01*
X1528700D01*
X1535364Y505494D01*
Y498829D01*
X1508706D01*
X1548693Y512158D02*
Y485500D01*
Y498829D01*
X1555358Y505494D01*
X1562022Y512158D01*
X1568687D01*
D18*
X1570515Y1060867D02*
Y1055789D01*
X1573054Y1053250D01*
X1583211D01*
X1585750Y1055789D01*
Y1060867D01*
X1583211Y1063407D01*
X1573054D01*
X1570515Y1060867D01*
Y1068485D02*
X1583211D01*
X1585750Y1071024D01*
Y1076103D01*
X1583211Y1078642D01*
X1570515D01*
Y1083720D02*
Y1093877D01*
Y1088798D01*
X1585750D01*
Y1098955D02*
X1570515D01*
Y1106573D01*
X1573054Y1109112D01*
X1578132D01*
X1580672Y1106573D01*
Y1098955D01*
X1570515Y1114190D02*
X1583211D01*
X1585750Y1116729D01*
Y1121808D01*
X1583211Y1124347D01*
X1570515D01*
Y1129425D02*
Y1139582D01*
Y1134504D01*
X1585750D01*
M02*
