M48
;Layer_Color=9474304
;FILE_FORMAT=4:4
METRIC,LZ
;TYPE=PLATED
T1F00S00C0.3000
T2F00S00C0.7000
T3F00S00C0.8000
T4F00S00C0.9000
T5F00S00C1.0000
T6F00S00C1.1000
T7F00S00C1.2000
T8F00S00C1.5000
T9F00S00C2.0000
T10F00S00C2.2000
T11F00S00C3.5000
%
T01
X0115Y00663
X00644Y005775
X00756Y00864
X00993Y0081625
X01079
X01096Y00801
X0101875Y009045
X01209Y00839
X01225Y01
X01216Y01137
X01385Y00954
T02
X0048919Y0029718
X0051919
X0076275Y00349
Y00379
X0079425Y0032125
X0082425
X0085621Y0032114
X0088621
X007085Y0054175
X006785
X0075676Y0070577
Y0073577
T03
X0124027Y0076672
Y0077972
Y0079272
X0128345Y0079302
Y0078002
Y0076702
X0132663
Y0078002
Y0079302
X0093329Y0073407
Y0072107
Y0070807
X0089011
Y0072107
Y0073407
X0084693
Y0072107
Y0070807
X0080375
Y0072107
Y0073407
X00339Y0067725
Y0066425
Y0065125
X0096313Y0106961
Y0108261
Y0109561
X0100631
Y0108261
Y0106961
T04
X0060071Y0035306
Y0037306
X0065786
Y0035306
X0071501Y0035322
Y0037322
X0081483Y0036559
X0086383
X0048786Y0107502
Y0110296
Y011309
Y0115884
X0045786
Y011309
Y0110296
Y0107502
X0088075Y0108325
X0090075
X0151475Y0085275
X0154475
T05
X0048677Y0035358
X0053177
Y0041858
X0048677
T06
X0044704Y0035124
X0098044Y0036703
X0100584
X0103124
X0105664
X0120142Y0062882
X0123571
X0127
X0130429
Y0071882
X0127
X0123571
X0120142
X0116713Y0071865
X0113284
X011625Y0077
X0116713Y0062865
X0113284
X0095234Y0058433
X009185Y00584
X0088376Y0058433
X0084947
X0081518
Y0067433
X0084947
X0088376
X009185Y00674
X0095234Y0067433
X0091821Y0049022
X0089281
X0086741
X0084201
X0081661
Y0041402
X0084201
X0086741
X0089281
X0091821
X009906Y0043561
X01016
X010414
Y0046101
X01016
X009906
X0079121Y0049022
X0076581
X0074041
X0071501
X0068961
X0066421
X0063881
X0061341
X0058801
X005425Y0048425
X004525
X0044704Y0044124
X0058801Y0041402
X0061341
X0063881
X0066421
X0068961
X0071501
X0074041
X0076581
X0079121
X0078089Y0058433
X007466Y0058433
Y0067433
X0078089Y0067433
X006231Y006746
Y006492
Y006238
Y007
Y007254
Y007508
Y007762
X00694Y00775
X005469Y007762
Y007508
Y007254
Y007
Y006746
Y006492
Y006238
X0045974Y0059889
X0042545Y0059889
Y0068889
Y0071573
X0045974Y0071573
Y0068889
X0039116Y0068889
Y0071573
X0033909Y0073533
Y0076073
Y0078613
X0039116Y0059889
Y0080573
X0042545Y0080573
X0045974Y0080573
X004875Y0095
Y01
X0061
Y0095
X00735
Y01
Y010775
Y011275
X0061
Y010775
X00694Y00825
X00744Y008
X00863Y00798
X00953
X0093646Y0092924
X0090217
X0086788
Y0101924
X0090217
X0093646
X00972Y01019
X0101
X0109095Y0101689
X0112397Y0101689
X0115699
X0119001
Y0109326
X0115699Y0109326
X01125Y01121
X01075
X011Y01171
X0115699Y0118326
X0119001Y0118326
X009825Y0116875
X008925Y011685
X00972Y00929
X0101
X0109095Y0092689
X0112397Y0092689
X0115699
X0119001
X011625Y00805
X01252Y0092975
Y0095515
Y0098055
Y0100595
Y0103135
Y0105675
Y0108215
X013282
Y0105675
Y0103135
Y0100595
Y0098055
Y0095515
Y0092975
X01457Y0096975
X014895
Y0087975
X01457
X01425Y0082
X01515
X0139825Y01159
X0127575
Y01209
X0139825
X009825Y0120375
X008925Y012035
X00779Y01204
X00689
X0065775Y0120425
X0056775
T07
X0154775Y00903
Y009284
Y009538
T08
X014095Y006205
X015295
Y007425
X014695Y007625
X014095Y007425
T09
X0141325Y0089525
Y0109525
T10
X0030655Y0096314
X0036655
Y0102314
X0030655
X0031Y01125
Y01175
X01527Y01123
Y01063
T11
X0032893Y003429
X0151Y0033
X0153Y0123
X0040894Y0121412
M30
